<svg width="33" height="32" viewBox="0 0 33 32" fill="none" xmlns="http://www.w3.org/2000/svg">
<g clip-path="url(#clip0_2805_72289)">
<path d="M30.7336 5.65512e-08H2.26489C1.29004 0.000488338 0.499756 0.79126 0.5 1.76636V30.2351C0.500488 31.21 1.29126 32.0002 2.26636 32H30.7336C31.709 32.0002 32.4998 31.2097 32.5 30.2344C32.5 30.2341 32.5 30.2339 32.5 30.2336V1.76489C32.4995 0.790039 31.7087 -0.000244084 30.7336 5.65512e-08Z" fill="#4267B2"/>
<path d="M22.5938 32.0002V19.6252H26.7656L27.3906 14.7815H22.5938V11.6965C22.5938 10.2974 22.9822 9.34399 24.9885 9.34399H27.5312V5.02344C27.0889 4.9646 25.571 4.83301 23.8049 4.83301C20.1174 4.83301 17.5938 7.08301 17.5938 11.2168V14.7815H13.4375V19.6252H17.5938V32.0002H22.5938Z" fill="white"/>
</g>
<defs>
<clipPath id="clip0_2805_72289">
<rect width="32" height="32" fill="white" transform="translate(0.5)"/>
</clipPath>
</defs>
</svg>
