<svg width="32" height="32" viewBox="0 0 32 32" fill="none" xmlns="http://www.w3.org/2000/svg">
<g clip-path="url(#clip0_2805_72329)">
<path d="M0.743392 32C0.563705 32 0.3889 31.929 0.259261 31.7979C0.0883629 31.625 0.022445 31.374 0.086654 31.1394L2.16698 23.5427C0.87181 21.2007 0.188949 18.5513 0.189925 15.8618C0.193588 7.11548 7.31126 0 16.0569 0C20.2988 0.00170899 24.2847 1.65405 27.2805 4.6521C30.2759 7.65039 31.9248 11.636 31.9236 15.8745C31.9197 24.6211 24.802 31.7371 16.0569 31.7371C16.0569 31.7371 16.0503 31.7371 16.05 31.7371C13.4956 31.7361 10.9631 31.1135 8.70824 29.9343L0.916 31.9778C0.858871 31.9927 0.800765 32 0.743392 32Z" fill="#E5E5E5"/>
<path d="M0.740234 31.3154L2.89453 23.4485C1.56567 21.146 0.866699 18.5342 0.867676 15.8584C0.871094 7.48755 7.68311 0.677246 16.0537 0.677246C20.1157 0.678955 23.9285 2.26001 26.7957 5.12964C29.6626 7.99927 31.241 11.8137 31.2395 15.8706C31.2358 24.2412 24.4229 31.0525 16.0537 31.0525C16.0532 31.0525 16.054 31.0525 16.0537 31.0525H16.0471C13.5056 31.0515 11.0085 30.4141 8.79053 29.2043L0.740234 31.3154ZM9.16333 26.4561L9.62451 26.7292C11.562 27.8792 13.7834 28.4873 16.0488 28.4885H16.0537C23.0103 28.4885 28.6724 22.8274 28.6753 15.8696C28.6765 12.4978 27.365 9.32715 24.9819 6.94214C22.5986 4.55713 19.4299 3.24292 16.0583 3.24146C9.09619 3.24146 3.43433 8.90186 3.43164 15.8594C3.43066 18.2437 4.09766 20.5654 5.36133 22.5747L5.66162 23.0522L4.38623 27.7085L9.16333 26.4561Z" fill="white"/>
<path d="M1.27051 30.7861L3.35034 23.1912C2.06714 20.9685 1.39258 18.4468 1.39331 15.864C1.39648 7.78296 7.9729 1.2085 16.0532 1.2085C19.9751 1.21021 23.656 2.73657 26.4233 5.50684C29.1914 8.2771 30.7148 11.9595 30.7134 15.8755C30.71 23.9568 24.1333 30.532 16.054 30.532C16.0532 30.532 16.0542 30.532 16.054 30.532H16.0474C13.594 30.531 11.1831 29.9153 9.04199 28.7483L1.27051 30.7861Z" fill="#64B161"/>
<path d="M0.740234 31.3154L2.89453 23.4485C1.56567 21.146 0.866699 18.5342 0.867676 15.8584C0.871094 7.48755 7.68311 0.677246 16.0537 0.677246C20.1157 0.678955 23.9285 2.26001 26.7957 5.12964C29.6626 7.99927 31.241 11.8137 31.2395 15.8706C31.2358 24.2412 24.4229 31.0525 16.0537 31.0525C16.0532 31.0525 16.054 31.0525 16.0537 31.0525H16.0471C13.5056 31.0515 11.0085 30.4141 8.79053 29.2043L0.740234 31.3154ZM9.16333 26.4561L9.62451 26.7292C11.562 27.8792 13.7834 28.4873 16.0488 28.4885H16.0537C23.0103 28.4885 28.6724 22.8274 28.6753 15.8696C28.6765 12.4978 27.365 9.32715 24.9819 6.94214C22.5986 4.55713 19.4299 3.24292 16.0583 3.24146C9.09619 3.24146 3.43433 8.90186 3.43164 15.8594C3.43066 18.2437 4.09766 20.5654 5.36133 22.5747L5.66162 23.0522L4.38623 27.7085L9.16333 26.4561Z" fill="white"/>
<path fill-rule="evenodd" clip-rule="evenodd" d="M12.2551 9.50879C11.9709 8.87696 11.6716 8.86426 11.4011 8.85328C11.1799 8.84375 10.9267 8.84424 10.674 8.84424C10.4211 8.84424 10.01 8.93946 9.66234 9.3191C9.31444 9.69873 8.33398 10.6167 8.33398 12.4836C8.33398 14.3508 9.69383 16.1548 9.88353 16.4082C10.0732 16.6614 12.5085 20.615 16.3652 22.136C19.5704 23.4002 20.2225 23.1487 20.9183 23.0855C21.6141 23.0222 23.1632 22.1675 23.4793 21.2815C23.7957 20.3955 23.7957 19.6362 23.7008 19.4773C23.6058 19.3193 23.3529 19.2244 22.9735 19.0347C22.5941 18.845 20.7286 17.9268 20.3807 17.8003C20.0328 17.6736 19.7799 17.6106 19.527 17.9905C19.2738 18.3699 18.5473 19.2244 18.3258 19.4773C18.1044 19.731 17.883 19.7627 17.5036 19.5728C17.1242 19.3826 15.902 18.9822 14.4523 17.6895C13.3244 16.6838 12.5627 15.4417 12.3413 15.0618C12.1201 14.6824 12.3376 14.4949 12.508 14.2876C12.8149 13.9143 13.3298 13.2432 13.4562 12.9902C13.5827 12.7368 13.5195 12.5154 13.4248 12.3254C13.3298 12.1357 12.5922 10.2593 12.2551 9.50879Z" fill="white"/>
</g>
<defs>
<clipPath id="clip0_2805_72329">
<rect width="32" height="32" fill="white"/>
</clipPath>
</defs>
</svg>
