<svg width="33" height="32" viewBox="0 0 33 32" fill="none" xmlns="http://www.w3.org/2000/svg">
<g clip-path="url(#clip0_2805_72298)">
<path d="M1.24339 32C1.0637 32 0.8889 31.929 0.759261 31.7979C0.588363 31.625 0.522445 31.374 0.586654 31.1394L2.66698 23.5427C1.37181 21.2007 0.688949 18.5513 0.689925 15.8618C0.693588 7.11548 7.81126 0 16.5569 0C20.7988 0.00170899 24.7847 1.65405 27.7805 4.6521C30.7759 7.65039 32.4248 11.636 32.4236 15.8745C32.4197 24.6211 25.302 31.7371 16.5569 31.7371C16.5569 31.7371 16.5503 31.7371 16.55 31.7371C13.9956 31.7361 11.4631 31.1135 9.20824 29.9343L1.416 31.9778C1.35887 31.9927 1.30077 32 1.24339 32Z" fill="#E5E5E5"/>
<path d="M1.24023 31.3154L3.39453 23.4485C2.06567 21.146 1.3667 18.5342 1.36768 15.8584C1.37109 7.48755 8.18311 0.677246 16.5537 0.677246C20.6157 0.678955 24.4285 2.26001 27.2957 5.12964C30.1626 7.99927 31.741 11.8137 31.7395 15.8706C31.7358 24.2412 24.9229 31.0525 16.5537 31.0525C16.5532 31.0525 16.554 31.0525 16.5537 31.0525H16.5471C14.0056 31.0515 11.5085 30.4141 9.29053 29.2043L1.24023 31.3154ZM9.66333 26.4561L10.1245 26.7292C12.062 27.8792 14.2834 28.4873 16.5488 28.4885H16.5537C23.5103 28.4885 29.1724 22.8274 29.1753 15.8696C29.1765 12.4978 27.865 9.32715 25.4819 6.94214C23.0986 4.55713 19.9299 3.24292 16.5583 3.24146C9.59619 3.24146 3.93433 8.90186 3.93164 15.8594C3.93066 18.2437 4.59766 20.5654 5.86133 22.5747L6.16162 23.0522L4.88623 27.7085L9.66333 26.4561Z" fill="white"/>
<path d="M1.77051 30.7861L3.85034 23.1912C2.56714 20.9685 1.89258 18.4468 1.89331 15.864C1.89648 7.78296 8.4729 1.2085 16.5532 1.2085C20.4751 1.21021 24.156 2.73657 26.9233 5.50684C29.6914 8.2771 31.2148 11.9595 31.2134 15.8755C31.21 23.9568 24.6333 30.532 16.554 30.532C16.5532 30.532 16.5542 30.532 16.554 30.532H16.5474C14.094 30.531 11.6831 29.9153 9.54199 28.7483L1.77051 30.7861Z" fill="#64B161"/>
<path d="M1.24023 31.3154L3.39453 23.4485C2.06567 21.146 1.3667 18.5342 1.36768 15.8584C1.37109 7.48755 8.18311 0.677246 16.5537 0.677246C20.6157 0.678955 24.4285 2.26001 27.2957 5.12964C30.1626 7.99927 31.741 11.8137 31.7395 15.8706C31.7358 24.2412 24.9229 31.0525 16.5537 31.0525C16.5532 31.0525 16.554 31.0525 16.5537 31.0525H16.5471C14.0056 31.0515 11.5085 30.4141 9.29053 29.2043L1.24023 31.3154ZM9.66333 26.4561L10.1245 26.7292C12.062 27.8792 14.2834 28.4873 16.5488 28.4885H16.5537C23.5103 28.4885 29.1724 22.8274 29.1753 15.8696C29.1765 12.4978 27.865 9.32715 25.4819 6.94214C23.0986 4.55713 19.9299 3.24292 16.5583 3.24146C9.59619 3.24146 3.93433 8.90186 3.93164 15.8594C3.93066 18.2437 4.59766 20.5654 5.86133 22.5747L6.16162 23.0522L4.88623 27.7085L9.66333 26.4561Z" fill="white"/>
<path fill-rule="evenodd" clip-rule="evenodd" d="M12.7551 9.50879C12.4709 8.87696 12.1716 8.86426 11.9011 8.85328C11.6799 8.84375 11.4267 8.84424 11.174 8.84424C10.9211 8.84424 10.51 8.93946 10.1623 9.3191C9.81444 9.69873 8.83398 10.6167 8.83398 12.4836C8.83398 14.3508 10.1938 16.1548 10.3835 16.4082C10.5732 16.6614 13.0085 20.615 16.8652 22.136C20.0704 23.4002 20.7225 23.1487 21.4183 23.0855C22.1141 23.0222 23.6632 22.1675 23.9793 21.2815C24.2957 20.3955 24.2957 19.6362 24.2008 19.4773C24.1058 19.3193 23.8529 19.2244 23.4735 19.0347C23.0941 18.845 21.2286 17.9268 20.8807 17.8003C20.5328 17.6736 20.2799 17.6106 20.027 17.9905C19.7738 18.3699 19.0473 19.2244 18.8258 19.4773C18.6044 19.731 18.383 19.7627 18.0036 19.5728C17.6242 19.3826 16.402 18.9822 14.9523 17.6895C13.8244 16.6838 13.0627 15.4417 12.8413 15.0618C12.6201 14.6824 12.8376 14.4949 13.008 14.2876C13.3149 13.9143 13.8298 13.2432 13.9562 12.9902C14.0827 12.7368 14.0195 12.5154 13.9248 12.3254C13.8298 12.1357 13.0922 10.2593 12.7551 9.50879Z" fill="white"/>
</g>
<defs>
<clipPath id="clip0_2805_72298">
<rect width="32" height="32" fill="white" transform="translate(0.5)"/>
</clipPath>
</defs>
</svg>
