<svg width="33" height="32" viewBox="0 0 33 32" fill="none" xmlns="http://www.w3.org/2000/svg">
<g clip-path="url(#clip0_2805_72294)">
<path d="M32.4038 9.40332C32.3259 7.7002 32.0554 6.53711 31.6599 5.51953C31.2583 4.4519 30.6284 3.48486 29.8145 2.68555C29.0154 1.87158 28.0481 1.24146 26.9805 0.8396C25.9626 0.444336 24.7998 0.174072 23.0967 0.0966797C21.3904 0.0185547 20.8452 0 16.5 0C12.1548 0 11.6096 0.0185547 9.90332 0.0961914C8.2002 0.174072 7.03735 0.44458 6.01953 0.840088C4.9519 1.2417 3.98486 1.87158 3.18555 2.68555C2.37158 3.48462 1.74146 4.45166 1.3396 5.51929C0.944336 6.53711 0.674072 7.7002 0.59668 9.40308C0.518555 11.1096 0.5 11.6545 0.5 15.9998C0.5 20.3452 0.518555 20.8904 0.59668 22.5967C0.674316 24.2996 0.944824 25.4626 1.34033 26.4805C1.74194 27.5479 2.37183 28.5151 3.18579 29.3142C3.98486 30.1282 4.95215 30.7581 6.01978 31.1597C7.03735 31.5554 8.20044 31.8257 9.90356 31.9036C11.6101 31.9814 12.155 31.9998 16.5002 31.9998C20.8455 31.9998 21.3906 31.9814 23.0969 31.9036C24.8 31.8257 25.9629 31.5554 26.9807 31.1597C29.1299 30.3286 30.8289 28.6296 31.6599 26.4805C32.0557 25.4626 32.3259 24.2996 32.4038 22.5967C32.4814 20.8901 32.5 20.3452 32.5 16C32.5 11.6545 32.4814 11.1096 32.4038 9.40332ZM29.5237 22.4656C29.4526 24.0256 29.1919 24.8728 28.9729 25.4365C28.4346 26.832 27.3318 27.9348 25.9363 28.4731C25.3726 28.6921 24.5254 28.9529 22.9653 29.0239C21.2786 29.1011 20.7725 29.1172 16.5 29.1172C12.2273 29.1172 11.7214 29.1011 10.0344 29.0239C8.47461 28.9529 7.62744 28.6921 7.06348 28.4731C6.36865 28.2166 5.73999 27.8076 5.22388 27.2761C4.69238 26.76 4.28345 26.1316 4.02686 25.4365C3.80786 24.8728 3.54712 24.0256 3.47607 22.4656C3.39917 20.7786 3.38281 20.2725 3.38281 16.0002C3.38281 11.7278 3.39917 11.2219 3.47607 9.53467C3.54736 7.97461 3.80786 7.12744 4.02686 6.56372C4.28345 5.86865 4.69263 5.23999 5.22388 4.72388C5.73999 4.19238 6.36865 3.78345 7.06372 3.5271C7.62744 3.30786 8.47461 3.04736 10.0347 2.97607C11.7217 2.89917 12.2278 2.88281 16.5 2.88281H16.4998C20.772 2.88281 21.2781 2.89917 22.9653 2.97632C24.5254 3.04736 25.3723 3.30811 25.9363 3.5271C26.6311 3.78369 27.2598 4.19263 27.7759 4.72388C28.3074 5.23999 28.7163 5.86865 28.9727 6.56372C29.1919 7.12744 29.4526 7.97461 29.5237 9.53467C29.6006 11.2217 29.6169 11.7278 29.6169 16C29.6169 20.2725 29.6008 20.7783 29.5237 22.4656Z" fill="url(#paint0_linear_2805_72294)"/>
<path d="M16.4993 7.78369C11.9617 7.78369 8.2832 11.4624 8.2832 16C8.2832 20.5376 11.9617 24.2161 16.4993 24.2161C21.0371 24.2161 24.7156 20.5376 24.7156 16C24.7156 11.4624 21.0371 7.78369 16.4993 7.78369ZM16.4993 21.3333C13.554 21.333 11.166 18.9453 11.1663 15.9998C11.1663 13.0544 13.554 10.6665 16.4995 10.6665C19.4451 10.6667 21.8328 13.0544 21.8328 15.9998C21.8328 18.9453 19.4448 21.3333 16.4993 21.3333Z" fill="url(#paint1_linear_2805_72294)"/>
<path d="M26.9612 7.45923C26.9612 8.51953 26.1016 9.37915 25.0413 9.37915C23.9807 9.37915 23.1211 8.51953 23.1211 7.45923C23.1211 6.39868 23.9807 5.53906 25.0413 5.53906C26.1016 5.53906 26.9612 6.39868 26.9612 7.45923Z" fill="url(#paint2_linear_2805_72294)"/>
</g>
<defs>
<linearGradient id="paint0_linear_2805_72294" x1="3.18538" y1="29.3144" x2="29.8146" y2="2.68513" gradientUnits="userSpaceOnUse">
<stop stop-color="#FFD600"/>
<stop offset="0.5" stop-color="#FF0100"/>
<stop offset="1" stop-color="#D800B9"/>
</linearGradient>
<linearGradient id="paint1_linear_2805_72294" x1="10.6897" y1="21.8096" x2="22.3091" y2="10.1902" gradientUnits="userSpaceOnUse">
<stop stop-color="#FF6400"/>
<stop offset="0.5" stop-color="#FF0100"/>
<stop offset="1" stop-color="#FD0056"/>
</linearGradient>
<linearGradient id="paint2_linear_2805_72294" x1="23.6836" y1="8.81673" x2="26.3988" y2="6.1015" gradientUnits="userSpaceOnUse">
<stop stop-color="#F30072"/>
<stop offset="1" stop-color="#E50097"/>
</linearGradient>
<clipPath id="clip0_2805_72294">
<rect width="32" height="32" fill="white" transform="translate(0.5)"/>
</clipPath>
</defs>
</svg>
