<svg width="32" height="32" viewBox="0 0 32 32" fill="none" xmlns="http://www.w3.org/2000/svg">
<g clip-path="url(#clip0_2805_72323)">
<path d="M10.0012 29.0062C22.0774 29.0062 28.6812 19.0015 28.6812 10.3262C28.6812 10.042 28.6754 9.75905 28.6627 9.47755C29.9444 8.55079 31.0587 7.3943 31.9376 6.07789C30.7613 6.60084 29.4952 6.95264 28.1673 7.11158C29.5228 6.29859 30.5635 5.01294 31.0543 3.48023C29.7857 4.23218 28.3809 4.77857 26.8853 5.07373C25.6873 3.79761 23.9815 2.99951 22.0928 2.99951C18.4673 2.99951 15.5271 5.9397 15.5271 9.56398C15.5271 10.0794 15.5847 10.5803 15.6973 11.0611C10.2407 10.7864 5.40211 8.17408 2.16431 4.20142C1.60059 5.17164 1.27539 6.29883 1.27539 7.50147C1.27539 9.77907 2.43458 11.7901 4.19703 12.9663C3.11988 12.9331 2.10816 12.6375 1.22364 12.1453C1.22266 12.1729 1.22266 12.1997 1.22266 12.229C1.22266 15.4087 3.4856 18.0635 6.49 18.6651C5.93824 18.8152 5.35768 18.896 4.7588 18.896C4.33643 18.896 3.92481 18.8545 3.52467 18.7776C4.3606 21.3863 6.78444 23.2845 9.65798 23.3377C7.4109 25.0989 4.58009 26.148 1.50367 26.148C0.974367 26.148 0.451417 26.1177 -0.0625 26.0572C2.84302 27.9195 6.29347 29.0064 10.0015 29.0064" fill="#1DA1F2"/>
</g>
<defs>
<clipPath id="clip0_2805_72323">
<rect width="32" height="32" fill="white"/>
</clipPath>
</defs>
</svg>
