<svg width="33" height="32" viewBox="0 0 33 32" fill="none" xmlns="http://www.w3.org/2000/svg">
<g clip-path="url(#clip0_2805_72292)">
<path d="M10.5012 29.0062C22.5774 29.0062 29.1812 19.0015 29.1812 10.3262C29.1812 10.042 29.1754 9.75905 29.1627 9.47755C30.4444 8.55079 31.5587 7.3943 32.4376 6.07789C31.2613 6.60084 29.9952 6.95264 28.6673 7.11158C30.0228 6.29859 31.0635 5.01294 31.5543 3.48023C30.2857 4.23218 28.8809 4.77857 27.3853 5.07373C26.1873 3.79761 24.4815 2.99951 22.5928 2.99951C18.9673 2.99951 16.0271 5.9397 16.0271 9.56398C16.0271 10.0794 16.0847 10.5803 16.1973 11.0611C10.7407 10.7864 5.90211 8.17408 2.66431 4.20142C2.10059 5.17164 1.77539 6.29883 1.77539 7.50147C1.77539 9.77907 2.93458 11.7901 4.69703 12.9663C3.61988 12.9331 2.60816 12.6375 1.72364 12.1453C1.72266 12.1729 1.72266 12.1997 1.72266 12.229C1.72266 15.4087 3.9856 18.0635 6.99 18.6651C6.43824 18.8152 5.85768 18.896 5.2588 18.896C4.83643 18.896 4.42481 18.8545 4.02467 18.7776C4.8606 21.3863 7.28444 23.2845 10.158 23.3377C7.9109 25.0989 5.08009 26.148 2.00367 26.148C1.47437 26.148 0.951417 26.1177 0.4375 26.0572C3.34302 27.9195 6.79347 29.0064 10.5015 29.0064" fill="#1DA1F2"/>
</g>
<defs>
<clipPath id="clip0_2805_72292">
<rect width="32" height="32" fill="white" transform="translate(0.5)"/>
</clipPath>
</defs>
</svg>
