<svg width="25" height="25" viewBox="0 0 25 25" fill="none" xmlns="http://www.w3.org/2000/svg">
<circle cx="12.5" cy="12.4404" r="12" fill="#FF5F40"/>
<path d="M16.9447 16.0776L13.3081 12.4411L16.9447 8.80455C17.0518 8.69739 17.112 8.55204 17.112 8.40049C17.112 8.24894 17.0518 8.10359 16.9447 7.99643C16.8375 7.88926 16.6922 7.82906 16.5406 7.82906C16.3891 7.82906 16.2437 7.88927 16.1365 7.99643L12.5 11.633L8.86345 7.99643C8.75629 7.88927 8.61094 7.82906 8.45939 7.82906C8.30784 7.82906 8.16249 7.88926 8.05533 7.99643C7.94817 8.10359 7.88796 8.24894 7.88796 8.40049C7.88796 8.55204 7.94817 8.69739 8.05533 8.80455L11.6919 12.4411L8.05533 16.0776C7.94817 16.1848 7.88796 16.3302 7.88796 16.4817C7.88796 16.6333 7.94817 16.7786 8.05533 16.8858C8.16249 16.9929 8.30784 17.0531 8.45939 17.0531C8.61094 17.0531 8.75629 16.9929 8.86345 16.8858L12.5 13.2492L16.1365 16.8858C16.2437 16.9929 16.3891 17.0531 16.5406 17.0531C16.6922 17.0531 16.8375 16.9929 16.9447 16.8858C17.0518 16.7786 17.112 16.6333 17.112 16.4817C17.112 16.3302 17.0518 16.1848 16.9447 16.0776Z" fill="white"/>
</svg>
