<svg width="25" height="24" viewBox="0 0 25 24" fill="none" xmlns="http://www.w3.org/2000/svg">
<circle cx="12.5" cy="12" r="12" fill="#7E57CF"/>
<path d="M18.2148 11.4282H13.072V6.2853C13.072 6.13374 13.0118 5.9884 12.9046 5.88123C12.7975 5.77407 12.6521 5.71387 12.5006 5.71387C12.349 5.71387 12.2037 5.77407 12.0965 5.88123C11.9893 5.9884 11.9291 6.13374 11.9291 6.2853V11.4282H6.78627C6.63472 11.4282 6.48937 11.4884 6.38221 11.5955C6.27505 11.7027 6.21484 11.848 6.21484 11.9996C6.21484 12.1511 6.27505 12.2965 6.38221 12.4036C6.48937 12.5108 6.63472 12.571 6.78627 12.571H11.9291V17.7139C11.9291 17.8654 11.9893 18.0108 12.0965 18.1179C12.2037 18.2251 12.349 18.2853 12.5006 18.2853C12.6521 18.2853 12.7975 18.2251 12.9046 18.1179C13.0118 18.0108 13.072 17.8654 13.072 17.7139V12.571H18.2148C18.3664 12.571 18.5117 12.5108 18.6189 12.4036C18.7261 12.2965 18.7863 12.1511 18.7863 11.9996C18.7863 11.848 18.7261 11.7027 18.6189 11.5955C18.5117 11.4884 18.3664 11.4282 18.2148 11.4282Z" fill="white"/>
</svg>
