<svg width="25" height="24" viewBox="0 0 25 24" fill="none" xmlns="http://www.w3.org/2000/svg">
<circle cx="12.5" cy="12" r="12" fill="#7E57CF"/>
<path d="M18.2139 11.4282H13.071V6.2853C13.071 6.13374 13.0108 5.9884 12.9036 5.88123C12.7965 5.77407 12.6511 5.71387 12.4996 5.71387C12.348 5.71387 12.2027 5.77407 12.0955 5.88123C11.9884 5.9884 11.9282 6.13374 11.9282 6.2853V11.4282H6.7853C6.63374 11.4282 6.4884 11.4884 6.38123 11.5955C6.27407 11.7027 6.21387 11.848 6.21387 11.9996C6.21387 12.1511 6.27407 12.2965 6.38123 12.4036C6.4884 12.5108 6.63374 12.571 6.7853 12.571H11.9282V17.7139C11.9282 17.8654 11.9884 18.0108 12.0955 18.1179C12.2027 18.2251 12.348 18.2853 12.4996 18.2853C12.6511 18.2853 12.7965 18.2251 12.9036 18.1179C13.0108 18.0108 13.071 17.8654 13.071 17.7139V12.571H18.2139C18.3654 12.571 18.5108 12.5108 18.6179 12.4036C18.7251 12.2965 18.7853 12.1511 18.7853 11.9996C18.7853 11.848 18.7251 11.7027 18.6179 11.5955C18.5108 11.4884 18.3654 11.4282 18.2139 11.4282Z" fill="white"/>
</svg>
