<svg width="24" height="24" viewBox="0 0 24 24" fill="none" xmlns="http://www.w3.org/2000/svg">
<circle cx="12" cy="12" r="12" fill="#7E57CF"/>
<path d="M17.7148 11.4282H12.572V6.2853C12.572 6.13374 12.5118 5.9884 12.4046 5.88123C12.2975 5.77407 12.1521 5.71387 12.0006 5.71387C11.849 5.71387 11.7037 5.77407 11.5965 5.88123C11.4893 5.9884 11.4291 6.13374 11.4291 6.2853V11.4282H6.28627C6.13472 11.4282 5.98937 11.4884 5.88221 11.5955C5.77505 11.7027 5.71484 11.848 5.71484 11.9996C5.71484 12.1511 5.77505 12.2965 5.88221 12.4036C5.98937 12.5108 6.13472 12.571 6.28627 12.571H11.4291V17.7139C11.4291 17.8654 11.4893 18.0108 11.5965 18.1179C11.7037 18.2251 11.849 18.2853 12.0006 18.2853C12.1521 18.2853 12.2975 18.2251 12.4046 18.1179C12.5118 18.0108 12.572 17.8654 12.572 17.7139V12.571H17.7148C17.8664 12.571 18.0117 12.5108 18.1189 12.4036C18.2261 12.2965 18.2863 12.1511 18.2863 11.9996C18.2863 11.848 18.2261 11.7027 18.1189 11.5955C18.0117 11.4884 17.8664 11.4282 17.7148 11.4282Z" fill="white"/>
</svg>
