<svg width="24" height="27" viewBox="0 0 24 27" fill="none" xmlns="http://www.w3.org/2000/svg">
<circle cx="12" cy="12.1299" r="12" fill="#FF5F40"/>
<path d="M16.4447 15.7671L12.8081 12.1306L16.4447 8.494C16.5518 8.38684 16.612 8.24149 16.612 8.08994C16.612 7.93839 16.5518 7.79305 16.4447 7.68588C16.3375 7.57872 16.1922 7.51851 16.0406 7.51851C15.8891 7.51851 15.7437 7.57872 15.6365 7.68588L12 11.3224L8.36345 7.68588C8.25629 7.57872 8.11094 7.51851 7.95939 7.51851C7.80784 7.51851 7.66249 7.57872 7.55533 7.68588C7.44817 7.79305 7.38796 7.93839 7.38796 8.08994C7.38796 8.24149 7.44817 8.38684 7.55533 8.494L11.1919 12.1306L7.55533 15.7671C7.44817 15.8743 7.38796 16.0196 7.38796 16.1712C7.38796 16.3227 7.44817 16.4681 7.55533 16.5752C7.66249 16.6824 7.80784 16.7426 7.95939 16.7426C8.11094 16.7426 8.25629 16.6824 8.36345 16.5752L12 12.9387L15.6365 16.5752C15.7437 16.6824 15.8891 16.7426 16.0406 16.7426C16.1922 16.7426 16.3375 16.6824 16.4447 16.5752C16.5518 16.4681 16.612 16.3227 16.612 16.1712C16.612 16.0196 16.5518 15.8743 16.4447 15.7671Z" fill="white"/>
</svg>
