<svg width="175" height="55" viewBox="0 0 175 55" fill="none" xmlns="http://www.w3.org/2000/svg">
<g clip-path="url(#clip0_2948_58868)">
<path d="M169.531 54.2666H5.46875C2.46094 54.2666 0 51.8057 0 48.7979V5.04785C0 2.04004 2.46094 -0.420898 5.46875 -0.420898H169.531C172.539 -0.420898 175 2.04004 175 5.04785V48.7979C175 51.8057 172.539 54.2666 169.531 54.2666Z" fill="black"/>
<path d="M36.9133 26.6497C36.9133 22.4114 40.468 20.3606 40.6047 20.2239C38.5539 17.3528 35.5461 16.9427 34.4524 16.8059C31.8547 16.5325 29.257 18.3099 28.0266 18.3099C26.6594 18.3099 24.6086 16.8059 22.4211 16.8059C19.55 16.8059 16.9524 18.4466 15.4484 21.0442C12.4406 26.2395 14.6281 33.8958 17.4992 38.1341C19.0031 40.1849 20.6438 42.5091 22.8313 42.3724C25.0188 42.2356 25.8391 41.0052 28.4367 41.0052C31.0344 41.0052 31.718 42.3724 34.0422 42.3724C36.3664 42.3724 37.8703 40.3216 39.2375 38.2708C40.8781 35.9466 41.5617 33.6224 41.5617 33.4856C41.425 33.3489 36.9133 31.7083 36.9133 26.6497Z" fill="white"/>
<path d="M32.6761 14.0713C33.7699 12.5674 34.5902 10.6533 34.4534 8.60254C32.8128 8.73926 30.6253 9.69629 29.5316 11.2002C28.4378 12.4307 27.4808 14.4814 27.7542 16.3955C29.5316 16.5322 31.4456 15.4385 32.6761 14.0713Z" fill="white"/>
<path d="M68.0859 42.0986H65.0781L63.4375 36.9033H57.6953L56.1914 42.0986H53.3203L59.0625 24.4619H62.6172L68.0859 42.0986ZM62.8906 34.7158L61.3867 30.0674C61.25 29.6572 60.9766 28.4268 60.4297 26.7861C60.293 27.4697 60.0195 28.7002 59.6094 30.0674L58.1055 34.7158H62.8906Z" fill="white"/>
<path d="M82.7144 35.6729C82.7144 37.8604 82.1675 39.501 80.937 40.8682C79.8433 41.9619 78.6128 42.5088 76.9722 42.5088C75.3315 42.5088 74.1011 41.9619 73.4175 40.7314V47.4307H70.5464V33.7588C70.5464 32.3916 70.5464 31.0244 70.4097 29.5205H72.8706L73.0073 31.5713C73.9644 30.0674 75.3315 29.2471 77.2456 29.2471C78.7495 29.2471 79.98 29.7939 80.937 31.0244C82.1675 32.1182 82.7144 33.6221 82.7144 35.6729ZM79.8433 35.6729C79.8433 34.4424 79.5698 33.3486 79.023 32.665C78.4761 31.8447 77.6558 31.4346 76.562 31.4346C75.8784 31.4346 75.1948 31.708 74.648 32.1182C74.1011 32.5283 73.6909 33.2119 73.5542 33.8955C73.4175 34.3057 73.4175 34.5791 73.4175 34.7158V36.9033C73.4175 37.8604 73.6909 38.5439 74.2378 39.2275C74.7847 39.9111 75.605 40.1846 76.4253 40.1846C77.519 40.1846 78.3394 39.7744 78.8862 38.9541C79.5698 38.1338 79.8433 37.04 79.8433 35.6729Z" fill="white"/>
<path d="M97.3442 35.6729C97.3442 37.8604 96.7974 39.501 95.5669 40.8682C94.4731 41.9619 93.2427 42.5088 91.602 42.5088C89.9614 42.5088 88.731 41.9619 88.0474 40.7314V47.4307H85.1763V33.7588C85.1763 32.3916 85.1763 31.0244 85.0396 29.5205H87.5005L87.6372 31.5713C88.5942 30.0674 89.9614 29.2471 91.8755 29.2471C93.3794 29.2471 94.6099 29.7939 95.5669 31.0244C96.7974 32.1182 97.3442 33.6221 97.3442 35.6729ZM94.4731 35.6729C94.4731 34.4424 94.1997 33.3486 93.6528 32.665C93.106 31.8447 92.2856 31.4346 91.1919 31.4346C90.5083 31.4346 89.8247 31.708 89.2778 32.1182C88.731 32.5283 88.3208 33.2119 88.1841 33.8955C88.0474 34.3057 88.0474 34.5791 88.0474 34.7158V36.9033C88.0474 37.8604 88.3208 38.5439 88.8677 39.2275C89.4145 39.9111 90.2349 40.1846 91.0552 40.1846C92.1489 40.1846 92.9692 39.7744 93.5161 38.9541C94.1997 38.1338 94.4731 37.04 94.4731 35.6729Z" fill="white"/>
<path d="M113.75 37.1768C113.75 38.6807 113.203 39.9111 112.246 40.8682C111.152 41.9619 109.512 42.3721 107.461 42.3721C105.547 42.3721 104.043 41.9619 102.949 41.2783L103.633 38.9541C104.863 39.6377 106.23 40.0478 107.734 40.0478C108.828 40.0478 109.648 39.7744 110.195 39.3642C110.742 38.8174 111.016 38.2705 111.016 37.4502C111.016 36.7666 110.742 36.083 110.332 35.6728C109.785 35.126 108.965 34.7158 107.871 34.3057C104.727 33.2119 103.223 31.4346 103.223 29.2471C103.223 27.7432 103.77 26.6494 104.863 25.6924C105.957 24.7354 107.324 24.3252 109.238 24.3252C110.879 24.3252 112.109 24.5986 113.203 25.1455L112.52 27.4697C111.562 26.9229 110.469 26.6494 109.102 26.6494C108.145 26.6494 107.324 26.9229 106.777 27.333C106.367 27.7432 106.094 28.29 106.094 28.9736C106.094 29.6572 106.367 30.2041 106.914 30.751C107.324 31.1611 108.281 31.5713 109.512 32.1182C111.016 32.665 112.109 33.4853 112.93 34.3057C113.34 34.9893 113.75 35.9463 113.75 37.1768Z" fill="white"/>
<path d="M123.047 31.5713H119.902V37.7236C119.902 39.2275 120.449 40.0479 121.543 40.0479C122.09 40.0479 122.5 40.0479 122.773 39.9111L122.91 42.0986C122.363 42.3721 121.68 42.3721 120.723 42.3721C119.629 42.3721 118.672 42.0986 118.125 41.415C117.441 40.7314 117.168 39.6377 117.168 37.9971V31.5713H115.254V29.3838H117.168V27.0596L119.902 26.2393V29.3838H123.047V31.5713Z" fill="white"/>
<path d="M137.129 35.6729C137.129 37.5869 136.582 39.2275 135.488 40.458C134.258 41.6885 132.754 42.3721 130.84 42.3721C128.926 42.3721 127.422 41.6885 126.328 40.458C125.234 39.2275 124.688 37.7236 124.688 35.8096C124.688 33.8955 125.234 32.2549 126.465 31.0244C127.559 29.7939 129.199 29.1104 131.113 29.1104C133.027 29.1104 134.531 29.7939 135.625 31.0244C136.582 32.2549 137.129 33.7588 137.129 35.6729ZM134.121 35.8096C134.121 34.5791 133.848 33.6221 133.301 32.8018C132.754 31.8447 131.797 31.2979 130.703 31.2979C129.609 31.2979 128.652 31.8447 128.105 32.8018C127.559 33.6221 127.285 34.7158 127.285 35.8096C127.285 37.04 127.559 37.9971 128.105 38.8174C128.652 39.7744 129.609 40.3213 130.703 40.3213C131.797 40.3213 132.617 39.7744 133.301 38.8174C133.848 37.9971 134.121 36.9033 134.121 35.8096Z" fill="white"/>
<path d="M146.289 31.8447C146.015 31.8447 145.742 31.708 145.332 31.708C144.374 31.708 143.554 32.1182 143.007 32.8018C142.597 33.4854 142.324 34.3057 142.324 35.2627V41.9619H139.453V33.2119C139.453 31.708 139.453 30.4775 139.316 29.2471H141.777L141.914 31.708H142.05C142.324 30.8877 142.871 30.2041 143.417 29.6572C144.101 29.2471 144.785 28.9736 145.468 28.9736C145.742 28.9736 146.015 28.9736 146.152 28.9736V31.8447H146.289Z" fill="white"/>
<path d="M158.867 35.126C158.867 35.6728 158.867 36.083 158.73 36.3564H150.253C150.253 37.5869 150.664 38.5439 151.484 39.2275C152.167 39.7744 153.125 40.1846 154.218 40.1846C155.449 40.1846 156.679 40.0478 157.636 39.6377L158.046 41.5518C156.816 42.0986 155.449 42.3721 153.808 42.3721C151.894 42.3721 150.253 41.8252 149.16 40.5947C148.066 39.501 147.519 37.8603 147.519 35.9463C147.519 34.0322 148.066 32.3916 149.023 31.1611C150.117 29.7939 151.621 29.1104 153.535 29.1104C155.312 29.1104 156.816 29.7939 157.636 31.1611C158.593 32.2549 158.867 33.6221 158.867 35.126ZM156.269 34.4424C156.269 33.6221 156.132 32.9385 155.722 32.2549C155.175 31.4346 154.492 31.0244 153.535 31.0244C152.578 31.0244 151.894 31.4346 151.347 32.1182C150.937 32.665 150.664 33.4854 150.527 34.3057H156.269V34.4424Z" fill="white"/>
<path d="M62.0703 13.6611C62.0703 15.165 61.6602 16.3955 60.7031 17.2158C59.8828 17.8994 58.6523 18.3096 57.0117 18.3096C56.1914 18.3096 55.5078 18.3096 54.9609 18.1728V9.69629C55.6445 9.55957 56.4648 9.55957 57.4219 9.55957C58.9258 9.55957 60.0195 9.83301 60.8398 10.5166C61.5234 11.2002 62.0703 12.2939 62.0703 13.6611ZM60.5664 13.6611C60.5664 12.7041 60.293 11.8838 59.7461 11.3369C59.1992 10.79 58.3789 10.5166 57.4219 10.5166C57.0117 10.5166 56.6016 10.5166 56.3281 10.6533V17.0791C56.4648 17.0791 56.875 17.0791 57.2852 17.0791C58.3789 17.0791 59.1992 16.8057 59.7461 16.2588C60.293 15.7119 60.5664 14.7549 60.5664 13.6611Z" fill="white"/>
<path d="M69.7266 15.0283C69.7266 15.9854 69.4531 16.8057 68.9063 17.3525C68.3594 18.0361 67.5391 18.3096 66.582 18.3096C65.625 18.3096 64.9414 18.0361 64.3945 17.3525C63.8477 16.8057 63.5742 15.9854 63.5742 15.0283C63.5742 14.0713 63.8477 13.251 64.3945 12.7041C64.9414 12.0205 65.7617 11.7471 66.7188 11.7471C67.6758 11.7471 68.3594 12.0205 68.9063 12.7041C69.4531 13.251 69.7266 14.0713 69.7266 15.0283ZM68.3594 15.0283C68.3594 14.4814 68.2227 13.9346 67.9492 13.5244C67.6758 12.9775 67.2656 12.8408 66.7188 12.8408C66.1719 12.8408 65.7617 13.1143 65.4883 13.5244C65.2148 13.9346 65.0781 14.4814 65.0781 15.0283C65.0781 15.5752 65.2148 16.1221 65.4883 16.5322C65.7617 17.0791 66.1719 17.2158 66.7188 17.2158C67.2656 17.2158 67.6758 16.9424 67.9492 16.3955C68.2227 16.1221 68.3594 15.5752 68.3594 15.0283Z" fill="white"/>
<path d="M80.2544 11.8838L78.3403 18.1729H77.1099L76.2896 15.4385C76.0161 14.7549 75.8794 14.0713 75.7427 13.3877C75.606 14.0713 75.4692 14.7549 75.1958 15.4385L74.3755 18.1729H73.145L71.0942 11.8838H72.4614L73.145 14.8916C73.2817 15.5752 73.4185 16.2588 73.5552 16.9424C73.6919 16.3955 73.8286 15.7119 74.1021 14.8916L74.9224 11.8838H76.0161L76.8364 14.7549C77.1099 15.4385 77.2466 16.1221 77.3833 16.8057C77.52 16.1221 77.6567 15.4385 77.7935 14.7549L78.6138 11.8838H80.2544Z" fill="white"/>
<path d="M87.3633 18.1729H85.9961V14.6182C85.9961 13.5244 85.5859 12.9775 84.7656 12.9775C84.3555 12.9775 84.082 13.1143 83.8086 13.3877C83.5352 13.6611 83.3984 14.0713 83.3984 14.4814V18.1729H82.0312V13.6611C82.0312 13.1143 82.0312 12.5674 82.0312 11.8838H83.2617V12.8408C83.3984 12.5674 83.6719 12.2939 83.9453 12.0205C84.3555 11.7471 84.7656 11.6104 85.1758 11.6104C85.7227 11.6104 86.2695 11.7471 86.6797 12.1572C87.2266 12.5674 87.3633 13.251 87.3633 14.208V18.1729Z" fill="white"/>
<path d="M91.1914 18.1729H89.8242V9.0127H91.1914V18.1729Z" fill="white"/>
<path d="M99.395 15.0283C99.395 15.9854 99.1216 16.8057 98.5747 17.3525C98.0278 18.0361 97.2075 18.3096 96.2505 18.3096C95.2935 18.3096 94.6099 18.0361 94.063 17.3525C93.5161 16.8057 93.2427 15.9854 93.2427 15.0283C93.2427 14.0713 93.5161 13.251 94.063 12.7041C94.6099 12.1572 95.4302 11.7471 96.3872 11.7471C97.3442 11.7471 98.0278 12.0205 98.5747 12.7041C99.1216 13.251 99.395 14.0713 99.395 15.0283ZM98.0278 15.0283C98.0278 14.4814 97.8911 13.9346 97.6177 13.5244C97.3442 12.9775 96.9341 12.8408 96.3872 12.8408C95.8403 12.8408 95.4302 13.1143 95.1567 13.5244C94.8833 13.9346 94.7466 14.4814 94.7466 15.0283C94.7466 15.5752 94.8833 16.1221 95.1567 16.5322C95.4302 17.0791 95.8403 17.2158 96.3872 17.2158C96.9341 17.2158 97.3442 16.9424 97.6177 16.3955C97.8911 16.1221 98.0278 15.5752 98.0278 15.0283Z" fill="white"/>
<path d="M106.094 18.1728H104.864L104.727 17.4893C104.317 18.0361 103.633 18.3096 102.95 18.3096C102.403 18.3096 101.856 18.1729 101.583 17.7627C101.309 17.3525 101.036 16.9424 101.036 16.5322C101.036 15.7119 101.309 15.165 101.993 14.7549C102.676 14.3447 103.497 14.208 104.727 14.208V14.0713C104.727 13.251 104.317 12.8408 103.497 12.8408C102.813 12.8408 102.403 12.9775 101.856 13.251L101.583 12.2939C102.129 11.8838 102.813 11.7471 103.77 11.7471C105.411 11.7471 106.231 12.5674 106.231 14.3447V16.6689C106.094 17.3525 106.094 17.7627 106.094 18.1728ZM104.727 15.9854V15.0283C103.223 15.0283 102.403 15.4385 102.403 16.2588C102.403 16.5322 102.54 16.8057 102.676 16.9424C102.813 17.0791 103.086 17.2158 103.36 17.2158C103.633 17.2158 103.907 17.0791 104.18 16.9424C104.454 16.8057 104.59 16.5322 104.727 16.2588C104.727 16.2588 104.727 16.1221 104.727 15.9854Z" fill="white"/>
<path d="M114.023 18.1728H112.792V17.2158C112.382 18.0361 111.699 18.3096 110.742 18.3096C109.921 18.3096 109.375 18.0361 108.828 17.4893C108.281 16.9424 108.144 16.1221 108.144 15.165C108.144 14.208 108.417 13.3877 108.964 12.7041C109.511 12.1572 110.195 11.8838 110.878 11.8838C111.699 11.8838 112.246 12.1572 112.656 12.7041V9.14941H114.023V16.5322C114.023 17.0791 114.023 17.626 114.023 18.1728ZM112.656 15.5752V14.4814C112.656 14.3447 112.656 14.208 112.656 14.0713C112.519 13.7979 112.382 13.5244 112.109 13.251C111.835 12.9775 111.562 12.9775 111.152 12.9775C110.605 12.9775 110.195 13.251 109.921 13.6611C109.648 14.0713 109.511 14.6182 109.511 15.3018C109.511 15.9854 109.648 16.3955 109.921 16.8057C110.195 17.2158 110.605 17.4893 111.152 17.4893C111.562 17.4893 111.972 17.3525 112.246 16.9424C112.519 16.3955 112.656 15.9854 112.656 15.5752Z" fill="white"/>
<path d="M125.918 15.0283C125.918 15.9854 125.645 16.8057 125.098 17.3525C124.551 18.0361 123.73 18.3096 122.773 18.3096C121.816 18.3096 121.133 18.0361 120.586 17.3525C120.039 16.8057 119.766 15.9854 119.766 15.0283C119.766 14.0713 120.039 13.251 120.586 12.7041C121.133 12.0205 121.953 11.7471 122.91 11.7471C123.867 11.7471 124.551 12.0205 125.098 12.7041C125.645 13.251 125.918 14.0713 125.918 15.0283ZM124.414 15.0283C124.414 14.4814 124.277 13.9346 124.004 13.5244C123.73 12.9775 123.32 12.8408 122.773 12.8408C122.227 12.8408 121.816 13.1143 121.543 13.5244C121.27 13.9346 121.133 14.4814 121.133 15.0283C121.133 15.5752 121.27 16.1221 121.543 16.5322C121.816 17.0791 122.227 17.2158 122.773 17.2158C123.32 17.2158 123.73 16.9424 124.004 16.3955C124.277 16.1221 124.414 15.5752 124.414 15.0283Z" fill="white"/>
<path d="M133.438 18.1729H132.071V14.6182C132.071 13.5244 131.661 12.9775 130.84 12.9775C130.43 12.9775 130.157 13.1143 129.883 13.3877C129.61 13.6611 129.473 14.0713 129.473 14.4814V18.1729H128.106V13.6611C128.106 13.1143 128.106 12.5674 128.106 11.8838H129.336V12.8408C129.473 12.5674 129.747 12.2939 130.02 12.0205C130.43 11.7471 130.84 11.6104 131.25 11.6104C131.797 11.6104 132.344 11.7471 132.754 12.1572C133.301 12.5674 133.438 13.251 133.438 14.208V18.1729Z" fill="white"/>
<path d="M142.734 12.9775H141.23V15.9854C141.23 16.8057 141.504 17.0791 142.051 17.0791C142.324 17.0791 142.461 17.0791 142.734 17.0791V18.1728C142.461 18.3096 142.051 18.3096 141.641 18.3096C141.094 18.3096 140.684 18.1728 140.41 17.7627C140.137 17.4893 140 16.8057 140 16.1221V12.9775H139.043V11.8838H140V10.79L141.367 10.3799V11.8838H142.871V12.9775H142.734Z" fill="white"/>
<path d="M150.117 18.1729H148.75V14.6182C148.75 13.5244 148.34 12.9775 147.52 12.9775C146.836 12.9775 146.426 13.251 146.152 13.9346C146.152 14.0713 146.152 14.208 146.152 14.4814V18.1729H144.785V9.0127H146.152V12.8408C146.562 12.1572 147.246 11.7471 148.066 11.7471C148.613 11.7471 149.16 11.8838 149.434 12.2939C149.844 12.7041 150.117 13.5244 150.117 14.3447V18.1729Z" fill="white"/>
<path d="M157.637 14.7549C157.637 15.0283 157.637 15.165 157.637 15.4385H153.535C153.535 16.1221 153.809 16.5322 154.082 16.8057C154.492 17.0791 154.902 17.2158 155.449 17.2158C156.133 17.2158 156.68 17.0791 157.09 16.9424L157.363 17.8994C156.816 18.1729 156.133 18.3096 155.313 18.3096C154.355 18.3096 153.535 18.0361 152.988 17.4893C152.441 16.9424 152.168 16.1221 152.168 15.165C152.168 14.208 152.441 13.3877 152.988 12.8408C153.535 12.1572 154.219 11.8838 155.176 11.8838C156.133 11.8838 156.816 12.1572 157.227 12.8408C157.5 13.251 157.637 13.9346 157.637 14.7549ZM156.406 14.3447C156.406 13.9346 156.27 13.5244 156.133 13.251C155.859 12.8408 155.586 12.7041 155.039 12.7041C154.629 12.7041 154.219 12.8408 153.945 13.251C153.672 13.5244 153.535 13.9346 153.535 14.3447H156.406Z" fill="white"/>
</g>
<defs>
<clipPath id="clip0_2948_58868">
<rect width="175" height="54.5192" fill="white"/>
</clipPath>
</defs>
</svg>
