<svg width="72" height="72" viewBox="0 0 72 72" fill="none" xmlns="http://www.w3.org/2000/svg">
<circle cx="36" cy="36" r="36" fill="#DFDFDF"/>
<path d="M45.2502 33V41C45.2502 42.1 44.3302 43 43.1902 43H28.8002C27.6702 43 26.7402 42.1 26.7402 41V33C26.7402 31.9 27.6602 31 28.8002 31H31.1403C31.7903 31 32.3603 30.6 32.5703 30C32.7803 29.4 33.3502 29 34.0002 29H38.0002C38.6502 29 39.2202 29.4 39.4302 30C39.6402 30.6 40.2102 31 40.8602 31H43.2003C44.3303 31 45.2502 31.9 45.2502 33Z" stroke="#4B4B4B" stroke-width="1.5" stroke-linecap="round" stroke-linejoin="round"/>
<path d="M36.0004 40C37.9886 40 39.6004 38.433 39.6004 36.5C39.6004 34.567 37.9886 33 36.0004 33C34.0122 33 32.4004 34.567 32.4004 36.5C32.4004 38.433 34.0122 40 36.0004 40Z" stroke="#4B4B4B" stroke-width="1.5" stroke-linecap="round" stroke-linejoin="round"/>
<path d="M29.8301 31V30" stroke="#4B4B4B" stroke-width="1.5" stroke-linecap="round" stroke-linejoin="round"/>
</svg>
