<svg width="48" height="48" viewBox="0 0 48 48" fill="none" xmlns="http://www.w3.org/2000/svg">
<path d="M34.0048 6.19215L34.2358 6.65115L35.9638 11.2502C36.0988 11.6102 36.3838 11.8982 36.7468 12.0332L41.1868 13.7012C43.1368 14.4302 44.1838 16.5122 43.6648 18.4832L43.5388 18.8732L41.4748 23.4422C41.3956 23.6164 41.3546 23.8057 41.3546 23.9972C41.3546 24.1886 41.3956 24.3779 41.4748 24.5522L43.4368 28.8722C43.8473 29.7777 43.9077 30.8032 43.6063 31.7507C43.3049 32.6981 42.6631 33.5002 41.8048 34.0021L41.3458 34.2332L36.7468 35.9612C36.5685 36.0286 36.4067 36.1333 36.2722 36.2684C36.1377 36.4034 36.0336 36.5656 35.9668 36.7442L34.2988 41.1842C33.9496 42.1163 33.2669 42.8858 32.383 43.3436C31.499 43.8013 30.4767 43.9149 29.5138 43.6622L29.1238 43.5362L24.5548 41.4722C24.3806 41.3927 24.1913 41.3516 23.9998 41.3516C23.8083 41.3516 23.6191 41.3927 23.4448 41.4722L19.1278 43.4342C18.2223 43.8447 17.1968 43.905 16.2493 43.6036C15.3019 43.3022 14.4997 42.6604 13.9978 41.8022L13.7668 41.3432L12.0358 36.7442C11.9682 36.566 11.8634 36.4042 11.7284 36.2697C11.5934 36.1352 11.4313 36.0311 11.2528 35.9642L6.81282 34.2962C5.88064 33.9469 5.11118 33.2643 4.65341 32.3803C4.19564 31.4964 4.08212 30.474 4.33482 29.5112L4.46082 29.1212L6.52782 24.5522C6.60706 24.3779 6.64806 24.1886 6.64806 23.9972C6.64806 23.8057 6.60706 23.6164 6.52782 23.4422L4.56582 19.1252C4.15505 18.22 4.09422 17.1947 4.39506 16.2473C4.69591 15.2999 5.33709 14.4975 6.19482 13.9952L6.65382 13.7642L11.2528 12.0332C11.4316 11.9659 11.5939 11.8613 11.7289 11.7262C11.8639 11.5912 11.9686 11.4289 12.0358 11.2502L13.7038 6.81015C14.053 5.87861 14.7352 5.10964 15.6185 4.65193C16.5018 4.19422 17.5234 4.08028 18.4858 4.33215L18.8758 4.45815L23.4448 6.52515C23.6191 6.60439 23.8084 6.64539 23.9998 6.64539C24.1913 6.64539 24.3805 6.60439 24.5548 6.52515L28.8748 4.56315C29.78 4.15238 30.8053 4.09155 31.7527 4.39239C32.7001 4.69324 33.5024 5.33442 34.0048 6.19215ZM30.4948 17.1152L20.9338 28.0352L17.4478 24.5492C17.1946 24.3068 16.8565 24.1733 16.5059 24.1771C16.1554 24.181 15.8204 24.3219 15.5725 24.5698C15.3246 24.8177 15.1837 25.1528 15.1798 25.5033C15.1759 25.8538 15.3095 26.1919 15.5518 26.4452L20.0518 30.9452C20.1817 31.0747 20.3368 31.1762 20.5074 31.2435C20.6781 31.3107 20.8608 31.3422 21.0441 31.336C21.2275 31.3298 21.4076 31.2861 21.5733 31.2075C21.7391 31.1289 21.887 31.0172 22.0078 30.8792L32.5078 18.8792C32.7216 18.6093 32.8234 18.2675 32.7921 17.9246C32.7608 17.5817 32.5989 17.264 32.3397 17.0373C32.0806 16.8105 31.7442 16.6922 31.4002 16.7067C31.0562 16.7212 30.7309 16.8674 30.4918 17.1152H30.4948Z" fill="#2FA500"/>
</svg>
