<svg width="80" height="81" viewBox="0 0 80 81" fill="none" xmlns="http://www.w3.org/2000/svg">
<path d="M56.6754 10.8202L57.0604 11.5853L59.9404 19.2503C60.1654 19.8503 60.6404 20.3303 61.2454 20.5553L68.6454 23.3353C71.8954 24.5503 73.6404 28.0203 72.7754 31.3053L72.5654 31.9553L69.1254 39.5703C68.9933 39.8607 68.925 40.1762 68.925 40.4953C68.925 40.8144 68.9933 41.1298 69.1254 41.4203L72.3954 48.6203C73.0795 50.1295 73.1802 51.8387 72.6778 53.4178C72.1755 54.9968 71.1058 56.3337 69.6754 57.1702L68.9104 57.5553L61.2454 60.4353C60.9482 60.5476 60.6785 60.7222 60.4543 60.9473C60.2301 61.1723 60.0566 61.4427 59.9454 61.7403L57.1654 69.1403C56.5833 70.6939 55.4455 71.9763 53.9723 72.7393C52.499 73.5022 50.7951 73.6914 49.1904 73.2703L48.5404 73.0603L40.9254 69.6203C40.6349 69.4879 40.3195 69.4194 40.0004 69.4194C39.6812 69.4194 39.3658 69.4879 39.0754 69.6203L31.8804 72.8903C30.3711 73.5744 28.6619 73.6751 27.0828 73.1727C25.5038 72.6704 24.1669 71.6007 23.3304 70.1703L22.9454 69.4053L20.0604 61.7403C19.9477 61.4433 19.773 61.1737 19.548 60.9496C19.323 60.7254 19.0528 60.5518 18.7554 60.4403L11.3553 57.6603C9.80171 57.0782 8.51928 55.9404 7.75633 54.4672C6.99338 52.9939 6.80418 51.29 7.22535 49.6853L7.43535 49.0353L10.8804 41.4203C11.0124 41.1298 11.0807 40.8144 11.0807 40.4953C11.0807 40.1762 11.0124 39.8607 10.8804 39.5703L7.61035 32.3753C6.92574 30.8666 6.82435 29.1578 7.32576 27.5788C7.82716 25.9998 8.8958 24.6626 10.3253 23.8253L11.0903 23.4403L18.7554 20.5553C19.0533 20.4432 19.3238 20.2688 19.5488 20.0437C19.7739 19.8187 19.9483 19.5482 20.0604 19.2503L22.8404 11.8503C23.4223 10.2977 24.5593 9.01607 26.0315 8.25322C27.5036 7.49036 29.2063 7.30047 30.8104 7.72025L31.4604 7.93025L39.0754 11.3753C39.3658 11.5073 39.6812 11.5756 40.0004 11.5756C40.3195 11.5756 40.6349 11.5073 40.9254 11.3753L48.1254 8.10525C49.634 7.42064 51.3428 7.31925 52.9218 7.82066C54.5008 8.32206 55.8381 9.3907 56.6754 10.8202ZM50.8254 29.0253L34.8904 47.2253L29.0804 41.4153C28.6582 41.0113 28.0947 40.7888 27.5105 40.7952C26.9264 40.8016 26.3679 41.0366 25.9548 41.4497C25.5417 41.8628 25.3067 42.4213 25.3003 43.0055C25.2939 43.5896 25.5164 44.1531 25.9204 44.5753L33.4204 52.0752C33.6368 52.2912 33.8953 52.4604 34.1797 52.5724C34.4642 52.6845 34.7686 52.737 35.0742 52.7267C35.3798 52.7164 35.68 52.6435 35.9562 52.5125C36.2325 52.3815 36.4789 52.1953 36.6804 51.9653L54.1804 31.9653C54.5367 31.5154 54.7063 30.9458 54.6542 30.3743C54.602 29.8028 54.3321 29.2733 53.9002 28.8954C53.4683 28.5175 52.9077 28.3203 52.3343 28.3444C51.761 28.3686 51.2189 28.6124 50.8204 29.0253H50.8254Z" fill="#2FA500"/>
</svg>
