<svg width="22" height="24" viewBox="0 0 22 24" fill="none" xmlns="http://www.w3.org/2000/svg">
<g clip-path="url(#clip0_2948_58943)">
<path d="M19.9123 5.65593C19.1489 5.99362 18.3393 6.2154 17.5103 6.31393C18.384 5.79136 19.038 4.96894 19.3503 3.99993C18.5303 4.48793 17.6313 4.82993 16.6943 5.01493C16.0649 4.34151 15.2307 3.89489 14.3213 3.74451C13.4118 3.59413 12.4782 3.74842 11.6656 4.18338C10.8529 4.61834 10.2067 5.30961 9.82741 6.14972C9.44814 6.98983 9.35705 7.93171 9.5683 8.82893C7.90541 8.74558 6.27863 8.31345 4.79358 7.56059C3.30854 6.80773 1.99842 5.75097 0.948297 4.45893C0.576587 5.09738 0.381252 5.82315 0.382297 6.56193C0.382297 8.01193 1.1203 9.29293 2.2423 10.0429C1.57831 10.022 0.928929 9.84271 0.348297 9.51993V9.57193C0.348497 10.5376 0.682666 11.4735 1.29414 12.221C1.90562 12.9684 2.75678 13.4814 3.7033 13.6729C3.08691 13.84 2.4406 13.8646 1.8133 13.7449C2.08016 14.5762 2.6003 15.3031 3.30089 15.824C4.00147 16.3449 4.84742 16.6337 5.7203 16.6499C4.85278 17.3313 3.85947 17.8349 2.79718 18.1321C1.73488 18.4293 0.624424 18.5142 -0.470703 18.3819C1.44099 19.6114 3.66639 20.264 5.9393 20.2619C13.6323 20.2619 17.8393 13.8889 17.8393 8.36193C17.8393 8.18193 17.8343 7.99993 17.8263 7.82193C18.6452 7.23009 19.3519 6.49695 19.9133 5.65693L19.9123 5.65593Z" fill="#CCCCCC"/>
</g>
<defs>
<clipPath id="clip0_2948_58943">
<rect width="21.75" height="24" fill="white"/>
</clipPath>
</defs>
</svg>
