<svg width="125" height="21" viewBox="0 0 125 21" fill="none" xmlns="http://www.w3.org/2000/svg">
<path d="M16.9071 0H15.2527C14.565 0 13.9054 0.27599 13.4191 0.767255C12.9328 1.25852 12.6596 1.92482 12.6596 2.61957V6.18219L12.6233 6.14552V6.19791L11.0675 4.62617L8.47438 2.00659L4.32545 6.19791V6.14552L4.28915 6.18219V2.42573C4.28915 1.78238 4.03617 1.16539 3.58586 0.710479C3.13555 0.255567 2.52479 0 1.88796 0L0.046875 0V12.3068C0.046875 12.9487 0.29931 13.5644 0.748648 14.0183C1.19799 14.4722 1.80742 14.7272 2.44288 14.7272H4.28915V11.4842L8.47438 7.21955L12.6648 11.4842V14.7272H14.3192C15.0069 14.7272 15.6665 14.4513 16.1528 13.96C16.639 13.4687 16.9122 12.8024 16.9122 12.1077L16.9071 0ZM0.26988 11.2223V10.6093L4.06614 6.77946V11.2223H0.26988ZM12.8878 11.2223V6.77946L16.6789 10.6093V11.2223H12.8878Z" fill="#32B000"/>
<path d="M2.25079 20.27H16.9069V18.2582C16.9069 17.6551 16.6697 17.0768 16.2476 16.6504C15.8255 16.2239 15.253 15.9844 14.6561 15.9844H0V17.9962C0 18.5993 0.237136 19.1776 0.659241 19.604C1.08135 20.0304 1.65384 20.27 2.25079 20.27Z" fill="#32B000"/>
<path d="M23.6797 2.42334H26.508V12.2908H32.6471V14.5797H23.6797V2.42334Z" fill="#32B000"/>
<path d="M33.2773 9.90788C33.2773 7.09586 35.4699 5.09766 38.4517 5.09766C41.4335 5.09766 43.5676 7.09586 43.5676 9.90788C43.5676 12.7199 41.3751 14.7254 38.4517 14.7254C35.5283 14.7254 33.2773 12.7272 33.2773 9.90788ZM40.8489 9.90788C40.8747 9.57827 40.8318 9.24691 40.7226 8.9346C40.6135 8.62229 40.4407 8.33579 40.2149 8.0931C39.9891 7.8504 39.7152 7.65675 39.4105 7.52431C39.1059 7.39187 38.7769 7.3235 38.4444 7.3235C38.1119 7.3235 37.7829 7.39187 37.4782 7.52431C37.1736 7.65675 36.8997 7.8504 36.6739 8.0931C36.4481 8.33579 36.2752 8.62229 36.1661 8.9346C36.057 9.24691 36.0141 9.57827 36.0399 9.90788C36.0141 10.2375 36.057 10.5688 36.1661 10.8811C36.2752 11.1935 36.4481 11.48 36.6739 11.7227C36.8997 11.9654 37.1736 12.159 37.4782 12.2914C37.7829 12.4239 38.1119 12.4922 38.4444 12.4922C38.7769 12.4922 39.1059 12.4239 39.4105 12.2914C39.7152 12.159 39.9891 11.9654 40.2149 11.7227C40.4407 11.48 40.6135 11.1935 40.7226 10.8811C40.8318 10.5688 40.8747 10.2375 40.8489 9.90788Z" fill="#32B000"/>
<path d="M55.1271 5.23542V13.0175C55.1271 16.4907 53.2342 18.1038 49.8431 18.1038C48.2077 18.1722 46.5927 17.7218 45.2315 16.8177L46.3132 14.8559C47.2813 15.5493 48.4453 15.9207 49.6385 15.9167C51.5606 15.9167 52.3938 15.0448 52.3938 13.359V12.9666C52.0114 13.3599 51.5487 13.6671 51.0369 13.8676C50.5251 14.0682 49.976 14.1574 49.4266 14.1292C48.8148 14.1602 48.2032 14.0658 47.6297 13.8521C47.0561 13.6384 46.5328 13.3098 46.0922 12.8867C45.6517 12.4637 45.3032 11.9552 45.0684 11.3927C44.8336 10.8303 44.7175 10.2258 44.7273 9.61693C44.7164 9.00742 44.8318 8.40221 45.0661 7.83889C45.3005 7.27557 45.6488 6.76617 46.0895 6.34233C46.5302 5.91848 47.0539 5.58926 47.6279 5.37509C48.202 5.16092 48.8142 5.06639 49.4266 5.09736C50.0143 5.06418 50.6018 5.16776 51.1423 5.39985C51.6827 5.63194 52.1613 5.98615 52.5399 6.43434V5.23542H55.1271ZM52.4303 9.59513C52.4656 9.1014 52.3504 8.60857 52.0998 8.18087C51.8492 7.75318 51.4748 7.41046 51.0254 7.1974C50.5761 6.98434 50.0726 6.91082 49.5806 6.98642C49.0886 7.06202 48.6309 7.28324 48.2672 7.62124C47.9035 7.95923 47.6506 8.39833 47.5416 8.88129C47.4326 9.36424 47.4724 9.86865 47.6559 10.3288C47.8394 10.7889 48.1581 11.1834 48.5704 11.4608C48.9827 11.7382 49.4695 11.8857 49.9674 11.884C50.2816 11.908 50.5974 11.8672 50.895 11.7642C51.1926 11.6612 51.4656 11.4981 51.6969 11.2853C51.9281 11.0724 52.1126 10.8143 52.2388 10.5273C52.365 10.2402 52.4302 9.93025 52.4303 9.61693V9.59513Z" fill="#32B000"/>
<path d="M67.3615 5.23513V13.0172C67.3615 16.4905 65.4686 18.1035 62.0848 18.1035C60.4469 18.173 58.8293 17.7226 57.4659 16.8174L58.5549 14.8556C59.5203 15.5489 60.6819 15.9203 61.8729 15.9164C63.795 15.9164 64.6355 15.0445 64.6355 13.3587V12.9664C64.252 13.3602 63.7881 13.6677 63.275 13.8682C62.7619 14.0688 62.2115 14.1577 61.6609 14.1289C61.0492 14.1599 60.4376 14.0655 59.8641 13.8518C59.2905 13.6381 58.7672 13.3095 58.3266 12.8865C57.886 12.4634 57.5375 11.9549 57.3027 11.3924C57.0679 10.83 56.9518 10.2255 56.9616 9.61664C56.9508 9.00713 57.0662 8.40192 57.3005 7.8386C57.5349 7.27528 57.8832 6.76588 58.3239 6.34203C58.7646 5.91819 59.2882 5.58896 59.8623 5.3748C60.4364 5.16063 61.0486 5.06609 61.6609 5.09707C62.2488 5.06332 62.8364 5.16663 63.377 5.39876C63.9175 5.63089 64.396 5.98542 64.7743 6.43405V5.23513H67.3615ZM64.6647 9.59484C64.6954 9.10292 64.577 8.61316 64.3247 8.18888C64.0724 7.7646 63.698 7.42531 63.2497 7.21488C62.8014 7.00445 62.3 6.93256 61.8102 7.0085C61.3203 7.08444 60.8647 7.30472 60.5022 7.64086C60.1396 7.977 59.8868 8.41354 59.7765 8.89404C59.6662 9.37453 59.7033 9.87689 59.8832 10.3362C60.0631 10.7954 60.3774 11.1905 60.7855 11.4703C61.1937 11.75 61.6768 11.9016 62.1725 11.9055C62.4909 11.9339 62.8118 11.8957 63.1144 11.7933C63.417 11.6909 63.6947 11.5266 63.9295 11.3109C64.1643 11.0953 64.3511 10.8331 64.4777 10.5412C64.6043 10.2494 64.668 9.93445 64.6647 9.61664V9.59484Z" fill="#32B000"/>
<path d="M84.7689 5.23512V10.3941C84.7689 13.1407 83.2122 14.7538 80.3839 14.7538C79.7988 14.7969 79.2121 14.6962 78.6755 14.4605C78.1389 14.2248 77.6689 13.8614 77.307 13.4023C76.9368 13.8595 76.4592 14.2192 75.9163 14.4498C75.3734 14.6804 74.7818 14.7748 74.1936 14.7248C71.3653 14.7248 69.8086 13.1407 69.8086 10.3651V5.20605H72.5346V10.1543C72.5346 11.702 73.0389 12.4141 74.1936 12.4141C75.3484 12.4141 75.9038 11.6875 75.9038 10.1543V5.23512H78.6298V10.1834C78.6298 11.7311 79.1926 12.4432 80.34 12.4432C81.4874 12.4432 82.0063 11.7166 82.0063 10.1834V5.23512H84.7689Z" fill="#32B000"/>
<path d="M86.5234 9.90788C86.5234 7.09586 88.716 5.09766 91.6905 5.09766C94.665 5.09766 96.8502 7.09586 96.8502 9.90788C96.8502 12.7199 94.6577 14.7254 91.6905 14.7254C88.7233 14.7254 86.5234 12.7272 86.5234 9.90788ZM94.0876 9.90788C94.1135 9.57827 94.0705 9.24691 93.9614 8.9346C93.8523 8.62229 93.6794 8.33579 93.4536 8.0931C93.2278 7.8504 92.954 7.65675 92.6493 7.52431C92.3446 7.39187 92.0157 7.3235 91.6832 7.3235C91.3506 7.3235 91.0217 7.39187 90.717 7.52431C90.4123 7.65675 90.1385 7.8504 89.9127 8.0931C89.6869 8.33579 89.514 8.62229 89.4049 8.9346C89.2958 9.24691 89.2528 9.57827 89.2787 9.90788C89.2528 10.2375 89.2958 10.5688 89.4049 10.8811C89.514 11.1935 89.6869 11.48 89.9127 11.7227C90.1385 11.9654 90.4123 12.159 90.717 12.2914C91.0217 12.4239 91.3506 12.4922 91.6832 12.4922C92.0157 12.4922 92.3446 12.4239 92.6493 12.2914C92.954 12.159 93.2278 11.9654 93.4536 11.7227C93.6794 11.48 93.8523 11.1935 93.9614 10.8811C94.0705 10.5688 94.1135 10.2375 94.0876 9.90788Z" fill="#32B000"/>
<path d="M104.504 5.09746V7.58976C104.277 7.58976 104.102 7.58976 103.897 7.58976C102.392 7.58976 101.398 8.41084 101.398 10.1983V14.6089H98.6719V5.23551H101.274V6.47077C101.661 6.00031 102.157 5.6298 102.72 5.39071C103.282 5.15163 103.894 5.05102 104.504 5.09746Z" fill="#32B000"/>
<path d="M110.167 10.9175L108.859 12.2036V14.5797H106.133V1.68945H108.859V8.99197L112.842 5.23535H116.094L112.177 9.19543L116.445 14.5797H113.142L110.167 10.9175Z" fill="#32B000"/>
<path d="M116.441 13.7152L117.355 11.7678C118.347 12.359 119.48 12.6728 120.636 12.6761C121.893 12.6761 122.361 12.3491 122.361 11.8259C122.361 10.3 116.683 11.8623 116.683 8.12745C116.683 6.3545 118.29 5.10472 121.068 5.10472C122.322 5.08276 123.563 5.36193 124.685 5.91853L123.772 7.85134C122.951 7.37498 122.018 7.1242 121.068 7.12472C119.84 7.12472 119.321 7.50983 119.321 7.99666C119.321 9.59523 125 8.04753 125 11.7315C125 13.4681 123.37 14.7034 120.556 14.7034C119.121 14.7432 117.7 14.4021 116.441 13.7152Z" fill="#32B000"/>
</svg>
