<svg width="40" height="40" viewBox="0 0 40 40" fill="none" xmlns="http://www.w3.org/2000/svg">
<circle opacity="0.5" cx="20" cy="20" r="20" fill="white"/>
<path d="M21.3334 19.9998C21.3334 20.7362 20.7365 21.3332 20.0001 21.3332C19.2637 21.3332 18.6667 20.7362 18.6667 19.9998C18.6667 19.2634 19.2637 18.6665 20.0001 18.6665C20.7365 18.6665 21.3334 19.2634 21.3334 19.9998Z" fill="#2E2E2E"/>
<path d="M21.3334 14.6668C21.3334 15.4032 20.7365 16.0002 20.0001 16.0002C19.2637 16.0002 18.6667 15.4032 18.6667 14.6668C18.6667 13.9305 19.2637 13.3335 20.0001 13.3335C20.7365 13.3335 21.3334 13.9305 21.3334 14.6668Z" fill="#2E2E2E"/>
<path d="M21.3334 25.3333C21.3334 26.0697 20.7365 26.6667 20.0001 26.6667C19.2637 26.6667 18.6667 26.0697 18.6667 25.3333C18.6667 24.5969 19.2637 24 20.0001 24C20.7365 24 21.3334 24.5969 21.3334 25.3333Z" fill="#2E2E2E"/>
</svg>
