<svg width="44" height="44" viewBox="0 0 44 44" fill="none" xmlns="http://www.w3.org/2000/svg">
<g clip-path="url(#clip0_2070_48215)">
<rect x="0.5" y="0.5" width="43" height="43" rx="7.5" fill="white" stroke="#E0E0E0"/>
<g clip-path="url(#clip1_2070_48215)">
<path d="M33.9753 17.0561C33.9191 15.7809 33.7129 14.9042 33.4175 14.1445C33.1128 13.3381 32.6439 12.6162 32.0297 12.016C31.4295 11.4065 30.7028 10.9329 29.9058 10.6329C29.1417 10.3375 28.2696 10.1313 26.9944 10.0751C25.7096 10.0141 25.3018 10 22.0433 10C18.7849 10 18.377 10.0141 17.0971 10.0703C15.8219 10.1266 14.9452 10.333 14.1857 10.6282C13.3791 10.9329 12.6572 11.4018 12.057 12.016C11.4475 12.6162 10.9741 13.3429 10.674 14.1399C10.3785 14.9042 10.1723 15.7761 10.1161 17.0513C10.0551 18.336 10.041 18.7439 10.041 22.0023C10.041 25.2608 10.0551 25.6686 10.1113 26.9486C10.1676 28.2238 10.374 29.1005 10.6694 29.8602C10.9741 30.6666 11.4475 31.3885 12.057 31.9887C12.6572 32.5982 13.3839 33.0718 14.1809 33.3718C14.9452 33.6672 15.8171 33.8734 17.0925 33.9296C18.3723 33.986 18.7803 33.9999 22.0388 33.9999C25.2972 33.9999 25.7051 33.986 26.985 33.9296C28.2602 33.8734 29.1369 33.6672 29.8964 33.3718C31.5094 32.7482 32.7846 31.4729 33.4082 29.8602C33.7034 29.096 33.9098 28.2238 33.966 26.9486C34.0222 25.6686 34.0363 25.2608 34.0363 22.0023C34.0363 18.7439 34.0316 18.336 33.9753 17.0561ZM31.8141 26.8549C31.7625 28.027 31.5656 28.6599 31.4015 29.0819C30.9982 30.1274 30.1684 30.9572 29.1228 31.3605C28.7009 31.5246 28.0634 31.7215 26.8958 31.7729C25.63 31.8293 25.2503 31.8433 22.0481 31.8433C18.8459 31.8433 18.4615 31.8293 17.2002 31.7729C16.0281 31.7215 15.3951 31.5246 14.9732 31.3605C14.4529 31.1682 13.9793 30.8634 13.5949 30.4649C13.1964 30.0758 12.8916 29.6069 12.6993 29.0866C12.5352 28.6647 12.3383 28.027 12.2869 26.8596C12.2305 25.5937 12.2165 25.2139 12.2165 22.0117C12.2165 18.8095 12.2305 18.425 12.2869 17.1639C12.3383 15.9918 12.5352 15.3589 12.6993 14.9369C12.8916 14.4165 13.1964 13.943 13.5996 13.5584C13.9886 13.1599 14.4575 12.8552 14.9779 12.6631C15.3999 12.499 16.0376 12.3021 17.2049 12.2504C18.4708 12.1942 18.8506 12.1801 22.0527 12.1801C25.2597 12.1801 25.6393 12.1942 26.9006 12.2504C28.0727 12.3021 28.7056 12.499 29.1276 12.6631C29.6479 12.8552 30.1215 13.1599 30.5059 13.5584C30.9044 13.9476 31.2092 14.4165 31.4015 14.9369C31.5656 15.3589 31.7625 15.9964 31.8141 17.1639C31.8703 18.4298 31.8844 18.8095 31.8844 22.0117C31.8844 25.2139 31.8703 25.589 31.8141 26.8549Z" fill="#4B4B4B"/>
<path d="M22.0442 15.8359C18.6405 15.8359 15.8789 18.5973 15.8789 22.0012C15.8789 25.4051 18.6405 28.1665 22.0442 28.1665C25.448 28.1665 28.2094 25.4051 28.2094 22.0012C28.2094 18.5973 25.448 15.8359 22.0442 15.8359ZM22.0442 26.0005C19.836 26.0005 18.0449 24.2095 18.0449 22.0012C18.0449 19.7929 19.836 18.0019 22.0442 18.0019C24.2525 18.0019 26.0434 19.7929 26.0434 22.0012C26.0434 24.2095 24.2525 26.0005 22.0442 26.0005Z" fill="#4B4B4B"/>
<path d="M29.8925 15.5943C29.8925 16.3892 29.248 17.0337 28.453 17.0337C27.6581 17.0337 27.0137 16.3892 27.0137 15.5943C27.0137 14.7993 27.6581 14.155 28.453 14.155C29.248 14.155 29.8925 14.7993 29.8925 15.5943Z" fill="#4B4B4B"/>
</g>
</g>
<defs>
<clipPath id="clip0_2070_48215">
<rect width="44" height="44" fill="white"/>
</clipPath>
<clipPath id="clip1_2070_48215">
<rect width="24" height="24" fill="white" transform="translate(10 10)"/>
</clipPath>
</defs>
</svg>
