<svg width="40" height="40" viewBox="0 0 40 40" fill="none" xmlns="http://www.w3.org/2000/svg">
<circle opacity="0.5" cx="20" cy="20" r="20" fill="white"/>
<path d="M21.3337 19.9998C21.3337 20.7362 20.7367 21.3332 20.0003 21.3332C19.2639 21.3332 18.667 20.7362 18.667 19.9998C18.667 19.2634 19.2639 18.6665 20.0003 18.6665C20.7367 18.6665 21.3337 19.2634 21.3337 19.9998Z" fill="#2E2E2E"/>
<path d="M21.3337 14.6668C21.3337 15.4032 20.7367 16.0002 20.0003 16.0002C19.2639 16.0002 18.667 15.4032 18.667 14.6668C18.667 13.9305 19.2639 13.3335 20.0003 13.3335C20.7367 13.3335 21.3337 13.9305 21.3337 14.6668Z" fill="#2E2E2E"/>
<path d="M21.3337 25.3333C21.3337 26.0697 20.7367 26.6667 20.0003 26.6667C19.2639 26.6667 18.667 26.0697 18.667 25.3333C18.667 24.5969 19.2639 24 20.0003 24C20.7367 24 21.3337 24.5969 21.3337 25.3333Z" fill="#2E2E2E"/>
</svg>
