<svg width="44" height="44" viewBox="0 0 44 44" fill="none" xmlns="http://www.w3.org/2000/svg">
<g clip-path="url(#clip0_2070_48234)">
<rect x="0.5" y="0.5" width="43" height="43" rx="7.5" fill="white" stroke="#E0E0E0"/>
<g clip-path="url(#clip1_2070_48234)">
<path d="M32.6795 11.3202C31.7996 10.4401 30.7395 10 29.5001 10H14.5C13.2605 10 12.2004 10.4401 11.3202 11.3202C10.4401 12.2004 10 13.2604 10 14.5V29.4999C10 30.7393 10.4401 31.7994 11.3202 32.6797C12.2004 33.5599 13.2605 34 14.5 34H29.4999C30.7394 34 31.7995 33.5599 32.6793 32.6797C33.5596 31.7994 33.9997 30.7394 33.9997 29.4999V14.5C33.9996 13.2604 33.5595 12.2003 32.6795 11.3202ZM28.3593 19.2344C28.3698 19.3282 28.3751 19.4686 28.3751 19.6564C28.3751 20.5314 28.2474 21.409 27.9923 22.289C27.7372 23.1694 27.3465 24.0131 26.8202 24.8204C26.2945 25.6275 25.6669 26.3413 24.9378 26.961C24.2086 27.5806 23.3337 28.0756 22.3127 28.4451C21.2921 28.8151 20.1981 29.0002 19.0316 29.0002C17.2192 29.0002 15.5421 28.5103 14.0004 27.5315C14.2504 27.5626 14.511 27.5783 14.7817 27.5783C16.2921 27.5783 17.6515 27.1096 18.8599 26.1718C18.1517 26.1617 17.5187 25.9431 16.9615 25.5156C16.4041 25.0885 16.0162 24.547 15.7974 23.8907C16.0681 23.9323 16.2712 23.9529 16.4066 23.9529C16.6358 23.9529 16.9015 23.9113 17.2035 23.8282C16.4431 23.6821 15.8025 23.3049 15.2817 22.6955C14.7607 22.086 14.5004 21.3908 14.5004 20.6096V20.5783C15.0523 20.8386 15.5731 20.974 16.0628 20.9845C15.1148 20.349 14.6409 19.4376 14.6409 18.2502C14.6409 17.6668 14.7918 17.1147 15.0939 16.5939C15.9168 17.6044 16.917 18.4116 18.0939 19.0157C19.2709 19.6198 20.5314 19.9585 21.8751 20.0313C21.8231 19.8334 21.797 19.5833 21.797 19.2813C21.797 18.3749 22.1173 17.6016 22.758 16.961C23.3985 16.3203 24.172 15.9999 25.0781 15.9999C26.0367 15.9999 26.8338 16.3437 27.4691 17.0313C28.1879 16.8959 28.8861 16.6301 29.563 16.2344C29.3026 17.0363 28.818 17.6458 28.1099 18.0625C28.7868 17.9685 29.4168 17.7916 30.0001 17.5312C29.5626 18.1978 29.0156 18.7655 28.3593 19.2344Z" fill="#4B4B4B"/>
</g>
</g>
<defs>
<clipPath id="clip0_2070_48234">
<rect width="44" height="44" fill="white"/>
</clipPath>
<clipPath id="clip1_2070_48234">
<rect width="24" height="24" fill="white" transform="translate(10 10)"/>
</clipPath>
</defs>
</svg>
