<svg width="24" height="24" viewBox="0 0 24 24" fill="none" xmlns="http://www.w3.org/2000/svg">
<path d="M12 24C18.6274 24 24 18.6274 24 12C24 5.37258 18.6274 0 12 0C5.37258 0 0 5.37258 0 12C0 18.6274 5.37258 24 12 24Z" fill="#F4B527"/>
<path d="M11.9984 23.2441C18.2085 23.2441 23.2429 18.2098 23.2429 11.9996C23.2429 5.78945 18.2085 0.755127 11.9984 0.755127C5.78823 0.755127 0.753906 5.78945 0.753906 11.9996C0.753906 18.2098 5.78823 23.2441 11.9984 23.2441Z" fill="#F9BE3D"/>
<path d="M12.0013 22.883C18.0124 22.883 22.8854 18.01 22.8854 11.9989C22.8854 5.98773 18.0124 1.11475 12.0013 1.11475C5.99018 1.11475 1.11719 5.98773 1.11719 11.9989C1.11719 18.01 5.99018 22.883 12.0013 22.883Z" fill="#ED971B"/>
<path d="M17.9594 20.7514L16.8497 19.1248L17.0187 19.0068L18.1657 20.6073L17.9594 20.7514ZM5.94573 20.6893C5.87738 20.6421 5.80779 20.5924 5.73945 20.5427L6.90503 18.9546L7.07279 19.0789L5.94573 20.6893ZM18.485 20.3687L17.2784 18.8129C17.3319 18.7719 17.3865 18.7284 17.44 18.6887L18.6826 20.2159C18.618 20.2656 18.5509 20.3178 18.485 20.3687ZM5.42382 20.3004L5.22625 20.1413L6.48502 18.6278L6.64532 18.7583L5.42382 20.3004ZM18.987 19.9549L17.6873 18.4749C17.7382 18.4302 17.7904 18.3842 17.8401 18.337L19.1747 19.7859L18.987 19.9549ZM4.92553 19.8803L4.73914 19.7089L6.08987 18.2749L6.24147 18.4153L4.92553 19.8803ZM19.4642 19.5076L18.0762 18.1109C18.1247 18.0624 18.1731 18.0127 18.2203 17.963L19.6419 19.3299L19.4642 19.5076ZM4.45582 19.428C4.39742 19.3684 4.33156 19.3038 4.28061 19.2454L5.71708 17.8971C5.76306 17.9481 5.81152 17.9978 5.85998 18.0462L4.45582 19.428ZM19.9053 19.0379L18.439 17.7281C18.485 17.6772 18.5298 17.6237 18.5745 17.5716L20.0768 18.8465C20.0221 18.9111 19.9662 18.9745 19.9053 19.0379ZM4.00724 18.9534C3.95256 18.89 3.89788 18.8291 3.84445 18.7607L5.36666 17.502C5.41016 17.5554 5.45489 17.6076 5.50087 17.6598L4.00724 18.9534ZM20.3229 18.5383L18.7746 17.3205C18.8168 17.2671 18.8591 17.2124 18.8988 17.1565L20.4757 18.337C20.4322 18.4041 20.38 18.4725 20.3278 18.5383H20.3229ZM3.6009 18.4476C3.54995 18.3817 3.499 18.3134 3.4493 18.2451L5.03737 17.0807C5.07838 17.1366 5.12063 17.1926 5.16163 17.246L3.6009 18.4476ZM20.7143 18.0114L19.0989 16.8931C19.1374 16.8372 19.1759 16.78 19.2132 16.7228L20.8609 17.8027C20.81 17.8748 20.7628 17.9506 20.7143 18.0139V18.0114ZM3.21941 17.9195C3.17344 17.8511 3.12622 17.7803 3.08148 17.7095L4.7379 16.6446C4.77518 16.703 4.8137 16.7614 4.85222 16.8173L3.21941 17.9195ZM21.0684 17.4634L19.3834 16.4445C19.4182 16.3873 19.453 16.3277 19.4878 16.268L21.1977 17.2447C21.1554 17.3205 21.1119 17.3951 21.0684 17.4659V17.4634ZM2.87272 17.3703C2.83047 17.2982 2.78822 17.2249 2.74846 17.1516L4.46825 16.191C4.50056 16.2507 4.53535 16.3153 4.57014 16.3699L2.87272 17.3703ZM21.3878 16.8943L19.6419 15.9822C19.6742 15.9226 19.7053 15.858 19.7351 15.7983L21.5021 16.6682C21.4661 16.7465 21.4276 16.8223 21.389 16.8968L21.3878 16.8943ZM2.55834 16.8011C2.52106 16.7266 2.48254 16.6495 2.4465 16.5737L4.22221 15.7213C4.25203 15.7834 4.28185 15.8456 4.31292 15.9052L2.55834 16.8011ZM21.6723 16.3041L19.873 15.5026C19.9004 15.4392 19.9289 15.3783 19.955 15.3125L21.773 16.0705C21.7419 16.1537 21.7071 16.232 21.6736 16.3091L21.6723 16.3041ZM2.28745 16.2096C2.2539 16.1338 2.22159 16.0556 2.18928 15.9773L4.01469 15.2317C4.03954 15.2951 4.06688 15.356 4.09422 15.4218L2.28745 16.2096ZM21.9209 15.6989L20.0756 15.0105C20.0992 14.9471 20.1228 14.8863 20.1452 14.8167L22.0091 15.4603C21.9793 15.5448 21.9507 15.6256 21.9209 15.7039V15.6989ZM2.03892 15.607L1.95567 15.3684L3.8196 14.7396C3.84072 14.8055 3.86433 14.8713 3.8867 14.9347L2.03892 15.607ZM22.1296 15.0925L20.2458 14.5197C20.2645 14.4551 20.2843 14.388 20.303 14.3221L22.2005 14.844C22.1781 14.9248 22.1545 15.0068 22.1296 15.0925ZM1.83886 14.9993C1.81525 14.9186 1.79164 14.8365 1.77052 14.7508L3.67173 14.2401L3.72765 14.4389L1.83886 14.9993ZM22.2999 14.4638L20.3838 14.0077C20.3999 13.9419 20.4148 13.8748 20.4285 13.8077L22.3558 14.2165C22.3384 14.2923 22.3198 14.3755 22.2999 14.4575V14.4638ZM1.67235 14.3681C1.65495 14.2873 1.63631 14.2041 1.62016 14.1196L3.55119 13.7256C3.56486 13.794 3.57977 13.8611 3.59469 13.9282L1.67235 14.3681ZM22.4241 13.8251L20.4844 13.4895C20.4956 13.4212 20.5068 13.3529 20.5167 13.2858L22.4651 13.5753C22.4569 13.6548 22.4453 13.736 22.4303 13.8188L22.4241 13.8251ZM1.54809 13.7281C1.53442 13.6449 1.52075 13.5616 1.50957 13.4796L3.46048 13.2075C3.47042 13.2758 3.48036 13.3442 3.49155 13.4113L1.54809 13.7281ZM22.5211 13.1801L20.5627 12.9639C20.5701 12.8968 20.5776 12.8272 20.5838 12.7589L22.5459 12.9291C22.5397 13.0074 22.531 13.0919 22.5223 13.1739L22.5211 13.1801ZM1.46235 13.0832C1.45365 13 1.44619 12.9142 1.43998 12.8347L3.40332 12.6831C3.40332 12.7514 3.41451 12.821 3.42196 12.8881L1.46235 13.0832ZM22.5732 12.5315L20.6049 12.4358C20.6049 12.3662 20.6112 12.2966 20.6136 12.2283C20.6136 12.2022 20.6136 12.1748 20.6136 12.1475L22.5832 12.1786C22.5832 12.2121 22.5832 12.2457 22.5832 12.2792C22.5807 12.3588 22.5782 12.442 22.5745 12.5253L22.5732 12.5315ZM1.41637 12.4333C1.41637 12.3501 1.41637 12.2656 1.41016 12.1848L3.37971 12.1537C3.37971 12.2221 3.37971 12.2917 3.37971 12.36L1.41637 12.4333ZM3.37971 11.8257L1.4114 11.7834V11.7312C1.4114 11.6654 1.4114 11.5983 1.41761 11.5299L3.38592 11.6194C3.38592 11.6741 3.38592 11.7287 3.37971 11.7834V11.8257ZM20.6149 11.8257C20.6149 11.7573 20.6149 11.689 20.6074 11.6206L22.5757 11.5337C22.5757 11.6169 22.5819 11.7014 22.5832 11.7822L20.6149 11.8257ZM3.40705 11.2988L1.44371 11.1385C1.45116 11.054 1.45862 10.9695 1.46732 10.89L3.42693 11.0975C3.42072 11.1509 3.41451 11.2205 3.40829 11.2889L3.40705 11.2988ZM20.5875 11.2988C20.5813 11.2305 20.5751 11.1621 20.5677 11.0938L22.5273 10.8863C22.536 10.9707 22.5434 11.0552 22.5509 11.1348L20.5875 11.2988ZM3.4667 10.7744L1.51454 10.4812C1.52696 10.3967 1.53939 10.3134 1.5543 10.2326L3.50273 10.5582C3.48782 10.6253 3.47788 10.6936 3.46794 10.762L3.4667 10.7744ZM20.5279 10.7744C20.518 10.7061 20.508 10.6377 20.4956 10.5706L22.4378 10.2426C22.4527 10.3258 22.4651 10.4091 22.4776 10.4911L20.5279 10.7744ZM3.55989 10.2463L1.63134 9.84618C1.6475 9.76292 1.66614 9.67967 1.68477 9.59765L3.60338 10.0438C3.58847 10.1046 3.57356 10.173 3.55989 10.2463ZM20.4372 10.2463C20.4235 10.1792 20.4086 10.1109 20.3937 10.045L22.3111 9.59765C22.3309 9.67842 22.3483 9.76168 22.3657 9.84618L20.4372 10.2463ZM3.68291 9.7244L1.78294 9.20623C1.80531 9.12421 1.82892 9.0422 1.85253 8.9577L3.74007 9.52185C3.72019 9.59144 3.70155 9.65854 3.68291 9.7244ZM20.3142 9.7244C20.2955 9.65854 20.2769 9.59268 20.257 9.52682L22.1421 8.96019C22.1669 9.04096 22.1905 9.12297 22.2129 9.20871L20.3142 9.7244ZM3.83824 9.21741L1.97431 8.58243L2.06005 8.3426L3.90783 9.02356C3.88297 9.08694 3.86061 9.15279 3.83824 9.21741ZM20.1588 9.21741C20.1365 9.15279 20.1129 9.08694 20.0893 9.02356L21.9383 8.3426C21.9668 8.42089 21.9954 8.50166 22.0228 8.58119L20.1588 9.21741ZM19.9724 8.72036C19.9463 8.65699 19.919 8.5961 19.8917 8.53024L21.6947 7.73745C21.7283 7.81449 21.7618 7.89153 21.7929 7.96982L19.9724 8.72036ZM4.02463 8.72036L2.20295 7.97479C2.23526 7.8965 2.26881 7.81822 2.3036 7.74118L4.1054 8.53397C4.07807 8.59361 4.05073 8.65699 4.02463 8.72036ZM19.7562 8.23947C19.7264 8.17858 19.6953 8.11521 19.6643 8.0568L21.4139 7.15341C21.4524 7.22797 21.4909 7.30377 21.5282 7.37957L19.7562 8.23947ZM4.24209 8.23947L2.47135 7.37833C2.50739 7.30253 2.54591 7.22673 2.58443 7.15093L4.33405 8.05556L4.24209 8.23947ZM19.5102 7.77597C19.4766 7.71632 19.4418 7.65171 19.407 7.59703L21.0995 6.58927L21.2238 6.80673L19.5102 7.77597ZM4.48937 7.77597L2.77455 6.80673C2.81556 6.73341 2.85905 6.66009 2.89882 6.58678L4.59003 7.59703C4.55772 7.64674 4.52292 7.70638 4.48937 7.76106V7.77597ZM19.2368 7.32862L19.1225 7.15715L20.7491 6.04624C20.7963 6.11583 20.8423 6.18666 20.8883 6.25748L19.2368 7.32862ZM4.76399 7.32241L3.11255 6.24879C3.15852 6.17796 3.20575 6.10713 3.25296 6.03879L4.87831 7.13975C4.83979 7.19691 4.80127 7.25407 4.76399 7.31247V7.32241ZM18.9299 6.89371C18.8889 6.83779 18.8466 6.78311 18.8056 6.72844L20.3614 5.52061C20.4123 5.58647 20.4633 5.65481 20.513 5.72191L18.9299 6.89371ZM5.06222 6.88625L3.47912 5.71322L3.63196 5.51191L5.18648 6.72223C5.15045 6.76696 5.1082 6.82039 5.06719 6.87631L5.06222 6.88625ZM18.6068 6.47619L18.4726 6.32086L19.9513 5.01983C20.006 5.08197 20.0619 5.1441 20.1166 5.2112L18.6068 6.47619ZM5.39525 6.46997L3.88794 5.2025C3.94138 5.13788 3.99729 5.07824 4.05321 5.00989L5.53069 6.3134C5.49093 6.35441 5.43998 6.40784 5.39525 6.46003V6.46997ZM18.2539 6.08103C18.2067 6.03133 18.1582 5.98162 18.1098 5.93316L19.5065 4.53024C19.5661 4.58989 19.6307 4.6545 19.6829 4.71291L18.2539 6.08103ZM5.74939 6.07358L4.32162 4.71663L4.49683 4.53024L5.89229 5.92074C5.84507 5.96423 5.79661 6.01393 5.74939 6.06364V6.07358ZM17.8774 5.707L17.7245 5.56783L19.0355 4.08662C19.0976 4.14254 19.1598 4.1997 19.2219 4.25686L17.8774 5.707ZM6.1259 5.70079L4.78512 4.25935C4.84601 4.20095 4.90938 4.14378 4.97151 4.08911L6.27875 5.56162L6.1259 5.70079ZM17.4785 5.35658C17.4251 5.31309 17.3716 5.2696 17.317 5.23232L18.5347 3.68402L18.7323 3.84307L17.4785 5.35658ZM6.52603 5.35658L5.27471 3.83562C5.33933 3.78094 5.40643 3.72751 5.47229 3.67656L6.68633 5.22735L6.52603 5.35658ZM17.0585 5.02729L16.8907 4.90303L18.0091 3.28762C18.0774 3.33484 18.147 3.3833 18.2154 3.43425L17.0585 5.02729ZM6.9448 5.02729L5.78915 3.43301C5.85626 3.3833 5.92584 3.33484 5.99543 3.28638L7.11379 4.908L6.9448 5.02729Z" fill="#D88313"/>
<path d="M12.0012 20.3568C16.6164 20.3568 20.3578 16.6154 20.3578 12.0002C20.3578 7.38494 16.6164 3.64355 12.0012 3.64355C7.38592 3.64355 3.64453 7.38494 3.64453 12.0002C3.64453 16.6154 7.38592 20.3568 12.0012 20.3568Z" fill="#F4B527"/>
<path d="M17.5473 17.547C20.6108 14.4835 20.6108 9.51651 17.5473 6.45298C14.4838 3.38944 9.51681 3.38944 6.45327 6.45298C3.38974 9.51651 3.38973 14.4835 6.45327 17.547C9.51681 20.6106 14.4838 20.6106 17.5473 17.547Z" fill="#F9BE3D"/>
<path d="M11.999 18.823C15.7674 18.823 18.8223 15.7681 18.8223 11.9997C18.8223 8.23138 15.7674 5.17651 11.999 5.17651C8.23065 5.17651 5.17578 8.23138 5.17578 11.9997C5.17578 15.7681 8.23065 18.823 11.999 18.823Z" fill="#F4B527"/>
<g clip-path="url(#clip0_1997_66630)">
<path d="M14.9739 8.25693H14.373C14.1245 8.25693 13.8861 8.35565 13.7104 8.53138C13.5347 8.7071 13.436 8.94544 13.436 9.19395V10.4824L13.4184 10.4707V10.4906L12.848 9.92015L11.911 8.98312L10.4012 10.487V10.4707L10.3871 10.4847V9.12953C10.3871 8.89831 10.2953 8.67653 10.1319 8.51292C9.96855 8.34931 9.7469 8.25724 9.51568 8.25693H8.8457V12.6855C8.8457 12.9167 8.93751 13.1383 9.10094 13.3017C9.26437 13.4652 9.48602 13.557 9.71714 13.557H10.3871V12.3857L11.9098 10.8501L13.4324 12.3857V13.557H14.0333C14.2818 13.557 14.5202 13.4583 14.6959 13.2825C14.8716 13.1068 14.9703 12.8685 14.9703 12.62L14.9739 8.25693ZM8.92652 12.2955V12.0753L10.3051 10.6979V12.2955H8.92652ZM13.5133 12.2955V10.6979L14.8919 12.0753V12.2955H13.5133Z" fill="#BF7408"/>
<path d="M9.64607 15.5528H14.9731V14.8278C14.9731 14.6104 14.8867 14.4018 14.7329 14.248C14.5792 14.0943 14.3706 14.0079 14.1532 14.0079H8.82617V14.7341C8.82648 14.9513 8.913 15.1596 9.06673 15.3131C9.22046 15.4666 9.42882 15.5528 9.64607 15.5528Z" fill="#BF7408"/>
</g>
<defs>
<clipPath id="clip0_1997_66630">
<rect width="10.8332" height="10.8332" fill="white" transform="translate(6.48438 6.48828)"/>
</clipPath>
</defs>
</svg>
