<svg width="40" height="40" viewBox="0 0 40 40" fill="none" xmlns="http://www.w3.org/2000/svg">
<circle opacity="0.5" cx="20" cy="20" r="20" fill="white"/>
<path d="M21.3332 19.9998C21.3332 20.7362 20.7362 21.3332 19.9998 21.3332C19.2634 21.3332 18.6665 20.7362 18.6665 19.9998C18.6665 19.2634 19.2634 18.6665 19.9998 18.6665C20.7362 18.6665 21.3332 19.2634 21.3332 19.9998Z" fill="#2E2E2E"/>
<path d="M21.3332 14.6668C21.3332 15.4032 20.7362 16.0002 19.9998 16.0002C19.2634 16.0002 18.6665 15.4032 18.6665 14.6668C18.6665 13.9305 19.2634 13.3335 19.9998 13.3335C20.7362 13.3335 21.3332 13.9305 21.3332 14.6668Z" fill="#2E2E2E"/>
<path d="M21.3332 25.3333C21.3332 26.0697 20.7362 26.6667 19.9998 26.6667C19.2634 26.6667 18.6665 26.0697 18.6665 25.3333C18.6665 24.5969 19.2634 24 19.9998 24C20.7362 24 21.3332 24.5969 21.3332 25.3333Z" fill="#2E2E2E"/>
</svg>
