<svg width="22" height="24" viewBox="0 0 22 24" fill="none" xmlns="http://www.w3.org/2000/svg">
<g clip-path="url(#clip0_2948_58948)">
<path d="M9.75049 2C12.4675 2 12.8065 2.01 13.8725 2.06C14.9375 2.11 15.6625 2.277 16.3005 2.525C16.9605 2.779 17.5165 3.123 18.0725 3.678C18.581 4.1779 18.9744 4.78259 19.2255 5.45C19.4725 6.087 19.6405 6.813 19.6905 7.878C19.7375 8.944 19.7505 9.283 19.7505 12C19.7505 14.717 19.7405 15.056 19.6905 16.122C19.6405 17.187 19.4725 17.912 19.2255 18.55C18.9752 19.2178 18.5816 19.8226 18.0725 20.322C17.5725 20.8303 16.9678 21.2238 16.3005 21.475C15.6635 21.722 14.9375 21.89 13.8725 21.94C12.8065 21.987 12.4675 22 9.75049 22C7.03349 22 6.69449 21.99 5.62849 21.94C4.56349 21.89 3.83849 21.722 3.20049 21.475C2.53281 21.2245 1.92802 20.8309 1.42849 20.322C0.919895 19.8222 0.52642 19.2175 0.275488 18.55C0.0274884 17.913 -0.139512 17.187 -0.189512 16.122C-0.236512 15.056 -0.249512 14.717 -0.249512 12C-0.249512 9.283 -0.239512 8.944 -0.189512 7.878C-0.139512 6.812 0.0274884 6.088 0.275488 5.45C0.525725 4.78218 0.919292 4.17732 1.42849 3.678C1.92816 3.16923 2.53292 2.77573 3.20049 2.525C3.83849 2.277 4.56249 2.11 5.62849 2.06C6.69449 2.013 7.03349 2 9.75049 2ZM9.75049 7C8.42441 7 7.15264 7.52678 6.21496 8.46447C5.27727 9.40215 4.75049 10.6739 4.75049 12C4.75049 13.3261 5.27727 14.5979 6.21496 15.5355C7.15264 16.4732 8.42441 17 9.75049 17C11.0766 17 12.3483 16.4732 13.286 15.5355C14.2237 14.5979 14.7505 13.3261 14.7505 12C14.7505 10.6739 14.2237 9.40215 13.286 8.46447C12.3483 7.52678 11.0766 7 9.75049 7ZM16.2505 6.75C16.2505 6.41848 16.1188 6.10054 15.8844 5.86612C15.65 5.6317 15.332 5.5 15.0005 5.5C14.669 5.5 14.351 5.6317 14.1166 5.86612C13.8822 6.10054 13.7505 6.41848 13.7505 6.75C13.7505 7.08152 13.8822 7.39946 14.1166 7.63388C14.351 7.8683 14.669 8 15.0005 8C15.332 8 15.65 7.8683 15.8844 7.63388C16.1188 7.39946 16.2505 7.08152 16.2505 6.75ZM9.75049 9C10.5461 9 11.3092 9.31607 11.8718 9.87868C12.4344 10.4413 12.7505 11.2044 12.7505 12C12.7505 12.7956 12.4344 13.5587 11.8718 14.1213C11.3092 14.6839 10.5461 15 9.75049 15C8.95484 15 8.19178 14.6839 7.62917 14.1213C7.06656 13.5587 6.75049 12.7956 6.75049 12C6.75049 11.2044 7.06656 10.4413 7.62917 9.87868C8.19178 9.31607 8.95484 9 9.75049 9Z" fill="#CCCCCC"/>
</g>
<defs>
<clipPath id="clip0_2948_58948">
<rect width="21.75" height="24" fill="white"/>
</clipPath>
</defs>
</svg>
