<svg width="22" height="24" viewBox="0 0 22 24" fill="none" xmlns="http://www.w3.org/2000/svg">
<g clip-path="url(#clip0_2948_58953)">
<path d="M19.2935 6.498C19.7505 8.28 19.7505 12 19.7505 12C19.7505 12 19.7505 15.72 19.2935 17.502C19.0395 18.487 18.2965 19.262 17.3555 19.524C15.6465 20 9.75049 20 9.75049 20C9.75049 20 3.85749 20 2.14549 19.524C1.20049 19.258 0.458488 18.484 0.207488 17.502C-0.249512 15.72 -0.249512 12 -0.249512 12C-0.249512 12 -0.249512 8.28 0.207488 6.498C0.461488 5.513 1.20449 4.738 2.14549 4.476C3.85749 4 9.75049 4 9.75049 4C9.75049 4 15.6465 4 17.3555 4.476C18.3005 4.742 19.0425 5.516 19.2935 6.498ZM7.75049 15.5L13.7505 12L7.75049 8.5V15.5Z" fill="#CCCCCC"/>
</g>
<defs>
<clipPath id="clip0_2948_58953">
<rect width="21.75" height="24" fill="white"/>
</clipPath>
</defs>
</svg>
