<svg width="179" height="132" viewBox="0 0 179 132" fill="none" xmlns="http://www.w3.org/2000/svg">
<path d="M107.963 19.6419C97.8486 7.39604 74.3633 32.9882 74.3633 32.9882L77.7876 33.892C81.2169 34.7958 118.409 32.2906 107.963 19.6419ZM80.6478 32.217C80.6478 32.217 98.0416 19.7353 101.397 25.0649C103.371 28.1841 92.6132 32.939 80.6478 32.217Z" fill="#FFAF00"/>
<path d="M102.324 2.07735C88.4688 -9.44648 73.2969 33.623 73.2969 33.623H76.84C80.388 33.623 121.049 17.6291 102.324 2.07735ZM79.1707 30.1747C79.1707 30.1747 94.016 9.91218 97.376 12.2454C100.736 14.5787 90.9232 26.7214 79.1707 30.1747Z" fill="#FFD780"/>
<path d="M39.6174 19.6418C49.737 7.39592 73.2223 32.988 73.2223 32.988L69.7931 33.8919C66.3638 34.7957 29.1712 32.2905 39.6174 19.6418ZM66.9378 32.2168C66.9378 32.2168 49.539 19.7352 46.1889 25.0648C44.2294 28.184 54.9724 32.9389 66.9378 32.2168Z" fill="#FFAF00"/>
<path d="M45.2556 2.07735C59.1113 -9.44648 74.2882 33.623 74.2882 33.623H70.7401C67.1921 33.623 26.5357 17.6291 45.2556 2.07735ZM68.4094 30.1747C68.4094 30.1747 53.5641 9.91218 50.2041 12.2454C46.8441 14.5787 56.6618 26.7214 68.4094 30.1747Z" fill="#FFD780"/>
<path d="M116.093 52.5681H31.4844V106.926H116.093V52.5681Z" fill="#2FA500"/>
<path d="M116.093 52.5681H31.4844V57.9665H116.093V52.5681Z" fill="#258000"/>
<path d="M122.784 33.6235H24.8047V52.6432H122.784V33.6235Z" fill="#2FA500"/>
<path d="M79.7526 34H68V107.304H79.7526V34Z" fill="#FFD780"/>
<path d="M164.486 103.619L169.104 94.1938L179 103.874L164.486 103.619Z" fill="#FFD780"/>
<path d="M137.682 65.1789L147.761 68.1946L139.779 79.4954L137.682 65.1789Z" fill="#FFAF00"/>
<path d="M49.6094 121.255L57.0508 113.838L63.2521 126.199L49.6094 121.255Z" fill="#FFAF00" stroke="#FFAF00" stroke-linejoin="round"/>
<path d="M103.793 127.244L108.195 117.717L118.309 127.171L103.793 127.244Z" stroke="#FFAF00" stroke-linejoin="round"/>
<path d="M0 99.006L7.44146 91.5894L13.6427 103.95L0 99.006Z" fill="#FFD780"/>
<path d="M19.1144 118.966L18.269 113.85L25.0379 114.928L19.1144 118.966Z" stroke="#FFD780"/>
<path d="M11.1641 77.992L15.223 74.2837L18.6055 80.4642L11.1641 77.992Z" fill="#FFD780"/>
</svg>
