<svg width="107" height="20" viewBox="0 0 107 20" fill="none" xmlns="http://www.w3.org/2000/svg">
<path d="M105.001 7.69984L99.0097 7.18317L96.6681 1.6665L94.3264 7.1915L88.3347 7.69984L92.8847 11.6415L91.5181 17.4998L96.6681 14.3915L101.818 17.4998L100.46 11.6415L105.001 7.69984ZM96.6681 12.8332L93.5347 14.7248L94.3681 11.1582L91.6014 8.75817L95.2514 8.4415L96.6681 5.08317L98.0931 8.44984L101.743 8.7665L98.9764 11.1665L99.8097 14.7332L96.6681 12.8332Z" fill="#2FA500"/>
<path d="M75.0001 14.3915L80.1501 17.4998L78.7834 11.6415L83.3334 7.69984L77.3417 7.1915L75.0001 1.6665L72.6584 7.1915L66.6667 7.69984L71.2167 11.6415L69.8501 17.4998L75.0001 14.3915Z" fill="#2FA500"/>
<path d="M53.3321 14.3915L58.4821 17.4998L57.1154 11.6415L61.6654 7.69984L55.6738 7.1915L53.3321 1.6665L50.9904 7.1915L44.9988 7.69984L49.5488 11.6415L48.1821 17.4998L53.3321 14.3915Z" fill="#2FA500"/>
<path d="M31.6681 14.3915L36.8181 17.4998L35.4514 11.6415L40.0014 7.69984L34.0097 7.1915L31.6681 1.6665L29.3264 7.1915L23.3347 7.69984L27.8847 11.6415L26.5181 17.4998L31.6681 14.3915Z" fill="#2FA500"/>
<path d="M10.0001 14.3915L15.1501 17.4998L13.7834 11.6415L18.3334 7.69984L12.3417 7.1915L10.0001 1.6665L7.65841 7.1915L1.66675 7.69984L6.21675 11.6415L4.85008 17.4998L10.0001 14.3915Z" fill="#2FA500"/>
</svg>
