<svg width="58" height="56" viewBox="0 0 58 56" fill="none" xmlns="http://www.w3.org/2000/svg">
<g clip-path="url(#clip0_1768_26725)">
<path d="M50.4375 6.65908L28.4717 0.0692344C28.1641 -0.0230781 27.8363 -0.0230781 27.5286 0.0692344L5.56242 6.65908C4.86854 6.86722 4.39331 7.50597 4.39331 8.23047V32.3932C4.39331 35.5359 5.66567 38.7531 8.17484 41.9553C10.0912 44.4009 12.7426 46.8567 16.055 49.2545C21.6197 53.2826 27.0992 55.7536 27.3298 55.8567C27.543 55.9522 27.7716 56 28.0002 56C28.2288 56 28.4573 55.9523 28.6705 55.8567C28.901 55.7536 34.3804 53.2826 39.9451 49.2545C43.2575 46.8567 45.9088 44.4009 47.8252 41.9553C50.3344 38.7532 51.6066 35.536 51.6066 32.3932V8.23047C51.6066 7.50597 51.1315 6.86722 50.4375 6.65908Z" fill="#EDEDED"/>
<path d="M38.3804 32.7988V22.2988H19.9902V32.7988C19.9902 37.3675 38.3804 37.3675 38.3804 32.7988Z" fill="#136BE1"/>
<path d="M29.1912 16.3335L14 23.02L29.1912 29.7064L44.3823 23.02L29.1912 16.3335Z" fill="#136BE1"/>
<path d="M17.5354 32.7397C17.0578 32.8313 16.567 32.8313 16.0894 32.7397C15.856 33.9881 15.6268 35.2145 15.4016 36.4191C16.308 36.7779 17.3171 36.7779 18.2235 36.4191C17.9995 35.2145 17.7701 33.9881 17.5354 32.7397Z" fill="#136BE1"/>
<path d="M17.3128 30.9759V24.7077L29.2394 23.5188C29.3071 23.5136 29.3732 23.4949 29.4336 23.4638C29.4941 23.4327 29.5477 23.3898 29.5914 23.3377C29.635 23.2856 29.6678 23.2253 29.6879 23.1604C29.7079 23.0954 29.7148 23.0271 29.708 22.9595C29.7013 22.8918 29.6811 22.8262 29.6487 22.7665C29.6163 22.7067 29.5723 22.654 29.5192 22.6115C29.4661 22.5691 29.4051 22.5376 29.3398 22.519C29.2744 22.5004 29.2059 22.495 29.1385 22.5032L16.752 23.7379C16.6259 23.7503 16.509 23.8092 16.424 23.9031C16.339 23.9969 16.292 24.119 16.292 24.2457V30.9759C16.292 31.1112 16.3458 31.2411 16.4415 31.3368C16.5372 31.4325 16.667 31.4863 16.8024 31.4863C16.9378 31.4863 17.0676 31.4325 17.1633 31.3368C17.2591 31.2411 17.3128 31.1112 17.3128 30.9759Z" fill="#136BE1"/>
<path d="M17.803 31.9788C17.803 31.7832 17.745 31.592 17.6364 31.4293C17.5277 31.2667 17.3732 31.1399 17.1925 31.065C17.0118 30.9902 16.8129 30.9706 16.621 31.0088C16.4292 31.0469 16.253 31.1411 16.1146 31.2794C15.9763 31.4177 15.8821 31.594 15.844 31.7858C15.8058 31.9777 15.8254 32.1766 15.9002 32.3573C15.9751 32.538 16.1019 32.6925 16.2645 32.8011C16.4272 32.9098 16.6184 32.9678 16.814 32.9678C17.0763 32.9678 17.3279 32.8636 17.5134 32.6781C17.6988 32.4927 17.803 32.2411 17.803 31.9788Z" fill="#136BE1"/>
</g>
<path d="M57.0225 46.0113L55.3089 43.779L55.6922 41.0056L53.0767 39.9684L52.0395 37.3529L49.2661 37.7362L47.0113 36L44.779 37.7136L42.0056 37.3303L40.9684 39.9459L38.3529 40.9831L38.7362 43.7565L37 46.0113L38.7136 48.2435L38.3303 51.0169L40.9459 52.0541L41.9831 54.6697L44.7565 54.2864L46.9887 56L49.221 54.2864L51.9944 54.6697L53.0316 52.0541L55.6471 50.9944L55.2638 48.221L57.0225 46.0113ZM46.1995 49.2582L42.8625 46.5073L43.584 45.628L46.0643 47.6573L50.3033 42.7644L51.1601 43.5085L46.1995 49.2582Z" fill="#2FA500"/>
<defs>
<clipPath id="clip0_1768_26725">
<rect width="56" height="56" fill="white"/>
</clipPath>
</defs>
</svg>
