<svg width="24" height="25" viewBox="0 0 24 25" fill="none" xmlns="http://www.w3.org/2000/svg">
<path d="M4 1.00146H20C21.6569 1.00146 23 2.34461 23 4.00146V13.433C23 14.406 22.5281 15.3186 21.7341 15.8811L13.7341 21.5477C12.6951 22.2836 11.3049 22.2836 10.2659 21.5477L2.26595 15.8811C1.47192 15.3186 1 14.406 1 13.433V4.00146C1 2.34461 2.34315 1.00146 4 1.00146Z" fill="white" stroke="#323232" stroke-width="2"/>
<path d="M20 3.00146H4C3.44772 3.00146 3 3.44918 3 4.00146V7.00146C3 7.55375 3.44772 8.00146 4 8.00146H20C20.5523 8.00146 21 7.55375 21 7.00146V4.00146C21 3.44918 20.5523 3.00146 20 3.00146Z" fill="#00FF00"/>
</svg>
