<svg width="58" height="56" viewBox="0 0 58 56" fill="none" xmlns="http://www.w3.org/2000/svg">
<g clip-path="url(#clip0_1768_26712)">
<path d="M50.4375 6.65908L28.4717 0.0692344C28.1641 -0.0230781 27.8363 -0.0230781 27.5286 0.0692344L5.56242 6.65908C4.86854 6.86722 4.39331 7.50597 4.39331 8.23047V32.3932C4.39331 35.5359 5.66567 38.7531 8.17484 41.9553C10.0912 44.4009 12.7426 46.8567 16.055 49.2545C21.6197 53.2826 27.0992 55.7536 27.3298 55.8567C27.543 55.9522 27.7716 56 28.0002 56C28.2288 56 28.4573 55.9523 28.6705 55.8567C28.901 55.7536 34.3804 53.2826 39.9451 49.2545C43.2575 46.8567 45.9088 44.4009 47.8252 41.9553C50.3344 38.7532 51.6066 35.536 51.6066 32.3932V8.23047C51.6066 7.50597 51.1315 6.86722 50.4375 6.65908Z" fill="#EDEDED"/>
<g clip-path="url(#clip1_1768_26712)">
<path d="M31.4799 11.6665H20.1824C19.9402 11.6665 19.7035 11.7192 19.4876 11.8182C19.3931 11.8615 19.3321 11.9556 19.3321 12.0595V15.8063C19.3321 16.3774 18.8691 16.8404 18.298 16.8404H14.5512C14.4472 16.8404 14.3531 16.9014 14.3099 16.9959C14.2109 17.2118 14.1582 17.4486 14.1582 17.6907V37.9985C14.1582 38.9197 14.905 39.6665 15.8262 39.6665H31.4799C32.4011 39.6665 33.1479 38.9197 33.1479 37.9985V13.3345C33.1478 12.4133 32.4011 11.6665 31.4799 11.6665Z" fill="#136BE1"/>
<path d="M34.5164 11.6665H30.9348C31.856 11.6665 32.6028 12.4133 32.6028 13.3345V37.9985C32.6028 38.9197 31.856 39.6665 30.9348 39.6665H34.5164C35.4376 39.6665 36.1844 38.9197 36.1844 37.9985V13.3345C36.1844 12.4133 35.4376 11.6665 34.5164 11.6665Z" fill="#136BE1"/>
<path d="M14.6465 16.5128L19.0028 12.1566C19.1454 12.0139 19.3112 11.8998 19.4913 11.8179V15.9672C19.4913 16.5383 19.0283 17.0013 18.4572 17.0013H14.3079C14.3898 16.8212 14.5039 16.6554 14.6465 16.5128Z" fill="#E28086"/>
<path d="M28.1577 22.3138H17.3417C17.1084 22.3138 16.9192 22.1246 16.9192 21.8913C16.9192 21.6579 17.1083 21.4688 17.3417 21.4688H28.1577C28.391 21.4688 28.5802 21.6579 28.5802 21.8913C28.5802 22.1246 28.391 22.3138 28.1577 22.3138Z" fill="white"/>
<path d="M28.1577 25.2845H17.3417C17.1084 25.2845 16.9192 25.0953 16.9192 24.862C16.9192 24.6286 17.1083 24.4395 17.3417 24.4395H28.1577C28.391 24.4395 28.5802 24.6286 28.5802 24.862C28.5802 25.0953 28.391 25.2845 28.1577 25.2845Z" fill="white"/>
<path d="M28.1577 28.2523H17.3417C17.1084 28.2523 16.9192 28.0631 16.9192 27.8297C16.9192 27.5964 17.1083 27.4072 17.3417 27.4072H28.1577C28.391 27.4072 28.5802 27.5964 28.5802 27.8297C28.5802 28.0631 28.391 28.2523 28.1577 28.2523Z" fill="white"/>
<path d="M28.1577 31.2191H17.3417C17.1084 31.2191 16.9192 31.0299 16.9192 30.7965C16.9192 30.5632 17.1083 30.374 17.3417 30.374H28.1577C28.391 30.374 28.5802 30.5632 28.5802 30.7965C28.5802 31.0299 28.391 31.2191 28.1577 31.2191Z" fill="white"/>
<path d="M22.7635 35.5726H17.3417C17.1084 35.5726 16.9192 35.3834 16.9192 35.1501C16.9192 34.9167 17.1083 34.7275 17.3417 34.7275H22.7636C22.9969 34.7275 23.1861 34.9167 23.1861 35.1501C23.1861 35.3834 22.9969 35.5726 22.7635 35.5726Z" fill="white"/>
<path d="M37.9828 36.4779L36.4334 35.524C36.2809 35.4302 36.0886 35.4302 35.9361 35.524L34.3867 36.4779C34.0707 36.6724 33.6638 36.445 33.6638 36.074V29.9375H38.7057V36.074C38.7057 36.445 38.2988 36.6724 37.9828 36.4779Z" fill="#136BE1"/>
<path d="M35.2731 32.0502C37.2357 31.0245 38.5713 29.0001 38.5713 26.6704C38.5713 24.3406 37.2357 22.3162 35.2731 21.2905C34.9534 21.6937 34.4208 21.8638 33.9258 21.7193C33.1302 21.4872 32.3297 22.0688 32.3047 22.8971C32.2889 23.4177 31.9563 23.8754 31.4662 24.0513C30.6861 24.331 30.3803 25.2722 30.8469 25.957C31.1401 26.3873 31.1401 26.9533 30.8469 27.3836C30.3803 28.0684 30.6861 29.0096 31.4662 29.2893C31.9563 29.4652 32.2889 29.923 32.3047 30.4435C32.3297 31.2718 33.1302 31.8534 33.9258 31.6213C34.4208 31.4769 34.9534 31.647 35.2731 32.0502Z" fill="#136BE1"/>
<path d="M41.6229 27.5317C41.3297 27.1014 41.3297 26.5355 41.6229 26.1052C42.0895 25.4203 41.7837 24.4792 41.0036 24.1994C40.5135 24.0236 40.1809 23.5657 40.1651 23.0453C40.1401 22.2169 39.3396 21.6353 38.544 21.8675C38.0441 22.0133 37.5059 21.8384 37.1872 21.4266C36.6801 20.7712 35.6906 20.7712 35.1834 21.4266C35.112 21.5189 35.0295 21.5993 34.939 21.6669C36.8946 22.5577 38.254 24.5293 38.254 26.8185C38.254 29.1077 36.8945 31.0793 34.939 31.9701C35.0295 32.0377 35.112 32.118 35.1834 32.2104C35.6906 32.8658 36.6801 32.8658 37.1872 32.2104C37.5059 31.7985 38.0441 31.6237 38.544 31.7695C39.3396 32.0017 40.1401 31.4201 40.1651 30.5917C40.1809 30.0712 40.5135 29.6134 41.0036 29.4376C41.7837 29.1576 42.0895 28.2166 41.6229 27.5317Z" fill="#136BE1"/>
<path d="M36.1847 29.9383C37.907 29.9383 39.3033 28.5421 39.3033 26.8197C39.3033 25.0974 37.907 23.7012 36.1847 23.7012C34.4624 23.7012 33.0662 25.0974 33.0662 26.8197C33.0662 28.5421 34.4624 29.9383 36.1847 29.9383Z" fill="white"/>
<path d="M14.6465 16.5128L19.0028 12.1566C19.1454 12.0139 19.3112 11.8998 19.4913 11.8179V15.9672C19.4913 16.5383 19.0283 17.0013 18.4572 17.0013H14.3079C14.3898 16.8212 14.5039 16.6554 14.6465 16.5128Z" fill="#136BE1"/>
</g>
</g>
<path d="M57.0225 46.0113L55.3089 43.779L55.6922 41.0056L53.0767 39.9684L52.0395 37.3529L49.2661 37.7362L47.0113 36L44.779 37.7136L42.0056 37.3303L40.9684 39.9459L38.3529 40.9831L38.7362 43.7565L37 46.0113L38.7136 48.2435L38.3303 51.0169L40.9459 52.0541L41.9831 54.6697L44.7565 54.2864L46.9887 56L49.221 54.2864L51.9944 54.6697L53.0316 52.0541L55.6471 50.9944L55.2638 48.221L57.0225 46.0113ZM46.1995 49.2582L42.8625 46.5073L43.584 45.628L46.0643 47.6573L50.3033 42.7644L51.1601 43.5085L46.1995 49.2582Z" fill="#2FA500"/>
<defs>
<clipPath id="clip0_1768_26712">
<rect width="56" height="56" fill="white"/>
</clipPath>
<clipPath id="clip1_1768_26712">
<rect width="28" height="28" fill="white" transform="translate(14 11.6665)"/>
</clipPath>
</defs>
</svg>
