<svg width="58" height="56" viewBox="0 0 58 56" fill="none" xmlns="http://www.w3.org/2000/svg">
<g clip-path="url(#clip0_1768_26721)">
<path d="M50.4375 6.65908L28.4717 0.0692344C28.1641 -0.0230781 27.8363 -0.0230781 27.5286 0.0692344L5.56242 6.65908C4.86854 6.86722 4.39331 7.50597 4.39331 8.23047V32.3932C4.39331 35.5359 5.66567 38.7531 8.17484 41.9553C10.0912 44.4009 12.7426 46.8567 16.055 49.2545C21.6197 53.2826 27.0992 55.7536 27.3298 55.8567C27.543 55.9522 27.7716 56 28.0002 56C28.2288 56 28.4573 55.9523 28.6705 55.8567C28.901 55.7536 34.3804 53.2826 39.9451 49.2545C43.2575 46.8567 45.9088 44.4009 47.8252 41.9553C50.3344 38.7532 51.6066 35.536 51.6066 32.3932V8.23047C51.6066 7.50597 51.1315 6.86722 50.4375 6.65908Z" fill="#EDEDED"/>
<g clip-path="url(#clip1_1768_26721)">
<path d="M40.8334 21.0201V34.7385C40.8336 35.208 40.6471 35.6583 40.3151 35.9903C39.9831 36.3222 39.5328 36.5087 39.0633 36.5086H16.9368C16.4673 36.5087 16.0171 36.3222 15.685 35.9903C15.3531 35.6583 15.1666 35.208 15.1667 34.7385V21.0201C15.1666 20.5506 15.3531 20.1003 15.685 19.7683C16.0171 19.4363 16.4673 19.2498 16.9368 19.25H24.9024" fill="#136BE1"/>
<path d="M40.3929 18.294C40.6601 18.4208 40.8312 18.6894 40.8332 18.9852V23.0421C40.7858 26.746 39.0321 30.221 36.0804 32.4591L33.456 34.5367C33.1106 34.8078 32.6247 34.8078 32.2793 34.5367L29.6549 32.4591C26.7032 30.221 24.9494 26.746 24.9021 23.0421V18.9852C24.9041 18.6894 25.0751 18.4209 25.3424 18.294L32.1552 14.9893C32.6052 14.7718 33.13 14.7718 33.5801 14.9893L40.3929 18.294Z" fill="#136BE1"/>
<path d="M32.8682 27.2187C35.0679 27.2187 36.851 25.4435 36.851 23.2536C36.851 21.0638 35.0679 19.2886 32.8682 19.2886C30.6686 19.2886 28.8855 21.0638 28.8855 23.2536C28.8855 25.4435 30.6686 27.2187 32.8682 27.2187Z" fill="white"/>
<path d="M32.1443 24.9651C32.0269 24.9652 31.9143 24.9185 31.8315 24.8354L31.1071 24.1111C30.9343 23.9383 30.9343 23.6582 31.1071 23.4854C31.2799 23.3126 31.5601 23.3126 31.7329 23.4854L32.1443 23.8968L34.0039 22.0372C34.177 21.8659 34.4559 21.8666 34.6281 22.0388C34.8003 22.211 34.801 22.4899 34.6297 22.6629L32.4572 24.8354C32.3743 24.9185 32.2617 24.9652 32.1443 24.9651Z" fill="#136BE1"/>
<path d="M24.4591 32.5257H17.4789C17.2345 32.5257 17.0364 32.3276 17.0364 32.0832C17.0364 31.8387 17.2345 31.6406 17.4789 31.6406H24.4591C24.7035 31.6406 24.9017 31.8387 24.9017 32.0832C24.9017 32.3276 24.7035 32.5257 24.4591 32.5257Z" fill="white"/>
<path d="M20.9189 34.2967H17.4789C17.2345 34.2967 17.0364 34.0986 17.0364 33.8542C17.0364 33.6097 17.2345 33.4116 17.4789 33.4116H20.9189C21.1633 33.4116 21.3615 33.6097 21.3615 33.8542C21.3615 34.0986 21.1633 34.2967 20.9189 34.2967Z" fill="white"/>
<path d="M23.7465 28.692L22.2094 27.9343C22.0117 27.8378 21.886 27.6373 21.8853 27.4174V26.8228C21.9369 26.7638 21.9855 26.7023 22.0308 26.6384C22.2379 26.3484 22.399 26.0283 22.5086 25.6893C22.7099 25.63 22.8488 25.4461 22.8509 25.2363V24.6017C22.8501 24.4668 22.7915 24.3388 22.69 24.25V23.3326C22.69 23.3326 22.881 21.9048 20.9199 21.9048C18.9586 21.9048 19.1498 23.3326 19.1498 23.3326V24.25C19.0482 24.3388 18.9896 24.4668 18.9889 24.6017V25.2363C18.9898 25.3988 19.0737 25.5495 19.2114 25.6356C19.3187 26.0682 19.5171 26.473 19.7935 26.8228V27.4026C19.7929 27.6152 19.6755 27.8101 19.4879 27.9101L18.0523 28.682C17.6394 28.902 17.3809 29.3312 17.3796 29.799V30.3129H24.4601V29.8301C24.4585 29.3458 24.1818 28.9044 23.7465 28.692Z" fill="white"/>
</g>
</g>
<path d="M57.0225 46.0113L55.3089 43.779L55.6922 41.0056L53.0767 39.9684L52.0395 37.3529L49.2661 37.7362L47.0113 36L44.779 37.7136L42.0056 37.3303L40.9684 39.9459L38.3529 40.9831L38.7362 43.7565L37 46.0113L38.7136 48.2435L38.3303 51.0169L40.9459 52.0541L41.9831 54.6697L44.7565 54.2864L46.9887 56L49.221 54.2864L51.9944 54.6697L53.0316 52.0541L55.6471 50.9944L55.2638 48.221L57.0225 46.0113ZM46.1995 49.2582L42.8625 46.5073L43.584 45.628L46.0643 47.6573L50.3033 42.7644L51.1601 43.5085L46.1995 49.2582Z" fill="#2FA500"/>
<defs>
<clipPath id="clip0_1768_26721">
<rect width="56" height="56" fill="white"/>
</clipPath>
<clipPath id="clip1_1768_26721">
<rect width="25.6667" height="25.6667" fill="white" transform="translate(15.1667 12.8335)"/>
</clipPath>
</defs>
</svg>
