<svg width="118" height="118" viewBox="0 0 118 118" fill="none" xmlns="http://www.w3.org/2000/svg">
<path d="M33.5567 108.879C32.8021 110.358 30.9866 110.952 29.5478 110.123C18.9432 104.014 10.4771 94.7424 5.35975 83.5708C-0.175897 71.486 -1.46855 57.8859 1.69128 44.9747C4.8511 32.0634 12.2782 20.5974 22.7691 12.4348C33.26 4.27216 46.1998 -0.108718 59.4917 0.00204854C72.7835 0.112815 85.6486 4.70874 96.0019 13.045C106.355 21.3813 113.59 32.9695 116.535 45.9317C119.479 58.8939 117.96 72.4704 112.223 84.4613C106.92 95.5461 98.301 104.675 87.5961 110.607C86.1437 111.412 84.3383 110.787 83.6085 109.296C82.8787 107.804 83.5014 106.011 84.9492 105.198C94.439 99.8675 102.081 91.7287 106.799 81.8662C111.95 71.0975 113.315 58.9047 110.67 47.2636C108.026 35.6226 101.529 25.2155 92.2306 17.7289C82.9325 10.2422 71.3787 6.11471 59.4415 6.01523C47.5044 5.91576 35.8834 9.85013 26.4618 17.1808C17.0402 24.5114 10.3701 34.8088 7.53229 46.4041C4.69452 57.9995 5.85542 70.2134 10.8269 81.0665C15.3799 91.0062 22.8848 99.2712 32.2845 104.759C33.7186 105.596 34.3112 107.4 33.5567 108.879Z" fill="#DFDFDF"/>
<path d="M33.5496 108.893C32.7989 110.364 30.9931 110.955 29.5615 110.131C23.0923 106.406 17.3805 101.483 12.7366 95.6156C8.09274 89.7481 4.61312 83.0581 2.47411 75.9064C2.00076 74.3237 2.9908 72.7019 4.59543 72.3093C6.20005 71.9168 7.8108 72.9025 8.2932 74.4825C10.2221 80.7998 13.3173 86.7099 17.4274 91.903C21.5376 97.0961 26.5786 101.466 32.284 104.795C33.7108 105.627 34.3002 107.421 33.5496 108.893Z" fill="#2FA500"/>
</svg>
