<svg width="224" height="32" viewBox="0 0 224 32" fill="none" xmlns="http://www.w3.org/2000/svg">
<g clip-path="url(#clip0_1997_66662)">
<path d="M159.904 9.40332C159.826 7.7002 159.555 6.53711 159.16 5.51953C158.758 4.4519 158.128 3.48486 157.314 2.68555C156.515 1.87158 155.548 1.24146 154.48 0.8396C153.463 0.444336 152.3 0.174072 150.597 0.0966797C148.89 0.0185547 148.345 0 144 0C139.655 0 139.11 0.0185547 137.403 0.0961914C135.7 0.174072 134.537 0.44458 133.52 0.840088C132.452 1.2417 131.485 1.87158 130.686 2.68555C129.872 3.48462 129.241 4.45166 128.84 5.51929C128.444 6.53711 128.174 7.7002 128.097 9.40308C128.019 11.1096 128 11.6545 128 15.9998C128 20.3452 128.019 20.8904 128.097 22.5967C128.174 24.2996 128.445 25.4626 128.84 26.4805C129.242 27.5479 129.872 28.5151 130.686 29.3142C131.485 30.1282 132.452 30.7581 133.52 31.1597C134.537 31.5554 135.7 31.8257 137.404 31.9036C139.11 31.9814 139.655 31.9998 144 31.9998C148.345 31.9998 148.891 31.9814 150.597 31.9036C152.3 31.8257 153.463 31.5554 154.481 31.1597C156.63 30.3286 158.329 28.6296 159.16 26.4805C159.556 25.4626 159.826 24.2996 159.904 22.5967C159.981 20.8901 160 20.3452 160 16C160 11.6545 159.981 11.1096 159.904 9.40332ZM157.024 22.4656C156.953 24.0256 156.692 24.8728 156.473 25.4365C155.935 26.832 154.832 27.9348 153.436 28.4731C152.873 28.6921 152.025 28.9529 150.465 29.0239C148.779 29.1011 148.272 29.1172 144 29.1172C139.727 29.1172 139.221 29.1011 137.534 29.0239C135.975 28.9529 135.127 28.6921 134.563 28.4731C133.869 28.2166 133.24 27.8076 132.724 27.2761C132.192 26.76 131.783 26.1316 131.527 25.4365C131.308 24.8728 131.047 24.0256 130.976 22.4656C130.899 20.7786 130.883 20.2725 130.883 16.0002C130.883 11.7278 130.899 11.2219 130.976 9.53467C131.047 7.97461 131.308 7.12744 131.527 6.56372C131.783 5.86865 132.193 5.23999 132.724 4.72388C133.24 4.19238 133.869 3.78345 134.564 3.5271C135.127 3.30786 135.975 3.04736 137.535 2.97607C139.222 2.89917 139.728 2.88281 144 2.88281H144C148.272 2.88281 148.778 2.89917 150.465 2.97632C152.025 3.04736 152.872 3.30811 153.436 3.5271C154.131 3.78369 154.76 4.19263 155.276 4.72388C155.807 5.23999 156.216 5.86865 156.473 6.56372C156.692 7.12744 156.953 7.97461 157.024 9.53467C157.101 11.2217 157.117 11.7278 157.117 16C157.117 20.2725 157.101 20.7783 157.024 22.4656Z" fill="url(#paint0_linear_1997_66662)"/>
<path d="M143.997 7.78369C139.46 7.78369 135.781 11.4624 135.781 16C135.781 20.5376 139.46 24.2161 143.997 24.2161C148.535 24.2161 152.214 20.5376 152.214 16C152.214 11.4624 148.535 7.78369 143.997 7.78369ZM143.997 21.3333C141.052 21.333 138.664 18.9453 138.664 15.9998C138.664 13.0544 141.052 10.6665 143.998 10.6665C146.943 10.6667 149.331 13.0544 149.331 15.9998C149.331 18.9453 146.943 21.3333 143.997 21.3333Z" fill="url(#paint1_linear_1997_66662)"/>
<path d="M154.461 7.45923C154.461 8.51953 153.602 9.37915 152.541 9.37915C151.481 9.37915 150.621 8.51953 150.621 7.45923C150.621 6.39868 151.481 5.53906 152.541 5.53906C153.602 5.53906 154.461 6.39868 154.461 7.45923Z" fill="url(#paint2_linear_1997_66662)"/>
</g>
<g clip-path="url(#clip1_1997_66662)">
<path d="M192.743 32C192.564 32 192.389 31.929 192.259 31.7979C192.088 31.625 192.022 31.374 192.087 31.1394L194.167 23.5427C192.872 21.2007 192.189 18.5513 192.19 15.8618C192.194 7.11548 199.311 0 208.057 0C212.299 0.00170899 216.285 1.65405 219.281 4.6521C222.276 7.65039 223.925 11.636 223.924 15.8745C223.92 24.6211 216.802 31.7371 208.057 31.7371C208.057 31.7371 208.05 31.7371 208.05 31.7371C205.496 31.7361 202.963 31.1135 200.708 29.9343L192.916 31.9778C192.859 31.9927 192.801 32 192.743 32Z" fill="#E5E5E5"/>
<path d="M192.742 31.3157L194.896 23.4487C193.568 21.1462 192.869 18.5344 192.87 15.8586C192.873 7.48779 199.685 0.67749 208.056 0.67749C212.118 0.679199 215.93 2.26025 218.798 5.12988C221.665 7.99951 223.243 11.814 223.241 15.8708C223.238 24.2415 216.425 31.0527 208.056 31.0527C208.055 31.0527 208.056 31.0527 208.056 31.0527H208.049C205.508 31.0518 203.01 30.4143 200.792 29.2046L192.742 31.3157ZM201.165 26.4563L201.626 26.7295C203.564 27.8794 205.785 28.4875 208.051 28.4888H208.056C215.012 28.4888 220.674 22.8276 220.677 15.8699C220.678 12.498 219.367 9.32739 216.984 6.94238C214.601 4.55737 211.432 3.24316 208.06 3.2417C201.098 3.2417 195.436 8.9021 195.434 15.8596C195.433 18.2439 196.1 20.5657 197.363 22.575L197.664 23.0525L196.388 27.7087L201.165 26.4563Z" fill="white"/>
<path d="M193.273 30.7864L195.353 23.1914C194.07 20.9688 193.396 18.447 193.396 15.8643C193.399 7.7832 199.976 1.20874 208.056 1.20874C211.978 1.21045 215.659 2.73682 218.426 5.50708C221.194 8.27734 222.718 11.9597 222.716 15.8757C222.713 23.957 216.136 30.5322 208.057 30.5322C208.056 30.5322 208.057 30.5322 208.057 30.5322H208.05C205.597 30.5312 203.186 29.9155 201.045 28.7485L193.273 30.7864Z" fill="#64B161"/>
<path d="M192.742 31.3157L194.896 23.4487C193.568 21.1462 192.869 18.5344 192.87 15.8586C192.873 7.48779 199.685 0.67749 208.056 0.67749C212.118 0.679199 215.93 2.26025 218.798 5.12988C221.665 7.99951 223.243 11.814 223.241 15.8708C223.238 24.2415 216.425 31.0527 208.056 31.0527C208.055 31.0527 208.056 31.0527 208.056 31.0527H208.049C205.508 31.0518 203.01 30.4143 200.792 29.2046L192.742 31.3157ZM201.165 26.4563L201.626 26.7295C203.564 27.8794 205.785 28.4875 208.051 28.4888H208.056C215.012 28.4888 220.674 22.8276 220.677 15.8699C220.678 12.498 219.367 9.32739 216.984 6.94238C214.601 4.55737 211.432 3.24316 208.06 3.2417C201.098 3.2417 195.436 8.9021 195.434 15.8596C195.433 18.2439 196.1 20.5657 197.363 22.575L197.664 23.0525L196.388 27.7087L201.165 26.4563Z" fill="white"/>
<path fill-rule="evenodd" clip-rule="evenodd" d="M204.257 9.50904C203.973 8.8772 203.674 8.86451 203.403 8.85352C203.182 8.844 202.929 8.84449 202.676 8.84449C202.423 8.84449 202.012 8.9397 201.664 9.31934C201.316 9.69898 200.336 10.6169 200.336 12.4839C200.336 14.3511 201.696 16.155 201.885 16.4085C202.075 16.6616 204.51 20.6152 208.367 22.1362C211.572 23.4004 212.224 23.1489 212.92 23.0857C213.616 23.0225 215.165 22.1677 215.481 21.2817C215.798 20.3958 215.798 19.6365 215.703 19.4775C215.608 19.3196 215.355 19.2246 214.975 19.0349C214.596 18.8452 212.731 17.927 212.383 17.8005C212.035 17.6738 211.782 17.6108 211.529 17.9907C211.276 18.3701 210.549 19.2246 210.328 19.4775C210.106 19.7312 209.885 19.7629 209.506 19.573C209.126 19.3828 207.904 18.9824 206.454 17.6897C205.326 16.6841 204.565 15.4419 204.343 15.062C204.122 14.6826 204.34 14.4951 204.51 14.2878C204.817 13.9146 205.332 13.2434 205.458 12.9905C205.585 12.7371 205.521 12.5156 205.427 12.3257C205.332 12.136 204.594 10.2595 204.257 9.50904Z" fill="white"/>
</g>
<g clip-path="url(#clip2_1997_66662)">
<path d="M30.2336 5.65512e-08H1.76489C0.790039 0.000488338 -0.000244084 0.79126 5.65512e-08 1.76636V30.2351C0.000488338 31.21 0.79126 32.0002 1.76636 32H30.2336C31.209 32.0002 31.9998 31.2097 32 30.2344C32 30.2341 32 30.2339 32 30.2336V1.76489C31.9995 0.790039 31.2087 -0.000244084 30.2336 5.65512e-08Z" fill="#4267B2"/>
<path d="M22.0938 32V19.625H26.2656L26.8906 14.7812H22.0938V11.6963C22.0938 10.2971 22.4822 9.34375 24.4885 9.34375H27.0312V5.02319C26.5889 4.96436 25.071 4.83276 23.3049 4.83276C19.6174 4.83276 17.0938 7.08276 17.0938 11.2166V14.7812H12.9375V19.625H17.0938V32H22.0938Z" fill="white"/>
</g>
<g clip-path="url(#clip3_1997_66662)">
<path d="M74.0012 29.0062C86.0774 29.0062 92.6812 19.0016 92.6812 10.3262C92.6812 10.0421 92.6754 9.75911 92.6627 9.47761C93.9444 8.55085 95.0587 7.39436 95.9376 6.07795C94.7613 6.6009 93.4952 6.95271 92.1673 7.11164C93.5228 6.29865 94.5635 5.013 95.0543 3.48029C93.7857 4.23224 92.3809 4.77863 90.8853 5.0738C89.6873 3.79767 87.9815 2.99957 86.0928 2.99957C82.4673 2.99957 79.5271 5.93976 79.5271 9.56404C79.5271 10.0794 79.5847 10.5804 79.6973 11.0611C74.2407 10.7865 69.4021 8.17414 66.1643 4.20148C65.6006 5.1717 65.2754 6.2989 65.2754 7.50153C65.2754 9.77913 66.4346 11.7901 68.197 12.9664C67.1199 12.9332 66.1082 12.6375 65.2236 12.1453C65.2227 12.1729 65.2227 12.1998 65.2227 12.2291C65.2227 15.4088 67.4856 18.0636 70.49 18.6651C69.9382 18.8153 69.3577 18.8961 68.7588 18.8961C68.3364 18.8961 67.9248 18.8546 67.5247 18.7777C68.3606 21.3863 70.7844 23.2845 73.658 23.3377C71.4109 25.099 68.5801 26.1481 65.5037 26.1481C64.9744 26.1481 64.4514 26.1178 63.9375 26.0572C66.843 27.9195 70.2935 29.0065 74.0015 29.0065" fill="#1DA1F2"/>
</g>
<defs>
<linearGradient id="paint0_linear_1997_66662" x1="130.685" y1="29.3144" x2="157.315" y2="2.68513" gradientUnits="userSpaceOnUse">
<stop stop-color="#FFD600"/>
<stop offset="0.5" stop-color="#FF0100"/>
<stop offset="1" stop-color="#D800B9"/>
</linearGradient>
<linearGradient id="paint1_linear_1997_66662" x1="138.188" y1="21.8096" x2="149.807" y2="10.1902" gradientUnits="userSpaceOnUse">
<stop stop-color="#FF6400"/>
<stop offset="0.5" stop-color="#FF0100"/>
<stop offset="1" stop-color="#FD0056"/>
</linearGradient>
<linearGradient id="paint2_linear_1997_66662" x1="151.184" y1="8.81673" x2="153.899" y2="6.1015" gradientUnits="userSpaceOnUse">
<stop stop-color="#F30072"/>
<stop offset="1" stop-color="#E50097"/>
</linearGradient>
<clipPath id="clip0_1997_66662">
<rect width="32" height="32" fill="white" transform="translate(128)"/>
</clipPath>
<clipPath id="clip1_1997_66662">
<rect width="32" height="32" fill="white" transform="translate(192)"/>
</clipPath>
<clipPath id="clip2_1997_66662">
<rect width="32" height="32" fill="white"/>
</clipPath>
<clipPath id="clip3_1997_66662">
<rect width="32" height="32" fill="white" transform="translate(64)"/>
</clipPath>
</defs>
</svg>
