<svg width="1220" height="879" viewBox="0 0 1220 879" fill="none" xmlns="http://www.w3.org/2000/svg">
<g opacity="0.3">
<path d="M419.093 232.9C485.081 129.872 535.453 115.724 562.15 31.9239C565.172 22.8546 567.691 11.9715 570.209 0H492.636C489.11 12.697 485.584 24.3057 481.051 34.4634C434.709 137.491 263.947 324.681 186.878 452.74C109.305 581.161 70.519 659.157 43.8219 703.778C31.7326 723.368 15.6136 754.566 0.501953 782.862V805.354C39.2884 753.478 102.757 668.589 148.092 608.732C218.109 517.313 353.61 335.927 419.093 232.9Z" fill="#EEEEEE"/>
<path d="M624.613 754.206C516.313 720.831 465.941 709.585 384.339 717.929C303.24 726.273 287.624 670.406 206.022 715.027C124.923 759.648 74.5508 832.202 74.5508 843.448C74.5508 854.694 159.679 759.648 283.595 754.206C407.51 748.765 477.023 767.992 570.211 785.042C646.273 798.827 681.03 844.537 720.823 879H794.367C750.039 831.477 685.563 773.07 624.613 754.206Z" fill="#EEEEEE"/>
<path d="M144.063 857.588C126.936 865.206 111.825 872.099 97.2168 878.992H221.636C242.792 874.638 266.97 874.276 306.764 878.992H574.239C537.468 863.393 488.607 848.519 427.153 843.803C280.067 832.557 256.392 807.526 144.063 857.588Z" fill="#EEEEEE"/>
<path d="M1000.39 550.688C977.22 475.231 996.362 475.231 977.22 375.106C958.079 274.618 996.362 90.6929 1000.39 3.9904C1000.39 2.53932 1000.39 1.45109 1000.39 0H955.56C949.516 56.2297 943.471 111.008 937.93 154.541C918.789 307.993 930.374 494.821 980.746 578.621C1031.12 662.422 1077.46 734.976 1123.8 776.695C1151 801.001 1175.69 844.896 1192.81 878.997H1218.5V831.473C1154.03 748.761 1021.55 620.703 1000.39 550.688Z" fill="#EEEEEE"/>
<path d="M818.042 489.369C779.255 394.686 837.183 338.819 794.871 291.296C794.871 291.296 628.139 466.877 504.224 550.678C380.309 634.478 329.937 651.166 322.381 667.853C314.826 684.541 434.711 642.822 519.84 611.986C604.968 581.151 600.938 550.678 624.613 539.432C647.784 528.186 628.643 586.955 617.057 617.428C605.472 648.263 655.844 673.295 710.246 706.67C764.647 740.045 803.434 815.501 803.434 815.501C803.434 815.501 822.575 726.259 753.062 676.197C683.549 626.134 687.075 659.509 683.549 626.134C679.519 592.759 679.519 548.138 679.519 508.959C679.519 469.78 714.275 461.436 729.891 447.65C745.506 433.865 741.476 486.83 810.99 606.545C880.503 726.622 907.704 743.31 938.935 815.864C949.009 839.082 964.121 860.485 979.736 878.987H1032.63C993.84 835.817 943.468 771.606 923.319 709.935C888.059 603.642 856.828 584.053 818.042 489.369Z" fill="#EEEEEE"/>
<path d="M519.84 369.302C465.438 422.267 260.424 578.622 260.424 578.622C260.424 578.622 585.827 394.696 678.511 291.306C771.7 188.279 790.841 174.13 802.426 93.2323C806.96 60.5828 809.982 28.659 811.493 0H772.707C769.181 66.3873 761.625 123.342 748.025 146.197C705.712 216.212 574.241 316.337 519.84 369.302Z" fill="#EEEEEE"/>
<path d="M740.469 263.372C740.469 263.372 868.414 157.443 899.141 51.5135C904.178 33.7376 908.711 16.6875 912.237 0H871.436C865.391 44.621 857.835 96.1344 844.739 129.509C826.101 179.935 740.469 263.372 740.469 263.372Z" fill="#EEEEEE"/>
<path d="M1104.66 450.2C1131.35 543.433 1186.26 629.047 1219 674.031V458.544C1193.82 418.276 1170.64 378.371 1170.64 347.173C1170.64 291.306 1180.72 129.51 1190.79 0H1123.29C1121.28 38.4538 1120.27 76.5448 1120.27 112.822C1120.27 285.864 1065.87 313.798 1104.66 450.2Z" fill="#EEEEEE"/>
<path d="M653.829 0H623.606C600.939 96.1346 563.16 201.701 563.16 207.505C562.656 213.673 619.576 113.548 653.829 0Z" fill="#EEEEEE"/>
<path d="M128.951 352.614C128.951 352.614 277.549 133.5 332.958 0H266.97C239.77 86.7025 199.472 196.26 186.879 218.752C171.264 246.685 128.951 352.614 128.951 352.614Z" fill="#EEEEEE"/>
<path d="M214.081 0H127.945C115.856 30.8356 103.263 60.5828 89.6622 87.7907C66.9948 133.863 35.2604 192.995 0 256.48V432.424C0 431.699 0.503712 431.336 0.503712 430.61C21.6599 346.084 159.679 156.718 214.081 0Z" fill="#EEEEEE"/>
</g>
</svg>
