<svg width="58" height="56" viewBox="0 0 58 56" fill="none" xmlns="http://www.w3.org/2000/svg">
<g clip-path="url(#clip0_1768_26715)">
<path d="M50.4375 6.65908L28.4717 0.0692344C28.1641 -0.0230781 27.8363 -0.0230781 27.5286 0.0692344L5.56242 6.65908C4.86854 6.86722 4.39331 7.50597 4.39331 8.23047V32.3932C4.39331 35.5359 5.66567 38.7531 8.17484 41.9553C10.0912 44.4009 12.7426 46.8567 16.055 49.2545C21.6197 53.2826 27.0992 55.7536 27.3298 55.8567C27.543 55.9522 27.7716 56 28.0002 56C28.2288 56 28.4573 55.9523 28.6705 55.8567C28.901 55.7536 34.3804 53.2826 39.9451 49.2545C43.2575 46.8567 45.9088 44.4009 47.8252 41.9553C50.3344 38.7532 51.6066 35.536 51.6066 32.3932V8.23047C51.6066 7.50597 51.1315 6.86722 50.4375 6.65908Z" fill="#EDEDED"/>
<path d="M18.998 25.3268C18.829 25.3268 18.6653 25.2361 18.58 25.0768C18.4567 24.8463 18.5435 24.5595 18.7741 24.4362L23.713 21.7948L28.6232 18.7263C28.6259 18.7246 28.6286 18.723 28.6313 18.7214L32.8278 16.2141C33.0523 16.08 33.3431 16.1531 33.4773 16.3775C33.6115 16.6018 33.5383 16.8924 33.3139 17.0265L29.1214 19.5314L24.2016 22.6058C24.1926 22.6114 24.1834 22.6168 24.1739 22.6218L19.221 25.2708C19.1499 25.3088 19.0734 25.3268 18.998 25.3268Z" fill="#136BE1"/>
<path d="M33.0739 37.2918C32.9905 37.2918 32.9059 37.2697 32.8293 37.2235L28.2813 34.4743C28.2793 34.473 28.2774 34.4718 28.2753 34.4706L23.703 31.6132C23.6969 31.6094 23.6908 31.6054 23.6848 31.6013L19.4495 28.6761C19.2343 28.5275 19.1804 28.2328 19.3292 28.0177C19.4779 27.8027 19.7729 27.7488 19.988 27.8974L24.2143 30.8164L28.7744 33.6661L33.3194 36.4136C33.5432 36.5489 33.6149 36.8398 33.4796 37.0635C33.3906 37.2105 33.2342 37.2918 33.0739 37.2918Z" fill="#136BE1"/>
<path d="M34.5536 16.7075C34.2922 16.7075 34.0803 16.9194 34.0803 17.1808V34.2596C34.0803 34.521 34.2922 34.7329 34.5536 34.7329C34.815 34.7329 35.0269 34.521 35.0269 34.2596V17.1808C35.0269 16.9194 34.815 16.7075 34.5536 16.7075Z" fill="#136BE1"/>
<ellipse cx="19.3662" cy="26.3166" rx="6.53291" ry="6.53291" fill="#136BE1"/>
<path d="M19.3666 27.6218C20.8098 27.6218 21.9797 26.4519 21.9797 25.0087C21.9797 23.5655 20.8098 22.3955 19.3666 22.3955C17.9234 22.3955 16.7534 23.5655 16.7534 25.0087C16.7534 26.4519 17.9234 27.6218 19.3666 27.6218Z" fill="white"/>
<path d="M22.6328 30.7075C21.7158 31.2725 20.5869 31.6053 19.3663 31.6053C18.1458 31.6053 17.0174 31.272 16.0999 30.7075V30.4563C16.0999 29.6911 16.4653 28.9983 17.0569 28.4969C17.648 27.9955 18.4642 27.6855 19.3663 27.6855C21.1705 27.6855 22.6328 28.9259 22.6328 30.4563V30.7075Z" fill="white"/>
<ellipse cx="35.0444" cy="15.8664" rx="6.53291" ry="6.53291" fill="#136BE1"/>
<path d="M35.045 17.1697C36.4883 17.1697 37.6582 15.9997 37.6582 14.5565C37.6582 13.1133 36.4883 11.9434 35.045 11.9434C33.6018 11.9434 32.4319 13.1133 32.4319 14.5565C32.4319 15.9997 33.6018 17.1697 35.045 17.1697Z" fill="white"/>
<path d="M38.3122 20.2514C37.3952 20.8164 36.2663 21.1492 35.0458 21.1492C33.8252 21.1492 32.6969 20.8159 31.7793 20.2514V20.0002C31.7793 19.235 32.1447 18.5422 32.7364 18.0408C33.3275 17.5395 34.1437 17.2295 35.0458 17.2295C36.8499 17.2295 38.3122 18.4698 38.3122 20.0002V20.2514Z" fill="white"/>
<circle cx="35.0444" cy="35.468" r="6.53291" fill="#136BE1"/>
<path d="M35.045 36.7727C36.4883 36.7727 37.6582 35.6028 37.6582 34.1595C37.6582 32.7163 36.4883 31.5464 35.045 31.5464C33.6018 31.5464 32.4319 32.7163 32.4319 34.1595C32.4319 35.6028 33.6018 36.7727 35.045 36.7727Z" fill="white"/>
<path d="M38.3112 39.8637C37.3942 40.4287 36.2653 40.7615 35.0448 40.7615C33.8242 40.7615 32.6959 40.4283 31.7783 39.8637V39.6125C31.7783 38.8473 32.1437 38.1545 32.7354 37.6531C33.3265 37.1518 34.1427 36.8418 35.0448 36.8418C36.849 36.8418 38.3112 38.0821 38.3112 39.6125V39.8637Z" fill="white"/>
</g>
<path d="M57.0225 46.0113L55.3089 43.779L55.6922 41.0056L53.0767 39.9684L52.0395 37.3529L49.2661 37.7362L47.0113 36L44.779 37.7136L42.0056 37.3303L40.9684 39.9459L38.3529 40.9831L38.7362 43.7565L37 46.0113L38.7136 48.2435L38.3303 51.0169L40.9459 52.0541L41.9831 54.6697L44.7565 54.2864L46.9887 56L49.221 54.2864L51.9944 54.6697L53.0316 52.0541L55.6471 50.9944L55.2638 48.221L57.0225 46.0113ZM46.1995 49.2582L42.8625 46.5073L43.584 45.628L46.0643 47.6573L50.3033 42.7644L51.1601 43.5085L46.1995 49.2582Z" fill="#2FA500"/>
<defs>
<clipPath id="clip0_1768_26715">
<rect width="56" height="56" fill="white"/>
</clipPath>
</defs>
</svg>
