<svg width="25" height="5" viewBox="0 0 25 5" fill="none" xmlns="http://www.w3.org/2000/svg">
<path d="M2.75611 3.6344C2.59941 3.53982 2.4032 3.53982 2.24649 3.6344L1.96327 3.80534C1.7392 3.94058 1.46279 3.73969 1.52225 3.48481L1.59742 3.16259C1.639 2.98433 1.57843 2.7977 1.44007 2.67785L1.18924 2.46055C0.991423 2.28918 1.09717 1.96424 1.35796 1.94211L1.68718 1.91418C1.86943 1.89872 2.02815 1.78366 2.09952 1.61526L2.22889 1.31003C2.33084 1.06947 2.67176 1.06947 2.77372 1.31003L2.90308 1.61526C2.97446 1.78366 3.13317 1.89872 3.31542 1.91418L3.64465 1.94211C3.90543 1.96424 4.01118 2.28918 3.81336 2.46055L3.56253 2.67785C3.42418 2.7977 3.3636 2.98433 3.40519 3.16259L3.48036 3.48481C3.53981 3.73969 3.2634 3.94058 3.03933 3.80534L2.75611 3.6344Z" fill="url(#paint0_radial_1768_26620)" stroke="#C27322" stroke-width="0.197248"/>
<g clip-path="url(#clip0_1768_26620)">
<path d="M7.75587 3.6344C7.59916 3.53982 7.40296 3.53982 7.24625 3.6344L6.96303 3.80534C6.73896 3.94058 6.46255 3.73969 6.522 3.48481L6.59717 3.16259C6.63876 2.98433 6.57818 2.7977 6.43983 2.67785L6.189 2.46055C5.99118 2.28918 6.09693 1.96424 6.35771 1.94211L6.68694 1.91418C6.86919 1.89872 7.0279 1.78366 7.09928 1.61526L7.22864 1.31003C7.3306 1.06947 7.67152 1.06947 7.77347 1.31003L7.90284 1.61526C7.97421 1.78366 8.13293 1.89872 8.31518 1.91418L8.6444 1.94211C8.90519 1.96424 9.01094 2.28918 8.81312 2.46055L8.56229 2.67785C8.42393 2.7977 8.36336 2.98433 8.40494 3.16259L8.48011 3.48481C8.53957 3.73969 8.26316 3.94058 8.03909 3.80534L7.75587 3.6344Z" fill="url(#paint1_radial_1768_26620)" stroke="#C27322" stroke-width="0.197248"/>
</g>
<path d="M12.7561 3.6344C12.5994 3.53982 12.4032 3.53982 12.2465 3.6344L11.9633 3.80534C11.7392 3.94058 11.4628 3.73969 11.5222 3.48481L11.5974 3.16259C11.639 2.98433 11.5784 2.7977 11.4401 2.67785L11.1892 2.46055C10.9914 2.28918 11.0972 1.96424 11.358 1.94211L11.6872 1.91418C11.8694 1.89872 12.0281 1.78366 12.0995 1.61526L12.2289 1.31003C12.3308 1.06947 12.6718 1.06947 12.7737 1.31003L12.9031 1.61526C12.9745 1.78366 13.1332 1.89872 13.3154 1.91418L13.6446 1.94211C13.9054 1.96424 14.0112 2.28918 13.8134 2.46055L13.5625 2.67785C13.4242 2.7977 13.3636 2.98433 13.4052 3.16259L13.4804 3.48481C13.5398 3.73969 13.2634 3.94058 13.0393 3.80534L12.7561 3.6344Z" fill="url(#paint2_radial_1768_26620)" stroke="#C27322" stroke-width="0.197248"/>
<path d="M17.7561 3.6344C17.5994 3.53982 17.4032 3.53982 17.2465 3.6344L16.9633 3.80534C16.7392 3.94058 16.4628 3.73969 16.5222 3.48481L16.5974 3.16259C16.639 2.98433 16.5784 2.7977 16.4401 2.67785L16.1892 2.46055C15.9914 2.28918 16.0972 1.96424 16.358 1.94211L16.6872 1.91418C16.8694 1.89872 17.0281 1.78366 17.0995 1.61526L17.2289 1.31003C17.3308 1.06947 17.6718 1.06947 17.7737 1.31003L17.9031 1.61526C17.9745 1.78366 18.1332 1.89872 18.3154 1.91418L18.6446 1.94211C18.9054 1.96424 19.0112 2.28918 18.8134 2.46055L18.5625 2.67785C18.4242 2.7977 18.3636 2.98433 18.4052 3.16259L18.4804 3.48481C18.5398 3.73969 18.2634 3.94058 18.0393 3.80534L17.7561 3.6344Z" fill="url(#paint3_radial_1768_26620)" stroke="#C27322" stroke-width="0.197248"/>
<path d="M22.7561 3.6344C22.5994 3.53982 22.4032 3.53982 22.2465 3.6344L21.9633 3.80534C21.7392 3.94058 21.4628 3.73969 21.5222 3.48481L21.5974 3.16259C21.639 2.98433 21.5784 2.7977 21.4401 2.67785L21.1892 2.46055C20.9914 2.28918 21.0972 1.96424 21.358 1.94211L21.6872 1.91418C21.8694 1.89872 22.0281 1.78366 22.0995 1.61526L22.2289 1.31003C22.3308 1.06947 22.6718 1.06947 22.7737 1.31003L22.9031 1.61526C22.9745 1.78366 23.1332 1.89872 23.3154 1.91418L23.6446 1.94211C23.9054 1.96424 24.0112 2.28918 23.8134 2.46055L23.5625 2.67785C23.4242 2.7977 23.3636 2.98433 23.4052 3.16259L23.4804 3.48481C23.5398 3.73969 23.2634 3.94058 23.0393 3.80534L22.7561 3.6344Z" fill="url(#paint4_radial_1768_26620)" stroke="#C27322" stroke-width="0.197248"/>
<defs>
<radialGradient id="paint0_radial_1768_26620" cx="0" cy="0" r="1" gradientUnits="userSpaceOnUse" gradientTransform="translate(2.59061 1.75657) scale(2.6802 2.66506)">
<stop offset="0.11" stop-color="#FDFF00"/>
<stop offset="0.57" stop-color="#FDBE00"/>
<stop offset="0.84" stop-color="#FCA201"/>
<stop offset="1" stop-color="#FC9701"/>
</radialGradient>
<radialGradient id="paint1_radial_1768_26620" cx="0" cy="0" r="1" gradientUnits="userSpaceOnUse" gradientTransform="translate(7.59037 1.75657) scale(2.6802 2.66506)">
<stop offset="0.11" stop-color="#FDFF00"/>
<stop offset="0.57" stop-color="#FDBE00"/>
<stop offset="0.84" stop-color="#FCA201"/>
<stop offset="1" stop-color="#FC9701"/>
</radialGradient>
<radialGradient id="paint2_radial_1768_26620" cx="0" cy="0" r="1" gradientUnits="userSpaceOnUse" gradientTransform="translate(12.5906 1.75657) scale(2.6802 2.66506)">
<stop offset="0.11" stop-color="#FDFF00"/>
<stop offset="0.57" stop-color="#FDBE00"/>
<stop offset="0.84" stop-color="#FCA201"/>
<stop offset="1" stop-color="#FC9701"/>
</radialGradient>
<radialGradient id="paint3_radial_1768_26620" cx="0" cy="0" r="1" gradientUnits="userSpaceOnUse" gradientTransform="translate(17.5906 1.75657) scale(2.6802 2.66506)">
<stop offset="0.11" stop-color="#FDFF00"/>
<stop offset="0.57" stop-color="#FDBE00"/>
<stop offset="0.84" stop-color="#FCA201"/>
<stop offset="1" stop-color="#FC9701"/>
</radialGradient>
<radialGradient id="paint4_radial_1768_26620" cx="0" cy="0" r="1" gradientUnits="userSpaceOnUse" gradientTransform="translate(22.5906 1.75657) scale(2.6802 2.66506)">
<stop offset="0.11" stop-color="#FDFF00"/>
<stop offset="0.57" stop-color="#FDBE00"/>
<stop offset="0.84" stop-color="#FCA201"/>
<stop offset="1" stop-color="#FC9701"/>
</radialGradient>
<clipPath id="clip0_1768_26620">
<rect width="5" height="5" fill="white" transform="translate(4.99976)"/>
</clipPath>
</defs>
</svg>
