<svg width="16" height="16" viewBox="0 0 16 16" fill="none" xmlns="http://www.w3.org/2000/svg">
<g clip-path="url(#clip0_1779_25590)">
<path d="M16 8.00781L14.6306 6.22403L14.9369 4.00781L12.8468 3.17898L12.018 1.08889L9.8018 1.3952L8 0.0078125L6.21622 1.37718L4 1.07088L3.17117 3.16097L1.08108 3.98979L1.38739 6.20601L0 8.00781L1.36937 9.7916L1.06306 12.0078L3.15315 12.8366L3.98198 14.9267L6.1982 14.6204L7.98198 15.9898L9.76577 14.6204L11.982 14.9267L12.8108 12.8366L14.9009 11.9898L14.5946 9.77358L16 8.00781ZM7.35135 10.6024L4.68468 8.40421L5.26126 7.70151L7.24324 9.32313L10.6306 5.41322L11.3153 6.00781L7.35135 10.6024Z" fill="#2FA500"/>
</g>
<defs>
<clipPath id="clip0_1779_25590">
<rect width="16" height="16" fill="white"/>
</clipPath>
</defs>
</svg>
