<svg width="81" height="80" viewBox="0 0 81 80" fill="none" xmlns="http://www.w3.org/2000/svg">
<path d="M57.1754 10.3202L57.5604 11.0853L60.4404 18.7503C60.6654 19.3503 61.1404 19.8303 61.7454 20.0553L69.1454 22.8353C72.3954 24.0503 74.1404 27.5203 73.2754 30.8053L73.0654 31.4553L69.6254 39.0703C69.4933 39.3607 69.425 39.6761 69.425 39.9953C69.425 40.3144 69.4933 40.6298 69.6254 40.9203L72.8954 48.1202C73.5795 49.6295 73.6802 51.3387 73.1778 52.9178C72.6755 54.4968 71.6058 55.8337 70.1754 56.6703L69.4104 57.0553L61.7454 59.9353C61.4482 60.0476 61.1785 60.2222 60.9543 60.4473C60.7301 60.6723 60.5566 60.9427 60.4454 61.2403L57.6654 68.6403C57.0833 70.1939 55.9455 71.4763 54.4723 72.2393C52.999 73.0022 51.2951 73.1914 49.6904 72.7703L49.0404 72.5603L41.4254 69.1203C41.1349 68.9879 40.8195 68.9194 40.5004 68.9194C40.1812 68.9194 39.8658 68.9879 39.5754 69.1203L32.3804 72.3903C30.8711 73.0744 29.1619 73.1751 27.5828 72.6727C26.0038 72.1704 24.6669 71.1007 23.8304 69.6703L23.4454 68.9053L20.5604 61.2403C20.4477 60.9433 20.273 60.6737 20.048 60.4496C19.823 60.2254 19.5528 60.0518 19.2553 59.9403L11.8553 57.1603C10.3017 56.5782 9.01928 55.4404 8.25633 53.9672C7.49338 52.4939 7.30418 50.79 7.72535 49.1853L7.93535 48.5353L11.3804 40.9203C11.5124 40.6298 11.5807 40.3144 11.5807 39.9953C11.5807 39.6761 11.5124 39.3607 11.3804 39.0703L8.11035 31.8753C7.42574 30.3666 7.32435 28.6578 7.82576 27.0788C8.32716 25.4998 9.3958 24.1626 10.8253 23.3253L11.5903 22.9403L19.2553 20.0553C19.5533 19.9432 19.8238 19.7688 20.0488 19.5437C20.2739 19.3187 20.4483 19.0482 20.5604 18.7503L23.3403 11.3503C23.9223 9.79769 25.0593 8.51607 26.5315 7.75322C28.0036 6.99036 29.7063 6.80047 31.3104 7.22025L31.9604 7.43025L39.5754 10.8753C39.8658 11.0073 40.1812 11.0756 40.5004 11.0756C40.8195 11.0756 41.1349 11.0073 41.4254 10.8753L48.6254 7.60525C50.134 6.92064 51.8428 6.81925 53.4218 7.32066C55.0008 7.82206 56.3381 8.8907 57.1754 10.3202V10.3202ZM51.3254 28.5253L35.3904 46.7253L29.5804 40.9153C29.1582 40.5113 28.5947 40.2888 28.0105 40.2952C27.4264 40.3016 26.8679 40.5366 26.4548 40.9497C26.0417 41.3628 25.8067 41.9213 25.8003 42.5055C25.7939 43.0896 26.0164 43.6531 26.4204 44.0753L33.9204 51.5753C34.1368 51.7912 34.3953 51.9604 34.6797 52.0724C34.9642 52.1845 35.2686 52.237 35.5742 52.2267C35.8798 52.2164 36.18 52.1435 36.4562 52.0125C36.7325 51.8815 36.9789 51.6953 37.1804 51.4653L54.6804 31.4653C55.0367 31.0154 55.2063 30.4458 55.1542 29.8743C55.102 29.3028 54.8321 28.7733 54.4002 28.3954C53.9683 28.0175 53.4077 27.8203 52.8343 27.8444C52.261 27.8686 51.7189 28.1124 51.3204 28.5253H51.3254Z" fill="#2FA500"/>
</svg>
