<svg width="21" height="20" viewBox="0 0 21 20" fill="none" xmlns="http://www.w3.org/2000/svg">
<path d="M10.4987 15.2083C13.4154 15.2083 16.5404 13.75 16.5404 9.99996C16.5404 6.24996 13.4154 4.79163 10.4987 4.79163C7.58203 4.79163 4.45703 6.24996 4.45703 9.99996C4.45703 10.8581 4.62069 11.5963 4.90806 12.2244C5.08718 12.616 5.18766 13.0477 5.10831 13.4709L4.88981 14.6362C4.78181 15.2122 5.28642 15.7169 5.86246 15.6089L8.53526 15.1077C8.74536 15.0683 8.96078 15.0717 9.17186 15.1052C9.6112 15.1749 10.0574 15.2083 10.4987 15.2083Z" stroke="#4B4B4B" stroke-width="1.5" stroke-linecap="round" stroke-linejoin="round"/>
<path d="M8.41536 10C8.41536 10.2301 8.22881 10.4167 7.9987 10.4167C7.76858 10.4167 7.58203 10.2301 7.58203 10C7.58203 9.76996 7.76858 9.58337 7.9987 9.58337C8.22881 9.58337 8.41536 9.76996 8.41536 10Z" stroke="white" stroke-linecap="round" stroke-linejoin="round"/>
<path d="M10.9154 10C10.9154 10.2301 10.7288 10.4167 10.4987 10.4167C10.2686 10.4167 10.082 10.2301 10.082 10C10.082 9.76996 10.2686 9.58337 10.4987 9.58337C10.7288 9.58337 10.9154 9.76996 10.9154 10Z" stroke="white" stroke-linecap="round" stroke-linejoin="round"/>
<path d="M13.4154 10C13.4154 10.2301 13.2288 10.4167 12.9987 10.4167C12.7686 10.4167 12.582 10.2301 12.582 10C12.582 9.76996 12.7686 9.58337 12.9987 9.58337C13.2288 9.58337 13.4154 9.76996 13.4154 10Z" stroke="white" stroke-linecap="round" stroke-linejoin="round"/>
</svg>
