<svg width="33" height="32" viewBox="0 0 33 32" fill="none" xmlns="http://www.w3.org/2000/svg">
<path d="M23.1705 4.1281L23.3245 4.4341L24.4765 7.5001C24.5665 7.7401 24.7565 7.9321 24.9985 8.0221L27.9585 9.1341C29.2585 9.6201 29.9565 11.0081 29.6105 12.3221L29.5265 12.5821L28.1505 15.6281C28.0977 15.7443 28.0704 15.8705 28.0704 15.9981C28.0704 16.1257 28.0977 16.2519 28.1505 16.3681L29.4585 19.2481C29.7322 19.8518 29.7725 20.5355 29.5715 21.1671C29.3706 21.7987 28.9427 22.3335 28.3705 22.6681L28.0645 22.8221L24.9985 23.9741C24.8797 24.0191 24.7718 24.0889 24.6821 24.1789C24.5924 24.2689 24.523 24.3771 24.4785 24.4961L23.3665 27.4561C23.1337 28.0776 22.6786 28.5905 22.0893 28.8957C21.5 29.2009 20.8184 29.2766 20.1765 29.1081L19.9165 29.0241L16.8705 27.6481C16.7544 27.5951 16.6282 27.5677 16.5005 27.5677C16.3729 27.5677 16.2467 27.5951 16.1305 27.6481L13.2525 28.9561C12.6488 29.2298 11.9652 29.27 11.3335 29.0691C10.7019 28.8681 10.1671 28.4403 9.83253 27.8681L9.67853 27.5621L8.52453 24.4961C8.47947 24.3773 8.4096 24.2695 8.31959 24.1798C8.22958 24.0902 8.12149 24.0207 8.00253 23.9761L5.04253 22.8641C4.42108 22.6313 3.9081 22.1762 3.60292 21.5869C3.29774 20.9976 3.22206 20.316 3.39053 19.6741L3.47453 19.4141L4.85253 16.3681C4.90536 16.2519 4.93269 16.1257 4.93269 15.9981C4.93269 15.8705 4.90536 15.7443 4.85253 15.6281L3.54453 12.7501C3.27069 12.1466 3.23013 11.4631 3.43069 10.8315C3.63125 10.1999 4.05871 9.66502 4.63053 9.3301L4.93653 9.1761L8.00253 8.0221C8.12169 7.97728 8.2299 7.90752 8.31993 7.8175C8.40995 7.72747 8.47971 7.61926 8.52453 7.5001L9.63653 4.5401C9.86932 3.91908 10.3241 3.40643 10.913 3.10129C11.5018 2.79615 12.1829 2.72019 12.8245 2.8881L13.0845 2.9721L16.1305 4.3501C16.2467 4.40293 16.3729 4.43026 16.5005 4.43026C16.6282 4.43026 16.7543 4.40293 16.8705 4.3501L19.7505 3.0421C20.354 2.76826 21.0375 2.7277 21.6691 2.92826C22.3007 3.12882 22.8356 3.55628 23.1705 4.1281V4.1281ZM20.8305 11.4101L14.4565 18.6901L12.1325 16.3661C11.9637 16.2045 11.7383 16.1155 11.5046 16.1181C11.2709 16.1207 11.0476 16.2146 10.8823 16.3799C10.7171 16.5451 10.6231 16.7685 10.6205 17.0022C10.6179 17.2359 10.707 17.4613 10.8685 17.6301L13.8685 20.6301C13.9551 20.7165 14.0585 20.7842 14.1723 20.829C14.2861 20.8738 14.4078 20.8948 14.5301 20.8907C14.6523 20.8865 14.7724 20.8574 14.8829 20.805C14.9934 20.7526 15.092 20.6781 15.1725 20.5861L22.1725 12.5861C22.3151 12.4062 22.3829 12.1783 22.3621 11.9497C22.3412 11.7211 22.2332 11.5093 22.0605 11.3582C21.8877 11.207 21.6635 11.1281 21.4341 11.1378C21.2048 11.1474 20.9879 11.2449 20.8285 11.4101H20.8305Z" fill="#2FA500"/>
</svg>
