<svg width="16" height="16" viewBox="0 0 16 16" fill="none" xmlns="http://www.w3.org/2000/svg">
<path d="M13.7139 7.42815H8.57101V2.2853C8.57101 2.13374 8.51081 1.9884 8.40364 1.88123C8.29648 1.77407 8.15113 1.71387 7.99958 1.71387C7.84803 1.71387 7.70268 1.77407 7.59552 1.88123C7.48836 1.9884 7.42815 2.13374 7.42815 2.2853V7.42815H2.2853C2.13374 7.42815 1.9884 7.48836 1.88123 7.59552C1.77407 7.70268 1.71387 7.84803 1.71387 7.99958C1.71387 8.15113 1.77407 8.29648 1.88123 8.40364C1.9884 8.51081 2.13374 8.57101 2.2853 8.57101H7.42815V13.7139C7.42815 13.8654 7.48836 14.0108 7.59552 14.1179C7.70268 14.2251 7.84803 14.2853 7.99958 14.2853C8.15113 14.2853 8.29648 14.2251 8.40364 14.1179C8.51081 14.0108 8.57101 13.8654 8.57101 13.7139V8.57101H13.7139C13.8654 8.57101 14.0108 8.51081 14.1179 8.40364C14.2251 8.29648 14.2853 8.15113 14.2853 7.99958C14.2853 7.84803 14.2251 7.70268 14.1179 7.59552C14.0108 7.48836 13.8654 7.42815 13.7139 7.42815Z" fill="white"/>
</svg>
