<svg width="33" height="33" viewBox="0 0 33 33" fill="none" xmlns="http://www.w3.org/2000/svg">
<path d="M23.1696 4.6281L23.3236 4.9341L24.4756 8.0001C24.5656 8.2401 24.7556 8.4321 24.9976 8.5221L27.9576 9.6341C29.2576 10.1201 29.9556 11.5081 29.6096 12.8221L29.5256 13.0821L28.1496 16.1281C28.0967 16.2443 28.0694 16.3705 28.0694 16.4981C28.0694 16.6257 28.0967 16.7519 28.1496 16.8681L29.4576 19.7481C29.7312 20.3518 29.7715 21.0355 29.5705 21.6671C29.3696 22.2987 28.9417 22.8335 28.3696 23.1681L28.0636 23.3221L24.9976 24.4741C24.8787 24.5191 24.7708 24.5889 24.6811 24.6789C24.5915 24.7689 24.5221 24.8771 24.4776 24.9961L23.3656 27.9561C23.1327 28.5776 22.6776 29.0905 22.0883 29.3957C21.499 29.7009 20.8175 29.7766 20.1756 29.6081L19.9156 29.5241L16.8696 28.1481C16.7534 28.0951 16.6272 28.0677 16.4996 28.0677C16.3719 28.0677 16.2457 28.0951 16.1296 28.1481L13.2516 29.4561C12.6479 29.7298 11.9642 29.77 11.3325 29.5691C10.7009 29.3681 10.1662 28.9403 9.83155 28.3681L9.67755 28.0621L8.52355 24.9961C8.47849 24.8773 8.40863 24.7695 8.31862 24.6798C8.22861 24.5902 8.12052 24.5207 8.00155 24.4761L5.04155 23.3641C4.4201 23.1313 3.90713 22.6762 3.60195 22.0869C3.29677 21.4976 3.22109 20.816 3.38955 20.1741L3.47355 19.9141L4.85155 16.8681C4.90438 16.7519 4.93171 16.6257 4.93171 16.4981C4.93171 16.3705 4.90438 16.2443 4.85155 16.1281L3.54355 13.2501C3.26971 12.6466 3.22915 11.9631 3.42972 11.3315C3.63028 10.6999 4.05773 10.165 4.62955 9.8301L4.93555 9.6761L8.00155 8.5221C8.12071 8.47728 8.22893 8.40752 8.31895 8.3175C8.40897 8.22747 8.47873 8.11926 8.52355 8.0001L9.63555 5.0401C9.86835 4.41908 10.3231 3.90643 10.912 3.60129C11.5009 3.29615 12.1819 3.22019 12.8236 3.3881L13.0836 3.4721L16.1296 4.8501C16.2458 4.90293 16.3719 4.93026 16.4996 4.93026C16.6272 4.93026 16.7534 4.90293 16.8696 4.8501L19.7496 3.5421C20.353 3.26826 21.0365 3.2277 21.6681 3.42826C22.2997 3.62882 22.8346 4.05628 23.1696 4.6281V4.6281ZM20.8296 11.9101L14.4556 19.1901L12.1316 16.8661C11.9627 16.7045 11.7373 16.6155 11.5036 16.6181C11.27 16.6207 11.0466 16.7146 10.8813 16.8799C10.7161 17.0451 10.6221 17.2685 10.6195 17.5022C10.617 17.7359 10.706 17.9613 10.8676 18.1301L13.8676 21.1301C13.9541 21.2165 14.0575 21.2842 14.1713 21.329C14.2851 21.3738 14.4069 21.3948 14.5291 21.3907C14.6513 21.3865 14.7714 21.3574 14.8819 21.305C14.9924 21.2526 15.091 21.1781 15.1716 21.0861L22.1716 13.0861C22.3141 12.9062 22.382 12.6783 22.3611 12.4497C22.3402 12.2211 22.2322 12.0093 22.0595 11.8582C21.8867 11.707 21.6625 11.6281 21.4331 11.6378C21.2038 11.6474 20.987 11.7449 20.8276 11.9101H20.8296Z" fill="#2FA500"/>
</svg>
