<svg width="21" height="20" viewBox="0 0 21 20" fill="none" xmlns="http://www.w3.org/2000/svg">
<path d="M17.6426 9.28544H11.214V2.85686C11.214 2.66742 11.1388 2.48574 11.0048 2.35179C10.8708 2.21783 10.6892 2.14258 10.4997 2.14258C10.3103 2.14258 10.1286 2.21783 9.99465 2.35179C9.86069 2.48574 9.78544 2.66742 9.78544 2.85686V9.28544H3.35686C3.16742 9.28544 2.98574 9.36069 2.85179 9.49465C2.71783 9.6286 2.64258 9.81028 2.64258 9.99972C2.64258 10.1892 2.71783 10.3708 2.85179 10.5048C2.98574 10.6388 3.16742 10.714 3.35686 10.714H9.78544V17.1426C9.78544 17.332 9.86069 17.5137 9.99465 17.6477C10.1286 17.7816 10.3103 17.8569 10.4997 17.8569C10.6892 17.8569 10.8708 17.7816 11.0048 17.6477C11.1388 17.5137 11.214 17.332 11.214 17.1426V10.714H17.6426C17.832 10.714 18.0137 10.6388 18.1477 10.5048C18.2816 10.3708 18.3569 10.1892 18.3569 9.99972C18.3569 9.81028 18.2816 9.6286 18.1477 9.49465C18.0137 9.36069 17.832 9.28544 17.6426 9.28544Z" fill="#009100"/>
</svg>
