<svg width="16" height="16" viewBox="0 0 16 16" fill="none" xmlns="http://www.w3.org/2000/svg">
<path d="M13.7148 7.42913H8.57199V2.28627C8.57199 2.13472 8.51178 1.98937 8.40462 1.88221C8.29745 1.77505 8.15211 1.71484 8.00056 1.71484C7.84901 1.71484 7.70366 1.77505 7.5965 1.88221C7.48933 1.98937 7.42913 2.13472 7.42913 2.28627V7.42913H2.28627C2.13472 7.42913 1.98937 7.48933 1.88221 7.5965C1.77505 7.70366 1.71484 7.84901 1.71484 8.00056C1.71484 8.15211 1.77505 8.29745 1.88221 8.40462C1.98937 8.51178 2.13472 8.57199 2.28627 8.57199H7.42913V13.7148C7.42913 13.8664 7.48933 14.0117 7.5965 14.1189C7.70366 14.2261 7.84901 14.2863 8.00056 14.2863C8.15211 14.2863 8.29745 14.2261 8.40462 14.1189C8.51178 14.0117 8.57199 13.8664 8.57199 13.7148V8.57199H13.7148C13.8664 8.57199 14.0117 8.51178 14.1189 8.40462C14.2261 8.29745 14.2863 8.15211 14.2863 8.00056C14.2863 7.84901 14.2261 7.70366 14.1189 7.5965C14.0117 7.48933 13.8664 7.42913 13.7148 7.42913Z" fill="white"/>
</svg>
