<svg width="24" height="24" viewBox="0 0 24 24" fill="none" xmlns="http://www.w3.org/2000/svg">
<path d="M17.8201 13.6094C15.9201 13.6094 14.3901 15.1494 14.3901 17.0394C14.3901 18.9394 15.9301 20.4694 17.8201 20.4694C19.7201 20.4694 21.2501 18.9294 21.2501 17.0394C21.2501 15.1394 19.7101 13.6094 17.8201 13.6094Z" stroke="#4B4B4B" stroke-width="1.5" stroke-linecap="round" stroke-linejoin="round"/>
<path d="M6.17999 13.6094C4.27999 13.6094 2.75 15.1494 2.75 17.0394C2.75 18.9394 4.28999 20.4694 6.17999 20.4694C8.07999 20.4694 9.61 18.9294 9.61 17.0394C9.61 15.1394 8.07999 13.6094 6.17999 13.6094Z" stroke="#4B4B4B" stroke-width="1.5" stroke-linecap="round" stroke-linejoin="round"/>
<path d="M15.4298 6.9593C15.4298 8.8593 13.8898 10.3893 11.9998 10.3893C10.0998 10.3893 8.56982 8.8493 8.56982 6.9593C8.56982 5.0593 10.1098 3.5293 11.9998 3.5293C13.8998 3.5293 15.4298 5.0693 15.4298 6.9593Z" stroke="#4B4B4B" stroke-width="1.5" stroke-linecap="round" stroke-linejoin="round"/>
</svg>
