<svg width="16" height="16" viewBox="0 0 16 16" fill="none" xmlns="http://www.w3.org/2000/svg">
<path d="M14.1892 5.51739L10.222 4.94083L8.44859 1.34551C8.40016 1.24708 8.32047 1.16739 8.22203 1.11895C7.97516 0.997076 7.67516 1.09864 7.55172 1.34551L5.77828 4.94083L1.81109 5.51739C1.70171 5.53302 1.60171 5.58458 1.52515 5.6627C1.43259 5.75784 1.38159 5.88583 1.38334 6.01855C1.3851 6.15127 1.43948 6.27787 1.53453 6.37052L4.40484 9.16895L3.72672 13.1205C3.71081 13.2124 3.72099 13.307 3.75608 13.3934C3.79117 13.4799 3.84978 13.5547 3.92526 13.6095C4.00074 13.6644 4.09007 13.6969 4.18312 13.7036C4.27617 13.7102 4.36922 13.6906 4.45172 13.6471L8.00016 11.7815L11.5486 13.6471C11.6455 13.6986 11.758 13.7158 11.8658 13.6971C12.1377 13.6502 12.3205 13.3924 12.2736 13.1205L11.5955 9.16895L14.4658 6.37052C14.5439 6.29395 14.5955 6.19395 14.6111 6.08458C14.6533 5.81114 14.4627 5.55802 14.1892 5.51739V5.51739ZM10.3877 8.7752L10.9517 12.0611L8.00016 10.5111L5.04859 12.0627L5.61265 8.77677L3.22515 6.44864L6.52515 5.96895L8.00016 2.97989L9.47516 5.96895L12.7752 6.44864L10.3877 8.7752Z" fill="#858585"/>
</svg>
