<svg width="21" height="20" viewBox="0 0 21 20" fill="none" xmlns="http://www.w3.org/2000/svg">
<path d="M15.3505 11.3413C13.7672 11.3413 12.4922 12.6246 12.4922 14.1996C12.4922 15.783 13.7755 17.058 15.3505 17.058C16.9339 17.058 18.2089 15.7746 18.2089 14.1996C18.2089 12.6163 16.9255 11.3413 15.3505 11.3413Z" stroke="white" stroke-width="1.5" stroke-linecap="round" stroke-linejoin="round"/>
<path d="M5.6513 11.3413C4.06796 11.3413 2.79297 12.6246 2.79297 14.1996C2.79297 15.783 4.0763 17.058 5.6513 17.058C7.23463 17.058 8.50964 15.7746 8.50964 14.1996C8.50964 12.6163 7.23463 11.3413 5.6513 11.3413Z" stroke="white" stroke-width="1.5" stroke-linecap="round" stroke-linejoin="round"/>
<path d="M13.3612 5.79974C13.3612 7.38307 12.0779 8.65807 10.5029 8.65807C8.91953 8.65807 7.64453 7.37474 7.64453 5.79974C7.64453 4.21641 8.92786 2.94141 10.5029 2.94141C12.0862 2.94141 13.3612 4.22474 13.3612 5.79974Z" stroke="white" stroke-width="1.5" stroke-linecap="round" stroke-linejoin="round"/>
</svg>
