<svg width="16" height="16" viewBox="0 0 16 16" fill="none" xmlns="http://www.w3.org/2000/svg">
<g clip-path="url(#clip0_2942_2462)">
<path d="M8.47083 12.72H4.15694C2.96348 12.72 2 11.7565 2 10.563V8.40609C2 7.21262 2.96348 6.24915 4.15694 6.24915H8.47083C9.6643 6.24915 10.6278 7.21262 10.6278 8.40609V10.563C10.6216 11.7565 9.65808 12.72 8.47083 12.72Z" stroke="#4B4B4B" stroke-width="1.39859" stroke-linecap="round" stroke-linejoin="round"/>
<path d="M10.6221 10.9236L12.5242 11.6384C12.9966 11.8125 13.4939 11.4644 13.4939 10.9671V8.00828C13.4939 7.50479 12.9904 7.15668 12.5242 7.33695L10.6221 8.05178V10.9236Z" stroke="#4B4B4B" stroke-width="1.39859" stroke-linecap="round" stroke-linejoin="round"/>
<path d="M4.44907 5.69594C5.33135 5.69594 6.04657 4.9807 6.04657 4.09843C6.04657 3.21615 5.33135 2.50092 4.44907 2.50092C3.56679 2.50092 2.85156 3.21615 2.85156 4.09843C2.85156 4.9807 3.56679 5.69594 4.44907 5.69594Z" stroke="#4B4B4B" stroke-width="1.39859" stroke-linecap="round" stroke-linejoin="round"/>
<path d="M8.17856 5.69593C9.06084 5.69593 9.77607 4.9807 9.77607 4.09842C9.77607 3.21614 9.06084 2.50091 8.17856 2.50091C7.29628 2.50091 6.58105 3.21614 6.58105 4.09842C6.58105 4.9807 7.29628 5.69593 8.17856 5.69593Z" stroke="#4B4B4B" stroke-width="1.39859" stroke-linecap="round" stroke-linejoin="round"/>
</g>
<defs>
<clipPath id="clip0_2942_2462">
<rect width="16" height="16" fill="white"/>
</clipPath>
</defs>
</svg>
