<svg width="21" height="20" viewBox="0 0 21 20" fill="none" xmlns="http://www.w3.org/2000/svg">
<path d="M17.6426 9.28592H11.214V2.85735C11.214 2.66791 11.1388 2.48623 11.0048 2.35228C10.8708 2.21832 10.6892 2.14307 10.4997 2.14307C10.3103 2.14307 10.1286 2.21832 9.99465 2.35228C9.86069 2.48623 9.78544 2.66791 9.78544 2.85735V9.28592H3.35686C3.16742 9.28592 2.98574 9.36118 2.85179 9.49513C2.71783 9.62909 2.64258 9.81077 2.64258 10.0002C2.64258 10.1897 2.71783 10.3713 2.85179 10.5053C2.98574 10.6392 3.16742 10.7145 3.35686 10.7145H9.78544V17.1431C9.78544 17.3325 9.86069 17.5142 9.99465 17.6481C10.1286 17.7821 10.3103 17.8574 10.4997 17.8574C10.6892 17.8574 10.8708 17.7821 11.0048 17.6481C11.1388 17.5142 11.214 17.3325 11.214 17.1431V10.7145H17.6426C17.832 10.7145 18.0137 10.6392 18.1477 10.5053C18.2816 10.3713 18.3569 10.1897 18.3569 10.0002C18.3569 9.81077 18.2816 9.62909 18.1477 9.49513C18.0137 9.36118 17.832 9.28592 17.6426 9.28592Z" fill="#009100"/>
</svg>
