<svg width="21" height="20" viewBox="0 0 21 20" fill="none" xmlns="http://www.w3.org/2000/svg">
<path d="M15.3505 11.3413C13.7672 11.3413 12.4922 12.6246 12.4922 14.1996C12.4922 15.783 13.7755 17.058 15.3505 17.058C16.9339 17.058 18.2089 15.7746 18.2089 14.1996C18.2089 12.6163 16.9255 11.3413 15.3505 11.3413Z" stroke="#2FA500" stroke-width="1.5" stroke-linecap="round" stroke-linejoin="round"/>
<path d="M5.64934 11.3413C4.06601 11.3413 2.79102 12.6246 2.79102 14.1996C2.79102 15.783 4.07434 17.058 5.64934 17.058C7.23268 17.058 8.50768 15.7746 8.50768 14.1996C8.50768 12.6163 7.23268 11.3413 5.64934 11.3413Z" stroke="#2FA500" stroke-width="1.5" stroke-linecap="round" stroke-linejoin="round"/>
<path d="M13.3573 5.79974C13.3573 7.38307 12.074 8.65807 10.499 8.65807C8.91562 8.65807 7.64062 7.37474 7.64062 5.79974C7.64062 4.21641 8.92395 2.94141 10.499 2.94141C12.0823 2.94141 13.3573 4.22474 13.3573 5.79974Z" stroke="#2FA500" stroke-width="1.5" stroke-linecap="round" stroke-linejoin="round"/>
</svg>
