<svg width="21" height="20" viewBox="0 0 21 20" fill="none" xmlns="http://www.w3.org/2000/svg">
<path d="M15.3505 11.3418C13.7672 11.3418 12.4922 12.6251 12.4922 14.2001C12.4922 15.7835 13.7755 17.0585 15.3505 17.0585C16.9339 17.0585 18.2089 15.7751 18.2089 14.2001C18.2089 12.6168 16.9255 11.3418 15.3505 11.3418Z" stroke="white" stroke-width="1.5" stroke-linecap="round" stroke-linejoin="round"/>
<path d="M5.64934 11.3418C4.06601 11.3418 2.79102 12.6251 2.79102 14.2001C2.79102 15.7835 4.07434 17.0585 5.64934 17.0585C7.23268 17.0585 8.50768 15.7751 8.50768 14.2001C8.50768 12.6168 7.23268 11.3418 5.64934 11.3418Z" stroke="white" stroke-width="1.5" stroke-linecap="round" stroke-linejoin="round"/>
<path d="M13.3573 5.79974C13.3573 7.38307 12.074 8.65807 10.499 8.65807C8.91562 8.65807 7.64062 7.37474 7.64062 5.79974C7.64062 4.21641 8.92395 2.94141 10.499 2.94141C12.0823 2.94141 13.3573 4.22474 13.3573 5.79974Z" stroke="white" stroke-width="1.5" stroke-linecap="round" stroke-linejoin="round"/>
</svg>
