<svg width="25" height="25" viewBox="0 0 25 25" fill="none" xmlns="http://www.w3.org/2000/svg">
<path d="M18.3206 14.1104C16.4206 14.1104 14.8906 15.6504 14.8906 17.5404C14.8906 19.4404 16.4306 20.9704 18.3206 20.9704C20.2206 20.9704 21.7506 19.4304 21.7506 17.5404C21.7506 15.6404 20.2106 14.1104 18.3206 14.1104Z" stroke="#2E2E2E" stroke-width="1.5" stroke-linecap="round" stroke-linejoin="round"/>
<path d="M6.67999 14.1104C4.77999 14.1104 3.25 15.6504 3.25 17.5404C3.25 19.4404 4.78999 20.9704 6.67999 20.9704C8.57999 20.9704 10.11 19.4304 10.11 17.5404C10.11 15.6404 8.57999 14.1104 6.67999 14.1104Z" stroke="#2E2E2E" stroke-width="1.5" stroke-linecap="round" stroke-linejoin="round"/>
<path d="M15.9303 7.46027C15.9303 9.36027 14.3903 10.8903 12.5003 10.8903C10.6003 10.8903 9.07031 9.35027 9.07031 7.46027C9.07031 5.56027 10.6103 4.03027 12.5003 4.03027C14.4003 4.03027 15.9303 5.57027 15.9303 7.46027Z" stroke="#2E2E2E" stroke-width="1.5" stroke-linecap="round" stroke-linejoin="round"/>
</svg>
