<svg width="21" height="20" viewBox="0 0 21 20" fill="none" xmlns="http://www.w3.org/2000/svg">
<path d="M15.35 11.3413C13.7667 11.3413 12.4917 12.6246 12.4917 14.1996C12.4917 15.783 13.775 17.058 15.35 17.058C16.9334 17.058 18.2084 15.7746 18.2084 14.1996C18.2084 12.6163 16.925 11.3413 15.35 11.3413Z" stroke="#2FA500" stroke-width="1.5" stroke-linecap="round" stroke-linejoin="round"/>
<path d="M5.64983 11.3413C4.0665 11.3413 2.7915 12.6246 2.7915 14.1996C2.7915 15.783 4.07483 17.058 5.64983 17.058C7.23316 17.058 8.50817 15.7746 8.50817 14.1996C8.50817 12.6163 7.23316 11.3413 5.64983 11.3413Z" stroke="#2FA500" stroke-width="1.5" stroke-linecap="round" stroke-linejoin="round"/>
<path d="M13.3583 5.79974C13.3583 7.38307 12.0749 8.65807 10.4999 8.65807C8.9166 8.65807 7.6416 7.37474 7.6416 5.79974C7.6416 4.21641 8.92493 2.94141 10.4999 2.94141C12.0833 2.94141 13.3583 4.22474 13.3583 5.79974Z" stroke="#2FA500" stroke-width="1.5" stroke-linecap="round" stroke-linejoin="round"/>
</svg>
