<svg width="25" height="25" viewBox="0 0 25 25" fill="none" xmlns="http://www.w3.org/2000/svg">
<path d="M14.9645 9.44978C14.574 9.05926 14.574 8.42609 14.9645 8.03557L17.3348 5.66532C16.7794 5.3991 16.1572 5.25 15.5001 5.25C13.1529 5.25 11.2501 7.15279 11.2501 9.5C11.2501 10.1571 11.3992 10.7793 11.6654 11.3347L5.66422 17.3359C5.11193 17.8882 5.11193 18.7837 5.66422 19.3359C6.2165 19.8882 7.11193 19.8882 7.66422 19.3359L13.6654 13.3347C14.2208 13.6009 14.8431 13.75 15.5001 13.75C17.8473 13.75 19.7501 11.8472 19.7501 9.5C19.7501 8.85127 19.6048 8.23649 19.3449 7.68645L16.9801 10.0512C16.5896 10.4417 15.9564 10.4417 15.5659 10.0512L14.9645 9.44978Z" stroke="#4B4B4B" stroke-width="1.5" stroke-linecap="round" stroke-linejoin="round"/>
</svg>
