<svg width="25" height="24" viewBox="0 0 25 24" fill="none" xmlns="http://www.w3.org/2000/svg">
<path d="M21.0713 11.1427H13.357V3.42843C13.357 3.2011 13.2667 2.98309 13.106 2.82234C12.9452 2.66159 12.7272 2.57129 12.4999 2.57129C12.2725 2.57129 12.0545 2.66159 11.8938 2.82234C11.733 2.98309 11.6427 3.2011 11.6427 3.42843V11.1427H3.92843C3.7011 11.1427 3.48309 11.233 3.32234 11.3938C3.16159 11.5545 3.07129 11.7725 3.07129 11.9999C3.07129 12.2272 3.16159 12.4452 3.32234 12.606C3.48309 12.7667 3.7011 12.857 3.92843 12.857H11.6427V20.5713C11.6427 20.7986 11.733 21.0166 11.8938 21.1774C12.0545 21.3381 12.2725 21.4284 12.4999 21.4284C12.7272 21.4284 12.9452 21.3381 13.106 21.1774C13.2667 21.0166 13.357 20.7986 13.357 20.5713V12.857H21.0713C21.2986 12.857 21.5166 12.7667 21.6774 12.606C21.8381 12.4452 21.9284 12.2272 21.9284 11.9999C21.9284 11.7725 21.8381 11.5545 21.6774 11.3938C21.5166 11.233 21.2986 11.1427 21.0713 11.1427Z" fill="#858585"/>
</svg>
