<svg width="20" height="20" viewBox="0 0 20 20" fill="none" xmlns="http://www.w3.org/2000/svg">
<path d="M14.85 11.3418C13.2667 11.3418 11.9917 12.6251 11.9917 14.2001C11.9917 15.7835 13.275 17.0585 14.85 17.0585C16.4334 17.0585 17.7084 15.7751 17.7084 14.2001C17.7084 12.6168 16.425 11.3418 14.85 11.3418Z" stroke="#2FA500" stroke-width="1.5" stroke-linecap="round" stroke-linejoin="round"/>
<path d="M5.14983 11.3418C3.5665 11.3418 2.2915 12.6251 2.2915 14.2001C2.2915 15.7835 3.57483 17.0585 5.14983 17.0585C6.73316 17.0585 8.00817 15.7751 8.00817 14.2001C8.00817 12.6168 6.73316 11.3418 5.14983 11.3418Z" stroke="#2FA500" stroke-width="1.5" stroke-linecap="round" stroke-linejoin="round"/>
<path d="M12.8581 5.79974C12.8581 7.38307 11.5748 8.65807 9.99981 8.65807C8.41647 8.65807 7.14148 7.37474 7.14148 5.79974C7.14148 4.21641 8.42481 2.94141 9.99981 2.94141C11.5831 2.94141 12.8581 4.22474 12.8581 5.79974Z" stroke="#2FA500" stroke-width="1.5" stroke-linecap="round" stroke-linejoin="round"/>
</svg>
