<svg width="25" height="24" viewBox="0 0 25 24" fill="none" xmlns="http://www.w3.org/2000/svg">
<path d="M18.3206 13.6104C16.4206 13.6104 14.8906 15.1504 14.8906 17.0404C14.8906 18.9404 16.4306 20.4704 18.3206 20.4704C20.2206 20.4704 21.7506 18.9304 21.7506 17.0404C21.7506 15.1404 20.2106 13.6104 18.3206 13.6104Z" stroke="#4B4B4B" stroke-width="1.5" stroke-linecap="round" stroke-linejoin="round"/>
<path d="M6.67999 13.6104C4.77999 13.6104 3.25 15.1504 3.25 17.0404C3.25 18.9404 4.78999 20.4704 6.67999 20.4704C8.57999 20.4704 10.11 18.9304 10.11 17.0404C10.11 15.1404 8.57999 13.6104 6.67999 13.6104Z" stroke="#4B4B4B" stroke-width="1.5" stroke-linecap="round" stroke-linejoin="round"/>
<path d="M15.9303 6.96027C15.9303 8.86027 14.3903 10.3903 12.5003 10.3903C10.6003 10.3903 9.07031 8.85027 9.07031 6.96027C9.07031 5.06027 10.6103 3.53027 12.5003 3.53027C14.4003 3.53027 15.9303 5.07027 15.9303 6.96027Z" stroke="#4B4B4B" stroke-width="1.5" stroke-linecap="round" stroke-linejoin="round"/>
</svg>
