<svg width="20" height="9" viewBox="0 0 20 9" fill="none" xmlns="http://www.w3.org/2000/svg">
<path d="M4.79199 9.79171C4.79199 9.33146 5.16509 8.95837 5.62533 8.95837H14.3753C14.8356 8.95837 15.2087 9.33146 15.2087 9.79171V14.375C15.2087 15.2955 14.4625 16.0417 13.542 16.0417H6.45866C5.53818 16.0417 4.79199 15.2955 4.79199 14.375V9.79171Z" stroke="#4B4B4B" stroke-width="1.5" stroke-linecap="round" stroke-linejoin="round"/>
<path d="M6.45872 8.75004V8.61896C6.45872 7.31793 6.38045 5.86775 7.28911 4.93662C7.8073 4.40562 8.64581 3.95837 10.0004 3.95837C11.355 3.95837 12.1935 4.40562 12.7116 4.93662C13.6203 5.86775 13.5421 7.31793 13.5421 8.61896V8.75004" stroke="#2E2E2E" stroke-width="1.5" stroke-linecap="round" stroke-linejoin="round"/>
</svg>
