<svg width="16" height="16" viewBox="0 0 16 16" fill="none" xmlns="http://www.w3.org/2000/svg">
<path d="M14.9687 1.28197C15.0623 1.37572 15.1149 1.5028 15.1149 1.6353C15.1149 1.7678 15.0623 1.89489 14.9687 1.98864L10.35 6.60797C10.9161 7.34589 11.1947 8.26444 11.1339 9.19252C11.0731 10.1206 10.6769 10.9949 10.0193 11.6526L9.46465 12.2073L7.60666 14.994C7.56565 15.0555 7.51151 15.1072 7.44813 15.1453C7.38475 15.1834 7.31371 15.207 7.24012 15.2143C7.16654 15.2216 7.09224 15.2125 7.02259 15.1877C6.95294 15.1629 6.88966 15.1229 6.83732 15.0706L1.17999 9.4133C1.12775 9.36096 1.08777 9.29769 1.06293 9.22803C1.03809 9.15838 1.02901 9.08408 1.03634 9.0105C1.04367 8.93691 1.06724 8.86587 1.10533 8.80249C1.14343 8.73911 1.19511 8.68497 1.25666 8.64397L4.04332 6.78597L4.59799 6.2313C5.25569 5.57368 6.13002 5.17756 7.0581 5.11672C7.98618 5.05589 8.90474 5.33449 9.64266 5.90064L14.262 1.28197C14.3557 1.18834 14.4828 1.13574 14.6153 1.13574C14.7478 1.13574 14.8749 1.18834 14.9687 1.28197ZM5.06932 7.17464L9.07599 11.1813L9.31199 10.946C9.83312 10.4126 10.1229 9.69519 10.1186 8.94947C10.1143 8.20375 9.8161 7.48981 9.28879 6.9625C8.76148 6.43519 8.04754 6.13703 7.30182 6.13268C6.5561 6.12834 5.83874 6.41817 5.30532 6.9393L5.06932 7.17464ZM4.29866 7.81797L2.31866 9.13797L7.11266 13.932L8.43266 11.952L4.29866 7.81797Z" fill="#4B4B4B"/>
</svg>
