<svg width="20" height="20" viewBox="0 0 20 20" fill="none" xmlns="http://www.w3.org/2000/svg">
<path d="M14.8505 11.3418C13.2672 11.3418 11.9922 12.6251 11.9922 14.2001C11.9922 15.7835 13.2755 17.0585 14.8505 17.0585C16.4339 17.0585 17.7089 15.7751 17.7089 14.2001C17.7089 12.6168 16.4255 11.3418 14.8505 11.3418Z" stroke="white" stroke-width="1.5" stroke-linecap="round" stroke-linejoin="round"/>
<path d="M5.14934 11.3418C3.56601 11.3418 2.29102 12.6251 2.29102 14.2001C2.29102 15.7835 3.57434 17.0585 5.14934 17.0585C6.73268 17.0585 8.00768 15.7751 8.00768 14.2001C8.00768 12.6168 6.73268 11.3418 5.14934 11.3418Z" stroke="white" stroke-width="1.5" stroke-linecap="round" stroke-linejoin="round"/>
<path d="M12.8573 5.79974C12.8573 7.38307 11.574 8.65807 9.99895 8.65807C8.41562 8.65807 7.14062 7.37474 7.14062 5.79974C7.14062 4.21641 8.42395 2.94141 9.99895 2.94141C11.5823 2.94141 12.8573 4.22474 12.8573 5.79974Z" stroke="white" stroke-width="1.5" stroke-linecap="round" stroke-linejoin="round"/>
</svg>
