<svg width="24" height="25" viewBox="0 0 24 25" fill="none" xmlns="http://www.w3.org/2000/svg">
<path d="M20.2 9.50957C21.6 11.1996 21.6 13.7996 20.2 15.4896C18.2 17.8996 15.27 19.4396 12 19.4396C8.73001 19.4396 5.81 17.9096 3.8 15.4896C2.4 13.7996 2.4 11.1996 3.8 9.50957C5.8 7.09957 8.73001 5.55957 12 5.55957C15.27 5.55957 18.19 7.08957 20.2 9.50957Z" stroke="#4B4B4B" stroke-width="1.5" stroke-linecap="round" stroke-linejoin="round"/>
<path d="M20.2 9.50957C21.6 11.1996 21.6 13.7996 20.2 15.4896C18.2 17.8996 15.27 19.4396 12 19.4396C8.73001 19.4396 5.81 17.9096 3.8 15.4896C2.4 13.7996 2.4 11.1996 3.8 9.50957C5.8 7.09957 8.73001 5.55957 12 5.55957C15.27 5.55957 18.19 7.08957 20.2 9.50957Z" stroke="#4B4B4B" stroke-width="1.5" stroke-linecap="round" stroke-linejoin="round"/>
<path d="M11.9999 15.5799C13.7009 15.5799 15.0799 14.201 15.0799 12.4999C15.0799 10.7989 13.7009 9.41992 11.9999 9.41992C10.2989 9.41992 8.91992 10.7989 8.91992 12.4999C8.91992 14.201 10.2989 15.5799 11.9999 15.5799Z" stroke="#4B4B4B" stroke-width="1.5" stroke-linecap="round" stroke-linejoin="round"/>
</svg>
