<svg width="21" height="21" viewBox="0 0 21 21" fill="none" xmlns="http://www.w3.org/2000/svg">
<path d="M17.6445 9.78592H11.216V3.35735C11.216 3.16791 11.1407 2.98623 11.0068 2.85228C10.8728 2.71832 10.6911 2.64307 10.5017 2.64307C10.3122 2.64307 10.1306 2.71832 9.9966 2.85228C9.86264 2.98623 9.78739 3.16791 9.78739 3.35735V9.78592H3.35882C3.16938 9.78592 2.9877 9.86118 2.85374 9.99513C2.71979 10.1291 2.64453 10.3108 2.64453 10.5002C2.64453 10.6897 2.71979 10.8713 2.85374 11.0053C2.9877 11.1392 3.16938 11.2145 3.35882 11.2145H9.78739V17.6431C9.78739 17.8325 9.86264 18.0142 9.9966 18.1481C10.1306 18.2821 10.3122 18.3574 10.5017 18.3574C10.6911 18.3574 10.8728 18.2821 11.0068 18.1481C11.1407 18.0142 11.216 17.8325 11.216 17.6431V11.2145H17.6445C17.834 11.2145 18.0157 11.1392 18.1496 11.0053C18.2836 10.8713 18.3588 10.6897 18.3588 10.5002C18.3588 10.3108 18.2836 10.1291 18.1496 9.99513C18.0157 9.86118 17.834 9.78592 17.6445 9.78592Z" fill="#009100"/>
</svg>
