<svg width="16" height="16" viewBox="0 0 16 16" fill="none" xmlns="http://www.w3.org/2000/svg">
<path d="M14.1887 5.51715L10.2215 4.94058L8.44811 1.34527C8.39967 1.24683 8.31998 1.16714 8.22154 1.11871C7.97467 0.996832 7.67467 1.09839 7.55123 1.34527L5.77779 4.94058L1.8106 5.51715C1.70123 5.53277 1.60123 5.58433 1.52466 5.66246C1.4321 5.75759 1.3811 5.88558 1.38286 6.01831C1.38461 6.15103 1.43899 6.27762 1.53404 6.37027L4.40435 9.16871L3.72623 13.1203C3.71033 13.2122 3.7205 13.3067 3.75559 13.3932C3.79068 13.4796 3.84929 13.5545 3.92477 13.6093C4.00025 13.6641 4.08958 13.6967 4.18263 13.7033C4.27568 13.71 4.36873 13.6904 4.45123 13.6468L7.99967 11.7812L11.5481 13.6468C11.645 13.6984 11.7575 13.7156 11.8653 13.6968C12.1372 13.65 12.32 13.3922 12.2731 13.1203L11.595 9.16871L14.4653 6.37027C14.5434 6.29371 14.595 6.19371 14.6106 6.08433C14.6528 5.8109 14.4622 5.55777 14.1887 5.51715ZM10.3872 8.77496L10.9512 12.0609L7.99967 10.5109L5.0481 12.0625L5.61217 8.77652L3.22466 6.4484L6.52467 5.96871L7.99967 2.97965L9.47467 5.96871L12.7747 6.4484L10.3872 8.77496Z" fill="#DFDFDF"/>
</svg>
