<svg width="24" height="24" viewBox="0 0 24 24" fill="none" xmlns="http://www.w3.org/2000/svg">
<path d="M21.2831 8.2756L15.3323 7.41075L12.6722 2.01778C12.5995 1.87013 12.48 1.75059 12.3323 1.67794C11.962 1.49513 11.512 1.64747 11.3268 2.01778L8.66669 7.41075L2.7159 8.2756C2.55184 8.29904 2.40184 8.37638 2.28699 8.49357C2.14815 8.63627 2.07165 8.82825 2.07428 9.02734C2.07692 9.22642 2.15849 9.41631 2.30106 9.55529L6.60653 13.7529L5.58934 19.6803C5.56549 19.8182 5.58075 19.96 5.63338 20.0896C5.68602 20.2193 5.77394 20.3316 5.88716 20.4138C6.00038 20.4961 6.13437 20.5449 6.27395 20.5549C6.41353 20.5648 6.5531 20.5355 6.67684 20.4701L11.9995 17.6717L17.3222 20.4701C17.4675 20.5475 17.6362 20.5733 17.7979 20.5451C18.2058 20.4748 18.48 20.0881 18.4097 19.6803L17.3925 13.7529L21.6979 9.55529C21.8151 9.44044 21.8925 9.29044 21.9159 9.12638C21.9792 8.71622 21.6933 8.33654 21.2831 8.2756V8.2756ZM15.5808 13.1623L16.4268 18.0912L11.9995 15.7662L7.57215 18.0936L8.41825 13.1647L4.837 9.67247L9.787 8.95294L11.9995 4.46935L14.212 8.95294L19.162 9.67247L15.5808 13.1623Z" fill="#4B4B4B"/>
</svg>
