<svg width="20" height="20" viewBox="0 0 20 20" fill="none" xmlns="http://www.w3.org/2000/svg">
<path d="M16.0413 6.875V14.375C16.0413 15.2955 15.2952 16.0417 14.3747 16.0417H5.62467C4.7042 16.0417 3.95801 15.2955 3.95801 14.375V5.625" stroke="#2E2E2E" stroke-width="1.5" stroke-linecap="round" stroke-linejoin="round"/>
<path d="M13.7503 10.8333C13.7503 11.0634 13.5637 11.25 13.3337 11.25C13.1036 11.25 12.917 11.0634 12.917 10.8333C12.917 10.6032 13.1036 10.4166 13.3337 10.4166C13.5637 10.4166 13.7503 10.6032 13.7503 10.8333Z" stroke="#4B4B4B" stroke-linecap="round" stroke-linejoin="round"/>
<path d="M14.3747 6.87504H16.0413M14.3747 6.87504H5.41634C4.61092 6.87504 3.95801 6.22212 3.95801 5.41671C3.95801 4.61129 4.61092 3.95837 5.41634 3.95837H12.708C13.6285 3.95837 14.3747 4.70457 14.3747 5.62504V6.87504Z" stroke="#4B4B4B" stroke-width="1.5" stroke-linecap="round" stroke-linejoin="round"/>
</svg>
