<svg width="16" height="16" viewBox="0 0 16 16" fill="none" xmlns="http://www.w3.org/2000/svg">
<path d="M11.8799 9.07324C10.6133 9.07324 9.59326 10.0999 9.59326 11.3599C9.59326 12.6266 10.6199 13.6466 11.8799 13.6466C13.1466 13.6466 14.1666 12.6199 14.1666 11.3599C14.1666 10.0932 13.1399 9.07324 11.8799 9.07324Z" stroke="black" stroke-width="1.5" stroke-linecap="round" stroke-linejoin="round"/>
<path d="M4.12016 9.07373C2.85349 9.07373 1.8335 10.1004 1.8335 11.3604C1.8335 12.6271 2.86016 13.6471 4.12016 13.6471C5.38682 13.6471 6.40683 12.6204 6.40683 11.3604C6.40683 10.0937 5.38682 9.07373 4.12016 9.07373Z" stroke="black" stroke-width="1.5" stroke-linecap="round" stroke-linejoin="round"/>
<path d="M10.2867 4.64018C10.2867 5.90685 9.26004 6.92685 8.00004 6.92685C6.73337 6.92685 5.71338 5.90018 5.71338 4.64018C5.71338 3.37352 6.74004 2.35352 8.00004 2.35352C9.26671 2.35352 10.2867 3.38018 10.2867 4.64018Z" stroke="black" stroke-width="1.5" stroke-linecap="round" stroke-linejoin="round"/>
</svg>
