<svg width="24" height="25" viewBox="0 0 24 25" fill="none" xmlns="http://www.w3.org/2000/svg">
<path d="M20.2 9.51006C21.6 11.2001 21.6 13.8001 20.2 15.4901C18.2 17.9001 15.27 19.4401 12 19.4401C8.73001 19.4401 5.81 17.9101 3.8 15.4901C2.4 13.8001 2.4 11.2001 3.8 9.51006C5.8 7.10006 8.73001 5.56006 12 5.56006C15.27 5.56006 18.19 7.09006 20.2 9.51006Z" stroke="#4B4B4B" stroke-width="1.5" stroke-linecap="round" stroke-linejoin="round"/>
<path d="M20.2 9.51006C21.6 11.2001 21.6 13.8001 20.2 15.4901C18.2 17.9001 15.27 19.4401 12 19.4401C8.73001 19.4401 5.81 17.9101 3.8 15.4901C2.4 13.8001 2.4 11.2001 3.8 9.51006C5.8 7.10006 8.73001 5.56006 12 5.56006C15.27 5.56006 18.19 7.09006 20.2 9.51006Z" stroke="#4B4B4B" stroke-width="1.5" stroke-linecap="round" stroke-linejoin="round"/>
<path d="M11.9999 15.5799C13.7009 15.5799 15.0799 14.201 15.0799 12.4999C15.0799 10.7989 13.7009 9.41992 11.9999 9.41992C10.2989 9.41992 8.91992 10.7989 8.91992 12.4999C8.91992 14.201 10.2989 15.5799 11.9999 15.5799Z" stroke="#4B4B4B" stroke-width="1.5" stroke-linecap="round" stroke-linejoin="round"/>
</svg>
