<svg width="20" height="21" viewBox="0 0 20 21" fill="none" xmlns="http://www.w3.org/2000/svg">
<path d="M17.1426 9.78592H10.714V3.35735C10.714 3.16791 10.6388 2.98623 10.5048 2.85228C10.3708 2.71832 10.1892 2.64307 9.99972 2.64307C9.81028 2.64307 9.6286 2.71832 9.49465 2.85228C9.36069 2.98623 9.28544 3.16791 9.28544 3.35735V9.78592H2.85686C2.66742 9.78592 2.48574 9.86118 2.35179 9.99513C2.21783 10.1291 2.14258 10.3108 2.14258 10.5002C2.14258 10.6897 2.21783 10.8713 2.35179 11.0053C2.48574 11.1392 2.66742 11.2145 2.85686 11.2145H9.28544V17.6431C9.28544 17.8325 9.36069 18.0142 9.49465 18.1481C9.6286 18.2821 9.81028 18.3574 9.99972 18.3574C10.1892 18.3574 10.3708 18.2821 10.5048 18.1481C10.6388 18.0142 10.714 17.8325 10.714 17.6431V11.2145H17.1426C17.332 11.2145 17.5137 11.1392 17.6477 11.0053C17.7816 10.8713 17.8569 10.6897 17.8569 10.5002C17.8569 10.3108 17.7816 10.1291 17.6477 9.99513C17.5137 9.86118 17.332 9.78592 17.1426 9.78592Z" fill="#009100"/>
</svg>
