<svg width="25" height="24" viewBox="0 0 25 24" fill="none" xmlns="http://www.w3.org/2000/svg">
<path d="M21.0703 11.1427H13.356V3.42843C13.356 3.2011 13.2657 2.98309 13.105 2.82234C12.9442 2.66159 12.7262 2.57129 12.4989 2.57129C12.2716 2.57129 12.0535 2.66159 11.8928 2.82234C11.732 2.98309 11.6417 3.2011 11.6417 3.42843V11.1427H3.92746C3.70013 11.1427 3.48211 11.233 3.32136 11.3938C3.16062 11.5545 3.07031 11.7725 3.07031 11.9999C3.07031 12.2272 3.16062 12.4452 3.32136 12.606C3.48211 12.7667 3.70013 12.857 3.92746 12.857H11.6417V20.5713C11.6417 20.7986 11.732 21.0166 11.8928 21.1774C12.0535 21.3381 12.2716 21.4284 12.4989 21.4284C12.7262 21.4284 12.9442 21.3381 13.105 21.1774C13.2657 21.0166 13.356 20.7986 13.356 20.5713V12.857H21.0703C21.2976 12.857 21.5157 12.7667 21.6764 12.606C21.8372 12.4452 21.9275 12.2272 21.9275 11.9999C21.9275 11.7725 21.8372 11.5545 21.6764 11.3938C21.5157 11.233 21.2976 11.1427 21.0703 11.1427Z" fill="#858585"/>
</svg>
