<svg width="25" height="25" viewBox="0 0 25 25" fill="none" xmlns="http://www.w3.org/2000/svg">
<path d="M7.5 5.25016H8.25C8.25 4.83595 7.91422 4.50016 7.5 4.50016C7.08579 4.50016 6.75 4.83594 6.75 5.25015L7.5 5.25016ZM5.25 7.75016C4.83579 7.75016 4.5 8.08595 4.5 8.50016C4.5 8.91437 4.83579 9.25016 5.25 9.25016V7.75016ZM7.5 11.7502H6.75C6.75 12.1644 7.08578 12.5002 7.5 12.5002C7.91421 12.5002 8.25 12.1644 8.25 11.7502H7.5ZM9.75 9.25016C10.1642 9.25016 10.5 8.91437 10.5 8.50016C10.5 8.08595 10.1642 7.75016 9.75 7.75016V9.25016ZM15.8333 11.215C15.6436 11.5832 15.7883 12.0355 16.1565 12.2252C16.5247 12.4149 16.977 12.2702 17.1667 11.902L15.8333 11.215ZM20.4167 5.59365C20.6064 5.22543 20.4617 4.77314 20.0935 4.58344C19.7253 4.39374 19.273 4.53845 19.0833 4.90667L20.4167 5.59365ZM18.2648 19.7502V20.5002C18.6054 20.5002 18.9033 20.2706 18.99 19.9411L18.2648 19.7502ZM7.25 17.5766L6.89228 16.9174C6.68902 17.0277 6.54801 17.2256 6.51013 17.4538C6.47225 17.6819 6.54173 17.9147 6.69843 18.0848L7.25 17.5766ZM18.0997 11.8065L17.9848 12.5477L18.0997 11.8065ZM14.6514 11.2719L14.7663 10.5307L14.6514 11.2719ZM12.5424 12.3412L11.9054 11.9453L12.5424 12.3412ZM11.861 13.3573L11.2528 12.9184L11.861 13.3573ZM19.5438 14.8916L20.2691 15.0825L19.5438 14.8916ZM19.6782 14.381L18.9529 14.19L19.6782 14.381ZM13.4553 16.5052C13.5962 16.1157 13.3946 15.6858 13.005 15.5449C12.6155 15.404 12.1856 15.6056 12.0447 15.9952L13.4553 16.5052ZM13.7946 19.038C13.4909 19.3198 13.4732 19.7943 13.7549 20.098C14.0366 20.4016 14.5111 20.4194 14.8148 20.1377L13.7946 19.038ZM16.4553 17.5052C16.5962 17.1157 16.3946 16.6858 16.005 16.5449C15.6155 16.404 15.1856 16.6056 15.0447 16.9952L16.4553 17.5052ZM7.5 5.25016C6.75 5.25015 6.75 5.24991 6.75 5.24968C6.75 5.24962 6.75 5.2494 6.75 5.24928C6.75 5.24904 6.75 5.24885 6.75 5.2487C6.75 5.24841 6.75 5.2483 6.75 5.24839C6.75 5.24855 6.75 5.24947 6.74998 5.2511C6.74994 5.25437 6.74985 5.26052 6.74965 5.26935C6.74924 5.28702 6.74837 5.31534 6.74652 5.35276C6.74281 5.4278 6.73522 5.53824 6.71978 5.672C6.68847 5.94336 6.62696 6.29193 6.51 6.62982C6.26804 7.3288 5.89338 7.75016 5.25 7.75016V9.25016C6.85658 9.25016 7.60692 8.04652 7.92748 7.1205C8.09176 6.64589 8.17089 6.18196 8.20989 5.84395C8.22962 5.67302 8.23961 5.52955 8.24469 5.42686C8.24723 5.37541 8.24856 5.3339 8.24925 5.30397C8.2496 5.289 8.24978 5.27689 8.24988 5.26786C8.24993 5.26335 8.24996 5.2596 8.24998 5.25664C8.24999 5.25517 8.24999 5.25388 8.25 5.2528C8.25 5.25226 8.25 5.25177 8.25 5.25133C8.25 5.25111 8.25 5.25082 8.25 5.25071C8.25 5.25043 8.25 5.25017 7.5 5.25016ZM5.25 9.25016C5.89342 9.25016 6.26808 9.67153 6.51002 10.3705C6.62698 10.7084 6.68848 11.057 6.71979 11.3283C6.73522 11.4621 6.74281 11.5725 6.74652 11.6476C6.74837 11.685 6.74924 11.7133 6.74965 11.731C6.74985 11.7398 6.74994 11.746 6.74998 11.7492C6.75 11.7509 6.75 11.7518 6.75 11.752C6.75 11.752 6.75 11.7519 6.75 11.7516C6.75 11.7515 6.75 11.7513 6.75 11.7511C6.75 11.7509 6.75 11.7507 6.75 11.7507C6.75 11.7504 6.75 11.7502 7.5 11.7502C8.25 11.7502 8.25 11.7499 8.25 11.7497C8.25 11.7496 8.25 11.7493 8.25 11.749C8.25 11.7486 8.25 11.7481 8.25 11.7476C8.24999 11.7465 8.24999 11.7452 8.24998 11.7437C8.24996 11.7408 8.24993 11.737 8.24988 11.7325C8.24978 11.7235 8.2496 11.7114 8.24925 11.6964C8.24856 11.6665 8.24724 11.625 8.24469 11.5735C8.23961 11.4708 8.22963 11.3274 8.20991 11.1564C8.17091 10.8184 8.09179 10.3544 7.9275 9.87983C7.60696 8.95379 6.85661 7.75016 5.25 7.75016V9.25016ZM7.5 11.7502C8.25 11.7502 8.25 11.7504 8.25 11.7507C8.25 11.7507 8.25 11.7509 8.25 11.7511C8.25 11.7513 8.25 11.7515 8.25 11.7517C8.25 11.7519 8.25 11.752 8.25 11.752C8.25 11.7518 8.25 11.7509 8.25002 11.7493C8.25006 11.746 8.25015 11.7398 8.25035 11.731C8.25076 11.7133 8.25163 11.685 8.25348 11.6476C8.25719 11.5726 8.26478 11.4621 8.28021 11.3284C8.31152 11.057 8.37303 10.7084 8.48999 10.3705C8.73194 9.67152 9.1066 9.25016 9.75 9.25016V7.75016C8.1434 7.75016 7.39306 8.9538 7.07251 9.87983C6.90822 10.3544 6.8291 10.8184 6.7901 11.1564C6.77038 11.3273 6.76039 11.4708 6.75531 11.5735C6.75277 11.625 6.75144 11.6665 6.75075 11.6964C6.7504 11.7114 6.75022 11.7235 6.75011 11.7325C6.75006 11.737 6.75004 11.7408 6.75002 11.7437C6.75001 11.7452 6.75001 11.7465 6.75 11.7476C6.75 11.7481 6.75 11.7486 6.75 11.749C6.75 11.7493 6.75 11.7495 6.75 11.7497C6.75 11.7499 6.75 11.7502 7.5 11.7502ZM9.75 7.75016C9.1066 7.75016 8.73194 7.3288 8.48999 6.62983C8.37303 6.29193 8.31152 5.94337 8.28021 5.672C8.26478 5.53825 8.25719 5.4278 8.25348 5.35277C8.25163 5.31535 8.25076 5.28703 8.25035 5.26936C8.25015 5.26053 8.25006 5.25438 8.25002 5.25111C8.25 5.24947 8.25 5.24856 8.25 5.24839C8.25 5.24831 8.25 5.24841 8.25 5.24871C8.25 5.24885 8.25 5.24905 8.25 5.24929C8.25 5.24941 8.25 5.24963 8.25 5.24969C8.25 5.24992 8.25 5.25016 7.5 5.25016C6.75 5.25016 6.75 5.25043 6.75 5.25071C6.75 5.25081 6.75 5.25111 6.75 5.25133C6.75 5.25177 6.75 5.25226 6.75 5.2528C6.75001 5.25388 6.75001 5.25516 6.75002 5.25664C6.75004 5.25959 6.75006 5.26334 6.75011 5.26786C6.75022 5.27689 6.7504 5.28899 6.75075 5.30396C6.75144 5.33389 6.75277 5.3754 6.75531 5.42685C6.76039 5.52955 6.77038 5.67301 6.7901 5.84394C6.8291 6.18195 6.90822 6.64589 7.07251 7.12049C7.39306 8.04652 8.1434 9.25016 9.75 9.25016V7.75016ZM17.1667 11.902L20.4167 5.59365L19.0833 4.90667L15.8333 11.215L17.1667 11.902ZM18.2146 11.0654L14.7663 10.5307L14.5365 12.013L17.9848 12.5477L18.2146 11.0654ZM11.9054 11.9453C11.7241 12.2371 11.5065 12.5669 11.2528 12.9184L12.4691 13.7962C12.745 13.4139 12.9817 13.0551 13.1794 12.7372L11.9054 11.9453ZM11.2528 12.9184C10.2884 14.2546 8.83016 15.8658 6.89228 16.9174L7.60772 18.2358C9.81765 17.0366 11.4333 15.2314 12.4691 13.7962L11.2528 12.9184ZM18.99 19.9411L20.2691 15.0825L18.8185 14.7007L17.5395 19.5593L18.99 19.9411ZM20.2691 15.0825L20.4035 14.5719L18.9529 14.19L18.8185 14.7007L20.2691 15.0825ZM14.7663 10.5307C13.5823 10.3471 12.4932 10.9997 11.9054 11.9453L13.1794 12.7372C13.5151 12.197 14.0604 11.9392 14.5365 12.013L14.7663 10.5307ZM17.9848 12.5477C18.6518 12.6511 19.1637 13.3894 18.9529 14.19L20.4035 14.5719C20.8179 12.9978 19.8475 11.3186 18.2146 11.0654L17.9848 12.5477ZM11.7141 14.0928L19.3969 15.6271L19.6907 14.1561L12.0078 12.6218L11.7141 14.0928ZM18.2648 19.0002C14.7105 19.0002 12.2911 18.6575 10.6803 18.2585L10.3197 19.7145C12.0732 20.1489 14.6175 20.5002 18.2648 20.5002V19.0002ZM10.6803 18.2585C9.47078 17.9589 8.721 17.6284 8.28959 17.3902C8.07393 17.2711 7.93745 17.1748 7.86237 17.1165C7.82479 17.0873 7.80243 17.0675 7.79309 17.0589C7.78841 17.0547 7.78696 17.0531 7.78847 17.0547C7.78923 17.0554 7.79072 17.0569 7.79291 17.0592C7.79401 17.0603 7.79529 17.0617 7.79673 17.0632C7.79745 17.064 7.79822 17.0648 7.79902 17.0657C7.79943 17.0661 7.79984 17.0665 7.80027 17.067C7.80048 17.0672 7.8008 17.0676 7.80091 17.0677C7.80124 17.0681 7.80157 17.0684 7.25 17.5766C6.69843 18.0848 6.69877 18.0852 6.69911 18.0856C6.69922 18.0857 6.69957 18.086 6.6998 18.0863C6.70027 18.0868 6.70075 18.0873 6.70124 18.0879C6.70223 18.0889 6.70326 18.09 6.70434 18.0912C6.70649 18.0935 6.70884 18.0959 6.71138 18.0986C6.71646 18.1039 6.72232 18.1098 6.72898 18.1165C6.7423 18.1298 6.75884 18.1457 6.77884 18.1641C6.81885 18.2008 6.87265 18.2471 6.94227 18.3012C7.08157 18.4094 7.2836 18.5482 7.56445 18.7033C8.12604 19.0134 9.00126 19.3879 10.3197 19.7145L10.6803 18.2585ZM10.5 18.9865C10.9398 19.594 10.94 19.5939 10.9401 19.5938C10.9402 19.5938 10.9403 19.5937 10.9404 19.5936C10.9406 19.5934 10.9409 19.5932 10.9412 19.593C10.9417 19.5926 10.9424 19.5922 10.9431 19.5916C10.9446 19.5905 10.9465 19.5891 10.9489 19.5874C10.9535 19.584 10.9598 19.5794 10.9675 19.5736C10.9831 19.562 11.0047 19.5457 11.0317 19.5249C11.0857 19.4834 11.1615 19.4237 11.2531 19.348C11.436 19.1968 11.685 18.9791 11.9529 18.7102C12.4749 18.1862 13.1286 17.4088 13.4553 16.5052L12.0447 15.9952C11.829 16.5916 11.3576 17.1824 10.8903 17.6515C10.6635 17.8791 10.4517 18.0643 10.2974 18.1918C10.2206 18.2554 10.1586 18.3041 10.1171 18.336C10.0964 18.3519 10.0808 18.3637 10.0711 18.3709C10.0662 18.3745 10.0628 18.3771 10.061 18.3784C10.0601 18.3791 10.0595 18.3795 10.0594 18.3796C10.0593 18.3796 10.0593 18.3796 10.0595 18.3795C10.0595 18.3795 10.0596 18.3794 10.0597 18.3793C10.0598 18.3793 10.0599 18.3792 10.0599 18.3792C10.0601 18.3791 10.0602 18.379 10.5 18.9865ZM14.3047 19.5879C14.8148 20.1377 14.815 20.1375 14.8151 20.1374C14.8152 20.1373 14.8154 20.1372 14.8155 20.1371C14.8157 20.1368 14.816 20.1366 14.8162 20.1363C14.8168 20.1358 14.8174 20.1353 14.818 20.1347C14.8193 20.1335 14.8208 20.1321 14.8225 20.1304C14.826 20.1272 14.8303 20.123 14.8354 20.1181C14.8457 20.1082 14.8593 20.095 14.8758 20.0784C14.9088 20.0453 14.9537 19.9988 15.0081 19.9393C15.1166 19.8205 15.2632 19.649 15.427 19.4275C15.7538 18.9855 16.1544 18.3374 16.4553 17.5052L15.0447 16.9952C14.8032 17.663 14.4811 18.1837 14.2209 18.5356C14.0912 18.711 13.9782 18.8427 13.9004 18.9278C13.8616 18.9703 13.8318 19.001 13.8133 19.0195C13.8041 19.0288 13.7977 19.035 13.7945 19.0381C13.7929 19.0396 13.7921 19.0404 13.7921 19.0404C13.7921 19.0404 13.7923 19.0402 13.7927 19.0398C13.7929 19.0396 13.7932 19.0394 13.7935 19.0391C13.7936 19.0389 13.7938 19.0388 13.794 19.0386C13.7941 19.0385 13.7942 19.0384 13.7943 19.0383C13.7944 19.0382 13.7946 19.038 14.3047 19.5879Z" fill="#4B4B4B"/>
</svg>
