<svg width="20" height="20" viewBox="0 0 20 20" fill="none" xmlns="http://www.w3.org/2000/svg">
<path d="M6.87533 8.95831H6.45866C6.01663 8.95831 5.59271 9.13391 5.28015 9.44647C4.96759 9.75903 4.79199 10.183 4.79199 10.625V14.375C4.79199 14.817 4.96759 15.2409 5.28015 15.5535C5.59271 15.8661 6.01663 16.0416 6.45866 16.0416H13.542C13.984 16.0416 14.4079 15.8661 14.7205 15.5535C15.0331 15.2409 15.2087 14.817 15.2087 14.375V10.625C15.2087 10.183 15.0331 9.75903 14.7205 9.44647C14.4079 9.13391 13.984 8.95831 13.542 8.95831H13.1253M10.0003 11.875V3.95831M10.0003 3.95831L8.12533 6.04165M10.0003 3.95831L11.8753 6.04165" stroke="#4B4B4B" stroke-width="1.5" stroke-linecap="round" stroke-linejoin="round"/>
</svg>
