<svg width="16" height="16" viewBox="0 0 16 16" fill="none" xmlns="http://www.w3.org/2000/svg">
<path d="M4.66699 3.16667H5.16699C5.16699 2.89053 4.94314 2.66667 4.66699 2.66667C4.39085 2.66667 4.16699 2.89052 4.16699 3.16666L4.66699 3.16667ZM3.16699 4.83334C2.89085 4.83334 2.66699 5.0572 2.66699 5.33334C2.66699 5.60948 2.89085 5.83334 3.16699 5.83334V4.83334ZM4.66699 7.5H4.16699C4.16699 7.77614 4.39085 8 4.66699 8C4.94313 8 5.16699 7.77614 5.16699 7.5H4.66699ZM6.16699 5.83334C6.44313 5.83334 6.66699 5.60948 6.66699 5.33334C6.66699 5.0572 6.44313 4.83334 6.16699 4.83334V5.83334ZM10.2225 7.1432C10.0961 7.38867 10.1925 7.6902 10.438 7.81667C10.6835 7.94314 10.985 7.84667 11.1115 7.6012L10.2225 7.1432ZM13.2781 3.39566C13.4046 3.15018 13.3081 2.84866 13.0627 2.72219C12.8172 2.59572 12.5157 2.6922 12.3892 2.93768L13.2781 3.39566ZM11.8435 12.8333V13.3333C12.0706 13.3333 12.2692 13.1803 12.327 12.9606L11.8435 12.8333ZM4.50033 11.3843L4.26185 10.9448C4.12634 11.0183 4.03233 11.1503 4.00708 11.3024C3.98183 11.4545 4.02815 11.6097 4.13261 11.7231L4.50033 11.3843ZM11.7335 7.53754L11.6569 8.03167L11.7335 7.53754ZM9.43459 7.18114L9.51119 6.687L9.43459 7.18114ZM8.02859 7.894L7.60393 7.63007L8.02859 7.894ZM7.57433 8.5714L7.16886 8.2788L7.57433 8.5714ZM12.6962 9.59427L13.1797 9.72154L12.6962 9.59427ZM12.7858 9.25387L12.3023 9.12654L12.7858 9.25387ZM8.63719 10.67C8.73113 10.4103 8.59673 10.1237 8.33699 10.0298C8.07733 9.93587 7.79073 10.0703 7.69679 10.33L8.63719 10.67ZM8.86339 12.3585C8.66093 12.5464 8.64913 12.8627 8.83693 13.0652C9.02473 13.2676 9.34106 13.2795 9.54353 13.0917L8.86339 12.3585ZM10.6372 11.3367C10.7311 11.077 10.5967 10.7904 10.337 10.6965C10.0773 10.6025 9.79073 10.7369 9.69679 10.9967L10.6372 11.3367ZM4.66699 3.16667C4.16699 3.16666 4.16699 3.1665 4.16699 3.16635C4.16699 3.16631 4.16699 3.16616 4.16699 3.16608C4.16699 3.16592 4.16699 3.1658 4.16699 3.1657C4.16699 3.1655 4.16699 3.16543 4.16699 3.16549C4.16699 3.1656 4.16699 3.16621 4.16698 3.1673C4.16695 3.16948 4.16689 3.17358 4.16676 3.17946C4.16649 3.19124 4.16591 3.21012 4.16467 3.23507C4.1622 3.2851 4.15714 3.35872 4.14685 3.4479C4.12597 3.6288 4.08497 3.86118 4.00699 4.08644C3.84569 4.55243 3.59591 4.83334 3.16699 4.83334V5.83334C4.23805 5.83334 4.73827 5.03091 4.95198 4.41356C5.0615 4.09716 5.11425 3.78787 5.14025 3.56253C5.15341 3.44858 5.16007 3.35293 5.16345 3.28447C5.16515 3.25017 5.16603 3.2225 5.16649 3.20254C5.16673 3.19256 5.16685 3.18449 5.16691 3.17847C5.16695 3.17546 5.16697 3.17296 5.16698 3.17099C5.16699 3.17001 5.16699 3.16915 5.16699 3.16843C5.16699 3.16807 5.16699 3.16774 5.16699 3.16745C5.16699 3.1673 5.16699 3.16711 5.16699 3.16704C5.16699 3.16685 5.16699 3.16668 4.66699 3.16667ZM3.16699 5.83334C3.59594 5.83334 3.84571 6.11425 4.00701 6.58022C4.08498 6.80547 4.12598 7.03787 4.14685 7.21874C4.15714 7.30794 4.1622 7.38154 4.16467 7.4316C4.16591 7.45654 4.16649 7.4754 4.16676 7.4872C4.16689 7.49307 4.16695 7.4972 4.16698 7.49934C4.16699 7.50047 4.16699 7.50107 4.16699 7.5012C4.16699 7.5012 4.16699 7.50114 4.16699 7.50094C4.16699 7.50087 4.16699 7.50074 4.16699 7.5006C4.16699 7.50047 4.16699 7.50034 4.16699 7.50034C4.16699 7.50014 4.16699 7.5 4.66699 7.5C5.16699 7.5 5.16699 7.4998 5.16699 7.49967C5.16699 7.4996 5.16699 7.4994 5.16699 7.4992C5.16699 7.49894 5.16699 7.4986 5.16699 7.49827C5.16699 7.49754 5.16699 7.49667 5.16698 7.49567C5.16697 7.49374 5.16695 7.4912 5.16691 7.4882C5.16685 7.4822 5.16673 7.47414 5.16649 7.46414C5.16603 7.4442 5.16515 7.41654 5.16345 7.3822C5.16007 7.31374 5.15341 7.21814 5.14027 7.10414C5.11427 6.8788 5.06152 6.56952 4.95199 6.25312C4.7383 5.63576 4.23807 4.83334 3.16699 4.83334V5.83334ZM4.66699 7.5C5.16699 7.5 5.16699 7.50014 5.16699 7.50034C5.16699 7.50034 5.16699 7.50047 5.16699 7.5006C5.16699 7.50074 5.16699 7.50087 5.16699 7.501C5.16699 7.50114 5.16699 7.5012 5.16699 7.5012C5.16699 7.50107 5.16699 7.50047 5.16701 7.4994C5.16703 7.4972 5.16709 7.49307 5.16723 7.4872C5.1675 7.4754 5.16808 7.45654 5.16931 7.4316C5.17179 7.3816 5.17685 7.30794 5.18713 7.2188C5.20801 7.03787 5.24901 6.80547 5.32699 6.58022C5.48829 6.11424 5.73806 5.83334 6.16699 5.83334V4.83334C5.09593 4.83334 4.5957 5.63576 4.382 6.25312C4.27247 6.56952 4.21973 6.8788 4.19373 7.10414C4.18058 7.21807 4.17392 7.31374 4.17053 7.3822C4.16884 7.41654 4.16795 7.4442 4.16749 7.46414C4.16726 7.47414 4.16714 7.4822 4.16707 7.4882C4.16703 7.4912 4.16702 7.49374 4.16701 7.49567C4.167 7.49667 4.167 7.49754 4.16699 7.49827C4.16699 7.4986 4.16699 7.49894 4.16699 7.4992C4.16699 7.4994 4.16699 7.49954 4.16699 7.49967C4.16699 7.4998 4.16699 7.5 4.66699 7.5ZM6.16699 4.83334C5.73806 4.83334 5.48829 4.55243 5.32699 4.08645C5.24901 3.86118 5.20801 3.62881 5.18713 3.4479C5.17685 3.35873 5.17179 3.2851 5.16931 3.23508C5.16808 3.21013 5.1675 3.19125 5.16723 3.17947C5.16709 3.17358 5.16703 3.16948 5.16701 3.1673C5.16699 3.16621 5.16699 3.1656 5.16699 3.16549C5.16699 3.16544 5.16699 3.1655 5.16699 3.1657C5.16699 3.1658 5.16699 3.16593 5.16699 3.16609C5.16699 3.16617 5.16699 3.16632 5.16699 3.16636C5.16699 3.16651 5.16699 3.16667 4.66699 3.16667C4.16699 3.16667 4.16699 3.16685 4.16699 3.16704C4.16699 3.1671 4.16699 3.1673 4.16699 3.16745C4.16699 3.16774 4.16699 3.16807 4.16699 3.16843C4.167 3.16915 4.167 3.17 4.16701 3.17099C4.16702 3.17296 4.16703 3.17546 4.16707 3.17847C4.16714 3.18449 4.16726 3.19256 4.16749 3.20254C4.16795 3.22249 4.16884 3.25016 4.17053 3.28446C4.17392 3.35293 4.18058 3.44857 4.19373 3.56252C4.21973 3.78786 4.27247 4.09716 4.382 4.41356C4.5957 5.03091 5.09593 5.83334 6.16699 5.83334V4.83334ZM11.1115 7.6012L13.2781 3.39566L12.3892 2.93768L10.2225 7.1432L11.1115 7.6012ZM11.8101 7.04347L9.51119 6.687L9.35799 7.6752L11.6569 8.03167L11.8101 7.04347ZM7.60393 7.63007C7.48306 7.8246 7.33799 8.04447 7.16886 8.2788L7.97973 8.864C8.16366 8.60914 8.32146 8.36994 8.45326 8.158L7.60393 7.63007ZM7.16886 8.2788C6.52595 9.1696 5.55377 10.2437 4.26185 10.9448L4.73881 11.8237C6.21209 11.0243 7.28919 9.8208 7.97973 8.864L7.16886 8.2788ZM12.327 12.9606L13.1797 9.72154L12.2127 9.467L11.36 12.7061L12.327 12.9606ZM13.1797 9.72154L13.2693 9.38114L12.3023 9.12654L12.2127 9.467L13.1797 9.72154ZM9.51119 6.687C8.72186 6.56464 7.99579 6.99967 7.60393 7.63007L8.45326 8.158C8.67706 7.79787 9.04059 7.626 9.35799 7.6752L9.51119 6.687ZM11.6569 8.03167C12.1015 8.1006 12.4428 8.5928 12.3023 9.12654L13.2693 9.38114C13.5456 8.33174 12.8987 7.21227 11.8101 7.04347L11.6569 8.03167ZM7.47639 9.06174L12.5983 10.0846L12.7941 9.10394L7.67219 8.08107L7.47639 9.06174ZM11.8435 12.3333C9.47399 12.3333 7.86106 12.1049 6.78719 11.8389L6.54677 12.8095C7.71579 13.0991 9.41199 13.3333 11.8435 13.3333V12.3333ZM6.78719 11.8389C5.98085 11.6391 5.48099 11.4188 5.19339 11.26C5.04961 11.1806 4.95863 11.1164 4.90857 11.0775C4.88352 11.0581 4.86861 11.0449 4.86239 11.0391C4.85927 11.0363 4.8583 11.0353 4.85931 11.0363C4.85981 11.0368 4.86081 11.0378 4.86227 11.0393C4.863 11.0401 4.86385 11.041 4.86481 11.042C4.86529 11.0425 4.86581 11.0431 4.86634 11.0437C4.86661 11.0439 4.86689 11.0442 4.86717 11.0445C4.86731 11.0447 4.86753 11.0449 4.8676 11.045C4.86782 11.0453 4.86804 11.0455 4.50033 11.3843C4.13261 11.7231 4.13284 11.7233 4.13307 11.7236C4.13314 11.7237 4.13337 11.7239 4.13353 11.7241C4.13384 11.7244 4.13416 11.7247 4.13449 11.7251C4.13515 11.7258 4.13583 11.7265 4.13655 11.7273C4.13799 11.7289 4.13955 11.7305 4.14125 11.7323C4.14463 11.7358 4.14854 11.7397 4.15298 11.7442C4.16186 11.7531 4.17289 11.7637 4.18622 11.7759C4.21289 11.8004 4.24876 11.8313 4.29517 11.8673C4.38804 11.9395 4.52273 12.032 4.70996 12.1354C5.08435 12.3421 5.66783 12.5918 6.54677 12.8095L6.78719 11.8389ZM6.66699 12.3242C6.96019 12.7292 6.96033 12.7291 6.96039 12.7291C6.96046 12.7291 6.96053 12.729 6.96059 12.7289C6.96073 12.7288 6.96093 12.7287 6.96113 12.7285C6.96146 12.7283 6.96193 12.728 6.96239 12.7276C6.96339 12.7269 6.96466 12.7259 6.96626 12.7248C6.96933 12.7225 6.97353 12.7195 6.97866 12.7156C6.98906 12.7079 7.00346 12.697 7.02146 12.6831C7.05746 12.6555 7.10799 12.6157 7.16906 12.5652C7.29099 12.4644 7.45699 12.3193 7.63559 12.14C7.98359 11.7907 8.41939 11.2724 8.63719 10.67L7.69679 10.33C7.55299 10.7276 7.23873 11.1215 6.92719 11.4342C6.77599 11.5859 6.63481 11.7094 6.53195 11.7944C6.48069 11.8368 6.43941 11.8693 6.41175 11.8905C6.39793 11.9011 6.38754 11.909 6.38105 11.9138C6.37781 11.9162 6.37554 11.9179 6.37431 11.9188C6.37369 11.9193 6.37333 11.9195 6.37324 11.9196C6.37319 11.9196 6.37322 11.9196 6.37331 11.9195C6.37335 11.9195 6.37341 11.9195 6.37349 11.9194C6.37353 11.9194 6.3736 11.9193 6.37362 11.9193C6.37369 11.9193 6.37377 11.9192 6.66699 12.3242ZM9.20346 12.7251C9.54353 13.0917 9.54366 13.0915 9.54373 13.0915C9.54379 13.0914 9.54393 13.0913 9.54399 13.0913C9.54413 13.0911 9.54433 13.0909 9.54446 13.0907C9.54486 13.0904 9.54526 13.0901 9.54566 13.0897C9.54653 13.0889 9.54753 13.0879 9.54866 13.0868C9.55099 13.0847 9.55386 13.0819 9.55726 13.0786C9.56413 13.072 9.57319 13.0632 9.58419 13.0521C9.60619 13.0301 9.63613 12.9991 9.67239 12.9594C9.74473 12.8802 9.84246 12.7659 9.95166 12.6182C10.1695 12.3235 10.4366 11.8915 10.6372 11.3367L9.69679 10.9967C9.53579 11.4419 9.32106 11.789 9.14759 12.0236C9.06113 12.1405 8.98579 12.2283 8.93393 12.2851C8.90806 12.3134 8.88819 12.3339 8.87586 12.3462C8.86973 12.3524 8.86546 12.3565 8.86333 12.3586C8.86226 12.3596 8.86173 12.3601 8.86173 12.3601C8.86173 12.3601 8.86186 12.36 8.86213 12.3597C8.86226 12.3596 8.86246 12.3595 8.86266 12.3593C8.86273 12.3591 8.86286 12.3591 8.86299 12.3589C8.86306 12.3589 8.86313 12.3588 8.86319 12.3587C8.86326 12.3587 8.86339 12.3585 9.20346 12.7251Z" fill="#4B4B4B"/>
</svg>
