<svg width="24" height="24" viewBox="0 0 24 24" fill="none" xmlns="http://www.w3.org/2000/svg">
<path d="M17.8206 13.61C15.9206 13.61 14.3906 15.15 14.3906 17.04C14.3906 18.94 15.9306 20.47 17.8206 20.47C19.7206 20.47 21.2506 18.93 21.2506 17.04C21.2506 15.14 19.7106 13.61 17.8206 13.61Z" stroke="#4B4B4B" stroke-width="1.5" stroke-linecap="round" stroke-linejoin="round"/>
<path d="M6.17999 13.61C4.27999 13.61 2.75 15.15 2.75 17.04C2.75 18.94 4.28999 20.47 6.17999 20.47C8.07999 20.47 9.61 18.93 9.61 17.04C9.61 15.14 8.07999 13.61 6.17999 13.61Z" stroke="#4B4B4B" stroke-width="1.5" stroke-linecap="round" stroke-linejoin="round"/>
<path d="M15.4303 6.96C15.4303 8.86 13.8903 10.39 12.0003 10.39C10.1003 10.39 8.57031 8.85 8.57031 6.96C8.57031 5.06 10.1103 3.53 12.0003 3.53C13.9003 3.53 15.4303 5.07 15.4303 6.96Z" stroke="#4B4B4B" stroke-width="1.5" stroke-linecap="round" stroke-linejoin="round"/>
</svg>
