<svg width="25" height="25" viewBox="0 0 25 25" fill="none" xmlns="http://www.w3.org/2000/svg">
<path d="M12.5 14.25V16.75M12.5 16.75C10.5 16.75 9.25 15.25 9.25 15.25M12.5 16.75C14.5 16.75 15.75 15.25 15.75 15.25M6.15249 9.76243L5.25 5.25L9.42438 6.91975C10.3581 6.51301 11.4004 6.28571 12.5 6.28571C13.5996 6.28571 14.6419 6.51301 15.5756 6.91975L19.75 5.25L18.8475 9.76243C19.4226 10.7272 19.75 11.837 19.75 13.0179C19.75 16.7359 16.5041 19.75 12.5 19.75C8.49594 19.75 5.25 16.7359 5.25 13.0179C5.25 11.837 5.57739 10.7272 6.15249 9.76243Z" stroke="#4B4B4B" stroke-width="1.5" stroke-linecap="round" stroke-linejoin="round"/>
<path d="M11 11.5C11 11.7761 10.7761 12 10.5 12C10.2239 12 10 11.7761 10 11.5C10 11.2239 10.2239 11 10.5 11C10.7761 11 11 11.2239 11 11.5Z" stroke="#2E2E2E" stroke-linecap="round" stroke-linejoin="round"/>
<path d="M15 11.5C15 11.7761 14.7761 12 14.5 12C14.2239 12 14 11.7761 14 11.5C14 11.2239 14.2239 11 14.5 11C14.7761 11 15 11.2239 15 11.5Z" stroke="#2E2E2E" stroke-linecap="round" stroke-linejoin="round"/>
</svg>
