<svg width="20" height="20" viewBox="0 0 20 20" fill="none" xmlns="http://www.w3.org/2000/svg">
<path d="M14.8505 11.3413C13.2672 11.3413 11.9922 12.6246 11.9922 14.1996C11.9922 15.783 13.2755 17.058 14.8505 17.058C16.4339 17.058 17.7089 15.7746 17.7089 14.1996C17.7089 12.6163 16.4255 11.3413 14.8505 11.3413Z" stroke="white" stroke-width="1.5" stroke-linecap="round" stroke-linejoin="round"/>
<path d="M5.1513 11.3413C3.56796 11.3413 2.29297 12.6246 2.29297 14.1996C2.29297 15.783 3.5763 17.058 5.1513 17.058C6.73463 17.058 8.00964 15.7746 8.00964 14.1996C8.00964 12.6163 6.73463 11.3413 5.1513 11.3413Z" stroke="white" stroke-width="1.5" stroke-linecap="round" stroke-linejoin="round"/>
<path d="M12.8612 5.79974C12.8612 7.38307 11.5779 8.65807 10.0029 8.65807C8.41953 8.65807 7.14453 7.37474 7.14453 5.79974C7.14453 4.21641 8.42786 2.94141 10.0029 2.94141C11.5862 2.94141 12.8612 4.22474 12.8612 5.79974Z" stroke="white" stroke-width="1.5" stroke-linecap="round" stroke-linejoin="round"/>
</svg>
