<svg width="20" height="20" viewBox="0 0 20 20" fill="none" xmlns="http://www.w3.org/2000/svg">
<path d="M14.8496 11.3413C13.2662 11.3413 11.9912 12.6246 11.9912 14.1996C11.9912 15.783 13.2746 17.058 14.8496 17.058C16.4329 17.058 17.7079 15.7746 17.7079 14.1996C17.7079 12.6163 16.4246 11.3413 14.8496 11.3413Z" stroke="white" stroke-width="1.5" stroke-linecap="round" stroke-linejoin="round"/>
<path d="M5.14934 11.3413C3.56601 11.3413 2.29102 12.6246 2.29102 14.1996C2.29102 15.783 3.57434 17.058 5.14934 17.058C6.73268 17.058 8.00768 15.7746 8.00768 14.1996C8.00768 12.6163 6.73268 11.3413 5.14934 11.3413Z" stroke="white" stroke-width="1.5" stroke-linecap="round" stroke-linejoin="round"/>
<path d="M12.8573 5.79974C12.8573 7.38307 11.574 8.65807 9.99895 8.65807C8.41562 8.65807 7.14062 7.37474 7.14062 5.79974C7.14062 4.21641 8.42395 2.94141 9.99895 2.94141C11.5823 2.94141 12.8573 4.22474 12.8573 5.79974Z" stroke="white" stroke-width="1.5" stroke-linecap="round" stroke-linejoin="round"/>
</svg>
