<svg width="16" height="16" viewBox="0 0 16 16" fill="none" xmlns="http://www.w3.org/2000/svg">
<path d="M12.5777 9.5L12.809 8.042C13.0937 5.432 10.8603 3.16666 8.00032 3.16666C5.14032 3.16666 2.90699 5.432 3.19166 8.042L3.42299 9.5M5.62832 12.7027L5.27766 12.788C4.50299 12.9773 3.70632 12.558 3.49899 11.8527L3.21699 10.8947C3.00899 10.1893 3.46899 9.464 4.24366 9.27466L4.59499 9.18933C4.98166 9.09466 5.38032 9.304 5.48432 9.65666L6.14232 11.8927C6.24566 12.2453 6.01566 12.608 5.62899 12.7027H5.62832ZM10.3723 12.7027L10.723 12.788C11.4977 12.9773 12.2943 12.558 12.5017 11.8527L12.7837 10.8947C12.9917 10.1893 12.5317 9.464 11.757 9.27466L11.4057 9.18933C11.019 9.09466 10.6203 9.304 10.5163 9.65666L9.85832 11.8927C9.75499 12.2453 9.98499 12.608 10.3717 12.7027H10.3723Z" stroke="#4B4B4B" stroke-width="1.5" stroke-linecap="round" stroke-linejoin="round"/>
</svg>
