<svg width="21" height="21" viewBox="0 0 21 21" fill="none" xmlns="http://www.w3.org/2000/svg">
<path d="M15.3496 11.8418C13.7662 11.8418 12.4912 13.1251 12.4912 14.7001C12.4912 16.2835 13.7746 17.5585 15.3496 17.5585C16.9329 17.5585 18.2079 16.2751 18.2079 14.7001C18.2079 13.1168 16.9246 11.8418 15.3496 11.8418Z" stroke="white" stroke-width="1.5" stroke-linecap="round" stroke-linejoin="round"/>
<path d="M5.64934 11.8418C4.06601 11.8418 2.79102 13.1251 2.79102 14.7001C2.79102 16.2835 4.07434 17.5585 5.64934 17.5585C7.23268 17.5585 8.50768 16.2751 8.50768 14.7001C8.50768 13.1168 7.23268 11.8418 5.64934 11.8418Z" stroke="white" stroke-width="1.5" stroke-linecap="round" stroke-linejoin="round"/>
<path d="M13.3573 6.29974C13.3573 7.88307 12.074 9.15807 10.499 9.15807C8.91562 9.15807 7.64062 7.87474 7.64062 6.29974C7.64062 4.71641 8.92395 3.44141 10.499 3.44141C12.0823 3.44141 13.3573 4.72474 13.3573 6.29974Z" stroke="white" stroke-width="1.5" stroke-linecap="round" stroke-linejoin="round"/>
</svg>
