<svg width="25" height="25" viewBox="0 0 25 25" fill="none" xmlns="http://www.w3.org/2000/svg">
<path d="M18.3206 14.1094C16.4206 14.1094 14.8906 15.6494 14.8906 17.5394C14.8906 19.4394 16.4306 20.9694 18.3206 20.9694C20.2206 20.9694 21.7506 19.4294 21.7506 17.5394C21.7506 15.6394 20.2106 14.1094 18.3206 14.1094Z" stroke="#4B4B4B" stroke-width="1.5" stroke-linecap="round" stroke-linejoin="round"/>
<path d="M6.67999 14.1094C4.77999 14.1094 3.25 15.6494 3.25 17.5394C3.25 19.4394 4.78999 20.9694 6.67999 20.9694C8.57999 20.9694 10.11 19.4294 10.11 17.5394C10.11 15.6394 8.57999 14.1094 6.67999 14.1094Z" stroke="#4B4B4B" stroke-width="1.5" stroke-linecap="round" stroke-linejoin="round"/>
<path d="M15.9303 7.4593C15.9303 9.3593 14.3903 10.8893 12.5003 10.8893C10.6003 10.8893 9.07031 9.3493 9.07031 7.4593C9.07031 5.5593 10.6103 4.0293 12.5003 4.0293C14.4003 4.0293 15.9303 5.5693 15.9303 7.4593Z" stroke="#4B4B4B" stroke-width="1.5" stroke-linecap="round" stroke-linejoin="round"/>
</svg>
