<svg width="20" height="20" viewBox="0 0 20 20" fill="none" xmlns="http://www.w3.org/2000/svg">
<path d="M17.1426 9.2858H10.714V2.85723C10.714 2.66779 10.6388 2.48611 10.5048 2.35215C10.3708 2.2182 10.1892 2.14294 9.99972 2.14294C9.81028 2.14294 9.6286 2.2182 9.49465 2.35215C9.36069 2.48611 9.28544 2.66779 9.28544 2.85723V9.2858H2.85686C2.66742 9.2858 2.48574 9.36106 2.35179 9.49501C2.21783 9.62897 2.14258 9.81065 2.14258 10.0001C2.14258 10.1895 2.21783 10.3712 2.35179 10.5052C2.48574 10.6391 2.66742 10.7144 2.85686 10.7144H9.28544V17.1429C9.28544 17.3324 9.36069 17.5141 9.49465 17.648C9.6286 17.782 9.81028 17.8572 9.99972 17.8572C10.1892 17.8572 10.3708 17.782 10.5048 17.648C10.6388 17.5141 10.714 17.3324 10.714 17.1429V10.7144H17.1426C17.332 10.7144 17.5137 10.6391 17.6477 10.5052C17.7816 10.3712 17.8569 10.1895 17.8569 10.0001C17.8569 9.81065 17.7816 9.62897 17.6477 9.49501C17.5137 9.36106 17.332 9.2858 17.1426 9.2858Z" fill="#4B4B4B"/>
</svg>
