<svg width="25" height="24" viewBox="0 0 25 24" fill="none" xmlns="http://www.w3.org/2000/svg">
<path d="M19 12C19 15.5899 16.0899 18.5 12.5 18.5V20C16.9183 20 20.5 16.4183 20.5 12H19ZM12.5 18.5C8.91015 18.5 6 15.5899 6 12H4.5C4.5 16.4183 8.08172 20 12.5 20V18.5ZM6 12C6 8.41015 8.91015 5.5 12.5 5.5V4C8.08172 4 4.5 7.58172 4.5 12H6ZM12.5 5.5C16.0899 5.5 19 8.41015 19 12H20.5C20.5 7.58172 16.9183 4 12.5 4V5.5Z" fill="#4B4B4B"/>
<path d="M10.563 10.5C10.7439 11.2028 11.2972 11.7561 12 11.937V12.45C11.0204 12.2512 10.2488 11.4796 10.05 10.5H10.563ZM10.563 9.5H10.05C10.2488 8.52043 11.0204 7.74884 12 7.55001V8.06301C11.2972 8.2439 10.7439 8.7972 10.563 9.5ZM13 7.55001C13.9796 7.74884 14.7512 8.52043 14.95 9.5H14.437C14.2561 8.7972 13.7028 8.2439 13 8.06301V7.55001ZM14.95 10.5C14.7512 11.4796 13.9796 12.2512 13 12.45V11.937C13.7028 11.7561 14.2561 11.2028 14.437 10.5H14.95Z" fill="#4B4B4B" stroke="#2E2E2E"/>
<path d="M16.7743 16.7894L17.1595 16.4681C16.0875 15.3661 14.6274 14.6428 12.9999 14.5189V14.0176C14.7818 14.1434 16.3798 14.9366 17.5445 16.1471L16.7743 16.7894ZM16.7743 16.7894C15.7953 15.7957 14.473 15.142 12.9999 15.0205L16.7743 16.7894ZM7.84018 16.4681C8.91218 15.3661 10.3723 14.6428 11.9999 14.5189V15.0205C10.5266 15.142 9.20436 15.7957 8.22542 16.7894L7.84018 16.4681Z" fill="#4B4B4B" stroke="#2E2E2E"/>
</svg>
