<svg width="25" height="25" viewBox="0 0 25 25" fill="none" xmlns="http://www.w3.org/2000/svg">
<path d="M14.75 14.75C14.75 12 13.9 10.25 10.5 10.25C7.1 10.25 6.25 12 6.25 14.75H8.25V17.75C8.25 18.2804 8.46071 18.7891 8.83579 19.1642C9.21086 19.5393 9.71957 19.75 10.25 19.75H12.75M14.75 14.75H12.75V19.75M14.75 14.75H18.75V19.75H12.75M12.75 7.5C12.75 7.79547 12.6918 8.08806 12.5787 8.36104C12.4657 8.63402 12.2999 8.88206 12.091 9.09099C11.8821 9.29992 11.634 9.46566 11.361 9.57873C11.0881 9.6918 10.7955 9.75 10.5 9.75C10.2045 9.75 9.91194 9.6918 9.63896 9.57873C9.36598 9.46566 9.11794 9.29992 8.90901 9.09099C8.70008 8.88206 8.53434 8.63402 8.42127 8.36104C8.3082 8.08806 8.25 7.79547 8.25 7.5C8.25 6.90326 8.48705 6.33097 8.90901 5.90901C9.33097 5.48705 9.90326 5.25 10.5 5.25C11.0967 5.25 11.669 5.48705 12.091 5.90901C12.5129 6.33097 12.75 6.90326 12.75 7.5V7.5Z" stroke="#4B4B4B" stroke-width="1.5" stroke-linecap="round" stroke-linejoin="round"/>
</svg>
