<svg width="16" height="16" viewBox="0 0 16 16" fill="none" xmlns="http://www.w3.org/2000/svg">
<path d="M13.7148 7.42857H8.57199V2.28571C8.57199 2.13416 8.51178 1.98882 8.40462 1.88165C8.29745 1.77449 8.15211 1.71428 8.00056 1.71428C7.84901 1.71428 7.70366 1.77449 7.5965 1.88165C7.48933 1.98882 7.42913 2.13416 7.42913 2.28571V7.42857H2.28627C2.13472 7.42857 1.98937 7.48877 1.88221 7.59594C1.77505 7.7031 1.71484 7.84845 1.71484 8C1.71484 8.15155 1.77505 8.2969 1.88221 8.40406C1.98937 8.51122 2.13472 8.57143 2.28627 8.57143H7.42913V13.7143C7.42913 13.8658 7.48933 14.0112 7.5965 14.1183C7.70366 14.2255 7.84901 14.2857 8.00056 14.2857C8.15211 14.2857 8.29745 14.2255 8.40462 14.1183C8.51178 14.0112 8.57199 13.8658 8.57199 13.7143V8.57143H13.7148C13.8664 8.57143 14.0117 8.51122 14.1189 8.40406C14.2261 8.2969 14.2863 8.15155 14.2863 8C14.2863 7.84845 14.2261 7.7031 14.1189 7.59594C14.0117 7.48877 13.8664 7.42857 13.7148 7.42857Z" fill="white"/>
</svg>
