<svg width="25" height="25" viewBox="0 0 25 25" fill="none" xmlns="http://www.w3.org/2000/svg">
<path d="M20.0896 14.3701L20.822 11.6236V9.99576C20.5075 6.3615 17.4221 3.5 13.7076 3.5H12.4703V9.99576H7.99128L7.30134 6.95018C7.24054 6.67439 7.08766 6.42753 6.86786 6.2502C6.64806 6.07288 6.37445 5.97567 6.09204 5.97458H3.5V7.21186H6.09204L7.65702 14.1202C7.09857 14.2681 6.59271 14.5695 6.19675 14.9902C5.80079 15.4109 5.53055 15.934 5.41665 16.5004C5.30275 17.0668 5.34973 17.6537 5.55228 18.1948C5.75483 18.7358 6.10485 19.2093 6.56269 19.5616C7.02053 19.914 7.56788 20.131 8.14276 20.1883C8.71763 20.2455 9.29704 20.1406 9.81535 19.8854C10.3337 19.6303 10.7702 19.235 11.0754 18.7445C11.3806 18.2541 11.5424 17.6879 11.5424 17.1102C11.5424 17.0058 11.5372 16.9027 11.5269 16.8008H15.579C15.5688 16.9026 15.5637 17.0057 15.5636 17.1102C15.5633 17.6587 15.709 18.1974 15.9855 18.6711C16.2621 19.1448 16.6597 19.5365 17.1375 19.8059C17.6153 20.0753 18.1562 20.2128 18.7047 20.2043C19.2531 20.1958 19.7895 20.0416 20.2587 19.7576C20.728 19.4735 21.1132 19.0697 21.375 18.5877C21.6368 18.1057 21.7657 17.5627 21.7485 17.0144C21.7313 16.4662 21.5686 15.9323 21.2771 15.4677C20.9856 15.003 20.5757 14.6242 20.0896 14.3701ZM13.7076 4.73729C16.7394 4.73729 19.2424 7.04475 19.5524 9.99576H13.7076V4.73729ZM8.44915 18.9661C8.08208 18.9661 7.72326 18.8573 7.41805 18.6533C7.11285 18.4494 6.87497 18.1595 6.73449 17.8204C6.59402 17.4813 6.55727 17.1081 6.62888 16.7481C6.70049 16.3881 6.87725 16.0574 7.13681 15.7978C7.39637 15.5383 7.72706 15.3615 8.08708 15.2899C8.44709 15.2183 8.82026 15.255 9.15939 15.3955C9.49851 15.536 9.78837 15.7739 9.9923 16.0791C10.1962 16.3843 10.3051 16.7431 10.3051 17.1102C10.3045 17.6022 10.1088 18.074 9.76087 18.4219C9.41294 18.7698 8.9412 18.9655 8.44915 18.9661ZM15.9797 15.5636H11.1262C10.8937 15.1616 10.5738 14.817 10.1902 14.5553C9.80664 14.2936 9.36915 14.1214 8.91008 14.0514L8.2716 11.233H19.5847V11.4612L18.9004 14.0273C18.8193 14.0206 18.7381 14.0171 18.6568 14.0168C18.1141 14.0173 17.5811 14.1604 17.1112 14.4319C16.6413 14.7033 16.2511 15.0936 15.9797 15.5636ZM18.6568 18.9661C18.2897 18.9661 17.9309 18.8573 17.6257 18.6533C17.3205 18.4494 17.0826 18.1595 16.9421 17.8204C16.8017 17.4813 16.7649 17.1081 16.8365 16.7481C16.9081 16.3881 17.0849 16.0574 17.3444 15.7978C17.604 15.5383 17.9347 15.3615 18.2947 15.2899C18.6547 15.2183 19.0279 15.255 19.367 15.3955C19.7061 15.536 19.996 15.7739 20.1999 16.0791C20.4039 16.3843 20.5127 16.7431 20.5127 17.1102C20.5121 17.6022 20.3164 18.074 19.9685 18.4219C19.6206 18.7698 19.1488 18.9655 18.6568 18.9661Z" fill="#4B4B4B"/>
</svg>
