<svg width="24" height="24" viewBox="0 0 24 24" fill="none" xmlns="http://www.w3.org/2000/svg">
<path d="M17.8206 13.6099C15.9206 13.6099 14.3906 15.1499 14.3906 17.0399C14.3906 18.9399 15.9306 20.4699 17.8206 20.4699C19.7206 20.4699 21.2506 18.9299 21.2506 17.0399C21.2506 15.1399 19.7106 13.6099 17.8206 13.6099Z" stroke="#4B4B4B" stroke-width="1.5" stroke-linecap="round" stroke-linejoin="round"/>
<path d="M6.17999 13.6099C4.27999 13.6099 2.75 15.1499 2.75 17.0399C2.75 18.9399 4.28999 20.4699 6.17999 20.4699C8.07999 20.4699 9.61 18.9299 9.61 17.0399C9.61 15.1399 8.07999 13.6099 6.17999 13.6099Z" stroke="#4B4B4B" stroke-width="1.5" stroke-linecap="round" stroke-linejoin="round"/>
<path d="M15.4303 6.95979C15.4303 8.85979 13.8903 10.3898 12.0003 10.3898C10.1003 10.3898 8.57031 8.84979 8.57031 6.95979C8.57031 5.05979 10.1103 3.52979 12.0003 3.52979C13.9003 3.52979 15.4303 5.06979 15.4303 6.95979Z" stroke="#4B4B4B" stroke-width="1.5" stroke-linecap="round" stroke-linejoin="round"/>
</svg>
