<svg width="24" height="24" viewBox="0 0 24 24" fill="none" xmlns="http://www.w3.org/2000/svg">
<path d="M21.2851 8.2756L15.3343 7.41075L12.6741 2.01778C12.6015 1.87013 12.4819 1.75059 12.3343 1.67794C11.964 1.49513 11.514 1.64747 11.3288 2.01778L8.66864 7.41075L2.71785 8.2756C2.55379 8.29904 2.40379 8.37638 2.28895 8.49357C2.15011 8.63627 2.0736 8.82825 2.07624 9.02734C2.07887 9.22642 2.16044 9.41631 2.30301 9.55529L6.60848 13.7529L5.59129 19.6803C5.56744 19.8182 5.5827 19.96 5.63534 20.0896C5.68798 20.2193 5.77589 20.3316 5.88911 20.4138C6.00233 20.4961 6.13633 20.5449 6.2759 20.5549C6.41548 20.5648 6.55505 20.5355 6.67879 20.4701L12.0015 17.6717L17.3241 20.4701C17.4694 20.5475 17.6382 20.5733 17.7999 20.5451C18.2077 20.4748 18.4819 20.0881 18.4116 19.6803L17.3944 13.7529L21.6999 9.55529C21.8171 9.44044 21.8944 9.29044 21.9179 9.12638C21.9811 8.71622 21.6952 8.33654 21.2851 8.2756V8.2756ZM15.5827 13.1623L16.4288 18.0912L12.0015 15.7662L7.57411 18.0936L8.4202 13.1647L4.83895 9.67247L9.78895 8.95294L12.0015 4.46935L14.214 8.95294L19.164 9.67247L15.5827 13.1623Z" fill="#4B4B4B"/>
</svg>
