<svg width="21" height="20" viewBox="0 0 21 20" fill="none" xmlns="http://www.w3.org/2000/svg">
<path d="M15.3505 11.3417C13.7672 11.3417 12.4922 12.625 12.4922 14.2C12.4922 15.7833 13.7755 17.0583 15.3505 17.0583C16.9339 17.0583 18.2089 15.775 18.2089 14.2C18.2089 12.6167 16.9255 11.3417 15.3505 11.3417Z" stroke="#5E5E5E" stroke-width="1.5" stroke-linecap="round" stroke-linejoin="round"/>
<path d="M5.64934 11.3416C4.06601 11.3416 2.79102 12.625 2.79102 14.2C2.79102 15.7833 4.07434 17.0583 5.64934 17.0583C7.23268 17.0583 8.50768 15.775 8.50768 14.2C8.50768 12.6166 7.23268 11.3416 5.64934 11.3416Z" stroke="#5E5E5E" stroke-width="1.5" stroke-linecap="round" stroke-linejoin="round"/>
<path d="M13.3573 5.79998C13.3573 7.38332 12.074 8.65832 10.499 8.65832C8.91562 8.65832 7.64062 7.37498 7.64062 5.79998C7.64062 4.21665 8.92395 2.94165 10.499 2.94165C12.0823 2.94165 13.3573 4.22498 13.3573 5.79998Z" stroke="#5E5E5E" stroke-width="1.5" stroke-linecap="round" stroke-linejoin="round"/>
</svg>
