<svg width="16" height="16" viewBox="0 0 16 16" fill="none" xmlns="http://www.w3.org/2000/svg">
<path d="M14.9687 1.28197C15.0623 1.37572 15.1149 1.5028 15.1149 1.6353C15.1149 1.7678 15.0623 1.89489 14.9687 1.98864L10.35 6.60797C10.9162 7.34589 11.1948 8.26444 11.134 9.19252C11.0731 10.1206 10.677 10.9949 10.0194 11.6526L9.46472 12.2073L7.60672 14.994C7.56572 15.0555 7.51157 15.1072 7.44819 15.1453C7.38481 15.1834 7.31377 15.207 7.24019 15.2143C7.1666 15.2216 7.0923 15.2125 7.02265 15.1877C6.953 15.1629 6.88972 15.1229 6.83738 15.0706L1.18005 9.4133C1.12781 9.36096 1.08783 9.29769 1.06299 9.22803C1.03815 9.15838 1.02907 9.08408 1.0364 9.0105C1.04373 8.93691 1.0673 8.86587 1.10539 8.80249C1.14349 8.73911 1.19517 8.68497 1.25672 8.64397L4.04338 6.78597L4.59805 6.2313C5.25575 5.57368 6.13008 5.17756 7.05816 5.11672C7.98625 5.05589 8.9048 5.33449 9.64272 5.90064L14.262 1.28197C14.3558 1.18834 14.4829 1.13574 14.6154 1.13574C14.7479 1.13574 14.875 1.18834 14.9687 1.28197ZM5.06938 7.17464L9.07605 11.1813L9.31205 10.946C9.83318 10.4126 10.123 9.69519 10.1187 8.94947C10.1143 8.20375 9.81616 7.48981 9.28885 6.9625C8.76154 6.43519 8.0476 6.13703 7.30188 6.13268C6.55616 6.12834 5.8388 6.41817 5.30538 6.9393L5.06938 7.17464ZM4.29872 7.81797L2.31872 9.13797L7.11272 13.932L8.43272 11.952L4.29872 7.81797Z" fill="#4B4B4B"/>
</svg>
