<svg width="16" height="16" viewBox="0 0 16 16" fill="none" xmlns="http://www.w3.org/2000/svg">
<path d="M11.8802 9.07324C10.6135 9.07324 9.59351 10.0999 9.59351 11.3599C9.59351 12.6266 10.6202 13.6466 11.8802 13.6466C13.1468 13.6466 14.1668 12.6199 14.1668 11.3599C14.1668 10.0932 13.1402 9.07324 11.8802 9.07324Z" stroke="white" stroke-width="1.5" stroke-linecap="round" stroke-linejoin="round"/>
<path d="M4.12004 9.07373C2.85337 9.07373 1.83337 10.1004 1.83337 11.3604C1.83337 12.6271 2.86004 13.6471 4.12004 13.6471C5.3867 13.6471 6.40671 12.6204 6.40671 11.3604C6.40671 10.0937 5.3867 9.07373 4.12004 9.07373Z" stroke="white" stroke-width="1.5" stroke-linecap="round" stroke-linejoin="round"/>
<path d="M10.2866 4.64018C10.2866 5.90685 9.25992 6.92685 7.99992 6.92685C6.73325 6.92685 5.71326 5.90018 5.71326 4.64018C5.71326 3.37352 6.73992 2.35352 7.99992 2.35352C9.26659 2.35352 10.2866 3.38018 10.2866 4.64018Z" stroke="white" stroke-width="1.5" stroke-linecap="round" stroke-linejoin="round"/>
</svg>
