<svg width="25" height="25" viewBox="0 0 25 25" fill="none" xmlns="http://www.w3.org/2000/svg">
<path d="M8.1776 12.4176L7.64842 11.8861L8.1776 12.4176ZM9.35024 11.25L9.87942 10.7185C9.58679 10.4272 9.1137 10.4272 8.82107 10.7185L9.35024 11.25ZM13.787 15.6676L14.3162 16.1991C14.4576 16.0583 14.537 15.8671 14.537 15.6676C14.537 15.4681 14.4576 15.2768 14.3162 15.1361L13.787 15.6676ZM12.6144 16.8351L12.0852 16.3036L12.6144 16.8351ZM4.72082 19.2185C4.42729 19.5108 4.42626 19.9856 4.71852 20.2792C5.01077 20.5727 5.48565 20.5737 5.77918 20.2815L4.72082 19.2185ZM10.0351 11.9273C9.74158 12.2196 9.74055 12.6944 10.0328 12.988C10.3251 13.2815 10.7999 13.2825 11.0935 12.9903L10.0351 11.9273ZM13.3119 10.7815C13.6054 10.4892 13.6064 10.0144 13.3142 9.72082C13.0219 9.4273 12.547 9.42626 12.2535 9.71852L13.3119 10.7815ZM12.0438 13.9273C11.7503 14.2196 11.7493 14.6944 12.0415 14.988C12.3338 15.2815 12.8086 15.2825 13.1022 14.9903L12.0438 13.9273ZM15.2792 12.8227C15.5727 12.5304 15.5737 12.0556 15.2815 11.762C14.9892 11.4685 14.5144 11.4675 14.2208 11.7597L15.2792 12.8227ZM18.8224 6.1649L19.3516 5.63342L18.8224 6.1649ZM18.8224 10.5824L18.2932 10.051L18.8224 10.5824ZM17.6498 11.75L17.1206 12.2815C17.4132 12.5728 17.8863 12.5728 18.1789 12.2815L17.6498 11.75ZM13.213 7.33243L12.6838 6.80093C12.5424 6.94167 12.463 7.13294 12.463 7.33242C12.463 7.5319 12.5424 7.72316 12.6838 7.86391L13.213 7.33243ZM14.3856 6.1649L14.9148 6.6964V6.69638L14.3856 6.1649ZM8.70678 16.3036C7.77603 15.3769 7.77603 13.8758 8.70678 12.949L7.64842 11.8861C6.12881 13.3991 6.12881 15.8536 7.64842 17.3666L8.70678 16.3036ZM8.70678 12.949L9.87942 11.7815L8.82107 10.7185L7.64842 11.8861L8.70678 12.949ZM12.0852 16.3036C11.1526 17.2321 9.63933 17.2321 8.70678 16.3036L7.64842 17.3666C9.16623 18.8778 11.6257 18.8778 13.1435 17.3666L12.0852 16.3036ZM13.2579 15.1361L12.0852 16.3036L13.1435 17.3666L14.3162 16.1991L13.2579 15.1361ZM7.64842 16.3036L4.72082 19.2185L5.77918 20.2815L8.70678 17.3666L7.64842 16.3036ZM8.82107 11.7815L13.2579 16.1991L14.3162 15.1361L9.87942 10.7185L8.82107 11.7815ZM11.0935 12.9903L13.3119 10.7815L12.2535 9.71852L10.0351 11.9273L11.0935 12.9903ZM13.1022 14.9903L15.2792 12.8227L14.2208 11.7597L12.0438 13.9273L13.1022 14.9903ZM18.2932 6.69638C19.224 7.6231 19.224 9.12424 18.2932 10.051L19.3516 11.1139C20.8712 9.60089 20.8712 7.14644 19.3516 5.63342L18.2932 6.69638ZM18.2932 10.051L17.1206 11.2185L18.1789 12.2815L19.3516 11.1139L18.2932 10.051ZM14.9148 6.69638C15.8474 5.76787 17.3607 5.76787 18.2932 6.69638L19.3516 5.63342C17.8338 4.12219 15.3743 4.12219 13.8565 5.63342L14.9148 6.69638ZM13.7421 7.86393L14.9148 6.6964L13.8565 5.6334L12.6838 6.80093L13.7421 7.86393ZM18.1789 11.2185L13.7421 6.80095L12.6838 7.86391L17.1206 12.2815L18.1789 11.2185Z" fill="#4B4B4B"/>
</svg>
