<svg width="32" height="32" viewBox="0 0 32 32" fill="none" xmlns="http://www.w3.org/2000/svg">
<rect width="32" height="32" rx="4" fill="#E8E8E8"/>
<path d="M20.8486 17.3416C19.2652 17.3416 17.9902 18.6249 17.9902 20.1999C17.9902 21.7833 19.2736 23.0583 20.8486 23.0583C22.4319 23.0583 23.7069 21.7749 23.7069 20.1999C23.7069 18.6166 22.4236 17.3416 20.8486 17.3416Z" stroke="#4B4B4B" stroke-width="1.5" stroke-linecap="round" stroke-linejoin="round"/>
<path d="M11.1493 17.3416C9.56601 17.3416 8.29102 18.625 8.29102 20.2C8.29102 21.7833 9.57434 23.0583 11.1493 23.0583C12.7327 23.0583 14.0077 21.775 14.0077 20.2C14.0077 18.6166 12.7327 17.3416 11.1493 17.3416Z" stroke="#4B4B4B" stroke-width="1.5" stroke-linecap="round" stroke-linejoin="round"/>
<path d="M18.8573 11.8C18.8573 13.3833 17.574 14.6583 15.999 14.6583C14.4156 14.6583 13.1406 13.375 13.1406 11.8C13.1406 10.2167 14.424 8.94165 15.999 8.94165C17.5823 8.94165 18.8573 10.225 18.8573 11.8Z" stroke="#4B4B4B" stroke-width="1.5" stroke-linecap="round" stroke-linejoin="round"/>
</svg>
