<svg width="20" height="20" viewBox="0 0 20 20" fill="none" xmlns="http://www.w3.org/2000/svg">
<path d="M17.1426 9.28544H10.714V2.85686C10.714 2.66742 10.6388 2.48574 10.5048 2.35179C10.3708 2.21783 10.1892 2.14258 9.99972 2.14258C9.81028 2.14258 9.6286 2.21783 9.49465 2.35179C9.36069 2.48574 9.28544 2.66742 9.28544 2.85686V9.28544H2.85686C2.66742 9.28544 2.48574 9.36069 2.35179 9.49465C2.21783 9.6286 2.14258 9.81028 2.14258 9.99972C2.14258 10.1892 2.21783 10.3708 2.35179 10.5048C2.48574 10.6388 2.66742 10.714 2.85686 10.714H9.28544V17.1426C9.28544 17.332 9.36069 17.5137 9.49465 17.6477C9.6286 17.7816 9.81028 17.8569 9.99972 17.8569C10.1892 17.8569 10.3708 17.7816 10.5048 17.6477C10.6388 17.5137 10.714 17.332 10.714 17.1426V10.714H17.1426C17.332 10.714 17.5137 10.6388 17.6477 10.5048C17.7816 10.3708 17.8569 10.1892 17.8569 9.99972C17.8569 9.81028 17.7816 9.6286 17.6477 9.49465C17.5137 9.36069 17.332 9.28544 17.1426 9.28544Z" fill="#009100"/>
</svg>
