<svg width="33" height="33" viewBox="0 0 33 33" fill="none" xmlns="http://www.w3.org/2000/svg">
<path d="M23.1705 4.6281L23.3245 4.9341L24.4765 8.0001C24.5665 8.2401 24.7565 8.4321 24.9985 8.5221L27.9585 9.6341C29.2585 10.1201 29.9565 11.5081 29.6105 12.8221L29.5265 13.0821L28.1505 16.1281C28.0977 16.2443 28.0704 16.3705 28.0704 16.4981C28.0704 16.6257 28.0977 16.7519 28.1505 16.8681L29.4585 19.7481C29.7322 20.3518 29.7725 21.0355 29.5715 21.6671C29.3706 22.2987 28.9427 22.8335 28.3705 23.1681L28.0645 23.3221L24.9985 24.4741C24.8797 24.5191 24.7718 24.5889 24.6821 24.6789C24.5924 24.7689 24.523 24.8771 24.4785 24.9961L23.3665 27.9561C23.1337 28.5776 22.6786 29.0905 22.0893 29.3957C21.5 29.7009 20.8184 29.7766 20.1765 29.6081L19.9165 29.5241L16.8705 28.1481C16.7544 28.0951 16.6282 28.0677 16.5005 28.0677C16.3729 28.0677 16.2467 28.0951 16.1305 28.1481L13.2525 29.4561C12.6488 29.7298 11.9652 29.77 11.3335 29.5691C10.7019 29.3681 10.1671 28.9403 9.83253 28.3681L9.67853 28.0621L8.52453 24.9961C8.47947 24.8773 8.4096 24.7695 8.31959 24.6798C8.22958 24.5902 8.12149 24.5207 8.00253 24.4761L5.04253 23.3641C4.42108 23.1313 3.9081 22.6762 3.60292 22.0869C3.29774 21.4976 3.22206 20.816 3.39053 20.1741L3.47453 19.9141L4.85253 16.8681C4.90536 16.7519 4.93269 16.6257 4.93269 16.4981C4.93269 16.3705 4.90536 16.2443 4.85253 16.1281L3.54453 13.2501C3.27069 12.6466 3.23013 11.9631 3.43069 11.3315C3.63125 10.6999 4.05871 10.165 4.63053 9.8301L4.93653 9.6761L8.00253 8.5221C8.12169 8.47728 8.2299 8.40752 8.31993 8.3175C8.40995 8.22747 8.47971 8.11926 8.52453 8.0001L9.63653 5.0401C9.86932 4.41908 10.3241 3.90643 10.913 3.60129C11.5018 3.29615 12.1829 3.22019 12.8245 3.3881L13.0845 3.4721L16.1305 4.8501C16.2467 4.90293 16.3729 4.93026 16.5005 4.93026C16.6282 4.93026 16.7543 4.90293 16.8705 4.8501L19.7505 3.5421C20.354 3.26826 21.0375 3.2277 21.6691 3.42826C22.3007 3.62882 22.8356 4.05628 23.1705 4.6281V4.6281ZM20.8305 11.9101L14.4565 19.1901L12.1325 16.8661C11.9637 16.7045 11.7383 16.6155 11.5046 16.6181C11.2709 16.6207 11.0476 16.7146 10.8823 16.8799C10.7171 17.0451 10.6231 17.2685 10.6205 17.5022C10.6179 17.7359 10.707 17.9613 10.8685 18.1301L13.8685 21.1301C13.9551 21.2165 14.0585 21.2842 14.1723 21.329C14.2861 21.3738 14.4078 21.3948 14.5301 21.3907C14.6523 21.3865 14.7724 21.3574 14.8829 21.305C14.9934 21.2526 15.092 21.1781 15.1725 21.0861L22.1725 13.0861C22.3151 12.9062 22.3829 12.6783 22.3621 12.4497C22.3412 12.2211 22.2332 12.0093 22.0605 11.8582C21.8877 11.707 21.6635 11.6281 21.4341 11.6378C21.2048 11.6474 20.9879 11.7449 20.8285 11.9101H20.8305Z" fill="#2FA500"/>
</svg>
