<svg width="21" height="20" viewBox="0 0 21 20" fill="none" xmlns="http://www.w3.org/2000/svg">
<path d="M15.35 11.3417C13.7667 11.3417 12.4917 12.625 12.4917 14.2C12.4917 15.7833 13.775 17.0583 15.35 17.0583C16.9334 17.0583 18.2084 15.775 18.2084 14.2C18.2084 12.6167 16.925 11.3417 15.35 11.3417Z" stroke="white" stroke-width="1.5" stroke-linecap="round" stroke-linejoin="round"/>
<path d="M5.64983 11.3416C4.0665 11.3416 2.7915 12.625 2.7915 14.2C2.7915 15.7833 4.07483 17.0583 5.64983 17.0583C7.23316 17.0583 8.50817 15.775 8.50817 14.2C8.50817 12.6166 7.23316 11.3416 5.64983 11.3416Z" stroke="white" stroke-width="1.5" stroke-linecap="round" stroke-linejoin="round"/>
<path d="M13.3583 5.79998C13.3583 7.38332 12.0749 8.65832 10.4999 8.65832C8.9166 8.65832 7.6416 7.37498 7.6416 5.79998C7.6416 4.21665 8.92493 2.94165 10.4999 2.94165C12.0833 2.94165 13.3583 4.22498 13.3583 5.79998Z" stroke="white" stroke-width="1.5" stroke-linecap="round" stroke-linejoin="round"/>
</svg>
