<svg width="24" height="24" viewBox="0 0 24 24" fill="none" xmlns="http://www.w3.org/2000/svg">
<path d="M17.0004 18.5003C16.216 18.8598 15.3633 19.046 14.5004 19.046C13.6375 19.046 12.7848 18.8598 12.0004 18.5003C11.1804 18.2172 10.3087 18.1154 9.44553 18.2017C8.58233 18.288 7.74812 18.5605 7.00039 19.0003C7.53581 18.815 8.00781 18.4818 8.36176 18.0394C8.7157 17.597 8.93712 17.0634 9.00039 16.5003V9.00031C9.00567 8.12424 9.29842 7.27413 9.83368 6.58057C10.3689 5.88701 11.1171 5.38835 11.9632 5.1612C12.8093 4.93405 13.7066 4.99098 14.5173 5.32322C15.3279 5.65547 16.0071 6.24467 16.4504 7.00031M13.9004 13.0003H6.90039" stroke="#4B4B4B" stroke-width="1.5" stroke-linecap="round" stroke-linejoin="round"/>
</svg>
