<svg width="20" height="9" viewBox="0 0 20 9" fill="none" xmlns="http://www.w3.org/2000/svg">
<path d="M4.79199 9.79165C4.79199 9.3314 5.16509 8.95831 5.62533 8.95831H14.3753C14.8356 8.95831 15.2087 9.3314 15.2087 9.79165V14.375C15.2087 15.2955 14.4625 16.0416 13.542 16.0416H6.45866C5.53818 16.0416 4.79199 15.2955 4.79199 14.375V9.79165Z" stroke="#4B4B4B" stroke-width="1.5" stroke-linecap="round" stroke-linejoin="round"/>
<path d="M6.45872 8.74998V8.6189C6.45872 7.31787 6.38045 5.86769 7.28911 4.93656C7.8073 4.40556 8.64581 3.95831 10.0004 3.95831C11.355 3.95831 12.1935 4.40556 12.7116 4.93656C13.6203 5.86769 13.5421 7.31787 13.5421 8.6189V8.74998" stroke="#2E2E2E" stroke-width="1.5" stroke-linecap="round" stroke-linejoin="round"/>
</svg>
