<svg width="21" height="21" viewBox="0 0 21 21" fill="none" xmlns="http://www.w3.org/2000/svg">
<path d="M17.6426 9.78544H11.214V3.35686C11.214 3.16742 11.1388 2.98574 11.0048 2.85179C10.8708 2.71783 10.6892 2.64258 10.4997 2.64258C10.3103 2.64258 10.1286 2.71783 9.99465 2.85179C9.86069 2.98574 9.78544 3.16742 9.78544 3.35686V9.78544H3.35686C3.16742 9.78544 2.98574 9.86069 2.85179 9.99465C2.71783 10.1286 2.64258 10.3103 2.64258 10.4997C2.64258 10.6892 2.71783 10.8708 2.85179 11.0048C2.98574 11.1388 3.16742 11.214 3.35686 11.214H9.78544V17.6426C9.78544 17.832 9.86069 18.0137 9.99465 18.1477C10.1286 18.2816 10.3103 18.3569 10.4997 18.3569C10.6892 18.3569 10.8708 18.2816 11.0048 18.1477C11.1388 18.0137 11.214 17.832 11.214 17.6426V11.214H17.6426C17.832 11.214 18.0137 11.1388 18.1477 11.0048C18.2816 10.8708 18.3569 10.6892 18.3569 10.4997C18.3569 10.3103 18.2816 10.1286 18.1477 9.99465C18.0137 9.86069 17.832 9.78544 17.6426 9.78544Z" fill="#009100"/>
</svg>
