<svg width="16" height="16" viewBox="0 0 16 16" fill="none" xmlns="http://www.w3.org/2000/svg">
<path d="M11.8801 9.07324C10.6135 9.07324 9.59344 10.0999 9.59344 11.3599C9.59344 12.6266 10.6201 13.6466 11.8801 13.6466C13.1468 13.6466 14.1668 12.6199 14.1668 11.3599C14.1668 10.0932 13.1401 9.07324 11.8801 9.07324Z" stroke="white" stroke-width="1.5" stroke-linecap="round" stroke-linejoin="round"/>
<path d="M4.12001 9.07373C2.85334 9.07373 1.83334 10.1004 1.83334 11.3604C1.83334 12.6271 2.86001 13.6471 4.12001 13.6471C5.38667 13.6471 6.40668 12.6204 6.40668 11.3604C6.40668 10.0937 5.38667 9.07373 4.12001 9.07373Z" stroke="white" stroke-width="1.5" stroke-linecap="round" stroke-linejoin="round"/>
<path d="M10.2866 4.64018C10.2866 5.90685 9.25989 6.92685 7.99989 6.92685C6.73322 6.92685 5.71323 5.90018 5.71323 4.64018C5.71323 3.37352 6.73989 2.35352 7.99989 2.35352C9.26655 2.35352 10.2866 3.38018 10.2866 4.64018Z" stroke="white" stroke-width="1.5" stroke-linecap="round" stroke-linejoin="round"/>
</svg>
