<svg width="24" height="24" viewBox="0 0 24 24" fill="none" xmlns="http://www.w3.org/2000/svg">
<path d="M17.8206 13.6094C15.9206 13.6094 14.3906 15.1494 14.3906 17.0394C14.3906 18.9394 15.9306 20.4694 17.8206 20.4694C19.7206 20.4694 21.2506 18.9294 21.2506 17.0394C21.2506 15.1394 19.7106 13.6094 17.8206 13.6094Z" stroke="#4B4B4B" stroke-width="1.5" stroke-linecap="round" stroke-linejoin="round"/>
<path d="M6.17999 13.6094C4.27999 13.6094 2.75 15.1494 2.75 17.0394C2.75 18.9394 4.28999 20.4694 6.17999 20.4694C8.07999 20.4694 9.61 18.9294 9.61 17.0394C9.61 15.1394 8.07999 13.6094 6.17999 13.6094Z" stroke="#4B4B4B" stroke-width="1.5" stroke-linecap="round" stroke-linejoin="round"/>
<path d="M15.4303 6.9593C15.4303 8.8593 13.8903 10.3893 12.0003 10.3893C10.1003 10.3893 8.57031 8.8493 8.57031 6.9593C8.57031 5.0593 10.1103 3.5293 12.0003 3.5293C13.9003 3.5293 15.4303 5.0693 15.4303 6.9593Z" stroke="#4B4B4B" stroke-width="1.5" stroke-linecap="round" stroke-linejoin="round"/>
</svg>
