<svg width="21" height="20" viewBox="0 0 21 20" fill="none" xmlns="http://www.w3.org/2000/svg">
<path d="M17.6426 9.2858H11.214V2.85723C11.214 2.66779 11.1388 2.48611 11.0048 2.35215C10.8708 2.2182 10.6892 2.14294 10.4997 2.14294C10.3103 2.14294 10.1286 2.2182 9.99465 2.35215C9.86069 2.48611 9.78544 2.66779 9.78544 2.85723V9.2858H3.35686C3.16742 9.2858 2.98574 9.36106 2.85179 9.49501C2.71783 9.62897 2.64258 9.81065 2.64258 10.0001C2.64258 10.1895 2.71783 10.3712 2.85179 10.5052C2.98574 10.6391 3.16742 10.7144 3.35686 10.7144H9.78544V17.1429C9.78544 17.3324 9.86069 17.5141 9.99465 17.648C10.1286 17.782 10.3103 17.8572 10.4997 17.8572C10.6892 17.8572 10.8708 17.782 11.0048 17.648C11.1388 17.5141 11.214 17.3324 11.214 17.1429V10.7144H17.6426C17.832 10.7144 18.0137 10.6391 18.1477 10.5052C18.2816 10.3712 18.3569 10.1895 18.3569 10.0001C18.3569 9.81065 18.2816 9.62897 18.1477 9.49501C18.0137 9.36106 17.832 9.2858 17.6426 9.2858Z" fill="#4B4B4B"/>
</svg>
