<svg width="25" height="25" viewBox="0 0 25 25" fill="none" xmlns="http://www.w3.org/2000/svg">
<path d="M18.3206 14.1099C16.4206 14.1099 14.8906 15.6499 14.8906 17.5399C14.8906 19.4399 16.4306 20.9699 18.3206 20.9699C20.2206 20.9699 21.7506 19.4299 21.7506 17.5399C21.7506 15.6399 20.2106 14.1099 18.3206 14.1099Z" stroke="#4B4B4B" stroke-width="1.5" stroke-linecap="round" stroke-linejoin="round"/>
<path d="M6.67999 14.1099C4.77999 14.1099 3.25 15.6499 3.25 17.5399C3.25 19.4399 4.78999 20.9699 6.67999 20.9699C8.57999 20.9699 10.11 19.4299 10.11 17.5399C10.11 15.6399 8.57999 14.1099 6.67999 14.1099Z" stroke="#4B4B4B" stroke-width="1.5" stroke-linecap="round" stroke-linejoin="round"/>
<path d="M15.9303 7.45979C15.9303 9.35979 14.3903 10.8898 12.5003 10.8898C10.6003 10.8898 9.07031 9.34979 9.07031 7.45979C9.07031 5.55979 10.6103 4.02979 12.5003 4.02979C14.4003 4.02979 15.9303 5.56979 15.9303 7.45979Z" stroke="#4B4B4B" stroke-width="1.5" stroke-linecap="round" stroke-linejoin="round"/>
</svg>
