<svg width="16" height="16" viewBox="0 0 16 16" fill="none" xmlns="http://www.w3.org/2000/svg">
<path d="M13.0597 9.24674L13.548 7.41571V6.33051C13.3383 3.90767 11.2814 2 8.80509 2H7.98023V6.33051H4.99419L4.53422 4.30012C4.49369 4.11626 4.39177 3.95168 4.24524 3.83347C4.09871 3.71525 3.9163 3.65045 3.72803 3.64972H2V4.47458H3.72803L4.77134 9.08012C4.39905 9.17875 4.06181 9.37967 3.79783 9.66012C3.53386 9.94057 3.3537 10.2893 3.27777 10.6669C3.20183 11.0445 3.23315 11.4358 3.36819 11.7965C3.50322 12.1572 3.73657 12.4729 4.04179 12.7078C4.34702 12.9426 4.71192 13.0874 5.09517 13.1255C5.47842 13.1637 5.86469 13.0937 6.21023 12.9236C6.55577 12.7535 6.84677 12.49 7.05026 12.163C7.25375 11.836 7.36159 11.4586 7.36158 11.0734C7.36158 11.0038 7.35815 10.9351 7.35127 10.8672H10.0527C10.0459 10.9351 10.0425 11.0038 10.0424 11.0734C10.0422 11.4391 10.1393 11.7983 10.3237 12.1141C10.5081 12.4299 10.7731 12.691 11.0917 12.8706C11.4102 13.0502 11.7708 13.1419 12.1364 13.1362C12.5021 13.1306 12.8596 13.0278 13.1725 12.8384C13.4853 12.649 13.7421 12.3798 13.9167 12.0585C14.0912 11.7371 14.1771 11.3751 14.1657 11.0096C14.1542 10.6441 14.0457 10.2882 13.8514 9.97844C13.657 9.66866 13.3838 9.41614 13.0597 9.24674ZM8.80509 2.82486C10.8263 2.82486 12.4949 4.36317 12.7016 6.33051H8.80509V2.82486ZM5.29944 12.3107C5.05472 12.3107 4.81551 12.2382 4.61203 12.1022C4.40856 11.9663 4.24998 11.773 4.15633 11.5469C4.06268 11.3209 4.03818 11.0721 4.08592 10.8321C4.13366 10.5921 4.2515 10.3716 4.42454 10.1986C4.59758 10.0255 4.81804 9.90767 5.05805 9.85993C5.29806 9.81219 5.54684 9.83669 5.77292 9.93034C5.99901 10.024 6.19225 10.1826 6.3282 10.386C6.46416 10.5895 6.53672 10.8287 6.53672 11.0734C6.53635 11.4015 6.40587 11.716 6.17392 11.9479C5.94196 12.1799 5.62747 12.3104 5.29944 12.3107ZM10.3198 10.0424H7.08415C6.92912 9.7744 6.71587 9.54469 6.46015 9.37021C6.20443 9.19572 5.91277 9.08092 5.60672 9.03429L5.18107 7.15537H12.7232V7.30745L12.2669 9.01821C12.2129 9.01376 12.1587 9.01143 12.1045 9.01122C11.7427 9.0115 11.3874 9.10692 11.0741 9.28791C10.7609 9.4689 10.5007 9.72909 10.3198 10.0424ZM12.1045 12.3107C11.8598 12.3107 11.6206 12.2382 11.4171 12.1022C11.2136 11.9663 11.0551 11.773 10.9614 11.5469C10.8678 11.3209 10.8433 11.0721 10.891 10.8321C10.9387 10.5921 11.0566 10.3716 11.2296 10.1986C11.4027 10.0255 11.6231 9.90767 11.8631 9.85993C12.1031 9.81219 12.3519 9.83669 12.578 9.93034C12.8041 10.024 12.9973 10.1826 13.1333 10.386C13.2692 10.5895 13.3418 10.8287 13.3418 11.0734C13.3414 11.4015 13.211 11.716 12.979 11.9479C12.747 12.1799 12.4326 12.3104 12.1045 12.3107Z" fill="#4B4B4B"/>
</svg>
