<svg width="24" height="24" viewBox="0 0 24 24" fill="none" xmlns="http://www.w3.org/2000/svg">
<path d="M17.8201 13.6104C15.9201 13.6104 14.3901 15.1504 14.3901 17.0404C14.3901 18.9404 15.9301 20.4704 17.8201 20.4704C19.7201 20.4704 21.2501 18.9304 21.2501 17.0404C21.2501 15.1404 19.7101 13.6104 17.8201 13.6104Z" stroke="#4B4B4B" stroke-width="1.5" stroke-linecap="round" stroke-linejoin="round"/>
<path d="M6.17999 13.6104C4.27999 13.6104 2.75 15.1504 2.75 17.0404C2.75 18.9404 4.28999 20.4704 6.17999 20.4704C8.07999 20.4704 9.61 18.9304 9.61 17.0404C9.61 15.1404 8.07999 13.6104 6.17999 13.6104Z" stroke="#4B4B4B" stroke-width="1.5" stroke-linecap="round" stroke-linejoin="round"/>
<path d="M15.4298 6.96027C15.4298 8.86027 13.8898 10.3903 11.9998 10.3903C10.0998 10.3903 8.56982 8.85027 8.56982 6.96027C8.56982 5.06027 10.1098 3.53027 11.9998 3.53027C13.8998 3.53027 15.4298 5.07027 15.4298 6.96027Z" stroke="#4B4B4B" stroke-width="1.5" stroke-linecap="round" stroke-linejoin="round"/>
</svg>
