<svg width="20" height="20" viewBox="0 0 20 20" fill="none" xmlns="http://www.w3.org/2000/svg">
<path d="M17.1426 9.28592H10.714V2.85735C10.714 2.66791 10.6388 2.48623 10.5048 2.35228C10.3708 2.21832 10.1892 2.14307 9.99972 2.14307C9.81028 2.14307 9.6286 2.21832 9.49465 2.35228C9.36069 2.48623 9.28544 2.66791 9.28544 2.85735V9.28592H2.85686C2.66742 9.28592 2.48574 9.36118 2.35179 9.49513C2.21783 9.62909 2.14258 9.81077 2.14258 10.0002C2.14258 10.1897 2.21783 10.3713 2.35179 10.5053C2.48574 10.6392 2.66742 10.7145 2.85686 10.7145H9.28544V17.1431C9.28544 17.3325 9.36069 17.5142 9.49465 17.6481C9.6286 17.7821 9.81028 17.8574 9.99972 17.8574C10.1892 17.8574 10.3708 17.7821 10.5048 17.6481C10.6388 17.5142 10.714 17.3325 10.714 17.1431V10.7145H17.1426C17.332 10.7145 17.5137 10.6392 17.6477 10.5053C17.7816 10.3713 17.8569 10.1897 17.8569 10.0002C17.8569 9.81077 17.7816 9.62909 17.6477 9.49513C17.5137 9.36118 17.332 9.28592 17.1426 9.28592Z" fill="#4B4B4B"/>
</svg>
