<svg width="20" height="20" viewBox="0 0 20 20" fill="none" xmlns="http://www.w3.org/2000/svg">
<path d="M14.8496 11.3418C13.2662 11.3418 11.9912 12.6251 11.9912 14.2001C11.9912 15.7835 13.2746 17.0585 14.8496 17.0585C16.4329 17.0585 17.7079 15.7751 17.7079 14.2001C17.7079 12.6168 16.4246 11.3418 14.8496 11.3418Z" stroke="#2FA500" stroke-width="1.5" stroke-linecap="round" stroke-linejoin="round"/>
<path d="M5.14934 11.3416C3.56601 11.3416 2.29102 12.6249 2.29102 14.1999C2.29102 15.7832 3.57434 17.0582 5.14934 17.0582C6.73268 17.0582 8.00768 15.7749 8.00768 14.1999C8.00768 12.6166 6.73268 11.3416 5.14934 11.3416Z" stroke="#2FA500" stroke-width="1.5" stroke-linecap="round" stroke-linejoin="round"/>
<path d="M12.8573 5.79998C12.8573 7.38332 11.574 8.65832 9.99895 8.65832C8.41562 8.65832 7.14062 7.37498 7.14062 5.79998C7.14062 4.21665 8.42395 2.94165 9.99895 2.94165C11.5823 2.94165 12.8573 4.22498 12.8573 5.79998Z" stroke="#2FA500" stroke-width="1.5" stroke-linecap="round" stroke-linejoin="round"/>
</svg>
