<svg width="16" height="16" viewBox="0 0 16 16" fill="none" xmlns="http://www.w3.org/2000/svg">
<path d="M13.7144 7.42913H8.5715V2.28627C8.5715 2.13472 8.51129 1.98937 8.40413 1.88221C8.29697 1.77505 8.15162 1.71484 8.00007 1.71484C7.84852 1.71484 7.70317 1.77505 7.59601 1.88221C7.48885 1.98937 7.42864 2.13472 7.42864 2.28627V7.42913H2.28578C2.13423 7.42913 1.98889 7.48933 1.88172 7.5965C1.77456 7.70366 1.71436 7.84901 1.71436 8.00056C1.71436 8.15211 1.77456 8.29746 1.88172 8.40462C1.98889 8.51178 2.13423 8.57199 2.28578 8.57199H7.42864V13.7148C7.42864 13.8664 7.48885 14.0117 7.59601 14.1189C7.70317 14.2261 7.84852 14.2863 8.00007 14.2863C8.15162 14.2863 8.29697 14.2261 8.40413 14.1189C8.51129 14.0117 8.5715 13.8664 8.5715 13.7148V8.57199H13.7144C13.8659 8.57199 14.0113 8.51178 14.1184 8.40462C14.2256 8.29746 14.2858 8.15211 14.2858 8.00056C14.2858 7.84901 14.2256 7.70366 14.1184 7.5965C14.0113 7.48933 13.8659 7.42913 13.7144 7.42913Z" fill="white"/>
</svg>
