<svg width="20" height="20" viewBox="0 0 20 20" fill="none" xmlns="http://www.w3.org/2000/svg">
<path d="M6.87533 8.95837H6.45866C6.01663 8.95837 5.59271 9.13397 5.28015 9.44653C4.96759 9.75909 4.79199 10.183 4.79199 10.625V14.375C4.79199 14.8171 4.96759 15.241 5.28015 15.5536C5.59271 15.8661 6.01663 16.0417 6.45866 16.0417H13.542C13.984 16.0417 14.4079 15.8661 14.7205 15.5536C15.0331 15.241 15.2087 14.8171 15.2087 14.375V10.625C15.2087 10.183 15.0331 9.75909 14.7205 9.44653C14.4079 9.13397 13.984 8.95837 13.542 8.95837H13.1253M10.0003 11.875V3.95837M10.0003 3.95837L8.12533 6.04171M10.0003 3.95837L11.8753 6.04171" stroke="#4B4B4B" stroke-width="1.5" stroke-linecap="round" stroke-linejoin="round"/>
</svg>
