<svg width="24" height="24" viewBox="0 0 24 24" fill="none" xmlns="http://www.w3.org/2000/svg">
<path d="M20.5703 11.1427H12.856V3.42843C12.856 3.2011 12.7657 2.98309 12.605 2.82234C12.4442 2.66159 12.2262 2.57129 11.9989 2.57129C11.7716 2.57129 11.5535 2.66159 11.3928 2.82234C11.232 2.98309 11.1417 3.2011 11.1417 3.42843V11.1427H3.42746C3.20013 11.1427 2.98211 11.233 2.82136 11.3938C2.66062 11.5545 2.57031 11.7725 2.57031 11.9999C2.57031 12.2272 2.66062 12.4452 2.82136 12.606C2.98211 12.7667 3.20013 12.857 3.42746 12.857H11.1417V20.5713C11.1417 20.7986 11.232 21.0166 11.3928 21.1774C11.5535 21.3381 11.7716 21.4284 11.9989 21.4284C12.2262 21.4284 12.4442 21.3381 12.605 21.1774C12.7657 21.0166 12.856 20.7986 12.856 20.5713V12.857H20.5703C20.7976 12.857 21.0157 12.7667 21.1764 12.606C21.3372 12.4452 21.4275 12.2272 21.4275 11.9999C21.4275 11.7725 21.3372 11.5545 21.1764 11.3938C21.0157 11.233 20.7976 11.1427 20.5703 11.1427Z" fill="#858585"/>
</svg>
