<svg width="16" height="16" viewBox="0 0 16 16" fill="none" xmlns="http://www.w3.org/2000/svg">
<path d="M14.969 1.282C15.0626 1.37575 15.1152 1.50283 15.1152 1.63533C15.1152 1.76783 15.0626 1.89492 14.969 1.98867L10.3503 6.608C10.9164 7.34592 11.195 8.26447 11.1342 9.19255C11.0734 10.1206 10.6772 10.995 10.0196 11.6527L9.46496 12.2073L7.60696 14.994C7.56596 15.0555 7.51182 15.1072 7.44844 15.1453C7.38506 15.1834 7.31401 15.207 7.24043 15.2143C7.16684 15.2216 7.09255 15.2126 7.0229 15.1877C6.95324 15.1629 6.88997 15.1229 6.83763 15.0707L1.18029 9.41333C1.12805 9.36099 1.08807 9.29772 1.06323 9.22806C1.03839 9.15841 1.02931 9.08412 1.03664 9.01053C1.04398 8.93694 1.06754 8.8659 1.10564 8.80252C1.14374 8.73914 1.19542 8.685 1.25696 8.644L4.04363 6.786L4.59829 6.23133C5.256 5.57371 6.13032 5.17759 7.05841 5.11675C7.98649 5.05592 8.90504 5.33452 9.64296 5.90067L14.2623 1.282C14.356 1.18837 14.4831 1.13577 14.6156 1.13577C14.7481 1.13577 14.8752 1.18837 14.969 1.282ZM5.06963 7.17467L9.07629 11.1813L9.31229 10.946C9.83343 10.4126 10.1233 9.69522 10.1189 8.9495C10.1146 8.20378 9.81641 7.48984 9.2891 6.96253C8.76179 6.43522 8.04784 6.13706 7.30213 6.13271C6.55641 6.12837 5.83904 6.4182 5.30563 6.93933L5.06963 7.17467ZM4.29896 7.818L2.31896 9.138L7.11296 13.932L8.43296 11.952L4.29896 7.818Z" fill="#4B4B4B"/>
</svg>
