<svg width="16" height="16" viewBox="0 0 16 16" fill="none" xmlns="http://www.w3.org/2000/svg">
<path d="M13.7148 7.42815H8.57199V2.2853C8.57199 2.13374 8.51178 1.9884 8.40462 1.88123C8.29745 1.77407 8.15211 1.71387 8.00056 1.71387C7.84901 1.71387 7.70366 1.77407 7.5965 1.88123C7.48933 1.9884 7.42913 2.13374 7.42913 2.2853V7.42815H2.28627C2.13472 7.42815 1.98937 7.48836 1.88221 7.59552C1.77505 7.70268 1.71484 7.84803 1.71484 7.99958C1.71484 8.15113 1.77505 8.29648 1.88221 8.40364C1.98937 8.51081 2.13472 8.57101 2.28627 8.57101H7.42913V13.7139C7.42913 13.8654 7.48933 14.0108 7.5965 14.1179C7.70366 14.2251 7.84901 14.2853 8.00056 14.2853C8.15211 14.2853 8.29745 14.2251 8.40462 14.1179C8.51178 14.0108 8.57199 13.8654 8.57199 13.7139V8.57101H13.7148C13.8664 8.57101 14.0117 8.51081 14.1189 8.40364C14.2261 8.29648 14.2863 8.15113 14.2863 7.99958C14.2863 7.84803 14.2261 7.70268 14.1189 7.59552C14.0117 7.48836 13.8664 7.42815 13.7148 7.42815Z" fill="white"/>
</svg>
