<svg width="25" height="25" viewBox="0 0 25 25" fill="none" xmlns="http://www.w3.org/2000/svg">
<path d="M19.366 14.75L19.713 12.563C20.14 8.648 16.79 5.25 12.5 5.25C8.21 5.25 4.86 8.648 5.287 12.563L5.634 14.75M8.942 19.554L8.416 19.682C7.254 19.966 6.059 19.337 5.748 18.279L5.325 16.842C5.013 15.784 5.703 14.696 6.865 14.412L7.392 14.284C7.972 14.142 8.57 14.456 8.726 14.985L9.713 18.339C9.868 18.868 9.523 19.412 8.943 19.554H8.942ZM16.058 19.554L16.584 19.682C17.746 19.966 18.941 19.337 19.252 18.279L19.675 16.842C19.987 15.784 19.297 14.696 18.135 14.412L17.608 14.284C17.028 14.142 16.43 14.456 16.274 14.985L15.287 18.339C15.132 18.868 15.477 19.412 16.057 19.554H16.058Z" stroke="#4B4B4B" stroke-width="1.5" stroke-linecap="round" stroke-linejoin="round"/>
</svg>
