<svg width="20" height="20" viewBox="0 0 20 20" fill="none" xmlns="http://www.w3.org/2000/svg">
<path d="M11.875 10C11.875 11.0355 11.0355 11.875 10 11.875C8.9645 11.875 8.125 11.0355 8.125 10C8.125 8.9645 8.9645 8.125 10 8.125C11.0355 8.125 11.875 8.9645 11.875 10Z" stroke="#2E2E2E" stroke-width="1.5" stroke-linecap="round" stroke-linejoin="round"/>
<mask id="path-2-inside-1_2948_30362" fill="white">
<path d="M3.95898 6.48138L4.24427 5.92529C4.05051 5.82589 3.81899 5.83451 3.63316 5.94803C3.44733 6.06156 3.33398 6.26361 3.33398 6.48138H3.95898ZM16.0423 6.48138H16.6673C16.6673 6.27134 16.5618 6.07535 16.3865 5.95969L16.0423 6.48138ZM3.95898 13.5416H3.33398C3.33398 13.7642 3.45238 13.97 3.64482 14.0819L3.95898 13.5416ZM16.0423 13.5416L15.8247 14.1275C16.0166 14.1988 16.2312 14.1716 16.3992 14.0548C16.5672 13.9379 16.6673 13.7463 16.6673 13.5416H16.0423ZM3.95898 6.48138C3.6737 7.03747 3.67398 7.03761 3.67426 7.03776C3.67437 7.03781 3.67466 7.03796 3.67488 7.03807C3.67531 7.0383 3.67578 7.03854 3.6763 7.0388C3.67734 7.03933 3.67854 7.03994 3.67992 7.04063C3.68266 7.04201 3.68608 7.04371 3.69015 7.04573C3.6983 7.04976 3.70911 7.05501 3.72251 7.06136C3.74929 7.07406 3.78646 7.09114 3.8335 7.11151C3.92753 7.15223 4.06128 7.20621 4.23063 7.26456C4.56891 7.38113 5.0518 7.51606 5.64554 7.59686C6.8359 7.75885 8.47298 7.70281 10.2695 6.84693L9.73182 5.71846C8.19494 6.45067 6.81123 6.49397 5.81409 6.35828C5.31408 6.29024 4.91156 6.17707 4.63787 6.08276C4.50122 6.03567 4.39734 5.99351 4.33024 5.96445C4.29671 5.94993 4.27243 5.93871 4.25793 5.93183C4.25067 5.9284 4.24586 5.92604 4.24356 5.92491C4.24241 5.92434 4.24189 5.92407 4.242 5.92413C4.24206 5.92416 4.24228 5.92427 4.24265 5.92446C4.24284 5.92456 4.24307 5.92467 4.24334 5.92481C4.24348 5.92488 4.24371 5.925 4.24378 5.92503C4.24402 5.92516 4.24427 5.92529 3.95898 6.48138ZM10.2695 6.84693C11.7839 6.12543 13.146 6.17201 14.1332 6.39601C14.629 6.50851 15.0293 6.66587 15.3029 6.79345C15.4394 6.8571 15.5433 6.91288 15.6108 6.95118C15.6445 6.97031 15.6689 6.98502 15.6837 6.99409C15.6911 6.99862 15.696 7.00174 15.6984 7.00329C15.6996 7.00406 15.7002 7.00445 15.7002 7.00442C15.7002 7.00441 15.7 7.00429 15.6997 7.00406C15.6995 7.00396 15.6992 7.00381 15.699 7.00365C15.6989 7.00356 15.6987 7.00342 15.6986 7.00338C15.6984 7.00323 15.6982 7.00307 16.0423 6.48138C16.3865 5.95969 16.3862 5.95951 16.386 5.95934C16.3859 5.95927 16.3856 5.95908 16.3854 5.95895C16.385 5.95867 16.3845 5.95837 16.384 5.95805C16.383 5.95739 16.3818 5.95663 16.3805 5.95576C16.3778 5.95403 16.3745 5.95187 16.3705 5.94931C16.3625 5.9442 16.3517 5.93748 16.3385 5.92931C16.3119 5.91299 16.275 5.89086 16.2281 5.86424C16.1344 5.81102 16.0007 5.73962 15.8312 5.66057C15.4928 5.50276 15.0077 5.31268 14.4098 5.177C13.2095 4.90463 11.5507 4.85187 9.73182 5.71846L10.2695 6.84693ZM3.95898 13.5416C3.64482 14.0819 3.64506 14.082 3.64532 14.0822C3.64542 14.0823 3.64568 14.0824 3.64588 14.0825C3.64628 14.0828 3.64672 14.083 3.6472 14.0833C3.64817 14.0839 3.6493 14.0845 3.65059 14.0853C3.65319 14.0867 3.65646 14.0886 3.66039 14.0908C3.66825 14.0952 3.67875 14.101 3.69184 14.1082C3.71802 14.1224 3.75455 14.1417 3.80093 14.165C3.89364 14.2117 4.02601 14.2745 4.19388 14.3444C4.52918 14.4841 5.00904 14.6535 5.59991 14.7791C6.78259 15.0304 8.42098 15.1078 10.2262 14.4089L9.77507 13.2433C8.24702 13.8348 6.86454 13.7699 5.85973 13.5564C5.35684 13.4495 4.95128 13.3059 4.6746 13.1906C4.53649 13.133 4.43123 13.0829 4.36281 13.0484C4.32863 13.0313 4.30372 13.018 4.28858 13.0098C4.28103 13.0057 4.27592 13.0029 4.27332 13.0014C4.27202 13.0007 4.27135 13.0003 4.27133 13.0003C4.27131 13.0003 4.27145 13.0004 4.27176 13.0005C4.27191 13.0006 4.2721 13.0007 4.27233 13.0009C4.27245 13.0009 4.27266 13.001 4.27272 13.001C4.27293 13.0012 4.27315 13.0013 3.95898 13.5416ZM10.2262 14.4089C11.7871 13.8048 13.1995 13.7388 14.2202 13.8229C14.7304 13.8649 15.1409 13.9444 15.4199 14.012C15.5592 14.0458 15.6654 14.0765 15.7343 14.0979C15.7687 14.1085 15.7939 14.1169 15.8092 14.1221C15.8167 14.1247 15.8219 14.1265 15.8245 14.1274C15.8258 14.1279 15.8265 14.1282 15.8266 14.1282C15.8266 14.1282 15.8264 14.1281 15.8262 14.128C15.826 14.1279 15.8257 14.1279 15.8256 14.1278C15.8254 14.1278 15.8252 14.1277 15.8252 14.1277C15.825 14.1276 15.8247 14.1275 16.0423 13.5416C16.2599 12.9557 16.2597 12.9556 16.2594 12.9555C16.2593 12.9555 16.2591 12.9554 16.2588 12.9553C16.2585 12.9552 16.258 12.955 16.2576 12.9549C16.2566 12.9544 16.2554 12.954 16.2542 12.9536C16.2516 12.9526 16.2483 12.9514 16.2444 12.9501C16.2366 12.9473 16.2261 12.9436 16.2131 12.9392C16.187 12.9303 16.1507 12.9183 16.1046 12.9039C16.0123 12.8754 15.8808 12.8375 15.7142 12.7972C15.3812 12.7165 14.9063 12.6252 14.3228 12.5771C13.156 12.4809 11.5476 12.5571 9.77507 13.2433L10.2262 14.4089ZM4.58398 13.5416V6.48138H3.33398V13.5416H4.58398ZM15.4173 6.48138V13.5416H16.6673V6.48138H15.4173Z"/>
</mask>
<path d="M3.95898 6.48138L4.24427 5.92529C4.05051 5.82589 3.81899 5.83451 3.63316 5.94803C3.44733 6.06156 3.33398 6.26361 3.33398 6.48138H3.95898ZM16.0423 6.48138H16.6673C16.6673 6.27134 16.5618 6.07535 16.3865 5.95969L16.0423 6.48138ZM3.95898 13.5416H3.33398C3.33398 13.7642 3.45238 13.97 3.64482 14.0819L3.95898 13.5416ZM16.0423 13.5416L15.8247 14.1275C16.0166 14.1988 16.2312 14.1716 16.3992 14.0548C16.5672 13.9379 16.6673 13.7463 16.6673 13.5416H16.0423ZM3.95898 6.48138C3.6737 7.03747 3.67398 7.03761 3.67426 7.03776C3.67437 7.03781 3.67466 7.03796 3.67488 7.03807C3.67531 7.0383 3.67578 7.03854 3.6763 7.0388C3.67734 7.03933 3.67854 7.03994 3.67992 7.04063C3.68266 7.04201 3.68608 7.04371 3.69015 7.04573C3.6983 7.04976 3.70911 7.05501 3.72251 7.06136C3.74929 7.07406 3.78646 7.09114 3.8335 7.11151C3.92753 7.15223 4.06128 7.20621 4.23063 7.26456C4.56891 7.38113 5.0518 7.51606 5.64554 7.59686C6.8359 7.75885 8.47298 7.70281 10.2695 6.84693L9.73182 5.71846C8.19494 6.45067 6.81123 6.49397 5.81409 6.35828C5.31408 6.29024 4.91156 6.17707 4.63787 6.08276C4.50122 6.03567 4.39734 5.99351 4.33024 5.96445C4.29671 5.94993 4.27243 5.93871 4.25793 5.93183C4.25067 5.9284 4.24586 5.92604 4.24356 5.92491C4.24241 5.92434 4.24189 5.92407 4.242 5.92413C4.24206 5.92416 4.24228 5.92427 4.24265 5.92446C4.24284 5.92456 4.24307 5.92467 4.24334 5.92481C4.24348 5.92488 4.24371 5.925 4.24378 5.92503C4.24402 5.92516 4.24427 5.92529 3.95898 6.48138ZM10.2695 6.84693C11.7839 6.12543 13.146 6.17201 14.1332 6.39601C14.629 6.50851 15.0293 6.66587 15.3029 6.79345C15.4394 6.8571 15.5433 6.91288 15.6108 6.95118C15.6445 6.97031 15.6689 6.98502 15.6837 6.99409C15.6911 6.99862 15.696 7.00174 15.6984 7.00329C15.6996 7.00406 15.7002 7.00445 15.7002 7.00442C15.7002 7.00441 15.7 7.00429 15.6997 7.00406C15.6995 7.00396 15.6992 7.00381 15.699 7.00365C15.6989 7.00356 15.6987 7.00342 15.6986 7.00338C15.6984 7.00323 15.6982 7.00307 16.0423 6.48138C16.3865 5.95969 16.3862 5.95951 16.386 5.95934C16.3859 5.95927 16.3856 5.95908 16.3854 5.95895C16.385 5.95867 16.3845 5.95837 16.384 5.95805C16.383 5.95739 16.3818 5.95663 16.3805 5.95576C16.3778 5.95403 16.3745 5.95187 16.3705 5.94931C16.3625 5.9442 16.3517 5.93748 16.3385 5.92931C16.3119 5.91299 16.275 5.89086 16.2281 5.86424C16.1344 5.81102 16.0007 5.73962 15.8312 5.66057C15.4928 5.50276 15.0077 5.31268 14.4098 5.177C13.2095 4.90463 11.5507 4.85187 9.73182 5.71846L10.2695 6.84693ZM3.95898 13.5416C3.64482 14.0819 3.64506 14.082 3.64532 14.0822C3.64542 14.0823 3.64568 14.0824 3.64588 14.0825C3.64628 14.0828 3.64672 14.083 3.6472 14.0833C3.64817 14.0839 3.6493 14.0845 3.65059 14.0853C3.65319 14.0867 3.65646 14.0886 3.66039 14.0908C3.66825 14.0952 3.67875 14.101 3.69184 14.1082C3.71802 14.1224 3.75455 14.1417 3.80093 14.165C3.89364 14.2117 4.02601 14.2745 4.19388 14.3444C4.52918 14.4841 5.00904 14.6535 5.59991 14.7791C6.78259 15.0304 8.42098 15.1078 10.2262 14.4089L9.77507 13.2433C8.24702 13.8348 6.86454 13.7699 5.85973 13.5564C5.35684 13.4495 4.95128 13.3059 4.6746 13.1906C4.53649 13.133 4.43123 13.0829 4.36281 13.0484C4.32863 13.0313 4.30372 13.018 4.28858 13.0098C4.28103 13.0057 4.27592 13.0029 4.27332 13.0014C4.27202 13.0007 4.27135 13.0003 4.27133 13.0003C4.27131 13.0003 4.27145 13.0004 4.27176 13.0005C4.27191 13.0006 4.2721 13.0007 4.27233 13.0009C4.27245 13.0009 4.27266 13.001 4.27272 13.001C4.27293 13.0012 4.27315 13.0013 3.95898 13.5416ZM10.2262 14.4089C11.7871 13.8048 13.1995 13.7388 14.2202 13.8229C14.7304 13.8649 15.1409 13.9444 15.4199 14.012C15.5592 14.0458 15.6654 14.0765 15.7343 14.0979C15.7687 14.1085 15.7939 14.1169 15.8092 14.1221C15.8167 14.1247 15.8219 14.1265 15.8245 14.1274C15.8258 14.1279 15.8265 14.1282 15.8266 14.1282C15.8266 14.1282 15.8264 14.1281 15.8262 14.128C15.826 14.1279 15.8257 14.1279 15.8256 14.1278C15.8254 14.1278 15.8252 14.1277 15.8252 14.1277C15.825 14.1276 15.8247 14.1275 16.0423 13.5416C16.2599 12.9557 16.2597 12.9556 16.2594 12.9555C16.2593 12.9555 16.2591 12.9554 16.2588 12.9553C16.2585 12.9552 16.258 12.955 16.2576 12.9549C16.2566 12.9544 16.2554 12.954 16.2542 12.9536C16.2516 12.9526 16.2483 12.9514 16.2444 12.9501C16.2366 12.9473 16.2261 12.9436 16.2131 12.9392C16.187 12.9303 16.1507 12.9183 16.1046 12.9039C16.0123 12.8754 15.8808 12.8375 15.7142 12.7972C15.3812 12.7165 14.9063 12.6252 14.3228 12.5771C13.156 12.4809 11.5476 12.5571 9.77507 13.2433L10.2262 14.4089ZM4.58398 13.5416V6.48138H3.33398V13.5416H4.58398ZM15.4173 6.48138V13.5416H16.6673V6.48138H15.4173Z" fill="#2E2E2E" stroke="#2E2E2E" stroke-width="2" mask="url(#path-2-inside-1_2948_30362)"/>
</svg>
