<svg width="21" height="20" viewBox="0 0 21 20" fill="none" xmlns="http://www.w3.org/2000/svg">
<path d="M10.5007 15.2083C13.4173 15.2083 16.5423 13.75 16.5423 9.99999C16.5423 6.24999 13.4173 4.79166 10.5007 4.79166C7.58398 4.79166 4.45898 6.24999 4.45898 9.99999C4.45898 10.8582 4.62264 11.5963 4.91001 12.2244C5.08913 12.616 5.18961 13.0477 5.11027 13.4709L4.89177 14.6362C4.78377 15.2122 5.28838 15.7169 5.86441 15.6089L8.53722 15.1077C8.74732 15.0683 8.96273 15.0717 9.17382 15.1052C9.61315 15.1749 10.0593 15.2083 10.5007 15.2083Z" stroke="#4B4B4B" stroke-width="1.5" stroke-linecap="round" stroke-linejoin="round"/>
<path d="M8.41732 10C8.41732 10.2301 8.23077 10.4167 8.00065 10.4167C7.77053 10.4167 7.58398 10.2301 7.58398 10C7.58398 9.76993 7.77053 9.58334 8.00065 9.58334C8.23077 9.58334 8.41732 9.76993 8.41732 10Z" stroke="white" stroke-linecap="round" stroke-linejoin="round"/>
<path d="M10.9173 10C10.9173 10.2301 10.7307 10.4167 10.5007 10.4167C10.2706 10.4167 10.084 10.2301 10.084 10C10.084 9.76993 10.2706 9.58334 10.5007 9.58334C10.7307 9.58334 10.9173 9.76993 10.9173 10Z" stroke="white" stroke-linecap="round" stroke-linejoin="round"/>
<path d="M13.4173 10C13.4173 10.2301 13.2307 10.4167 13.0007 10.4167C12.7706 10.4167 12.584 10.2301 12.584 10C12.584 9.76993 12.7706 9.58334 13.0007 9.58334C13.2307 9.58334 13.4173 9.76993 13.4173 10Z" stroke="white" stroke-linecap="round" stroke-linejoin="round"/>
</svg>
