<svg width="20" height="20" viewBox="0 0 20 20" fill="none" xmlns="http://www.w3.org/2000/svg">
<path d="M14.85 11.3413C13.2667 11.3413 11.9917 12.6246 11.9917 14.1996C11.9917 15.783 13.275 17.058 14.85 17.058C16.4334 17.058 17.7084 15.7746 17.7084 14.1996C17.7084 12.6163 16.425 11.3413 14.85 11.3413Z" stroke="#2FA500" stroke-width="1.5" stroke-linecap="round" stroke-linejoin="round"/>
<path d="M5.14983 11.3413C3.5665 11.3413 2.2915 12.6246 2.2915 14.1996C2.2915 15.783 3.57483 17.058 5.14983 17.058C6.73316 17.058 8.00817 15.7746 8.00817 14.1996C8.00817 12.6163 6.73316 11.3413 5.14983 11.3413Z" stroke="#2FA500" stroke-width="1.5" stroke-linecap="round" stroke-linejoin="round"/>
<path d="M12.8581 5.79974C12.8581 7.38307 11.5748 8.65807 9.99981 8.65807C8.41647 8.65807 7.14148 7.37474 7.14148 5.79974C7.14148 4.21641 8.42481 2.94141 9.99981 2.94141C11.5831 2.94141 12.8581 4.22474 12.8581 5.79974Z" stroke="#2FA500" stroke-width="1.5" stroke-linecap="round" stroke-linejoin="round"/>
</svg>
