<svg width="20" height="20" viewBox="0 0 20 20" fill="none" xmlns="http://www.w3.org/2000/svg">
<path d="M14.85 11.3417C13.2667 11.3417 11.9917 12.625 11.9917 14.2C11.9917 15.7833 13.275 17.0583 14.85 17.0583C16.4334 17.0583 17.7084 15.775 17.7084 14.2C17.7084 12.6167 16.425 11.3417 14.85 11.3417Z" stroke="white" stroke-width="1.5" stroke-linecap="round" stroke-linejoin="round"/>
<path d="M5.14983 11.3416C3.5665 11.3416 2.2915 12.625 2.2915 14.2C2.2915 15.7833 3.57483 17.0583 5.14983 17.0583C6.73316 17.0583 8.00817 15.775 8.00817 14.2C8.00817 12.6166 6.73316 11.3416 5.14983 11.3416Z" stroke="white" stroke-width="1.5" stroke-linecap="round" stroke-linejoin="round"/>
<path d="M12.8583 5.79998C12.8583 7.38332 11.5749 8.65832 9.99993 8.65832C8.4166 8.65832 7.1416 7.37498 7.1416 5.79998C7.1416 4.21665 8.42493 2.94165 9.99993 2.94165C11.5833 2.94165 12.8583 4.22498 12.8583 5.79998Z" stroke="white" stroke-width="1.5" stroke-linecap="round" stroke-linejoin="round"/>
</svg>
