<svg width="16" height="16" viewBox="0 0 16 16" fill="none" xmlns="http://www.w3.org/2000/svg">
<g clip-path="url(#clip0_2942_1628)">
<path d="M8.47083 12.7199H4.15694C2.96348 12.7199 2 11.7564 2 10.5629V8.40597C2 7.2125 2.96348 6.24902 4.15694 6.24902H8.47083C9.6643 6.24902 10.6278 7.2125 10.6278 8.40597V10.5629C10.6216 11.7564 9.65808 12.7199 8.47083 12.7199Z" stroke="#4B4B4B" stroke-width="1.39859" stroke-linecap="round" stroke-linejoin="round"/>
<path d="M10.6216 10.9238L12.5237 11.6387C12.9961 11.8127 13.4934 11.4646 13.4934 10.9674V8.00857C13.4934 7.50507 12.9899 7.15697 12.5237 7.33723L10.6216 8.05206V10.9238Z" stroke="#4B4B4B" stroke-width="1.39859" stroke-linecap="round" stroke-linejoin="round"/>
<path d="M4.44919 5.696C5.33147 5.696 6.0467 4.98076 6.0467 4.09849C6.0467 3.21621 5.33147 2.50098 4.44919 2.50098C3.56691 2.50098 2.85168 3.21621 2.85168 4.09849C2.85168 4.98076 3.56691 5.696 4.44919 5.696Z" stroke="#4B4B4B" stroke-width="1.39859" stroke-linecap="round" stroke-linejoin="round"/>
<path d="M8.17887 5.696C9.06114 5.696 9.77637 4.98076 9.77637 4.09849C9.77637 3.21621 9.06114 2.50098 8.17887 2.50098C7.29659 2.50098 6.58136 3.21621 6.58136 4.09849C6.58136 4.98076 7.29659 5.696 8.17887 5.696Z" stroke="#4B4B4B" stroke-width="1.39859" stroke-linecap="round" stroke-linejoin="round"/>
</g>
<defs>
<clipPath id="clip0_2942_1628">
<rect width="16" height="16" fill="white"/>
</clipPath>
</defs>
</svg>
