<svg width="124" height="124" viewBox="0 0 124 124" fill="none" xmlns="http://www.w3.org/2000/svg">
<g clip-path="url(#clip0_2695_72800)">
<path d="M72.392 114.825C100.895 114.825 124.001 91.7617 124.001 63.3111C124.001 34.8606 100.895 11.7969 72.392 11.7969C43.8892 11.7969 20.7832 34.8606 20.7832 63.3111C20.7832 91.7617 43.8892 114.825 72.392 114.825Z" fill="#EDF9E6"/>
<path d="M83.5824 24.1562V88.6777C83.5824 92.2745 80.8769 95.2993 77.3728 95.674L77.2059 95.6899C77.0848 95.6998 76.9626 95.7068 76.8414 95.7097C76.7987 95.7097 76.755 95.7097 76.7113 95.7097H76.6368C75.7249 95.7097 74.8218 95.5304 73.9792 95.1821C73.1367 94.8337 72.3711 94.3231 71.7263 93.6794C71.0814 93.0358 70.5699 92.2716 70.2209 91.4306C69.8719 90.5896 69.6922 89.6882 69.6922 88.7779V73.311H29.7012V31.0881C29.7014 29.2498 30.4332 27.4868 31.7355 26.1868C33.0378 24.8869 34.804 24.1565 36.6458 24.1562H83.5824Z" fill="white"/>
<path d="M63.1983 40.8501H36.8303C36.3088 40.8501 35.8867 40.2305 35.8867 39.4622C35.8867 38.6968 36.3088 38.0742 36.8303 38.0742H63.1983C63.7198 38.0742 64.1429 38.6938 64.1429 39.4622C64.1429 40.2305 63.7198 40.8501 63.1983 40.8501Z" fill="#2FA500"/>
<path d="M63.1983 48.3384H36.8303C36.3088 48.3384 35.8867 47.7188 35.8867 46.9505C35.8867 46.1851 36.3088 45.5625 36.8303 45.5625H63.1983C63.7198 45.5625 64.1429 46.1821 64.1429 46.9505C64.1429 47.7188 63.7198 48.3384 63.1983 48.3384Z" fill="#2FA500"/>
<path d="M63.1983 55.8228H36.8303C36.3088 55.8228 35.8867 55.2032 35.8867 54.4348C35.8867 53.6705 36.3088 53.0469 36.8303 53.0469H63.1983C63.7198 53.0469 64.1429 53.6675 64.1429 54.4348C64.1429 55.2032 63.7198 55.8228 63.1983 55.8228Z" fill="#88E6FF"/>
<path d="M63.1983 55.8228H36.8303C36.3088 55.8228 35.8867 55.2032 35.8867 54.4348C35.8867 53.6705 36.3088 53.0469 36.8303 53.0469H63.1983C63.7198 53.0469 64.1429 53.6675 64.1429 54.4348C64.1429 55.2032 63.7198 55.8228 63.1983 55.8228Z" fill="#2FA500"/>
<path d="M63.1983 63.3072H36.8303C36.3088 63.3072 35.8867 62.6876 35.8867 61.9192C35.8867 61.1548 36.3088 60.5312 36.8303 60.5312H63.1983C63.7198 60.5312 64.1429 61.1519 64.1429 61.9192C64.1429 62.6876 63.7198 63.3072 63.1983 63.3072Z" fill="#2FA500"/>
<path d="M63.1983 70.7955H36.8303C36.3088 70.7955 35.8867 70.1748 35.8867 69.4075C35.8867 68.6431 36.3088 68.0195 36.8303 68.0195H63.1983C63.7198 68.0195 64.1429 68.6392 64.1429 69.4075C64.1429 70.1748 63.7198 70.7955 63.1983 70.7955Z" fill="#88E6FF"/>
<path d="M63.1983 70.7955H36.8303C36.3088 70.7955 35.8867 70.1748 35.8867 69.4075C35.8867 68.6431 36.3088 68.0195 36.8303 68.0195H63.1983C63.7198 68.0195 64.1429 68.6392 64.1429 69.4075C64.1429 70.1748 63.7198 70.7955 63.1983 70.7955Z" fill="#2FA500"/>
<path d="M63.1983 78.2837H36.8303C36.3088 78.2837 35.8867 77.6631 35.8867 76.8958C35.8867 76.1314 36.3088 75.5078 36.8303 75.5078H63.1983C63.7198 75.5078 64.1429 76.1274 64.1429 76.8958C64.1429 77.6631 63.7198 78.2837 63.1983 78.2837Z" fill="#88E6FF"/>
<path d="M63.1983 85.7681H36.8303C36.3088 85.7681 35.8867 85.1485 35.8867 84.3802C35.8867 83.6158 36.3088 82.9922 36.8303 82.9922H63.1983C63.7198 82.9922 64.1429 83.6118 64.1429 84.3802C64.1429 85.1485 63.7198 85.7681 63.1983 85.7681Z" fill="#88E6FF"/>
<path d="M76.0109 40.8501H68.7753C68.4065 40.8501 68.0528 40.7039 67.792 40.4436C67.5313 40.1833 67.3848 39.8303 67.3848 39.4622C67.3848 39.0941 67.5313 38.741 67.792 38.4807C68.0528 38.2204 68.4065 38.0742 68.7753 38.0742H76.0109C76.3797 38.0742 76.7334 38.2204 76.9941 38.4807C77.2549 38.741 77.4014 39.0941 77.4014 39.4622C77.4014 39.8303 77.2549 40.1833 76.9941 40.4436C76.7334 40.7039 76.3797 40.8501 76.0109 40.8501Z" fill="#2FA500"/>
<path d="M76.0089 45.5703H68.7742C68.0079 45.5703 67.3867 46.1902 67.3867 46.9548C67.3867 47.7194 68.0079 48.3393 68.7742 48.3393H76.0089C76.7752 48.3393 77.3964 47.7194 77.3964 46.9548C77.3964 46.1902 76.7752 45.5703 76.0089 45.5703Z" fill="#2FA500"/>
<path d="M76.0109 55.8228H68.7753C68.4065 55.8228 68.0528 55.6766 67.792 55.4163C67.5313 55.156 67.3848 54.8029 67.3848 54.4348C67.3848 54.0667 67.5313 53.7137 67.792 53.4534C68.0528 53.1931 68.4065 53.0469 68.7753 53.0469H76.0109C76.3797 53.0469 76.7334 53.1931 76.9941 53.4534C77.2549 53.7137 77.4014 54.0667 77.4014 54.4348C77.4014 54.8029 77.2549 55.156 76.9941 55.4163C76.7334 55.6766 76.3797 55.8228 76.0109 55.8228Z" fill="#2FA500"/>
<path d="M68.7753 60.543H76.0109C76.3797 60.543 76.7334 60.6892 76.9941 60.9495C77.2549 61.2098 77.4014 61.5628 77.4014 61.9309C77.4014 62.299 77.2549 62.6521 76.9941 62.9124C76.7334 63.1727 76.3797 63.3189 76.0109 63.3189H68.7753C68.4065 63.3189 68.0528 63.1727 67.792 62.9124C67.5313 62.6521 67.3848 62.299 67.3848 61.9309C67.3848 61.5628 67.5313 61.2098 67.792 60.9495C68.0528 60.6892 68.4065 60.543 68.7753 60.543Z" fill="#2FA500"/>
<path d="M76.0109 70.7955H68.7753C68.4065 70.7955 68.0528 70.6492 67.792 70.3889C67.5313 70.1286 67.3848 69.7756 67.3848 69.4075C67.3848 69.0394 67.5313 68.6863 67.792 68.4261C68.0528 68.1658 68.4065 68.0195 68.7753 68.0195H76.0109C76.3797 68.0195 76.7334 68.1658 76.9941 68.4261C77.2549 68.6863 77.4014 69.0394 77.4014 69.4075C77.4014 69.7756 77.2549 70.1286 76.9941 70.3889C76.7334 70.6492 76.3797 70.7955 76.0109 70.7955Z" fill="#2FA500"/>
<path d="M68.7753 75.5156H76.0109C76.3797 75.5156 76.7334 75.6619 76.9941 75.9222C77.2549 76.1825 77.4014 76.5355 77.4014 76.9036C77.4014 77.2717 77.2549 77.6247 76.9941 77.885C76.7334 78.1453 76.3797 78.2916 76.0109 78.2916H68.7753C68.4065 78.2916 68.0528 78.1453 67.792 77.885C67.5313 77.6247 67.3848 77.2717 67.3848 76.9036C67.3848 76.5355 67.5313 76.1825 67.792 75.9222C68.0528 75.6619 68.4065 75.5156 68.7753 75.5156Z" fill="#2FA500"/>
<path d="M76.0109 85.7681H68.7753C68.4065 85.7681 68.0528 85.6219 67.792 85.3616C67.5313 85.1013 67.3848 84.7483 67.3848 84.3802C67.3848 84.012 67.5313 83.659 67.792 83.3987C68.0528 83.1384 68.4065 82.9922 68.7753 82.9922H76.0109C76.3797 82.9922 76.7334 83.1384 76.9941 83.3987C77.2549 83.659 77.4014 84.012 77.4014 84.3802C77.4014 84.7483 77.2549 85.1013 76.9941 85.3616C76.7334 85.6219 76.3797 85.7681 76.0109 85.7681Z" fill="#2FA500"/>
<path d="M76.6364 95.7182H22.7552C20.9134 95.7179 19.1472 94.9875 17.8449 93.6876C16.5426 92.3877 15.8108 90.6247 15.8105 88.7863V73.3125H69.6918V88.7873C69.6918 90.6258 70.4235 92.3889 71.7258 93.6889C73.0282 94.9889 74.7946 95.7192 76.6364 95.7192V95.7182Z" fill="#2FA500"/>
<path d="M111.363 52.0547V88.7861C111.341 90.6104 110.6 92.3525 109.3 93.6348C108 94.917 106.245 95.6361 104.418 95.6361C102.59 95.6361 100.836 94.917 99.5359 93.6348C98.2359 92.3525 97.4945 90.6104 97.4727 88.7861V52.0547H111.363Z" fill="white"/>
<path d="M104.418 95.7168H76.707H76.8371C76.9583 95.7168 77.0805 95.7069 77.2017 95.697C77.2583 95.697 77.3129 95.688 77.3685 95.6811C79.0734 95.4998 80.6509 94.6954 81.7973 93.4228C82.9437 92.1502 83.578 90.4993 83.5781 88.7879V31.0883C83.6 29.264 84.3413 27.5219 85.6414 26.2397C86.9415 24.9574 88.6955 24.2383 90.5232 24.2383C92.3509 24.2383 94.105 24.9574 95.4051 26.2397C96.7051 27.5219 97.4465 29.264 97.4683 31.0883V88.7879C97.4683 89.6983 97.648 90.5997 97.9971 91.4408C98.3461 92.2819 98.8577 93.0461 99.5027 93.6898C100.148 94.3335 100.913 94.8441 101.756 95.1924C102.599 95.5407 103.502 95.7199 104.414 95.7198L104.418 95.7168Z" fill="#2FA500"/>
<path d="M90.5266 24.1562C88.6849 24.1565 86.9186 24.8869 85.6163 26.1868C84.314 27.4868 83.5823 29.2498 83.582 31.0881V24.1562H90.5266Z" fill="white"/>
<path d="M56.6407 28.624C56.6407 42.6603 45.9904 54.2131 32.3167 55.6704C31.3445 55.7744 30.3675 55.8264 29.3897 55.8261C14.3384 55.8261 2.13672 43.6477 2.13672 28.624C2.13672 13.6003 14.3384 1.42188 29.3897 1.42188C42.6105 1.42188 53.6332 10.8194 56.1163 23.2892C56.4663 25.046 56.642 26.8328 56.6407 28.624Z" fill="white"/>
<path d="M115.327 21.8463C119.308 21.8463 122.535 18.6251 122.535 14.6516C122.535 10.6782 119.308 7.45703 115.327 7.45703C111.346 7.45703 108.119 10.6782 108.119 14.6516C108.119 18.6251 111.346 21.8463 115.327 21.8463Z" fill="#FEB95A"/>
<path d="M9.5213 64.3068C10.0764 61.9594 8.61988 59.6073 6.26817 59.0533C3.91646 58.4992 1.56007 59.953 1.00501 62.3004C0.449958 64.6478 1.90643 66.9999 4.25814 67.554C6.60985 68.108 8.96624 66.6542 9.5213 64.3068Z" fill="#A60096"/>
<path d="M91.6619 116.473C92.5796 112.592 90.1716 108.704 86.2834 107.788C82.3952 106.872 78.4993 109.275 77.5816 113.156C76.6639 117.037 79.0719 120.926 82.9601 121.842C86.8483 122.758 90.7442 120.355 91.6619 116.473Z" fill="#7BBD09"/>
<path d="M40.0868 20.0139C39.8422 19.7699 39.5105 19.6328 39.1647 19.6328C38.8189 19.6328 38.4872 19.7699 38.2427 20.0139L25.7558 32.4779L20.4018 27.1337C20.1573 26.8896 19.8256 26.7525 19.4798 26.7525C19.1339 26.7525 18.8022 26.8896 18.5577 27.1337C18.3132 27.3778 18.1758 27.7089 18.1758 28.0541C18.1758 28.3993 18.3132 28.7304 18.5577 28.9745L24.8227 35.228L24.8286 35.2334L24.8335 35.2387C24.9545 35.3596 25.0983 35.4555 25.2565 35.5209C25.4147 35.5864 25.5843 35.6201 25.7555 35.6201C25.9268 35.6201 26.0963 35.5864 26.2545 35.5209C26.4128 35.4555 26.5565 35.3596 26.6776 35.2387L40.0868 21.8546C40.3312 21.6105 40.4686 21.2794 40.4686 20.9343C40.4686 20.5891 40.3312 20.258 40.0868 20.0139Z" fill="#2FA500"/>
<path d="M76.553 96.1387C75.5526 96.1388 74.5621 95.9422 73.6379 95.5602C72.7137 95.1782 71.874 94.6181 71.1666 93.9121C70.4593 93.2061 69.8982 92.3678 69.5155 91.4453C69.1327 90.5228 68.9358 89.5341 68.936 88.5356V73.732H16.3946V88.5356C16.3964 90.1958 17.0579 91.7874 18.234 92.9613C19.41 94.1352 21.0045 94.7955 22.6677 94.7973H56.5534C56.6439 94.7938 56.7341 94.8086 56.8186 94.8408C56.9032 94.8729 56.9804 94.9218 57.0455 94.9844C57.1107 95.047 57.1626 95.1221 57.198 95.2052C57.2334 95.2883 57.2517 95.3777 57.2517 95.468C57.2517 95.5583 57.2334 95.6477 57.198 95.7308C57.1626 95.8139 57.1107 95.889 57.0455 95.9516C56.9804 96.0142 56.9032 96.0631 56.8186 96.0952C56.7341 96.1274 56.6439 96.1422 56.5534 96.1387H22.6717C20.6522 96.1366 18.716 95.3349 17.288 93.9095C15.86 92.4841 15.0568 90.5514 15.0547 88.5356V73.0618C15.0547 72.884 15.1254 72.7134 15.2513 72.5876C15.3772 72.4617 15.5479 72.3909 15.7261 72.3906H69.6074C69.7857 72.3906 69.9567 72.4613 70.0828 72.5872C70.2089 72.7131 70.2798 72.8838 70.2798 73.0618V88.5356C70.2798 90.1963 70.9407 91.789 72.1171 92.9633C73.2936 94.1376 74.8892 94.7973 76.553 94.7973C76.6434 94.7938 76.7336 94.8086 76.8181 94.8408C76.9027 94.8729 76.9798 94.9218 77.045 94.9844C77.1102 95.047 77.1621 95.1221 77.1975 95.2052C77.233 95.2883 77.2512 95.3777 77.2512 95.468C77.2512 95.5583 77.233 95.6477 77.1975 95.7308C77.1621 95.8139 77.1102 95.889 77.045 95.9516C76.9798 96.0142 76.9027 96.0631 76.8181 96.0952C76.7336 96.1274 76.6434 96.1422 76.553 96.1387Z" fill="#323232"/>
<path d="M29.3053 56.2466C23.7824 56.2466 18.3835 54.6118 13.7913 51.5491C9.19917 48.4863 5.62002 44.1331 3.50649 39.0399C1.39296 33.9468 0.839963 28.3424 1.91743 22.9355C2.9949 17.5286 5.65444 12.5621 9.55974 8.66391C13.465 4.76576 18.4407 2.11109 23.8575 1.03559C29.2743 -0.039907 34.889 0.512077 39.9915 2.62174C45.094 4.7314 49.4552 8.30399 52.5236 12.8877C55.592 17.4715 57.2297 22.8605 57.2297 28.3733C57.2297 28.5513 57.1588 28.722 57.0327 28.8479C56.9066 28.9738 56.7356 29.0445 56.5573 29.0445C56.3789 29.0445 56.2079 28.9738 56.0818 28.8479C55.9557 28.722 55.8849 28.5513 55.8849 28.3733C55.8849 13.7442 43.9662 1.84237 29.3053 1.84237C14.6443 1.84237 2.72569 13.7442 2.72569 28.3733C2.72569 43.0024 14.6443 54.9052 29.3053 54.9052C29.3957 54.9017 29.4859 54.9165 29.5704 54.9487C29.655 54.9808 29.7322 55.0297 29.7974 55.0923C29.8626 55.1549 29.9144 55.23 29.9498 55.3131C29.9853 55.3962 30.0035 55.4856 30.0035 55.5759C30.0035 55.6662 29.9853 55.7556 29.9498 55.8387C29.9144 55.9218 29.8626 55.9969 29.7974 56.0595C29.7322 56.1222 29.655 56.171 29.5704 56.2031C29.4859 56.2353 29.3957 56.2501 29.3053 56.2466Z" fill="#2FA500"/>
<path d="M33.4754 55.9295C33.3063 55.9286 33.1438 55.8641 33.0202 55.749C32.8966 55.6338 32.821 55.4764 32.8085 55.3081C32.796 55.1398 32.8474 54.9729 32.9526 54.8408C33.0578 54.7087 33.209 54.6209 33.3761 54.5951C33.8319 54.5257 34.2918 54.4424 34.7437 54.3492C37.0547 53.8693 39.2908 53.0824 41.3923 52.0095C41.5503 51.9351 41.731 51.925 41.8963 51.9812C42.0616 52.0375 42.1985 52.1558 42.278 52.311C42.3575 52.4662 42.3734 52.6462 42.3223 52.8129C42.2712 52.9796 42.1571 53.1199 42.0042 53.2041C39.7954 54.332 37.445 55.1589 35.0159 55.6628C34.5401 55.762 34.0564 55.8482 33.5777 55.9216C33.5438 55.9266 33.5096 55.9293 33.4754 55.9295Z" fill="#2FA500"/>
<path d="M46.4907 50.1604C46.352 50.1605 46.2167 50.1179 46.1033 50.0382C45.9899 49.9585 45.904 49.8457 45.8574 49.7153C45.8108 49.5849 45.8058 49.4433 45.8431 49.31C45.8804 49.1767 45.9581 49.0581 46.0656 48.9707C47.2774 47.9861 48.4007 46.8977 49.4227 45.7179C49.5409 45.5891 49.7047 45.5113 49.8794 45.5011C50.0541 45.491 50.2259 45.5492 50.3583 45.6634C50.4906 45.7776 50.5732 45.9388 50.5884 46.1128C50.6037 46.2868 50.5503 46.4599 50.4398 46.5953C49.3665 47.8342 48.1867 48.977 46.9138 50.0107C46.7946 50.1083 46.6449 50.1612 46.4907 50.1604Z" fill="#2FA500"/>
<path d="M104.332 96.1362C103.331 96.1364 102.341 95.9398 101.417 95.5577C100.492 95.1757 99.6527 94.6157 98.9454 93.9096C98.238 93.2036 97.677 92.3654 97.2942 91.4429C96.9115 90.5204 96.7146 89.5316 96.7147 88.5332V30.8335C96.7147 29.1728 96.0538 27.5801 94.8773 26.4058C93.7009 25.2315 92.1053 24.5718 90.4415 24.5718C88.7778 24.5718 87.1822 25.2315 86.0057 26.4058C84.8293 27.5801 84.1683 29.1728 84.1683 30.8335V88.5332C84.173 90.4116 83.479 92.2249 82.2207 93.6217C80.9625 95.0185 79.2296 95.8993 77.3578 96.0936C77.3022 96.1005 77.2386 96.1055 77.1741 96.1105C77.0439 96.1214 76.9089 96.1293 76.7768 96.1333H76.6457H76.5791C76.4887 96.1367 76.3985 96.122 76.314 96.0898C76.2294 96.0577 76.1522 96.0088 76.087 95.9462C76.0219 95.8836 75.97 95.8085 75.9345 95.7254C75.8991 95.6423 75.8809 95.5529 75.8809 95.4626C75.8809 95.3723 75.8991 95.2829 75.9345 95.1998C75.97 95.1167 76.0219 95.0416 76.087 94.979C76.1522 94.9163 76.2294 94.8675 76.314 94.8354C76.3985 94.8032 76.4887 94.7884 76.5791 94.7919H76.6278H76.739C76.8503 94.7919 76.9605 94.783 77.0678 94.774C77.1174 94.774 77.1671 94.7661 77.2108 94.7602C78.7537 94.6017 80.1826 93.8768 81.2204 92.7263C82.2582 91.5757 82.8309 90.0814 82.8275 88.5332V30.8335C82.8275 28.8171 83.63 26.8832 85.0585 25.4574C86.4869 24.0315 88.4243 23.2305 90.4445 23.2305C92.4646 23.2305 94.4021 24.0315 95.8305 25.4574C97.259 26.8832 98.0615 28.8171 98.0615 30.8335V88.5332C98.0615 90.1939 98.7224 91.7866 99.8989 92.9609C101.075 94.1352 102.671 94.7949 104.335 94.7949C104.425 94.7914 104.515 94.8062 104.6 94.8383C104.684 94.8705 104.762 94.9193 104.827 94.9819C104.892 95.0445 104.944 95.1197 104.979 95.2028C105.015 95.2859 105.033 95.3752 105.033 95.4656C105.033 95.5559 105.015 95.6452 104.979 95.7283C104.944 95.8114 104.892 95.8866 104.827 95.9492C104.762 96.0118 104.684 96.0606 104.6 96.0928C104.515 96.1249 104.425 96.1397 104.335 96.1362H104.332Z" fill="#110F4C"/>
<path d="M66.0616 96.1387H61.2842C61.1938 96.1422 61.1036 96.1274 61.019 96.0953C60.9345 96.0632 60.8573 96.0143 60.7921 95.9517C60.7269 95.8891 60.675 95.814 60.6396 95.7309C60.6042 95.6478 60.5859 95.5584 60.5859 95.4681C60.5859 95.3777 60.6042 95.2884 60.6396 95.2053C60.675 95.1222 60.7269 95.0471 60.7921 94.9844C60.8573 94.9218 60.9345 94.873 61.019 94.8408C61.1036 94.8087 61.1938 94.7939 61.2842 94.7974H66.0616C66.152 94.7939 66.2422 94.8087 66.3267 94.8408C66.4113 94.873 66.4885 94.9218 66.5537 94.9844C66.6189 95.0471 66.6707 95.1222 66.7062 95.2053C66.7416 95.2884 66.7598 95.3777 66.7598 95.4681C66.7598 95.5584 66.7416 95.6478 66.7062 95.7309C66.6707 95.814 66.6189 95.8891 66.5537 95.9517C66.4885 96.0143 66.4113 96.0632 66.3267 96.0953C66.2422 96.1274 66.152 96.1422 66.0616 96.1387Z" fill="#110F4C"/>
</g>
<defs>
<clipPath id="clip0_2695_72800">
<rect width="124.001" height="123" fill="white" transform="translate(0 0.5)"/>
</clipPath>
</defs>
</svg>
