<svg width="125" height="123" viewBox="0 0 125 123" fill="none" xmlns="http://www.w3.org/2000/svg">
<g clip-path="url(#clip0_2695_68647)">
<path d="M72.89 114.325C101.393 114.325 124.499 91.2617 124.499 62.8111C124.499 34.3606 101.393 11.2969 72.89 11.2969C44.3873 11.2969 21.2812 34.3606 21.2812 62.8111C21.2812 91.2617 44.3873 114.325 72.89 114.325Z" fill="#EDF9E6"/>
<path d="M84.0844 23.6562V88.1777C84.0844 91.7745 81.3788 94.7993 77.8748 95.174L77.7079 95.1899C77.5867 95.1998 77.4645 95.2068 77.3434 95.2097C77.3007 95.2097 77.257 95.2097 77.2133 95.2097H77.1388C76.2268 95.2097 75.3237 95.0304 74.4812 94.6821C73.6386 94.3337 72.8731 93.8231 72.2282 93.1794C71.5833 92.5358 71.0718 91.7716 70.7228 90.9306C70.3738 90.0896 70.1942 89.1882 70.1942 88.2779V72.811H30.2031V30.5881C30.2034 28.7498 30.9351 26.9868 32.2374 25.6868C33.5397 24.3869 35.306 23.6565 37.1477 23.6562H84.0844Z" fill="white"/>
<path d="M63.6983 40.3501H37.3303C36.8088 40.3501 36.3867 39.7305 36.3867 38.9622C36.3867 38.1968 36.8088 37.5742 37.3303 37.5742H63.6983C64.2198 37.5742 64.6429 38.1938 64.6429 38.9622C64.6429 39.7305 64.2198 40.3501 63.6983 40.3501Z" fill="#2FA500"/>
<path d="M63.6983 47.8384H37.3303C36.8088 47.8384 36.3867 47.2188 36.3867 46.4505C36.3867 45.6851 36.8088 45.0625 37.3303 45.0625H63.6983C64.2198 45.0625 64.6429 45.6821 64.6429 46.4505C64.6429 47.2188 64.2198 47.8384 63.6983 47.8384Z" fill="#2FA500"/>
<path d="M63.6983 55.3228H37.3303C36.8088 55.3228 36.3867 54.7032 36.3867 53.9348C36.3867 53.1705 36.8088 52.5469 37.3303 52.5469H63.6983C64.2198 52.5469 64.6429 53.1675 64.6429 53.9348C64.6429 54.7032 64.2198 55.3228 63.6983 55.3228Z" fill="#88E6FF"/>
<path d="M63.6983 55.3228H37.3303C36.8088 55.3228 36.3867 54.7032 36.3867 53.9348C36.3867 53.1705 36.8088 52.5469 37.3303 52.5469H63.6983C64.2198 52.5469 64.6429 53.1675 64.6429 53.9348C64.6429 54.7032 64.2198 55.3228 63.6983 55.3228Z" fill="#2FA500"/>
<path d="M63.6983 62.8072H37.3303C36.8088 62.8072 36.3867 62.1876 36.3867 61.4192C36.3867 60.6548 36.8088 60.0312 37.3303 60.0312H63.6983C64.2198 60.0312 64.6429 60.6519 64.6429 61.4192C64.6429 62.1876 64.2198 62.8072 63.6983 62.8072Z" fill="#2FA500"/>
<path d="M63.6983 70.2955H37.3303C36.8088 70.2955 36.3867 69.6748 36.3867 68.9075C36.3867 68.1431 36.8088 67.5195 37.3303 67.5195H63.6983C64.2198 67.5195 64.6429 68.1392 64.6429 68.9075C64.6429 69.6748 64.2198 70.2955 63.6983 70.2955Z" fill="#88E6FF"/>
<path d="M63.6983 70.2955H37.3303C36.8088 70.2955 36.3867 69.6748 36.3867 68.9075C36.3867 68.1431 36.8088 67.5195 37.3303 67.5195H63.6983C64.2198 67.5195 64.6429 68.1392 64.6429 68.9075C64.6429 69.6748 64.2198 70.2955 63.6983 70.2955Z" fill="#2FA500"/>
<path d="M63.6983 77.7837H37.3303C36.8088 77.7837 36.3867 77.1631 36.3867 76.3958C36.3867 75.6314 36.8088 75.0078 37.3303 75.0078H63.6983C64.2198 75.0078 64.6429 75.6274 64.6429 76.3958C64.6429 77.1631 64.2198 77.7837 63.6983 77.7837Z" fill="#88E6FF"/>
<path d="M63.6983 85.2681H37.3303C36.8088 85.2681 36.3867 84.6485 36.3867 83.8802C36.3867 83.1158 36.8088 82.4922 37.3303 82.4922H63.6983C64.2198 82.4922 64.6429 83.1118 64.6429 83.8802C64.6429 84.6485 64.2198 85.2681 63.6983 85.2681Z" fill="#88E6FF"/>
<path d="M76.5089 40.3501H69.2733C68.9045 40.3501 68.5509 40.2039 68.2901 39.9436C68.0293 39.6833 67.8828 39.3303 67.8828 38.9622C67.8828 38.5941 68.0293 38.241 68.2901 37.9807C68.5509 37.7204 68.9045 37.5742 69.2733 37.5742H76.5089C76.8777 37.5742 77.2314 37.7204 77.4922 37.9807C77.7529 38.241 77.8995 38.5941 77.8995 38.9622C77.8995 39.3303 77.7529 39.6833 77.4922 39.9436C77.2314 40.2039 76.8777 40.3501 76.5089 40.3501Z" fill="#2FA500"/>
<path d="M76.5089 45.0703H69.2742C68.5079 45.0703 67.8867 45.6902 67.8867 46.4548C67.8867 47.2194 68.5079 47.8393 69.2742 47.8393H76.5089C77.2752 47.8393 77.8964 47.2194 77.8964 46.4548C77.8964 45.6902 77.2752 45.0703 76.5089 45.0703Z" fill="#2FA500"/>
<path d="M76.5089 55.3228H69.2733C68.9045 55.3228 68.5509 55.1766 68.2901 54.9163C68.0293 54.656 67.8828 54.3029 67.8828 53.9348C67.8828 53.5667 68.0293 53.2137 68.2901 52.9534C68.5509 52.6931 68.9045 52.5469 69.2733 52.5469H76.5089C76.8777 52.5469 77.2314 52.6931 77.4922 52.9534C77.7529 53.2137 77.8995 53.5667 77.8995 53.9348C77.8995 54.3029 77.7529 54.656 77.4922 54.9163C77.2314 55.1766 76.8777 55.3228 76.5089 55.3228Z" fill="#2FA500"/>
<path d="M69.2733 60.043H76.5089C76.8777 60.043 77.2314 60.1892 77.4922 60.4495C77.7529 60.7098 77.8995 61.0628 77.8995 61.4309C77.8995 61.799 77.7529 62.1521 77.4922 62.4124C77.2314 62.6727 76.8777 62.8189 76.5089 62.8189H69.2733C68.9045 62.8189 68.5509 62.6727 68.2901 62.4124C68.0293 62.1521 67.8828 61.799 67.8828 61.4309C67.8828 61.0628 68.0293 60.7098 68.2901 60.4495C68.5509 60.1892 68.9045 60.043 69.2733 60.043Z" fill="#2FA500"/>
<path d="M76.5089 70.2955H69.2733C68.9045 70.2955 68.5509 70.1492 68.2901 69.8889C68.0293 69.6286 67.8828 69.2756 67.8828 68.9075C67.8828 68.5394 68.0293 68.1863 68.2901 67.9261C68.5509 67.6658 68.9045 67.5195 69.2733 67.5195H76.5089C76.8777 67.5195 77.2314 67.6658 77.4922 67.9261C77.7529 68.1863 77.8995 68.5394 77.8995 68.9075C77.8995 69.2756 77.7529 69.6286 77.4922 69.8889C77.2314 70.1492 76.8777 70.2955 76.5089 70.2955Z" fill="#2FA500"/>
<path d="M69.2733 75.0156H76.5089C76.8777 75.0156 77.2314 75.1619 77.4922 75.4222C77.7529 75.6825 77.8995 76.0355 77.8995 76.4036C77.8995 76.7717 77.7529 77.1247 77.4922 77.385C77.2314 77.6453 76.8777 77.7916 76.5089 77.7916H69.2733C68.9045 77.7916 68.5509 77.6453 68.2901 77.385C68.0293 77.1247 67.8828 76.7717 67.8828 76.4036C67.8828 76.0355 68.0293 75.6825 68.2901 75.4222C68.5509 75.1619 68.9045 75.0156 69.2733 75.0156Z" fill="#2FA500"/>
<path d="M76.5089 85.2681H69.2733C68.9045 85.2681 68.5509 85.1219 68.2901 84.8616C68.0293 84.6013 67.8828 84.2483 67.8828 83.8802C67.8828 83.512 68.0293 83.159 68.2901 82.8987C68.5509 82.6384 68.9045 82.4922 69.2733 82.4922H76.5089C76.8777 82.4922 77.2314 82.6384 77.4922 82.8987C77.7529 83.159 77.8995 83.512 77.8995 83.8802C77.8995 84.2483 77.7529 84.6013 77.4922 84.8616C77.2314 85.1219 76.8777 85.2681 76.5089 85.2681Z" fill="#2FA500"/>
<path d="M77.1384 95.2182H23.2571C21.4154 95.2179 19.6491 94.4875 18.3468 93.1876C17.0445 91.8877 16.3128 90.1247 16.3125 88.2863V72.8125H70.1938V88.2873C70.1938 90.1258 70.9254 91.8889 72.2278 93.1889C73.5302 94.4889 75.2966 95.2192 77.1384 95.2192V95.2182Z" fill="#2FA500"/>
<path d="M111.863 51.5547V88.2861C111.841 90.1104 111.1 91.8525 109.8 93.1348C108.5 94.417 106.745 95.1361 104.918 95.1361C103.09 95.1361 101.336 94.417 100.036 93.1348C98.7359 91.8525 97.9945 90.1104 97.9727 88.2861V51.5547H111.863Z" fill="white"/>
<path d="M104.918 95.2168H77.207H77.3371C77.4583 95.2168 77.5805 95.2069 77.7017 95.197C77.7583 95.197 77.8129 95.188 77.8685 95.1811C79.5734 94.9998 81.1509 94.1954 82.2973 92.9228C83.4437 91.6502 84.078 89.9993 84.0781 88.2879V30.5883C84.1 28.764 84.8413 27.0219 86.1414 25.7397C87.4415 24.4574 89.1955 23.7383 91.0232 23.7383C92.8509 23.7383 94.605 24.4574 95.9051 25.7397C97.2051 27.0219 97.9465 28.764 97.9683 30.5883V88.2879C97.9683 89.1983 98.148 90.0997 98.4971 90.9408C98.8461 91.7819 99.3577 92.5461 100.003 93.1898C100.648 93.8335 101.413 94.3441 102.256 94.6924C103.099 95.0407 104.002 95.2199 104.914 95.2198L104.918 95.2168Z" fill="#2FA500"/>
<path d="M91.0266 23.6562C89.1849 23.6565 87.4186 24.3869 86.1163 25.6868C84.814 26.9868 84.0823 28.7498 84.082 30.5881V23.6562H91.0266Z" fill="white"/>
<path d="M57.1407 28.124C57.1407 42.1603 46.4904 53.7131 32.8167 55.1704C31.8445 55.2744 30.8675 55.3264 29.8897 55.3261C14.8384 55.3261 2.63672 43.1477 2.63672 28.124C2.63672 13.1003 14.8384 0.921875 29.8897 0.921875C43.1105 0.921875 54.1332 10.3194 56.6163 22.7892C56.9663 24.546 57.142 26.3328 57.1407 28.124Z" fill="white"/>
<path d="M115.825 21.3463C119.806 21.3463 123.033 18.1251 123.033 14.1516C123.033 10.1782 119.806 6.95703 115.825 6.95703C111.844 6.95703 108.617 10.1782 108.617 14.1516C108.617 18.1251 111.844 21.3463 115.825 21.3463Z" fill="#FEB95A"/>
<path d="M10.0213 63.8068C10.5764 61.4594 9.11988 59.1073 6.76817 58.5533C4.41646 57.9992 2.06007 59.453 1.50501 61.8004C0.949958 64.1478 2.40643 66.4999 4.75814 67.054C7.10985 67.608 9.46624 66.1542 10.0213 63.8068Z" fill="#A60096"/>
<path d="M92.1639 115.973C93.0816 112.092 90.6735 108.204 86.7853 107.288C82.8971 106.372 79.0012 108.775 78.0835 112.656C77.1658 116.537 79.5739 120.426 83.4621 121.342C87.3503 122.258 91.2462 119.855 92.1639 115.973Z" fill="#7BBD09"/>
<path d="M40.5868 19.5139C40.3422 19.2699 40.0105 19.1328 39.6647 19.1328C39.3189 19.1328 38.9872 19.2699 38.7427 19.5139L26.2558 31.9779L20.9018 26.6337C20.6573 26.3896 20.3256 26.2525 19.9798 26.2525C19.6339 26.2525 19.3022 26.3896 19.0577 26.6337C18.8132 26.8778 18.6758 27.2089 18.6758 27.5541C18.6758 27.8993 18.8132 28.2304 19.0577 28.4745L25.3227 34.728L25.3286 34.7334L25.3335 34.7387C25.4545 34.8596 25.5983 34.9555 25.7565 35.0209C25.9147 35.0864 26.0843 35.1201 26.2555 35.1201C26.4268 35.1201 26.5963 35.0864 26.7545 35.0209C26.9128 34.9555 27.0565 34.8596 27.1776 34.7387L40.5868 21.3546C40.8312 21.1105 40.9686 20.7794 40.9686 20.4343C40.9686 20.0891 40.8312 19.758 40.5868 19.5139Z" fill="#2FA500"/>
<path d="M77.053 95.6387C76.0526 95.6388 75.0621 95.4422 74.1379 95.0602C73.2137 94.6782 72.374 94.1181 71.6666 93.4121C70.9593 92.7061 70.3982 91.8678 70.0155 90.9453C69.6327 90.0228 69.4358 89.0341 69.436 88.0356V73.232H16.8946V88.0356C16.8964 89.6958 17.5579 91.2874 18.734 92.4613C19.91 93.6352 21.5045 94.2955 23.1677 94.2973H57.0534C57.1439 94.2938 57.2341 94.3086 57.3186 94.3408C57.4032 94.3729 57.4804 94.4218 57.5455 94.4844C57.6107 94.547 57.6626 94.6221 57.698 94.7052C57.7334 94.7883 57.7517 94.8777 57.7517 94.968C57.7517 95.0583 57.7334 95.1477 57.698 95.2308C57.6626 95.3139 57.6107 95.389 57.5455 95.4516C57.4804 95.5142 57.4032 95.5631 57.3186 95.5952C57.2341 95.6274 57.1439 95.6422 57.0534 95.6387H23.1717C21.1522 95.6366 19.216 94.8349 17.788 93.4095C16.36 91.9841 15.5568 90.0514 15.5547 88.0356V72.5618C15.5547 72.384 15.6254 72.2134 15.7513 72.0876C15.8772 71.9617 16.0479 71.8909 16.2261 71.8906H70.1074C70.2857 71.8906 70.4567 71.9613 70.5828 72.0872C70.7089 72.2131 70.7798 72.3838 70.7798 72.5618V88.0356C70.7798 89.6963 71.4407 91.289 72.6171 92.4633C73.7936 93.6376 75.3892 94.2973 77.053 94.2973C77.1434 94.2938 77.2336 94.3086 77.3181 94.3408C77.4027 94.3729 77.4798 94.4218 77.545 94.4844C77.6102 94.547 77.6621 94.6221 77.6975 94.7052C77.733 94.7883 77.7512 94.8777 77.7512 94.968C77.7512 95.0583 77.733 95.1477 77.6975 95.2308C77.6621 95.3139 77.6102 95.389 77.545 95.4516C77.4798 95.5142 77.4027 95.5631 77.3181 95.5952C77.2336 95.6274 77.1434 95.6422 77.053 95.6387Z" fill="#323232"/>
<path d="M29.8072 55.7466C24.2843 55.7466 18.8854 54.1118 14.2933 51.0491C9.70112 47.9863 6.12197 43.6331 4.00844 38.5399C1.89491 33.4468 1.34192 27.8424 2.41939 22.4355C3.49686 17.0286 6.1564 12.0621 10.0617 8.16391C13.967 4.26576 18.9426 1.61109 24.3595 0.53559C29.7763 -0.539907 35.3909 0.0120773 40.4934 2.12174C45.596 4.2314 49.9572 7.80399 53.0255 12.3877C56.0939 16.9715 57.7316 22.3605 57.7316 27.8733C57.7316 28.0513 57.6608 28.222 57.5347 28.3479C57.4086 28.4738 57.2376 28.5445 57.0592 28.5445C56.8809 28.5445 56.7099 28.4738 56.5838 28.3479C56.4577 28.222 56.3868 28.0513 56.3868 27.8733C56.3868 13.2442 44.4682 1.34237 29.8072 1.34237C15.1463 1.34237 3.22764 13.2442 3.22764 27.8733C3.22764 42.5024 15.1463 54.4052 29.8072 54.4052C29.8977 54.4017 29.9878 54.4165 30.0724 54.4487C30.1569 54.4808 30.2341 54.5297 30.2993 54.5923C30.3645 54.6549 30.4164 54.73 30.4518 54.8131C30.4872 54.8962 30.5055 54.9856 30.5055 55.0759C30.5055 55.1662 30.4872 55.2556 30.4518 55.3387C30.4164 55.4218 30.3645 55.4969 30.2993 55.5595C30.2341 55.6222 30.1569 55.671 30.0724 55.7031C29.9878 55.7353 29.8977 55.7501 29.8072 55.7466Z" fill="#2FA500"/>
<path d="M33.9734 55.4295C33.8043 55.4286 33.6418 55.3641 33.5182 55.249C33.3946 55.1338 33.3191 54.9764 33.3065 54.8081C33.294 54.6398 33.3455 54.4729 33.4506 54.3408C33.5558 54.2087 33.707 54.1209 33.8741 54.0951C34.33 54.0257 34.7899 53.9424 35.2418 53.8492C37.5527 53.3693 39.7888 52.5824 41.8904 51.5095C42.0483 51.4351 42.2291 51.425 42.3944 51.4812C42.5597 51.5375 42.6966 51.6558 42.7761 51.811C42.8556 51.9662 42.8714 52.1462 42.8203 52.3129C42.7692 52.4796 42.6551 52.6199 42.5022 52.7041C40.2934 53.832 37.943 54.6589 35.5139 55.1628C35.0382 55.262 34.5545 55.3482 34.0757 55.4216C34.0419 55.4266 34.0077 55.4293 33.9734 55.4295Z" fill="#2FA500"/>
<path d="M46.9927 49.6604C46.854 49.6605 46.7186 49.6179 46.6052 49.5382C46.4918 49.4585 46.4059 49.3457 46.3593 49.2153C46.3127 49.0849 46.3077 48.9433 46.345 48.81C46.3823 48.6767 46.4601 48.5581 46.5676 48.4707C47.7794 47.4861 48.9027 46.3977 49.9246 45.2179C50.0428 45.0891 50.2067 45.0113 50.3813 45.0011C50.556 44.991 50.7278 45.0492 50.8602 45.1634C50.9926 45.2776 51.0752 45.4388 51.0904 45.6128C51.1056 45.7868 51.0523 45.9599 50.9417 46.0953C49.8684 47.3342 48.6886 48.477 47.4158 49.5107C47.2965 49.6083 47.1469 49.6612 46.9927 49.6604Z" fill="#2FA500"/>
<path d="M104.834 95.6362C103.833 95.6364 102.843 95.4398 101.919 95.0577C100.994 94.6757 100.155 94.1157 99.4473 93.4096C98.74 92.7036 98.1789 91.8654 97.7962 90.9429C97.4134 90.0204 97.2165 89.0316 97.2166 88.0332V30.3335C97.2166 28.6728 96.5557 27.0801 95.3793 25.9058C94.2028 24.7315 92.6072 24.0718 90.9435 24.0718C89.2797 24.0718 87.6841 24.7315 86.5077 25.9058C85.3312 27.0801 84.6703 28.6728 84.6703 30.3335V88.0332C84.6749 89.9116 83.9809 91.7249 82.7227 93.1217C81.4644 94.5185 79.7315 95.3993 77.8598 95.5936C77.8041 95.6005 77.7406 95.6055 77.676 95.6105C77.5459 95.6214 77.4108 95.6293 77.2787 95.6333H77.1476H77.0811C76.9907 95.6367 76.9005 95.622 76.8159 95.5898C76.7314 95.5577 76.6542 95.5088 76.589 95.4462C76.5238 95.3836 76.4719 95.3085 76.4365 95.2254C76.4011 95.1423 76.3828 95.0529 76.3828 94.9626C76.3828 94.8723 76.4011 94.7829 76.4365 94.6998C76.4719 94.6167 76.5238 94.5416 76.589 94.479C76.6542 94.4163 76.7314 94.3675 76.8159 94.3354C76.9005 94.3032 76.9907 94.2884 77.0811 94.2919H77.1297H77.241C77.3522 94.2919 77.4625 94.283 77.5697 94.274C77.6194 94.274 77.669 94.2661 77.7127 94.2602C79.2556 94.1017 80.6846 93.3768 81.7224 92.2263C82.7602 91.0757 83.3329 89.5814 83.3294 88.0332V30.3335C83.3294 28.3171 84.1319 26.3832 85.5604 24.9574C86.9889 23.5315 88.9263 22.7305 90.9464 22.7305C92.9666 22.7305 94.904 23.5315 96.3325 24.9574C97.7609 26.3832 98.5635 28.3171 98.5635 30.3335V88.0332C98.5635 89.6939 99.2244 91.2866 100.401 92.4609C101.577 93.6352 103.173 94.2949 104.837 94.2949C104.927 94.2914 105.017 94.3062 105.102 94.3383C105.186 94.3705 105.264 94.4193 105.329 94.4819C105.394 94.5445 105.446 94.6197 105.481 94.7028C105.517 94.7859 105.535 94.8752 105.535 94.9656C105.535 95.0559 105.517 95.1452 105.481 95.2283C105.446 95.3114 105.394 95.3866 105.329 95.4492C105.264 95.5118 105.186 95.5606 105.102 95.5928C105.017 95.6249 104.927 95.6397 104.837 95.6362H104.834Z" fill="#110F4C"/>
<path d="M66.5616 95.6387H61.7842C61.6938 95.6422 61.6036 95.6274 61.519 95.5953C61.4345 95.5632 61.3573 95.5143 61.2921 95.4517C61.2269 95.3891 61.175 95.314 61.1396 95.2309C61.1042 95.1478 61.0859 95.0584 61.0859 94.9681C61.0859 94.8777 61.1042 94.7884 61.1396 94.7053C61.175 94.6222 61.2269 94.5471 61.2921 94.4844C61.3573 94.4218 61.4345 94.373 61.519 94.3408C61.6036 94.3087 61.6938 94.2939 61.7842 94.2974H66.5616C66.652 94.2939 66.7422 94.3087 66.8267 94.3408C66.9113 94.373 66.9885 94.4218 67.0537 94.4844C67.1189 94.5471 67.1707 94.6222 67.2062 94.7053C67.2416 94.7884 67.2598 94.8777 67.2598 94.9681C67.2598 95.0584 67.2416 95.1478 67.2062 95.2309C67.1707 95.314 67.1189 95.3891 67.0537 95.4517C66.9885 95.5143 66.9113 95.5632 66.8267 95.5953C66.7422 95.6274 66.652 95.6422 66.5616 95.6387Z" fill="#110F4C"/>
</g>
<defs>
<clipPath id="clip0_2695_68647">
<rect width="124.001" height="123" fill="white" transform="translate(0.5)"/>
</clipPath>
</defs>
</svg>
