<svg width="198" height="176" viewBox="0 0 198 176" fill="none" xmlns="http://www.w3.org/2000/svg">
<path d="M39.9081 174.071H155.92C159.108 174.079 162.182 172.874 164.525 170.698C174.298 161.595 182.116 150.577 187.499 138.322C192.882 126.066 195.716 112.833 195.826 99.4344C196.327 44.9553 152.306 0.128851 98.1515 0.000280407C43.9659 -0.128363 6.43157e-05 44.0232 6.43157e-05 98.5054C-0.0154055 112.066 2.76001 125.482 8.15156 137.91C13.5431 150.338 21.434 161.509 31.3274 170.718C33.6652 172.884 36.73 174.082 39.9081 174.071Z" fill="#DBFFCC"/>
<path d="M134.819 5.61523H134.819C142.899 5.61523 150.648 8.82495 156.362 14.5383C162.075 20.2516 165.285 28.0006 165.285 36.0805V79.8071C165.285 80.8087 165.087 81.8006 164.704 82.726C164.321 83.6514 163.759 84.4923 163.051 85.2005C162.342 85.9088 161.502 86.4707 160.576 86.854C159.651 87.2373 158.659 87.4346 157.657 87.4346H111.982C109.959 87.4346 108.019 86.631 106.588 85.2006C105.158 83.7701 104.354 81.83 104.354 79.8071V36.0805C104.354 28.0006 107.564 20.2516 113.277 14.5383C118.991 8.82497 126.739 5.61525 134.819 5.61525L134.819 5.61523Z" fill="white" stroke="#C2C2C2" stroke-width="2.71987" stroke-linecap="round" stroke-linejoin="round"/>
<path d="M84.4391 36.2916H154.758C156.683 36.2916 158.243 37.8522 158.243 39.7774V82.5906C158.243 84.5158 156.683 86.0764 154.758 86.0764H84.4391C82.514 86.0764 80.9533 84.5158 80.9533 82.5906V39.7774C80.9533 37.8522 82.514 36.2916 84.4391 36.2916Z" fill="white" stroke="#C2C2C2" stroke-width="2.71987"/>
<path d="M112.918 43.123H93.8572C92.8032 43.123 91.9487 43.9775 91.9487 45.0315V45.0315C91.9487 46.0855 92.8032 46.94 93.8572 46.94H112.918C113.972 46.94 114.826 46.0855 114.826 45.0315C114.826 43.9775 113.972 43.123 112.918 43.123Z" fill="#C2C2C2"/>
<path d="M107.766 50.5996H93.8572C92.8032 50.5996 91.9487 51.454 91.9487 52.5081V52.5081C91.9487 53.5621 92.8032 54.4165 93.8572 54.4165H107.766C108.82 54.4165 109.674 53.5621 109.674 52.5081C109.674 51.454 108.82 50.5996 107.766 50.5996Z" fill="#C2C2C2"/>
<path d="M134.303 67.9492H93.8572C92.8032 67.9492 91.9487 68.8037 91.9487 69.8577V69.8577C91.9487 70.9117 92.8032 71.7661 93.8572 71.7661H134.303C135.357 71.7661 136.212 70.9117 136.212 69.8577C136.212 68.8037 135.357 67.9492 134.303 67.9492Z" fill="#C2C2C2"/>
<path d="M124.336 75.4258H93.8572C92.8032 75.4258 91.9487 76.2802 91.9487 77.3342V77.3342C91.9487 78.3882 92.8032 79.2427 93.8572 79.2427H124.336C125.39 79.2427 126.244 78.3882 126.244 77.3342C126.244 76.2802 125.39 75.4258 124.336 75.4258Z" fill="#C2C2C2"/>
<path d="M90.0308 63.5527H78.9457V173.792H90.0308V63.5527Z" fill="white" stroke="#C2C2C2" stroke-width="2.71987" stroke-linecap="round" stroke-linejoin="round"/>
<path d="M98.1177 63.5527H90.0304V173.792H98.1177V63.5527Z" fill="white" stroke="#C2C2C2" stroke-width="2.71987" stroke-linecap="round" stroke-linejoin="round"/>
<path d="M104.354 79.8071V36.0805C104.355 28.2442 107.375 20.7095 112.787 15.0423C118.199 9.37523 125.587 6.01166 133.415 5.65074H52.4558C51.9894 5.62948 51.5213 5.61523 51.0498 5.61523H51.0498C42.9699 5.61525 35.2209 8.82497 29.5076 14.5383C23.7943 20.2516 20.5845 28.0006 20.5845 36.0805V79.807C20.5845 80.8087 20.7818 81.8005 21.1652 82.7259C21.5485 83.6513 22.1103 84.4921 22.8186 85.2004C23.5269 85.9087 24.3677 86.4705 25.2931 86.8538C26.2185 87.2371 27.2104 87.4344 28.212 87.4344H111.98C109.958 87.4341 108.018 86.6304 106.588 85.2C105.158 83.7697 104.354 81.8298 104.354 79.8071Z" fill="white" stroke="#C2C2C2" stroke-width="2.71987" stroke-linecap="round" stroke-linejoin="round"/>
<path d="M191.955 87.4355H112.47C110.236 87.4355 108.425 89.2465 108.425 91.4804C108.425 93.7143 110.236 95.5253 112.47 95.5253H191.955C194.189 95.5253 196 93.7143 196 91.4804C196 89.2465 194.189 87.4355 191.955 87.4355Z" fill="white" stroke="#C2C2C2" stroke-width="2.71987" stroke-linecap="round" stroke-linejoin="round"/>
<path d="M59.6226 66.5371C63.0809 66.5371 65.8844 63.7337 65.8844 60.2754C65.8844 56.8171 63.0809 54.0137 59.6226 54.0137C56.1644 54.0137 53.3609 56.8171 53.3609 60.2754C53.3609 63.7337 56.1644 66.5371 59.6226 66.5371Z" fill="white" stroke="#C2C2C2" stroke-width="2.71987" stroke-linecap="round" stroke-linejoin="round"/>
<path d="M59.6237 26.8164H59.6237C58.4062 26.8164 57.4193 27.8034 57.4193 29.0208V59.7357C57.4193 60.9532 58.4062 61.9402 59.6237 61.9402C60.8411 61.9402 61.8281 60.9532 61.8281 59.7357V29.0208C61.8281 27.8034 60.8411 26.8164 59.6237 26.8164Z" fill="white" stroke="#C2C2C2" stroke-width="2.71987" stroke-linecap="round" stroke-linejoin="round"/>
<path d="M45.2904 20.7891H60.8841C61.4315 20.7891 61.9566 21.0065 62.3437 21.3937C62.7308 21.7808 62.9483 22.3058 62.9483 22.8533V41.3728C62.9483 41.9203 62.7308 42.4453 62.3437 42.8324C61.9566 43.2195 61.4315 43.437 60.8841 43.437H45.2904C42.2871 43.437 39.4068 42.244 37.2831 40.1203C35.1595 37.9967 33.9664 35.1164 33.9664 32.1131C33.9664 29.1097 35.1595 26.2295 37.2831 24.1058C39.4068 21.9821 42.2871 20.7891 45.2904 20.7891V20.7891Z" fill="#2FA500"/>
</svg>
