<svg width="159" height="34" viewBox="0 0 159 34" fill="none" xmlns="http://www.w3.org/2000/svg">
<path d="M28.1756 0H25.4186C24.2725 0 23.1734 0.453202 22.3629 1.25991C21.5525 2.06661 21.0972 3.16073 21.0972 4.30159V10.1517L21.0367 10.0915V10.1776L18.4439 7.5966L14.1226 3.29501L7.20838 10.1776V10.0915L7.14788 10.1517V3.98327C7.14788 2.92684 6.72628 1.91368 5.97584 1.16667C5.2254 0.419665 4.20758 0 3.14629 0L0.078125 0V20.2089C0.078125 21.263 0.498809 22.274 1.24763 23.0194C1.99645 23.7648 3.01207 24.1835 4.07107 24.1835H7.14788V18.8582L14.1226 11.8552L21.1059 18.8582V24.1835H23.8629C25.009 24.1835 26.1082 23.7303 26.9186 22.9236C27.729 22.1169 28.1843 21.0228 28.1843 19.8819L28.1756 0ZM0.449762 18.428V17.4214L6.77624 11.1325V18.428H0.449762ZM21.4775 18.428V11.1325L27.7954 17.4214V18.428H21.4775Z" fill="#F0FFEB"/>
<path d="M3.75094 33.2854H28.1753V29.9818C28.1753 28.9916 27.7801 28.0419 27.0767 27.3416C26.3732 26.6414 25.4192 26.248 24.4243 26.248H0V29.5517C0 30.5419 0.395188 31.4916 1.09863 32.1918C1.80206 32.8921 2.75613 33.2854 3.75094 33.2854Z" fill="#F0FFEB"/>
<path d="M39.1777 6.78809H42.5225V18.4712H49.7824V21.1812H39.1777V6.78809Z" fill="#F0FFEB"/>
<path d="M50.5264 15.6494C50.5264 12.32 53.1192 9.9541 56.6454 9.9541C60.1717 9.9541 62.6953 12.32 62.6953 15.6494C62.6953 18.9788 60.1025 21.3533 56.6454 21.3533C53.1883 21.3533 50.5264 18.9874 50.5264 15.6494ZM59.4802 15.6494C59.5108 15.2591 59.46 14.8668 59.331 14.497C59.202 14.1273 58.9975 13.7881 58.7305 13.5007C58.4635 13.2133 58.1396 12.9841 57.7793 12.8273C57.419 12.6704 57.03 12.5895 56.6368 12.5895C56.2435 12.5895 55.8546 12.6704 55.4942 12.8273C55.1339 12.9841 54.8101 13.2133 54.5431 13.5007C54.276 13.7881 54.0716 14.1273 53.9426 14.497C53.8135 14.8668 53.7627 15.2591 53.7933 15.6494C53.7627 16.0397 53.8135 16.432 53.9426 16.8018C54.0716 17.1715 54.276 17.5107 54.5431 17.7981C54.8101 18.0855 55.1339 18.3147 55.4942 18.4715C55.8546 18.6284 56.2435 18.7093 56.6368 18.7093C57.03 18.7093 57.419 18.6284 57.7793 18.4715C58.1396 18.3147 58.4635 18.0855 58.7305 17.7981C58.9975 17.5107 59.202 17.1715 59.331 16.8018C59.46 16.432 59.5108 16.0397 59.4802 15.6494Z" fill="#F0FFEB"/>
<path d="M76.3663 10.1169V19.3309C76.3663 23.4432 74.1279 25.3531 70.1176 25.3531C68.1835 25.4341 66.2737 24.9008 64.6641 23.8304L65.9432 21.5075C67.0881 22.3286 68.4645 22.7682 69.8756 22.7636C72.1487 22.7636 73.1339 21.7312 73.1339 19.7353V19.2707C72.6817 19.7363 72.1346 20.1 71.5293 20.3375C70.9241 20.5749 70.2747 20.6805 69.625 20.6472C68.9016 20.6838 68.1783 20.5721 67.5 20.3191C66.8218 20.066 66.2029 19.677 65.6819 19.1761C65.1609 18.6752 64.7488 18.0731 64.4711 17.4072C64.1934 16.7412 64.0561 16.0256 64.0677 15.3046C64.0549 14.583 64.1913 13.8664 64.4685 13.1994C64.7456 12.5325 65.1576 11.9293 65.6787 11.4275C66.1999 10.9257 66.8191 10.5359 67.498 10.2823C68.1768 10.0287 68.9008 9.91678 69.625 9.95345C70.3201 9.91417 71.0148 10.0368 71.6539 10.3116C72.2931 10.5864 72.859 11.0058 73.3068 11.5364V10.1169H76.3663ZM73.1772 15.2788C73.2188 14.6942 73.0826 14.1107 72.7863 13.6043C72.4899 13.0979 72.0472 12.6922 71.5158 12.4399C70.9844 12.1876 70.3889 12.1006 69.8071 12.1901C69.2253 12.2796 68.684 12.5415 68.2539 12.9417C67.8238 13.3419 67.5248 13.8618 67.3959 14.4336C67.2669 15.0054 67.314 15.6027 67.5311 16.1474C67.7481 16.6922 68.125 17.1593 68.6125 17.4877C69.1001 17.8162 69.6758 17.9908 70.2646 17.9888C70.6361 18.0173 71.0096 17.969 71.3615 17.847C71.7135 17.725 72.0363 17.5319 72.3098 17.2799C72.5832 17.0279 72.8014 16.7224 72.9507 16.3824C73.1 16.0425 73.1771 15.6756 73.1772 15.3046V15.2788Z" fill="#F0FFEB"/>
<path d="M90.8351 10.1171V19.3311C90.8351 23.4435 88.5966 25.3534 84.595 25.3534C82.6581 25.4356 80.7451 24.9023 79.1328 23.8306L80.4206 21.5077C81.5623 22.3287 82.936 22.7684 84.3444 22.7638C86.6174 22.7638 87.6113 21.7314 87.6113 19.7355V19.2709C87.1578 19.7372 86.6092 20.1013 86.0024 20.3387C85.3957 20.5762 84.7448 20.6814 84.0937 20.6474C83.3703 20.684 82.6471 20.5724 81.9688 20.3193C81.2905 20.0663 80.6717 19.6772 80.1507 19.1763C79.6296 18.6754 79.2175 18.0733 78.9398 17.4074C78.6622 16.7414 78.5249 16.0258 78.5365 15.3049C78.5237 14.5832 78.6601 13.8666 78.9372 13.1997C79.2144 12.5327 79.6263 11.9296 80.1475 11.4277C80.6686 10.9259 81.2879 10.5361 81.9667 10.2825C82.6456 10.0289 83.3696 9.91701 84.0937 9.95369C84.7889 9.91373 85.4838 10.0361 86.1231 10.3109C86.7623 10.5857 87.3282 11.0055 87.7755 11.5367V10.1171H90.8351ZM87.6459 15.279C87.6822 14.6966 87.5421 14.1167 87.2438 13.6144C86.9455 13.112 86.5027 12.7103 85.9726 12.4612C85.4425 12.212 84.8494 12.1269 84.2702 12.2168C83.691 12.3067 83.1522 12.5675 82.7234 12.9655C82.2947 13.3635 81.9957 13.8804 81.8653 14.4493C81.7348 15.0182 81.7787 15.613 81.9915 16.1568C82.2042 16.7005 82.5759 17.1683 83.0585 17.4995C83.5412 17.8308 84.1125 18.0103 84.6987 18.0149C85.0752 18.0485 85.4547 18.0033 85.8125 17.882C86.1704 17.7608 86.4988 17.5662 86.7765 17.3109C87.0542 17.0555 87.275 16.7451 87.4248 16.3996C87.5745 16.0541 87.6498 15.6811 87.6459 15.3049V15.279Z" fill="#F0FFEB"/>
<path d="M111.423 10.1174V16.2257C111.423 19.4777 109.582 21.3876 106.237 21.3876C105.545 21.4386 104.851 21.3193 104.217 21.0402C103.582 20.7612 103.026 20.3309 102.598 19.7874C102.161 20.3287 101.596 20.7545 100.954 21.0276C100.312 21.3006 99.6122 21.4124 98.9166 21.3532C95.5719 21.3532 93.731 19.4777 93.731 16.1913V10.083H96.9547V15.9418C96.9547 17.7742 97.551 18.6174 98.9166 18.6174C100.282 18.6174 100.939 17.757 100.939 15.9418V10.1174H104.163V15.9762C104.163 17.8087 104.828 18.6518 106.185 18.6518C107.542 18.6518 108.156 17.7914 108.156 15.9762V10.1174H111.423Z" fill="#F0FFEB"/>
<path d="M113.496 15.6494C113.496 12.32 116.088 9.9541 119.606 9.9541C123.124 9.9541 125.708 12.32 125.708 15.6494C125.708 18.9788 123.115 21.3533 119.606 21.3533C116.097 21.3533 113.496 18.9874 113.496 15.6494ZM122.441 15.6494C122.471 15.2591 122.421 14.8668 122.292 14.497C122.163 14.1273 121.958 13.7881 121.691 13.5007C121.424 13.2133 121.1 12.9841 120.74 12.8273C120.38 12.6704 119.991 12.5895 119.597 12.5895C119.204 12.5895 118.815 12.6704 118.455 12.8273C118.095 12.9841 117.771 13.2133 117.504 13.5007C117.237 13.7881 117.032 14.1273 116.903 14.497C116.774 14.8668 116.723 15.2591 116.754 15.6494C116.723 16.0397 116.774 16.432 116.903 16.8018C117.032 17.1715 117.237 17.5107 117.504 17.7981C117.771 18.0855 118.095 18.3147 118.455 18.4715C118.815 18.6284 119.204 18.7093 119.597 18.7093C119.991 18.7093 120.38 18.6284 120.74 18.4715C121.1 18.3147 121.424 18.0855 121.691 17.7981C121.958 17.5107 122.163 17.1715 122.292 16.8018C122.421 16.432 122.471 16.0397 122.441 15.6494Z" fill="#F0FFEB"/>
<path d="M134.757 9.95349V12.9044C134.489 12.9044 134.282 12.9044 134.04 12.9044C132.259 12.9044 131.084 13.8765 131.084 15.9929V21.215H127.86V10.117H130.937V11.5795C131.395 11.0225 131.982 10.5838 132.647 10.3007C133.312 10.0176 134.036 9.89852 134.757 9.95349Z" fill="#F0FFEB"/>
<path d="M141.456 16.845L139.909 18.3677V21.181H136.685V5.91895H139.909V14.5651L144.619 10.1173H148.465L143.833 14.806L148.88 21.181H144.973L141.456 16.845Z" fill="#F0FFEB"/>
<path d="M148.879 20.1571L149.959 17.8515C151.132 18.5514 152.473 18.9229 153.84 18.9269C155.326 18.9269 155.88 18.5397 155.88 17.9203C155.88 16.1136 149.164 17.9633 149.164 13.5413C149.164 11.4421 151.066 9.96236 154.35 9.96236C155.833 9.93636 157.3 10.2669 158.628 10.9259L157.548 13.2144C156.577 12.6503 155.473 12.3534 154.35 12.354C152.898 12.354 152.284 12.81 152.284 13.3864C152.284 15.2791 159 13.4466 159 17.8085C159 19.8646 157.072 21.3272 153.745 21.3272C152.047 21.3743 150.368 20.9705 148.879 20.1571Z" fill="#F0FFEB"/>
</svg>
