<svg width="198" height="32" viewBox="0 0 198 32" fill="none" xmlns="http://www.w3.org/2000/svg">
<path d="M26.6908 0H24.0791C22.9934 0 21.9522 0.435696 21.1845 1.21124C20.4168 1.98678 19.9855 3.03865 19.9855 4.13543V9.75961L19.9282 9.70172V9.78443L17.472 7.30317L13.3784 3.16774L6.82866 9.78443V9.70172L6.77135 9.75961V3.82941C6.77135 2.81379 6.37197 1.83976 5.66108 1.12161C4.9502 0.403454 3.98602 0 2.98067 0L0.0742188 0V19.4282C0.0742188 20.4417 0.472729 21.4136 1.18208 22.1302C1.89144 22.8468 2.85353 23.2494 3.8567 23.2494H6.77135V18.1297L13.3784 11.3972L19.9937 18.1297V23.2494H22.6054C23.6911 23.2494 24.7323 22.8137 25.5 22.0381C26.2677 21.2626 26.699 20.2107 26.699 19.114L26.6908 0ZM0.426268 17.7162V16.7485L6.4193 10.7025V17.7162H0.426268ZM20.3457 17.7162V10.7025L26.3306 16.7485V17.7162H20.3457Z" fill="white"/>
<path d="M3.55324 32H26.6903V28.824C26.6903 27.872 26.3159 26.959 25.6495 26.2858C24.9832 25.6126 24.0794 25.2344 23.137 25.2344H0V28.4104C0 29.3625 0.374359 30.2755 1.04072 30.9486C1.70708 31.6218 2.61087 32 3.55324 32Z" fill="white"/>
<path d="M37.3789 3.82535H41.8439V19.4028H51.5354V23.0161H37.3789V3.82535Z" fill="white"/>
<path d="M52.5283 15.6404C52.5283 11.2012 55.9896 8.0467 60.6969 8.0467C65.4042 8.0467 68.7732 11.2012 68.7732 15.6404C68.7732 20.0797 65.3119 23.2456 60.6969 23.2456C56.0819 23.2456 52.5283 20.0911 52.5283 15.6404ZM64.4812 15.6404C64.522 15.1201 64.4542 14.597 64.282 14.104C64.1097 13.6109 63.8368 13.1586 63.4803 12.7755C63.1239 12.3924 62.6916 12.0867 62.2106 11.8776C61.7296 11.6685 61.2103 11.5606 60.6853 11.5606C60.1604 11.5606 59.6411 11.6685 59.1601 11.8776C58.6791 12.0867 58.2468 12.3924 57.8904 12.7755C57.5339 13.1586 57.261 13.6109 57.0887 14.104C56.9165 14.597 56.8487 15.1201 56.8895 15.6404C56.8487 16.1608 56.9165 16.6839 57.0887 17.1769C57.261 17.6699 57.5339 18.1222 57.8904 18.5054C58.2468 18.8885 58.6791 19.1942 59.1601 19.4033C59.6411 19.6124 60.1604 19.7203 60.6853 19.7203C61.2103 19.7203 61.7296 19.6124 62.2106 19.4033C62.6916 19.1942 63.1239 18.8885 63.4803 18.5054C63.8368 18.1222 64.1097 17.6699 64.282 17.1769C64.4542 16.6839 64.522 16.1608 64.4812 15.6404Z" fill="white"/>
<path d="M87.0235 8.26444V20.5497C87.0235 26.0328 84.0353 28.5794 78.6819 28.5794C76.1 28.6873 73.5504 27.9763 71.4017 26.549L73.1092 23.4519C74.6376 24.5466 76.4751 25.1328 78.3588 25.1266C81.3932 25.1266 82.7085 23.7501 82.7085 21.0889V20.4695C82.1048 21.0902 81.3744 21.5752 80.5664 21.8918C79.7584 22.2084 78.8915 22.3492 78.0242 22.3048C77.0585 22.3536 76.093 22.2047 75.1875 21.8673C74.2821 21.5299 73.456 21.0112 72.7604 20.3433C72.0649 19.6755 71.5147 18.8727 71.1441 17.9847C70.7734 17.0968 70.5901 16.1426 70.6056 15.1814C70.5885 14.2192 70.7706 13.2637 71.1406 12.3744C71.5105 11.4852 72.0605 10.681 72.7562 10.0119C73.4519 9.34277 74.2785 8.82303 75.1848 8.48493C76.091 8.14683 77.0575 7.99759 78.0242 8.04649C78.9521 7.99412 79.8795 8.15762 80.7327 8.52402C81.5859 8.89041 82.3414 9.44959 82.9392 10.1571V8.26444H87.0235ZM82.7661 15.147C82.8218 14.3675 82.6399 13.5895 82.2443 12.9143C81.8487 12.2391 81.2577 11.6981 80.5483 11.3618C79.8389 11.0254 79.044 10.9093 78.2673 11.0287C77.4906 11.148 76.7681 11.4973 76.1939 12.0308C75.6198 12.5644 75.2206 13.2576 75.0485 14.02C74.8763 14.7825 74.9392 15.5788 75.229 16.3051C75.5187 17.0315 76.0218 17.6542 76.6727 18.0922C77.3236 18.5301 78.0921 18.7629 78.878 18.7603C79.374 18.7982 79.8726 18.7338 80.3424 18.5712C80.8122 18.4085 81.2432 18.1511 81.6083 17.8151C81.9733 17.4791 82.2646 17.0717 82.4638 16.6185C82.6631 16.1653 82.766 15.676 82.7661 15.1814V15.147Z" fill="white"/>
<path d="M106.338 8.26442V20.5497C106.338 26.0328 103.35 28.5793 98.0078 28.5793C95.4222 28.689 92.8684 27.9779 90.7161 26.549L92.4352 23.4519C93.9593 24.5465 95.7931 25.1328 97.6733 25.1266C100.708 25.1266 102.034 23.7501 102.034 21.0889V20.4694C101.429 21.0911 100.697 21.5766 99.8867 21.8932C99.0767 22.2098 98.2078 22.3501 97.3387 22.3048C96.373 22.3536 95.4075 22.2047 94.502 21.8673C93.5965 21.5299 92.7704 21.0112 92.0749 20.3433C91.3793 19.6754 90.8292 18.8727 90.4585 17.9847C90.0879 17.0968 89.9046 16.1426 89.92 15.1814C89.903 14.2192 90.0851 13.2637 90.455 12.3744C90.825 11.4851 91.3749 10.681 92.0706 10.0119C92.7663 9.34276 93.593 8.82301 94.4992 8.48491C95.4055 8.14681 96.372 7.99758 97.3387 8.04647C98.2667 7.9932 99.1944 8.15629 100.048 8.52275C100.901 8.88921 101.656 9.44888 102.254 10.1571V8.26442H106.338ZM102.081 15.1469C102.129 14.3704 101.942 13.5972 101.544 12.9274C101.146 12.2576 100.554 11.722 99.8468 11.3898C99.1391 11.0576 98.3475 10.9441 97.5742 11.064C96.801 11.1839 96.0817 11.5316 95.5094 12.0623C94.937 12.5929 94.538 13.2821 94.3638 14.0406C94.1896 14.7992 94.2483 15.5922 94.5322 16.3172C94.8162 17.0423 95.3124 17.6659 95.9567 18.1076C96.601 18.5493 97.3637 18.7886 98.1463 18.7947C98.6489 18.8396 99.1554 18.7793 99.6332 18.6176C100.111 18.4559 100.549 18.1965 100.92 17.8561C101.291 17.5156 101.585 17.1017 101.785 16.641C101.985 16.1803 102.086 15.6831 102.081 15.1814V15.1469Z" fill="white"/>
<path d="M133.82 8.26446V16.4088C133.82 20.7448 131.363 23.2913 126.898 23.2913C125.974 23.3594 125.048 23.2003 124.201 22.8282C123.354 22.4561 122.612 21.8824 122.041 21.1577C121.456 21.8794 120.702 22.4473 119.845 22.8113C118.988 23.1753 118.054 23.3244 117.126 23.2454C112.661 23.2454 110.203 20.7448 110.203 16.3629V8.21858H114.507V16.0302C114.507 18.4735 115.303 19.5977 117.126 19.5977C118.949 19.5977 119.825 18.4506 119.825 16.0302V8.26446H124.129V16.0761C124.129 18.5194 125.017 19.6436 126.829 19.6436C128.64 19.6436 129.459 18.4965 129.459 16.0761V8.26446H133.82Z" fill="white"/>
<path d="M136.59 15.6404C136.59 11.2012 140.051 8.0467 144.747 8.0467C149.443 8.0467 152.892 11.2012 152.892 15.6404C152.892 20.0797 149.431 23.2456 144.747 23.2456C140.063 23.2456 136.59 20.0911 136.59 15.6404ZM148.531 15.6404C148.572 15.1201 148.504 14.597 148.332 14.104C148.16 13.6109 147.887 13.1586 147.53 12.7755C147.174 12.3924 146.742 12.0867 146.261 11.8776C145.78 11.6685 145.26 11.5606 144.735 11.5606C144.21 11.5606 143.691 11.6685 143.21 11.8776C142.729 12.0867 142.297 12.3924 141.94 12.7755C141.584 13.1586 141.311 13.6109 141.139 14.104C140.966 14.597 140.899 15.1201 140.939 15.6404C140.899 16.1608 140.966 16.6839 141.139 17.1769C141.311 17.6699 141.584 18.1222 141.94 18.5054C142.297 18.8885 142.729 19.1942 143.21 19.4033C143.691 19.6124 144.21 19.7203 144.735 19.7203C145.26 19.7203 145.78 19.6124 146.261 19.4033C146.742 19.1942 147.174 18.8885 147.53 18.5054C147.887 18.1222 148.16 17.6699 148.332 17.1769C148.504 16.6839 148.572 16.1608 148.531 15.6404Z" fill="white"/>
<path d="M164.972 8.04654V11.9811C164.614 11.9811 164.337 11.9811 164.014 11.9811C161.637 11.9811 160.068 13.2773 160.068 16.0991V23.0619H155.765V8.26449H159.872V10.2145C160.484 9.47184 161.267 8.88693 162.155 8.50949C163.042 8.13205 164.009 7.97324 164.972 8.04654Z" fill="white"/>
<path d="M173.913 17.2347L171.847 19.265V23.016H167.544V2.66666H171.847V14.1949L178.135 8.26445H183.27L177.085 14.5161L183.823 23.016H178.608L173.913 17.2347Z" fill="white"/>
<path d="M183.822 21.651L185.264 18.5768C186.83 19.5101 188.62 20.0055 190.445 20.0107C192.429 20.0107 193.168 19.4945 193.168 18.6686C193.168 16.2597 184.203 18.726 184.203 12.8299C184.203 10.031 186.741 8.05804 191.126 8.05804C193.105 8.02338 195.065 8.46409 196.837 9.34278L195.394 12.394C194.099 11.642 192.626 11.2461 191.126 11.2469C189.187 11.2469 188.368 11.8549 188.368 12.6235C188.368 15.147 197.333 12.7037 197.333 18.5195C197.333 21.261 194.76 23.2111 190.318 23.2111C188.052 23.274 185.81 22.7355 183.822 21.651Z" fill="white"/>
</svg>
