<svg width="558" height="244" viewBox="0 0 558 244" fill="none" xmlns="http://www.w3.org/2000/svg">
<mask id="mask0_2002_39305" style="mask-type:alpha" maskUnits="userSpaceOnUse" x="0" y="-1" width="558" height="245">
<path d="M0 -0.000167847H558V243.956H0V-0.000167847Z" fill="#FFEFD9"/>
</mask>
<g mask="url(#mask0_2002_39305)">
<path d="M180.434 156.79C179.796 159.2 179.688 161.719 180.117 164.174C180.546 166.629 181.503 168.963 182.922 171.016C183.889 172.423 184.701 173.71 185.07 174.563C186.118 176.977 187.099 176.344 187.683 177.233C189.119 179.421 188.53 183.601 189.332 185.424C190.42 187.901 191.942 187.655 191.942 187.655L209.194 185.799C209.194 185.799 210.016 182.999 208.892 178.092C208.477 176.303 208.516 171.729 209.547 168.982C210.985 165.152 209.547 160.235 208.641 155.607C208.22 153.436 207.156 149.4 206.555 147.972C205.922 146.469 205.665 140.603 203.463 140.712C199.572 140.905 201.769 155.439 199.504 153.87C196.602 151.867 193.659 149.401 190.29 146.377C182.779 139.641 182.401 149.4 180.434 156.79Z" fill="#FFAD97"/>
<path d="M197.381 176.417C197.351 176.421 197.32 176.417 197.291 176.407C197.262 176.396 197.237 176.379 197.216 176.357C196.559 175.559 196.088 174.627 195.834 173.627C195.571 172.637 195.52 171.603 195.683 170.591C195.888 169.317 196.424 168.037 197.278 166.787C197.292 166.766 197.31 166.747 197.331 166.733C197.352 166.718 197.376 166.708 197.401 166.703C197.426 166.698 197.452 166.698 197.477 166.703C197.502 166.708 197.526 166.718 197.547 166.732C197.568 166.746 197.587 166.765 197.601 166.786C197.614 166.808 197.624 166.832 197.628 166.857C197.633 166.882 197.632 166.908 197.627 166.933C197.621 166.958 197.611 166.981 197.596 167.002C196.767 168.206 196.258 169.434 196.063 170.652C195.907 171.61 195.954 172.591 196.201 173.53C196.442 174.469 196.884 175.346 197.496 176.099C197.514 176.118 197.528 176.14 197.537 176.164C197.546 176.188 197.55 176.214 197.549 176.24C197.548 176.265 197.542 176.291 197.53 176.314C197.519 176.337 197.503 176.358 197.484 176.375C197.455 176.399 197.419 176.414 197.381 176.417Z" fill="#F47C53"/>
<path d="M204.799 145.325C204.548 145.324 204.302 145.257 204.086 145.131C203.978 145.07 203.452 144.627 203.649 141.879C203.649 141.858 203.654 141.838 203.662 141.82C203.67 141.801 203.682 141.784 203.697 141.77C203.712 141.756 203.73 141.746 203.749 141.739C203.768 141.732 203.789 141.73 203.809 141.731C203.829 141.732 203.849 141.738 203.867 141.747C203.886 141.757 203.902 141.77 203.914 141.785C203.927 141.801 203.937 141.82 203.942 141.839C203.948 141.859 203.949 141.879 203.946 141.899C203.868 143.021 203.904 144.685 204.234 144.872C204.368 144.954 204.519 145.006 204.675 145.022C204.832 145.039 204.99 145.021 205.139 144.969C205.176 144.953 205.217 144.952 205.254 144.966C205.292 144.981 205.322 145.009 205.338 145.046C205.354 145.082 205.355 145.124 205.34 145.161C205.326 145.198 205.297 145.228 205.261 145.244C205.114 145.301 204.957 145.329 204.799 145.325Z" fill="#F47C53"/>
<path d="M189.574 177.569H189.539C187.837 177.465 186.806 176.858 186.24 176.366C185.881 176.072 185.593 175.702 185.396 175.283C185.383 175.259 185.377 175.233 185.375 175.207C185.374 175.18 185.378 175.153 185.388 175.128C185.397 175.104 185.412 175.081 185.431 175.062C185.45 175.043 185.473 175.028 185.498 175.019C185.523 175.009 185.549 175.005 185.576 175.006C185.603 175.007 185.629 175.014 185.653 175.026C185.677 175.038 185.698 175.055 185.715 175.075C185.732 175.096 185.745 175.12 185.752 175.146C185.933 175.513 186.192 175.838 186.511 176.097C187.03 176.543 187.982 177.093 189.563 177.198C189.611 177.2 189.657 177.221 189.69 177.255C189.724 177.289 189.744 177.335 189.745 177.383C189.746 177.431 189.73 177.478 189.698 177.514C189.666 177.551 189.622 177.574 189.574 177.579V177.569Z" fill="#F47C53"/>
<path d="M179.161 169.824L184.342 170.833C184.993 171.101 185.725 171.1 186.375 170.831C187.026 170.562 187.543 170.046 187.812 169.398C187.945 169.076 188.013 168.732 188.013 168.385C188.013 168.037 187.944 167.693 187.81 167.372C187.676 167.051 187.48 166.76 187.233 166.514C186.986 166.269 186.693 166.074 186.37 165.942L182.857 164.498C180.452 163.548 178.443 163.324 177.543 165.5C176.271 168.57 177.851 169.286 179.161 169.824Z" fill="#FFAD97"/>
<path d="M185.818 169.761C185.356 169.761 184.308 169.73 183.705 169.468C183.515 169.385 183.219 169.125 183.369 168.309C183.526 167.47 184.145 166.234 184.761 166.205C185.558 166.168 186.86 166.618 187.003 167.402C187.113 167.991 186.839 169.08 186.471 169.518C186.422 169.587 186.359 169.644 186.285 169.686C186.21 169.728 186.128 169.752 186.043 169.758C186.022 169.758 185.941 169.761 185.818 169.761ZM184.851 166.596H184.779C184.491 166.609 183.917 167.532 183.76 168.375C183.69 168.756 183.73 169.041 183.863 169.098C184.554 169.399 186.017 169.357 186.031 169.355H186.038C186.054 169.355 186.1 169.335 186.163 169.259C186.455 168.911 186.697 167.94 186.61 167.47C186.518 166.977 185.497 166.6 184.852 166.6L184.851 166.596Z" fill="#F47C53"/>
<path d="M185.109 171.3C183.666 171.3 178.88 169.893 178.674 169.833C178.648 169.826 178.625 169.814 178.604 169.798C178.583 169.781 178.565 169.761 178.552 169.738C178.54 169.715 178.531 169.689 178.529 169.663C178.526 169.637 178.528 169.61 178.536 169.585C178.543 169.56 178.556 169.536 178.573 169.516C178.589 169.495 178.61 169.478 178.634 169.466C178.657 169.454 178.683 169.446 178.709 169.444C178.736 169.442 178.762 169.445 178.787 169.453C178.838 169.468 183.892 170.952 185.168 170.902C186.386 170.855 186.965 170.247 186.965 170.241C187 170.202 187.05 170.179 187.103 170.176C187.155 170.174 187.207 170.192 187.246 170.228C187.286 170.263 187.309 170.313 187.312 170.365C187.314 170.418 187.296 170.469 187.26 170.508C187.233 170.539 186.576 171.245 185.188 171.298L185.109 171.3Z" fill="#F47C53"/>
<path d="M186.83 161.937C185.924 161.756 185.127 161.224 184.614 160.458C184.101 159.692 183.914 158.754 184.094 157.851L190.955 123.728C191.045 123.28 191.222 122.854 191.477 122.475C191.732 122.096 192.06 121.77 192.441 121.517C192.822 121.264 193.25 121.089 193.7 121C194.149 120.912 194.612 120.913 195.061 121.003C195.511 121.092 195.938 121.269 196.319 121.523C196.7 121.777 197.026 122.104 197.28 122.484C197.534 122.864 197.711 123.29 197.799 123.738C197.888 124.186 197.887 124.647 197.797 125.094L190.937 159.214C190.755 160.117 190.22 160.912 189.45 161.422C188.68 161.933 187.737 162.118 186.83 161.937Z" fill="#002B34"/>
<path d="M213.338 138.071L173.13 130.776C172.805 130.718 172.497 130.592 172.223 130.409C171.95 130.225 171.718 129.987 171.542 129.709C171.365 129.432 171.249 129.121 171.199 128.796C171.149 128.471 171.168 128.14 171.253 127.823L178.358 101.457C178.522 100.858 178.913 100.347 179.45 100.032C179.986 99.7176 180.625 99.6241 181.229 99.7719L218.191 108.748C218.773 108.888 219.28 109.241 219.613 109.736C219.946 110.232 220.079 110.834 219.987 111.423L216.125 136.099C216.077 136.412 215.965 136.713 215.798 136.983C215.63 137.253 215.41 137.487 215.15 137.671C214.89 137.855 214.596 137.985 214.285 138.054C213.974 138.122 213.652 138.128 213.338 138.071Z" fill="#94C358"/>
<path d="M199.989 108.186L197.513 107.691C197.158 107.622 196.79 107.666 196.461 107.818L190.322 110.665C190.12 110.759 189.937 110.891 189.786 111.054C189.635 111.218 189.517 111.409 189.44 111.618C189.363 111.827 189.328 112.048 189.337 112.271C189.346 112.493 189.399 112.711 189.493 112.913L189.988 113.96C190.083 114.165 190.219 114.349 190.386 114.501C190.554 114.653 190.75 114.771 190.964 114.846C191.178 114.922 191.405 114.954 191.631 114.942C191.857 114.929 192.079 114.871 192.283 114.772L194.454 113.699C194.539 113.657 194.634 113.639 194.729 113.648C194.823 113.657 194.914 113.692 194.989 113.749C195.065 113.806 195.124 113.883 195.158 113.972C195.192 114.06 195.201 114.156 195.183 114.249L193.83 120.974L192.53 127.443C192.442 127.883 192.534 128.341 192.784 128.714C193.034 129.088 193.423 129.347 193.865 129.436L195.653 129.792C196.095 129.88 196.554 129.789 196.93 129.54C197.305 129.291 197.565 128.903 197.654 128.463L201.318 110.179C201.406 109.74 201.316 109.283 201.067 108.909C200.818 108.536 200.43 108.276 199.989 108.186Z" fill="#CB7601"/>
<path d="M176.134 162.222L182.012 164.415C182.364 164.634 182.756 164.781 183.165 164.849C183.574 164.916 183.993 164.903 184.397 164.809C184.801 164.716 185.183 164.544 185.52 164.303C185.857 164.063 186.144 163.759 186.363 163.408C186.806 162.7 186.949 161.845 186.759 161.033C186.57 160.22 186.064 159.515 185.353 159.074L181.515 156.693C178.882 155.11 176.569 154.456 175.087 156.83C172.993 160.193 174.701 161.332 176.134 162.222Z" fill="#FFAD97"/>
<path d="M184.299 163.448C184.274 163.45 184.249 163.45 184.223 163.448C184.115 163.433 182.379 163.192 181.554 162.657C181.214 162.437 181.161 161.947 181.404 161.28C181.747 160.339 182.696 159.027 183.411 159.109C184.339 159.219 185.76 159.995 185.771 160.914C185.783 161.618 185.255 162.826 184.744 163.264C184.623 163.376 184.465 163.442 184.299 163.448ZM183.34 159.491C182.97 159.491 182.135 160.429 181.779 161.406C181.613 161.864 181.61 162.214 181.771 162.32C182.531 162.811 184.258 163.048 184.28 163.049H184.287C184.362 163.042 184.433 163.007 184.484 162.951C184.909 162.587 185.383 161.499 185.371 160.909C185.362 160.268 184.128 159.582 183.364 159.491H183.34Z" fill="#F47C53"/>
<path d="M183.628 165.125C182.286 165.125 180.19 163.965 180.091 163.908C180.067 163.896 180.046 163.879 180.029 163.859C180.013 163.838 180 163.815 179.993 163.789C179.985 163.764 179.983 163.737 179.986 163.711C179.989 163.685 179.997 163.659 180.01 163.636C180.023 163.613 180.04 163.593 180.061 163.576C180.082 163.56 180.107 163.548 180.132 163.542C180.158 163.535 180.185 163.533 180.211 163.537C180.237 163.54 180.263 163.549 180.286 163.563C181.018 163.976 183.113 164.968 183.998 164.679C184.048 164.663 184.103 164.667 184.15 164.691C184.197 164.714 184.233 164.756 184.25 164.806C184.266 164.856 184.262 164.91 184.238 164.957C184.214 165.004 184.173 165.04 184.123 165.056C183.962 165.105 183.795 165.128 183.628 165.125Z" fill="#F47C53"/>
<path d="M177.988 154.87L183.493 157.882C184.133 158.42 184.961 158.682 185.796 158.612C186.631 158.541 187.403 158.144 187.943 157.506C188.211 157.19 188.414 156.825 188.54 156.431C188.666 156.038 188.712 155.623 188.678 155.211C188.643 154.799 188.527 154.398 188.336 154.031C188.146 153.664 187.884 153.338 187.567 153.071L184.113 150.167C181.735 148.225 179.541 147.247 177.731 149.387C175.17 152.407 176.699 153.786 177.988 154.87Z" fill="#FFAD97"/>
<path d="M185.963 157.265C185.914 157.265 185.865 157.257 185.818 157.243C185.713 157.212 184.029 156.726 183.29 156.08C182.986 155.812 183.004 155.32 183.341 154.691C183.816 153.809 184.946 152.644 185.639 152.827C186.542 153.069 187.833 154.04 187.711 154.951C187.622 155.65 186.925 156.77 186.357 157.13C186.241 157.211 186.105 157.257 185.963 157.265ZM185.477 153.204C185.087 153.204 184.17 153.99 183.693 154.879C183.462 155.309 183.409 155.654 183.555 155.781C184.235 156.375 185.915 156.857 185.932 156.861H185.939C186.015 156.864 186.089 156.84 186.149 156.792C186.621 156.492 187.246 155.484 187.322 154.899C187.403 154.261 186.283 153.408 185.536 153.208C185.517 153.205 185.497 153.203 185.477 153.204Z" fill="#F47C53"/>
<path d="M185.503 158.846C183.292 158.846 179.423 155.915 179.242 155.781C179.205 155.748 179.181 155.702 179.177 155.652C179.172 155.602 179.186 155.552 179.217 155.512C179.247 155.472 179.291 155.445 179.341 155.437C179.39 155.428 179.441 155.438 179.484 155.465C179.529 155.499 184.02 158.906 185.899 158.402C185.925 158.395 185.951 158.393 185.977 158.397C186.003 158.4 186.028 158.409 186.051 158.422C186.073 158.435 186.093 158.452 186.109 158.473C186.125 158.493 186.137 158.517 186.144 158.542C186.151 158.567 186.152 158.594 186.149 158.62C186.146 158.646 186.137 158.67 186.124 158.693C186.111 158.716 186.094 158.736 186.073 158.751C186.052 158.767 186.028 158.779 186.003 158.786C185.84 158.828 185.671 158.848 185.503 158.846Z" fill="#F47C53"/>
<path d="M181.606 148.722L186.267 150.94C186.54 151.144 186.85 151.293 187.181 151.378C187.512 151.463 187.856 151.482 188.194 151.434C188.532 151.386 188.857 151.272 189.151 151.099C189.445 150.926 189.701 150.697 189.906 150.425C190.111 150.154 190.261 149.844 190.346 149.515C190.431 149.186 190.45 148.843 190.402 148.507C190.354 148.17 190.24 147.847 190.066 147.554C189.892 147.261 189.662 147.006 189.39 146.802L186.416 144.575C184.372 143.09 182.524 142.388 181.142 144.225C179.177 146.828 180.497 147.89 181.606 148.722Z" fill="#FFAD97"/>
<path d="M188.245 150.317C188.213 150.317 188.181 150.313 188.15 150.306C188.061 150.285 186.655 149.963 186.018 149.466C185.755 149.261 185.741 148.855 185.995 148.324C186.344 147.577 187.217 146.566 187.792 146.686C188.546 146.843 189.65 147.581 189.596 148.338C189.555 148.916 189.035 149.868 188.585 150.19C188.488 150.267 188.369 150.311 188.245 150.317ZM187.692 147.003C187.38 147.003 186.648 147.699 186.293 148.462C186.123 148.825 186.095 149.111 186.221 149.209C186.807 149.666 188.209 149.984 188.224 149.988C188.287 149.988 188.348 149.965 188.394 149.922C188.769 149.655 189.234 148.797 189.269 148.313C189.306 147.786 188.347 147.136 187.724 147.007C187.714 147.004 187.703 147.003 187.692 147.003Z" fill="#F47C53"/>
<path d="M187.84 151.645C186 151.645 182.827 149.513 182.68 149.412C182.643 149.388 182.617 149.35 182.609 149.307C182.6 149.264 182.609 149.22 182.633 149.183C182.658 149.147 182.696 149.121 182.739 149.113C182.782 149.104 182.827 149.113 182.863 149.137C182.902 149.163 186.752 151.752 188.27 151.252C188.311 151.239 188.357 151.242 188.396 151.261C188.435 151.281 188.464 151.315 188.478 151.356C188.492 151.397 188.488 151.442 188.469 151.481C188.449 151.52 188.415 151.55 188.374 151.563C188.201 151.618 188.021 151.646 187.84 151.645Z" fill="#F47C53"/>
<path d="M187.711 189.508C187.711 189.508 187.675 181.763 188.685 180.895C189.695 180.026 195.816 181.493 201.822 178.898C207.827 176.302 209.641 175.077 210.094 176.833C210.547 178.589 210.434 185.794 210.434 185.794L187.711 189.508Z" fill="#C9FFB3"/>
<path d="M231.352 270.497C227.862 270.395 224.443 270.165 221.094 269.809C206.848 268.319 194.306 274.655 184.217 269.553C181.64 243.708 186.338 187.264 187.234 187.17C187.392 187.151 187.562 187.14 187.744 187.136C188.021 187.126 188.325 187.136 188.651 187.145C189.249 187.167 189.926 187.214 190.672 187.258C192.22 187.37 193.774 187.38 195.323 187.287H195.333C195.856 187.251 196.389 187.194 196.93 187.115H196.941C198.435 186.905 199.896 186.504 201.287 185.923C204.732 184.462 207.596 183.744 209.45 183.721C209.672 183.716 209.895 183.723 210.116 183.743C210.228 183.755 210.335 183.769 210.434 183.787C211.086 183.897 211.51 184.152 211.664 184.54C211.762 184.796 220.746 218.743 226.549 244.578C229.13 256.02 231.08 265.871 231.352 270.497Z" fill="#2FA500"/>
<path d="M235.722 152.594C234.661 154.851 234.101 157.309 234.083 159.801C234.064 162.293 234.586 164.759 235.613 167.032C236.314 168.588 236.881 169.999 237.091 170.905C237.688 173.466 238.768 173.017 239.183 173.997C240.204 176.406 238.875 180.414 239.336 182.349C239.964 184.983 241.506 185.008 241.506 185.008L261.975 183.429C261.975 183.429 261.468 181.372 261.24 176.348C261.157 174.512 260.662 172.291 262.168 169.771C264.27 166.258 263.731 161.163 263.676 156.449C263.65 154.239 263.326 150.078 262.985 148.567C262.633 146.974 263.431 141.158 261.244 140.873C257.375 140.369 256.938 155.059 254.99 153.114C252.503 150.63 250.041 147.679 247.268 144.103C241.099 136.139 238.976 145.671 235.722 152.594Z" fill="#FFAD97"/>
<path d="M248.873 174.92C248.842 174.918 248.813 174.908 248.787 174.892C248.76 174.877 248.738 174.855 248.722 174.829C248.218 173.928 247.92 172.927 247.85 171.897C247.77 170.876 247.906 169.85 248.248 168.885C248.677 167.667 249.434 166.504 250.499 165.425C250.536 165.388 250.586 165.367 250.637 165.367C250.689 165.367 250.739 165.388 250.776 165.425C250.812 165.461 250.833 165.511 250.833 165.562C250.833 165.614 250.812 165.663 250.776 165.7C249.75 166.738 249.024 167.854 248.615 169.018C248.289 169.934 248.161 170.907 248.237 171.875C248.306 172.841 248.584 173.78 249.051 174.628C249.065 174.649 249.074 174.673 249.078 174.698C249.082 174.723 249.082 174.748 249.076 174.773C249.07 174.797 249.06 174.82 249.045 174.841C249.03 174.862 249.012 174.879 248.99 174.892C248.955 174.913 248.914 174.923 248.873 174.92Z" fill="#F47C53"/>
<path d="M265.606 270.145C253.334 270.324 220.514 272.059 217.172 271.71C218.496 263.942 220.889 235.574 223.076 226.863C229.349 201.884 237.526 177.269 238.137 177.307C238.608 177.347 239.076 177.423 239.535 177.534C242.403 178.172 247.065 179.797 252.206 178.485C256.351 177.431 259.59 177.247 261.315 177.739C262.119 177.972 262.597 178.352 262.685 178.861C262.742 179.176 265.156 241.37 265.606 270.145Z" fill="#136BE1"/>
<path d="M261.983 145.667C261.65 145.664 261.328 145.542 261.077 145.324C260.982 145.244 260.544 144.716 261.23 142.046C261.242 142.01 261.267 141.979 261.3 141.961C261.333 141.942 261.372 141.937 261.409 141.947C261.446 141.956 261.478 141.979 261.498 142.011C261.519 142.043 261.526 142.081 261.519 142.119C261.243 143.209 260.977 144.852 261.269 145.096C261.386 145.2 261.526 145.277 261.677 145.322C261.828 145.366 261.987 145.375 262.142 145.35C262.181 145.342 262.221 145.348 262.255 145.369C262.288 145.389 262.312 145.422 262.322 145.46C262.327 145.479 262.328 145.499 262.325 145.518C262.322 145.537 262.315 145.556 262.305 145.572C262.295 145.589 262.282 145.603 262.266 145.615C262.251 145.626 262.233 145.635 262.214 145.639C262.139 145.658 262.061 145.667 261.983 145.667Z" fill="#F47C53"/>
<path d="M240.991 174.664C240.979 174.665 240.968 174.665 240.956 174.664C239.298 174.259 238.394 173.478 237.926 172.894C237.626 172.541 237.408 172.126 237.289 171.679C237.279 171.629 237.289 171.577 237.317 171.535C237.345 171.492 237.389 171.463 237.439 171.452C237.489 171.442 237.541 171.452 237.584 171.48C237.626 171.508 237.656 171.552 237.666 171.602C237.777 171.997 237.973 172.363 238.241 172.674C238.674 173.204 239.511 173.913 241.049 174.293C241.096 174.303 241.137 174.332 241.164 174.372C241.192 174.412 241.203 174.46 241.195 174.508C241.188 174.556 241.163 174.599 241.125 174.629C241.087 174.659 241.039 174.673 240.991 174.67V174.664Z" fill="#F47C53"/>
<path d="M232.128 165.197L237.046 167.111C237.639 167.49 238.359 167.619 239.047 167.47C239.736 167.32 240.336 166.905 240.717 166.315C240.906 166.022 241.035 165.696 241.097 165.354C241.159 165.012 241.152 164.662 241.078 164.322C241.004 163.983 240.863 163.661 240.665 163.376C240.466 163.09 240.212 162.847 239.919 162.659L236.72 160.611C234.524 159.25 232.587 158.672 231.312 160.652C229.51 163.448 230.935 164.432 232.128 165.197Z" fill="#FFAD97"/>
<path d="M238.987 166.36C238.962 166.362 238.938 166.362 238.913 166.36C238.817 166.345 237.357 166.12 236.665 165.658C236.493 165.544 236.25 165.234 236.543 164.458C236.846 163.659 237.676 162.558 238.29 162.634C239.081 162.74 240.279 163.423 240.281 164.211C240.281 164.811 239.818 165.833 239.378 166.2C239.271 166.297 239.132 166.354 238.987 166.36ZM238.218 163.021C237.919 163.021 237.215 163.808 236.916 164.592C236.778 164.956 236.767 165.242 236.887 165.322C237.512 165.735 238.96 165.959 238.975 165.962C238.993 165.962 239.04 165.954 239.113 165.889C239.461 165.599 239.873 164.687 239.873 164.207C239.873 163.683 238.862 163.106 238.227 163.022L238.218 163.021Z" fill="#F47C53"/>
<path d="M238.351 167.76C238.166 167.759 237.982 167.746 237.799 167.72C236.465 167.532 231.857 165.218 231.657 165.12C231.633 165.109 231.612 165.092 231.595 165.073C231.578 165.053 231.565 165.03 231.557 165.005C231.549 164.98 231.545 164.954 231.547 164.928C231.549 164.902 231.556 164.877 231.568 164.853C231.58 164.83 231.596 164.809 231.616 164.792C231.636 164.775 231.659 164.762 231.684 164.754C231.709 164.746 231.735 164.743 231.761 164.745C231.787 164.746 231.813 164.754 231.836 164.765C231.883 164.789 236.587 167.148 237.854 167.327C239.071 167.499 239.736 167.002 239.743 166.998C239.784 166.966 239.837 166.951 239.89 166.958C239.942 166.965 239.99 166.992 240.022 167.033C240.054 167.075 240.068 167.128 240.062 167.18C240.055 167.232 240.028 167.279 239.986 167.311C239.953 167.328 239.382 167.76 238.351 167.76Z" fill="#F47C53"/>
<path d="M239.2 182.956C239.231 182.712 239.343 182.484 239.518 182.31C239.694 182.136 239.922 182.024 240.167 181.993C240.779 181.959 241.216 182.396 241.186 182.863C241.16 183.139 241.031 183.396 240.824 183.581C240.616 183.767 240.346 183.868 240.068 183.863C239.592 183.83 239.178 183.423 239.2 182.956Z" fill="#FFEFD9"/>
<path d="M241.087 158.798C240.661 158.631 240.273 158.381 239.944 158.063C239.615 157.746 239.352 157.367 239.17 156.948C238.988 156.529 238.89 156.078 238.883 155.622C238.876 155.166 238.959 154.712 239.128 154.288L251.994 121.938C252.162 121.513 252.413 121.126 252.732 120.798C253.051 120.47 253.432 120.208 253.852 120.027C254.273 119.846 254.725 119.749 255.184 119.742C255.642 119.735 256.097 119.818 256.523 119.986C257.383 120.326 258.073 120.992 258.44 121.838C258.808 122.684 258.823 123.64 258.482 124.498L245.615 156.848C245.447 157.272 245.196 157.659 244.877 157.987C244.558 158.315 244.178 158.577 243.757 158.758C243.337 158.939 242.884 159.036 242.426 159.043C241.968 159.05 241.513 158.967 241.087 158.798Z" fill="#002B34"/>
<path d="M266.477 141.601L230.463 128.113C230.172 128.005 229.907 127.837 229.684 127.622C229.461 127.406 229.286 127.147 229.169 126.86C229.052 126.573 228.996 126.266 229.005 125.956C229.014 125.647 229.087 125.343 229.219 125.063L240.25 101.831C240.501 101.302 240.949 100.893 241.499 100.689C242.049 100.486 242.657 100.506 243.193 100.743L275.916 115.247C276.43 115.475 276.84 115.887 277.064 116.401C277.288 116.915 277.309 117.495 277.125 118.024L269.387 140.243C269.288 140.524 269.134 140.783 268.934 141.005C268.733 141.226 268.49 141.406 268.219 141.532C267.948 141.659 267.654 141.73 267.355 141.742C267.056 141.754 266.757 141.706 266.477 141.601Z" fill="#94C358"/>
<path d="M230.508 157.173L235.897 160.377C236.204 160.655 236.563 160.869 236.954 161.009C237.344 161.148 237.759 161.209 238.173 161.189C238.587 161.169 238.994 161.068 239.369 160.891C239.744 160.714 240.08 160.466 240.359 160.16C240.637 159.854 240.853 159.496 240.993 159.107C241.133 158.718 241.194 158.305 241.174 157.892C241.154 157.48 241.052 157.075 240.875 156.701C240.697 156.328 240.448 155.993 240.14 155.715L236.791 152.687C234.485 150.661 232.326 149.606 230.435 151.68C227.781 154.61 229.258 156.043 230.508 157.173Z" fill="#FFAD97"/>
<path d="M238.414 159.847C238.359 159.847 238.304 159.837 238.252 159.819C238.148 159.786 236.482 159.239 235.765 158.567C235.469 158.292 235.505 157.798 235.864 157.182C236.37 156.315 237.542 155.191 238.229 155.401C239.123 155.677 240.377 156.69 240.227 157.603C240.112 158.292 239.377 159.393 238.796 159.731C238.681 159.803 238.549 159.843 238.414 159.847ZM238.045 155.772C237.65 155.772 236.717 156.519 236.213 157.382C235.967 157.803 235.9 158.146 236.041 158.278C236.699 158.896 238.361 159.437 238.378 159.442C238.453 159.449 238.529 159.427 238.589 159.382C239.073 159.098 239.733 158.113 239.833 157.531C239.936 156.897 238.849 156.004 238.11 155.777C238.088 155.773 238.067 155.771 238.045 155.772Z" fill="#F47C53"/>
<path d="M237.696 161.395C236.38 161.395 234.204 159.617 234.103 159.537C234.083 159.52 234.067 159.5 234.054 159.477C234.042 159.454 234.035 159.429 234.032 159.403C234.03 159.377 234.032 159.351 234.04 159.326C234.048 159.301 234.06 159.278 234.077 159.258C234.094 159.238 234.114 159.221 234.137 159.209C234.161 159.197 234.186 159.189 234.212 159.187C234.238 159.184 234.264 159.187 234.289 159.195C234.314 159.202 234.337 159.215 234.358 159.231C235.004 159.763 236.886 161.116 237.812 160.99C237.863 160.986 237.913 161.001 237.953 161.033C237.993 161.065 238.019 161.111 238.026 161.161C238.033 161.211 238.021 161.263 237.991 161.304C237.961 161.345 237.916 161.373 237.866 161.383C237.81 161.391 237.753 161.395 237.696 161.395Z" fill="#F47C53"/>
<path d="M233.65 150.271L238.523 154.213C239.057 154.856 239.825 155.262 240.659 155.342C241.493 155.421 242.325 155.167 242.971 154.636C243.616 154.104 244.024 153.338 244.103 152.508C244.183 151.677 243.928 150.849 243.395 150.205L240.516 146.733C238.523 144.393 236.54 143.047 234.375 144.829C231.324 147.347 232.58 148.976 233.65 150.271Z" fill="#FFAD97"/>
<path d="M241.175 154.05C241.093 154.051 241.012 154.032 240.939 153.994C240.841 153.946 239.271 153.168 238.659 152.4C238.408 152.083 238.521 151.602 238.959 151.043C239.583 150.258 240.904 149.313 241.554 149.618C242.399 150.016 243.488 151.2 243.212 152.077C242.999 152.748 242.107 153.728 241.49 153.98C241.391 154.023 241.284 154.047 241.175 154.05ZM241.261 149.954C240.837 149.954 239.867 150.542 239.271 151.289C238.967 151.672 238.857 152.002 238.971 152.152C239.534 152.858 241.102 153.632 241.117 153.639C241.192 153.656 241.27 153.646 241.337 153.61C241.855 153.398 242.651 152.517 242.829 151.958C243.024 151.347 242.076 150.307 241.377 149.979C241.341 149.963 241.301 149.954 241.261 149.954Z" fill="#F47C53"/>
<path d="M240.707 155.555C238.554 155.555 234.884 151.564 234.727 151.391C234.69 151.353 234.67 151.301 234.672 151.248C234.674 151.194 234.697 151.144 234.736 151.107C234.775 151.071 234.827 151.051 234.88 151.053C234.934 151.055 234.984 151.077 235.021 151.116C235.06 151.159 238.866 155.311 240.808 155.147C240.86 155.143 240.913 155.16 240.953 155.194C240.993 155.229 241.018 155.277 241.023 155.33C241.027 155.382 241.01 155.434 240.975 155.475C240.941 155.515 240.892 155.54 240.839 155.544C240.797 155.551 240.753 155.555 240.707 155.555Z" fill="#F47C53"/>
<path d="M238.318 144.864L242.506 147.877C242.975 148.381 243.626 148.678 244.315 148.704C245.004 148.73 245.675 148.482 246.18 148.015C246.685 147.548 246.983 146.9 247.009 146.214C247.035 145.528 246.787 144.86 246.318 144.357L243.791 141.637C242.046 139.812 240.353 138.792 238.658 140.357C236.275 142.573 237.38 143.85 238.318 144.864Z" fill="#FFAD97"/>
<path d="M244.648 147.625C244.59 147.625 244.532 147.613 244.479 147.589C244.396 147.555 243.07 146.987 242.532 146.385C242.31 146.136 242.375 145.735 242.715 145.256C243.191 144.583 244.235 143.742 244.779 143.965C245.493 144.254 246.448 145.176 246.26 145.908C246.122 146.47 245.431 147.315 244.934 147.552C244.845 147.596 244.747 147.621 244.648 147.625ZM244.576 144.255C244.236 144.255 243.446 144.789 242.983 145.445C242.751 145.772 242.672 146.049 242.777 146.167C243.271 146.718 244.595 147.283 244.609 147.289C244.671 147.3 244.735 147.288 244.789 147.255C245.203 147.056 245.817 146.291 245.938 145.826C246.069 145.314 245.247 144.503 244.652 144.265C244.627 144.258 244.602 144.254 244.576 144.255Z" fill="#F47C53"/>
<path d="M244.276 148.882C242.492 148.882 239.39 145.867 239.253 145.734C239.225 145.703 239.21 145.662 239.211 145.621C239.212 145.579 239.229 145.539 239.258 145.509C239.288 145.48 239.328 145.462 239.37 145.461C239.411 145.459 239.452 145.474 239.484 145.501C239.517 145.533 242.842 148.762 244.425 148.544C244.466 148.542 244.507 148.556 244.538 148.582C244.57 148.608 244.591 148.645 244.596 148.686C244.602 148.727 244.592 148.768 244.568 148.802C244.545 148.835 244.509 148.859 244.469 148.868C244.405 148.877 244.341 148.881 244.276 148.882Z" fill="#F47C53"/>
<path d="M263.496 117.618C263.421 116.782 263.157 115.974 262.724 115.254C262.278 114.521 261.7 113.877 261.017 113.355C260.305 112.806 259.521 112.357 258.686 112.02C257.82 111.663 256.9 111.449 255.964 111.387C255.078 111.324 254.188 111.427 253.339 111.688C252.499 111.952 251.716 112.372 251.034 112.927C251.022 112.933 251.011 112.942 251.002 112.952C249.897 113.844 250.068 115.567 251.297 116.277L251.665 116.489C252.05 116.704 252.494 116.79 252.932 116.736C253.37 116.682 253.779 116.491 254.1 116.189C254.324 115.989 254.574 115.82 254.843 115.688C255.168 115.53 255.523 115.444 255.884 115.437C256.245 115.43 256.604 115.501 256.934 115.647C257.626 115.928 258.097 116.356 258.348 116.929C258.596 117.503 258.588 118.114 258.32 118.77C258.111 119.3 257.755 119.76 257.293 120.096C257.221 120.151 257.147 120.202 257.067 120.255C256.625 120.542 256.155 120.782 255.664 120.973L251.827 122.356L246.715 124.208C246.446 124.305 246.2 124.458 245.994 124.656C245.788 124.854 245.626 125.093 245.518 125.357L245.156 126.243C245.054 126.491 245.003 126.756 245.004 127.024C245.005 127.292 245.06 127.557 245.164 127.804C245.268 128.051 245.42 128.274 245.611 128.463C245.802 128.651 246.029 128.8 246.278 128.901L248.823 129.933L255.286 132.555L255.78 132.756C256.025 132.856 256.288 132.908 256.553 132.907C257.028 132.908 257.488 132.745 257.855 132.444C258.222 132.144 258.473 131.726 258.564 131.261C258.655 130.797 258.581 130.316 258.355 129.9C258.129 129.484 257.764 129.159 257.324 128.982L256.793 128.767L253.328 127.361C253.202 127.311 253.094 127.224 253.02 127.111C252.945 126.998 252.907 126.866 252.91 126.731C252.913 126.596 252.958 126.465 253.038 126.356C253.118 126.248 253.23 126.166 253.358 126.122L257.519 124.655C257.876 124.517 258.23 124.388 258.577 124.242C258.785 124.158 258.991 124.072 259.196 123.986C259.739 123.761 260.258 123.484 260.748 123.16C261.237 122.831 261.679 122.437 262.06 121.989C262.476 121.489 262.808 120.927 263.044 120.322C263.413 119.47 263.568 118.542 263.496 117.618Z" fill="#015700"/>
<path d="M291.086 150.187C290.238 152.531 289.909 155.031 290.121 157.514C290.333 159.997 291.081 162.405 292.314 164.573C293.157 166.058 293.85 167.411 294.145 168.289C294.974 170.785 296.009 170.24 296.513 171.18C297.757 173.484 296.8 177.596 297.439 179.482C298.307 182.046 299.844 181.93 299.844 181.93L320.087 178.48C320.087 178.48 319.396 176.476 318.705 171.495C318.452 169.674 317.753 167.504 319.02 164.861C320.788 161.17 319.78 156.146 319.288 151.458C319.059 149.256 318.352 145.145 317.878 143.672C317.379 142.119 317.636 136.253 315.432 136.17C311.533 136.026 312.451 150.697 310.337 148.935C307.628 146.689 304.906 143.981 301.815 140.678C294.921 133.307 293.69 142.99 291.086 150.187Z" fill="#FFAD97"/>
<path d="M306.252 171.207C306.221 171.208 306.191 171.201 306.163 171.188C306.136 171.175 306.112 171.156 306.093 171.131C305.509 170.28 305.12 169.31 304.954 168.292C304.78 167.283 304.82 166.249 305.072 165.256C305.385 164.003 306.032 162.779 306.992 161.603C307.008 161.583 307.028 161.567 307.05 161.554C307.072 161.542 307.096 161.534 307.121 161.531C307.147 161.528 307.172 161.53 307.197 161.537C307.221 161.544 307.244 161.555 307.264 161.571C307.284 161.586 307.301 161.606 307.313 161.628C307.325 161.65 307.333 161.674 307.336 161.699C307.339 161.724 307.337 161.75 307.331 161.774C307.324 161.799 307.312 161.821 307.296 161.841C306.372 162.968 305.752 164.147 305.452 165.344C305.213 166.285 305.175 167.265 305.341 168.222C305.498 169.179 305.861 170.091 306.407 170.895C306.423 170.915 306.435 170.938 306.442 170.963C306.45 170.988 306.451 171.015 306.448 171.04C306.444 171.066 306.436 171.091 306.422 171.113C306.409 171.136 306.391 171.155 306.369 171.17C306.335 171.195 306.294 171.208 306.252 171.207Z" fill="#F47C53"/>
<path d="M333.805 277.19C318.282 275.539 301.797 274.824 286.979 273.285C286.942 272.46 285.735 254.292 285.716 253.418C285.701 252.617 285.697 251.793 285.701 250.952C285.712 247.525 285.858 243.795 286.104 239.898C286.158 239.064 286.216 238.221 286.278 237.369C286.617 232.729 287.087 227.886 287.637 223.038C287.729 222.237 287.821 221.435 287.913 220.631C288.379 216.709 288.894 212.803 289.433 209.018C289.546 208.228 289.659 207.444 289.773 206.666C290.432 202.157 291.113 197.857 291.768 193.954C291.908 193.136 292.046 192.336 292.183 191.552C292.557 189.405 292.916 187.407 293.258 185.584C293.413 184.753 293.564 183.961 293.711 183.209C294.753 177.859 295.542 174.578 295.775 174.571C296.248 174.567 296.72 174.6 297.187 174.669C300.101 175.039 304.895 176.228 309.899 174.449C313.927 173.019 317.134 172.535 318.9 172.871C319.729 173.03 320.233 173.364 320.366 173.862C320.388 173.948 320.91 177.303 321.727 182.713C321.838 183.452 321.954 184.229 322.075 185.044C322.538 188.142 323.073 191.752 323.645 195.707C323.764 196.518 323.883 197.344 324.004 198.185C324.444 201.244 324.905 204.479 325.372 207.819C325.483 208.601 325.593 209.388 325.702 210.181C326.319 214.608 326.946 219.181 327.541 223.738C327.646 224.536 327.75 225.333 327.854 226.13C328.527 231.295 329.165 236.405 329.725 241.218C329.817 242.012 329.909 242.797 330.001 243.572C330.482 247.811 330.899 251.78 331.215 255.307C331.289 256.127 331.358 256.924 331.421 257.697C331.507 258.768 333.74 276.217 333.805 277.19Z" fill="#015700"/>
<path d="M316.313 140.872C316.08 140.843 315.858 140.758 315.666 140.623C315.564 140.553 315.079 140.066 315.515 137.345C315.517 137.325 315.524 137.305 315.534 137.288C315.543 137.27 315.557 137.255 315.573 137.242C315.589 137.23 315.607 137.221 315.627 137.216C315.647 137.211 315.667 137.21 315.687 137.214C315.707 137.217 315.726 137.224 315.743 137.235C315.761 137.246 315.775 137.26 315.787 137.276C315.798 137.293 315.806 137.312 315.81 137.332C315.814 137.351 315.814 137.372 315.81 137.392C315.633 138.502 315.522 140.162 315.836 140.378C315.962 140.471 316.108 140.535 316.262 140.565C316.416 140.595 316.575 140.591 316.727 140.552C316.764 140.542 316.803 140.547 316.836 140.564C316.869 140.582 316.895 140.611 316.907 140.647C316.92 140.683 316.919 140.721 316.904 140.756C316.889 140.791 316.861 140.818 316.827 140.834C316.66 140.882 316.485 140.895 316.313 140.872Z" fill="#F47C53"/>
<path d="M298.378 171.677C298.367 171.678 298.355 171.678 298.344 171.677C296.658 171.425 295.684 170.73 295.166 170.192C294.835 169.867 294.58 169.474 294.418 169.04C294.411 169.016 294.409 168.99 294.411 168.965C294.414 168.94 294.421 168.916 294.433 168.894C294.445 168.872 294.461 168.852 294.481 168.836C294.501 168.82 294.523 168.808 294.547 168.801C294.572 168.794 294.597 168.791 294.622 168.794C294.647 168.797 294.672 168.804 294.694 168.816C294.716 168.828 294.736 168.844 294.752 168.864C294.768 168.883 294.78 168.906 294.787 168.93C294.935 169.312 295.164 169.658 295.459 169.944C295.938 170.433 296.84 171.064 298.405 171.298C298.451 171.306 298.494 171.331 298.523 171.368C298.553 171.405 298.568 171.452 298.565 171.499C298.562 171.546 298.542 171.591 298.508 171.624C298.474 171.657 298.429 171.676 298.381 171.678L298.378 171.677Z" fill="#F47C53"/>
<path d="M288.678 163.062L293.756 164.517C294.381 164.84 295.11 164.902 295.781 164.69C296.453 164.478 297.013 164.009 297.337 163.387C297.661 162.764 297.724 162.038 297.511 161.369C297.299 160.7 296.828 160.143 296.203 159.819L292.829 158.074C290.517 156.921 288.534 156.523 287.448 158.612C285.909 161.569 287.419 162.411 288.678 163.062Z" fill="#FFAD97"/>
<path d="M295.555 163.392C295.555 163.392 294.035 163.308 293.333 162.924C292.631 162.54 293.871 160.109 294.569 160.137C295.266 160.164 296.442 160.681 296.503 161.345C296.564 162.01 296.022 163.433 295.555 163.392Z" fill="#F47C53"/>
<path d="M294.386 165.037C292.866 164.852 288.385 163.102 288.188 163.025C288.164 163.016 288.142 163.001 288.123 162.983C288.104 162.965 288.089 162.943 288.079 162.92C288.069 162.896 288.063 162.87 288.063 162.844C288.062 162.818 288.067 162.792 288.076 162.768C288.086 162.744 288.1 162.721 288.119 162.703C288.137 162.684 288.158 162.669 288.182 162.659C288.206 162.648 288.232 162.643 288.258 162.642C288.285 162.642 288.311 162.647 288.335 162.656C288.385 162.676 293.288 164.597 294.564 164.653C295.781 164.713 296.408 164.158 296.415 164.152C296.454 164.116 296.506 164.096 296.559 164.098C296.613 164.099 296.663 164.122 296.7 164.161C296.737 164.199 296.756 164.251 296.755 164.304C296.753 164.357 296.73 164.408 296.692 164.444C296.661 164.472 295.946 165.119 294.55 165.051C294.496 165.048 294.445 165.044 294.386 165.037Z" fill="#F47C53"/>
<path d="M297.005 155.866C296.565 155.738 296.155 155.525 295.798 155.239C295.441 154.953 295.144 154.599 294.924 154.199C294.704 153.799 294.566 153.359 294.516 152.905C294.467 152.451 294.508 151.992 294.637 151.554L304.455 118.16C304.584 117.722 304.798 117.314 305.085 116.958C305.373 116.603 305.727 116.307 306.129 116.088C306.531 115.869 306.973 115.731 307.428 115.682C307.884 115.632 308.345 115.673 308.784 115.801C309.672 116.061 310.421 116.661 310.864 117.469C311.308 118.278 311.412 119.229 311.151 120.113L301.334 153.507C301.205 153.945 300.991 154.354 300.704 154.71C300.417 155.065 300.062 155.361 299.66 155.58C299.258 155.799 298.817 155.937 298.361 155.986C297.906 156.035 297.445 155.995 297.005 155.866Z" fill="#002B34"/>
<path d="M324.157 136.769L285.665 126.265C285.355 126.18 285.066 126.032 284.816 125.831C284.566 125.629 284.361 125.378 284.213 125.094C284.066 124.809 283.979 124.497 283.958 124.178C283.937 123.858 283.983 123.538 284.093 123.237L293.255 98.1876C293.464 97.6182 293.888 97.1526 294.437 96.8905C294.985 96.6284 295.615 96.5906 296.191 96.7851L331.38 108.649C331.934 108.834 332.398 109.22 332.68 109.73C332.961 110.24 333.04 110.837 332.9 111.402L327.033 135.087C326.959 135.388 326.825 135.671 326.639 135.919C326.453 136.167 326.219 136.376 325.951 136.532C325.683 136.689 325.386 136.791 325.078 136.832C324.77 136.872 324.456 136.851 324.157 136.769Z" fill="#94C358"/>
<path d="M286.324 155.221L291.989 157.917C292.659 158.417 293.501 158.632 294.33 158.515C295.159 158.398 295.908 157.957 296.411 157.291C296.913 156.623 297.13 155.785 297.012 154.959C296.894 154.133 296.453 153.388 295.784 152.886L292.169 150.182C289.682 148.376 287.438 147.524 285.752 149.769C283.371 152.919 284.976 154.21 286.324 155.221Z" fill="#FFAD97"/>
<path d="M294.325 156.95C294.325 156.95 292.568 156.557 291.812 155.967C291.056 155.376 292.996 152.771 293.809 152.939C294.621 153.107 295.899 153.942 295.844 154.728C295.789 155.514 294.862 157.089 294.325 156.95Z" fill="#F47C53"/>
<path d="M293.459 158.756C292.124 158.594 290.216 157.308 290.122 157.242C290.1 157.227 290.082 157.209 290.067 157.187C290.053 157.165 290.043 157.141 290.039 157.115C290.034 157.089 290.034 157.063 290.039 157.037C290.045 157.012 290.055 156.988 290.07 156.966C290.085 156.945 290.104 156.926 290.126 156.912C290.148 156.898 290.172 156.888 290.198 156.883C290.224 156.879 290.25 156.879 290.276 156.884C290.301 156.89 290.325 156.9 290.347 156.915C291.038 157.385 293.039 158.559 293.948 158.349C293.973 158.343 294 158.342 294.026 158.346C294.052 158.35 294.076 158.36 294.099 158.373C294.121 158.387 294.14 158.405 294.155 158.426C294.171 158.447 294.182 158.471 294.188 158.497C294.194 158.522 294.195 158.548 294.19 158.574C294.186 158.6 294.177 158.625 294.163 158.647C294.149 158.669 294.131 158.688 294.11 158.703C294.089 158.719 294.065 158.73 294.039 158.736C293.848 158.775 293.652 158.782 293.459 158.756Z" fill="#F47C53"/>
<path d="M288.816 148.061L294.032 151.539C294.623 152.13 295.426 152.464 296.264 152.466C297.101 152.468 297.905 152.138 298.499 151.55C298.794 151.259 299.028 150.913 299.187 150.531C299.347 150.15 299.43 149.741 299.431 149.328C299.433 148.915 299.352 148.505 299.194 148.123C299.036 147.741 298.805 147.393 298.512 147.1L295.324 143.907C293.124 141.767 291.024 140.604 289.034 142.576C286.225 145.364 287.626 146.869 288.816 148.061Z" fill="#FFAD97"/>
<path d="M296.48 150.917C296.48 150.917 294.797 150.277 294.131 149.585C293.465 148.892 295.763 146.591 296.542 146.873C297.322 147.156 298.469 148.166 298.299 148.938C298.129 149.71 296.992 151.13 296.48 150.917Z" fill="#F47C53"/>
<path d="M295.869 152.665C293.658 152.398 290.149 149.224 289.987 149.077C289.948 149.041 289.925 148.992 289.922 148.939C289.92 148.887 289.938 148.835 289.974 148.797C290.009 148.758 290.059 148.734 290.112 148.732C290.164 148.73 290.216 148.748 290.255 148.783C290.298 148.822 294.476 152.6 296.39 152.267C296.416 152.262 296.442 152.263 296.468 152.268C296.493 152.274 296.518 152.284 296.539 152.299C296.561 152.314 296.579 152.333 296.593 152.356C296.607 152.378 296.616 152.402 296.621 152.428C296.63 152.48 296.618 152.533 296.587 152.576C296.557 152.619 296.511 152.648 296.459 152.658C296.264 152.689 296.065 152.692 295.869 152.665Z" fill="#F47C53"/>
<path d="M292.962 142.247L297.412 144.862C297.925 145.32 298.6 145.557 299.288 145.52C299.976 145.483 300.622 145.175 301.083 144.665C301.543 144.154 301.781 143.481 301.744 142.796C301.707 142.11 301.398 141.467 300.885 141.008L298.122 138.53C296.215 136.879 294.435 136.013 292.892 137.728C290.709 140.15 291.93 141.323 292.962 142.247Z" fill="#FFAD97"/>
<path d="M299.394 144.238C299.394 144.238 297.98 143.791 297.403 143.253C296.825 142.714 298.605 140.717 299.258 140.913C299.912 141.108 300.9 141.884 300.798 142.529C300.695 143.173 299.822 144.389 299.394 144.238Z" fill="#F47C53"/>
<path d="M298.835 145.691C296.995 145.469 294.107 143.139 293.97 143.029C293.937 143.001 293.915 142.962 293.911 142.918C293.907 142.875 293.919 142.832 293.946 142.798C293.974 142.765 294.014 142.744 294.057 142.74C294.1 142.735 294.144 142.748 294.177 142.776C294.215 142.805 297.822 145.717 299.379 145.352C299.422 145.343 299.467 145.35 299.503 145.373C299.54 145.396 299.567 145.433 299.577 145.475C299.587 145.517 299.579 145.561 299.556 145.598C299.533 145.634 299.496 145.661 299.454 145.67C299.251 145.714 299.041 145.721 298.835 145.691Z" fill="#F47C53"/>
<path d="M322.084 185.041C320.066 185.179 309.716 185.914 303.908 186.921C302.195 187.214 300.448 187.254 298.724 187.041C296.844 186.807 295.006 186.315 293.262 185.579C293.417 184.748 293.568 183.956 293.715 183.204C295.607 184.057 299.321 185.331 303.502 184.607C309.338 183.593 319.283 182.879 321.741 182.711C321.847 183.45 321.961 184.227 322.084 185.041Z" fill="#FFCC86"/>
<path d="M324.019 198.179C322.361 197.82 314.289 196.196 306.51 196.701C304.73 196.814 302.943 196.761 301.173 196.543C297.931 196.138 294.766 195.265 291.777 193.95C291.917 193.132 292.056 192.332 292.192 191.548C294.644 192.682 300.094 194.766 306.353 194.359C313.585 193.889 320.847 195.14 323.658 195.705C323.774 196.519 323.894 197.343 324.019 198.179Z" fill="#FFCC86"/>
<path d="M325.378 207.814C322.251 207.713 313.633 207.539 306.005 208.319C299.26 209.007 292.74 207.507 289.777 206.667C289.664 207.445 289.551 208.229 289.438 209.02C291.906 209.703 294.422 210.202 296.965 210.511C300.044 210.899 303.156 210.945 306.245 210.649C314.103 209.843 323.069 210.077 325.708 210.17C325.594 209.379 325.484 208.594 325.378 207.814Z" fill="#FFCC86"/>
<path d="M327.855 226.117C324.889 225.842 316.065 225.167 307.915 226.117C305.244 226.431 302.493 226.335 299.872 226.018C294.812 225.405 290.232 223.967 287.637 223.031C287.729 222.23 287.821 221.428 287.913 220.624C291.383 221.904 300.017 224.676 307.633 223.79C315.656 222.851 324.076 223.417 327.531 223.728C327.643 224.526 327.751 225.322 327.855 226.117Z" fill="#FFCC86"/>
<path d="M329.999 243.562C325.905 243.495 314.224 243.36 305.136 243.837C303.102 243.942 301.063 243.869 299.041 243.62C293.501 242.95 288.837 241.156 286.105 239.893C286.159 239.059 286.217 238.215 286.28 237.363C288.666 238.522 293.556 240.582 299.406 241.29C301.265 241.52 303.14 241.588 305.011 241.493C313.946 241.019 325.347 241.134 329.727 241.204C329.82 242.002 329.911 242.788 329.999 243.562Z" fill="#FFCC86"/>
<path d="M315.242 116.737C316.142 116.153 316.77 115.286 317.126 114.138C317.436 113.148 317.495 112.224 317.305 111.363C317.119 110.514 316.749 109.715 316.221 109.023C315.673 108.31 315.001 107.7 314.236 107.224C313.436 106.72 312.573 106.324 311.668 106.046C310.817 105.781 309.934 105.632 309.043 105.602C308.176 105.571 307.308 105.668 306.469 105.889C305.644 106.111 304.863 106.475 304.163 106.963C303.923 107.131 303.696 107.314 303.482 107.513C303.322 107.658 303.199 107.839 303.122 108.04C303.045 108.241 303.016 108.458 303.039 108.672C303.061 108.886 303.133 109.092 303.25 109.273C303.367 109.455 303.525 109.606 303.711 109.715L305.517 110.764C305.767 110.914 306.059 110.98 306.35 110.95C306.64 110.921 306.913 110.799 307.128 110.602C307.401 110.342 307.722 110.137 308.072 109.996C308.718 109.739 309.435 109.719 310.095 109.938C310.751 110.13 311.324 110.534 311.724 111.086C312.128 111.637 312.214 112.285 311.982 113.03C311.868 113.467 311.628 113.862 311.291 114.165C310.988 114.414 310.627 114.584 310.241 114.659C309.82 114.738 309.389 114.746 308.966 114.683C308.498 114.613 308.036 114.508 307.584 114.369L307.467 114.332C307.118 114.225 306.741 114.26 306.418 114.429C306.096 114.599 305.853 114.888 305.744 115.234L305.452 116.166C305.427 116.245 305.409 116.326 305.399 116.409C305.391 116.476 305.387 116.543 305.39 116.611C305.398 116.897 305.496 117.173 305.669 117.401C305.842 117.63 306.083 117.798 306.357 117.884C306.871 118.042 307.369 118.244 307.848 118.488C308.296 118.711 308.708 119 309.069 119.346C309.396 119.657 309.639 120.045 309.777 120.474C309.909 120.943 309.893 121.441 309.731 121.9C309.628 122.297 309.427 122.662 309.146 122.962C308.865 123.262 308.514 123.488 308.124 123.619C307.768 123.736 307.394 123.788 307.019 123.772C306.644 123.758 306.272 123.696 305.913 123.586C304.978 123.297 304.288 122.801 303.841 122.098C303.706 121.889 303.59 121.667 303.494 121.438C303.421 121.267 303.36 121.091 303.313 120.912C303.246 120.633 303.091 120.382 302.87 120.198C302.65 120.013 302.375 119.905 302.087 119.888L299.802 119.787C299.598 119.777 299.394 119.812 299.205 119.89C299.016 119.969 298.848 120.088 298.711 120.24C298.575 120.392 298.475 120.572 298.418 120.768C298.361 120.963 298.348 121.169 298.382 121.37C298.454 121.786 298.567 122.195 298.717 122.59C299.034 123.428 299.502 124.201 300.099 124.87C300.657 125.489 301.3 126.026 302.009 126.467C302.079 126.512 302.147 126.555 302.219 126.597C303.047 127.089 303.932 127.48 304.854 127.763C305.807 128.06 306.798 128.222 307.797 128.246C308.771 128.273 309.742 128.133 310.669 127.833C311.58 127.527 312.412 127.023 313.103 126.357C313.816 125.674 314.349 124.77 314.701 123.645C314.879 123.086 314.954 122.499 314.922 121.912C314.89 121.344 314.76 120.785 314.538 120.261C314.312 119.727 314.002 119.233 313.619 118.796C313.218 118.338 312.743 117.949 312.214 117.644L312.243 117.558C313.305 117.609 314.355 117.321 315.242 116.737Z" fill="#3F3F3F"/>
<path d="M376.48 181.462C377.449 183.76 377.908 186.238 377.826 188.729C377.744 191.22 377.123 193.663 376.006 195.893C375.241 197.421 374.624 198.808 374.371 199.703C373.672 202.239 372.611 201.748 372.16 202.71C371.044 205.076 372.21 209.133 371.671 211.049C370.937 213.656 369.395 213.619 369.395 213.619L349.001 211.223C349.001 211.223 349.591 209.186 350.02 204.174C350.178 202.344 350.762 200.144 349.359 197.568C347.402 193.973 348.145 188.905 348.391 184.197C348.506 181.995 348.998 177.845 349.393 176.352C349.808 174.776 349.247 168.931 351.444 168.734C355.324 168.387 355.174 183.081 357.199 181.216C359.788 178.833 362.364 175.986 365.278 172.522C371.766 164.806 373.503 174.415 376.48 181.462Z" fill="#FFAD97"/>
<path d="M362.428 203.244C362.459 203.243 362.489 203.235 362.516 203.22C362.543 203.206 362.566 203.185 362.583 203.16C363.122 202.281 363.459 201.294 363.571 200.27C363.692 199.252 363.598 198.221 363.295 197.242C362.916 196.003 362.206 194.814 361.186 193.694C361.169 193.675 361.149 193.66 361.126 193.649C361.103 193.638 361.078 193.632 361.053 193.631C361.028 193.63 361.003 193.634 360.979 193.642C360.955 193.651 360.933 193.664 360.915 193.68C360.896 193.697 360.881 193.718 360.87 193.74C360.859 193.763 360.853 193.788 360.852 193.813C360.851 193.838 360.854 193.863 360.863 193.887C360.871 193.911 360.884 193.932 360.901 193.951C361.884 195.029 362.56 196.174 362.927 197.353C363.214 198.281 363.303 199.258 363.188 200.221C363.081 201.186 362.766 202.115 362.264 202.947C362.244 202.976 362.232 203.01 362.23 203.045C362.228 203.08 362.236 203.115 362.253 203.146C362.27 203.177 362.295 203.203 362.326 203.22C362.356 203.238 362.391 203.247 362.427 203.245L362.428 203.244Z" fill="#F47C53"/>
<path d="M386.827 279.628C372.697 277.976 357.554 279.993 342.473 278.373C344.331 249.962 348.414 206.912 348.467 206.626C348.574 206.119 349.068 205.762 349.88 205.559C351.627 205.131 354.854 205.446 358.953 206.66C364.038 208.174 368.763 206.742 371.651 206.22C372.115 206.127 372.585 206.07 373.058 206.048C373.924 206.034 384.515 251.247 386.827 279.628Z" fill="#CB7601"/>
<path d="M350.404 173.484C350.361 173.48 350.318 173.472 350.276 173.461C350.257 173.455 350.239 173.446 350.224 173.434C350.208 173.421 350.196 173.406 350.186 173.389C350.177 173.372 350.171 173.353 350.169 173.333C350.167 173.314 350.168 173.294 350.174 173.275C350.18 173.257 350.189 173.239 350.201 173.224C350.213 173.209 350.229 173.196 350.246 173.186C350.263 173.177 350.282 173.171 350.302 173.169C350.321 173.167 350.341 173.169 350.36 173.174C350.514 173.205 350.673 173.202 350.826 173.164C350.978 173.126 351.12 173.054 351.241 172.954C351.543 172.723 351.346 171.07 351.11 169.97C351.102 169.931 351.109 169.891 351.131 169.858C351.153 169.825 351.187 169.802 351.226 169.793C351.264 169.785 351.305 169.793 351.338 169.814C351.371 169.836 351.395 169.87 351.403 169.908C351.981 172.604 351.522 173.115 351.424 173.189C351.282 173.303 351.118 173.388 350.943 173.438C350.768 173.489 350.585 173.504 350.404 173.484Z" fill="#F47C53"/>
<path d="M370.319 203.303H370.353C372.024 202.964 372.961 202.221 373.453 201.651C373.768 201.31 374.004 200.904 374.143 200.462C374.156 200.413 374.148 200.36 374.121 200.317C374.095 200.273 374.053 200.242 374.003 200.23C373.954 200.218 373.901 200.225 373.858 200.252C373.814 200.278 373.783 200.32 373.77 200.37C373.642 200.759 373.431 201.116 373.151 201.417C372.699 201.93 371.833 202.607 370.281 202.923C370.235 202.932 370.193 202.959 370.165 202.998C370.137 203.036 370.125 203.084 370.13 203.131C370.135 203.179 370.158 203.222 370.194 203.254C370.23 203.285 370.276 203.302 370.324 203.301L370.319 203.303Z" fill="#F47C53"/>
<path d="M379.562 194.196L374.572 195.912C373.964 196.267 373.24 196.367 372.558 196.19C371.876 196.014 371.293 195.574 370.936 194.969C370.76 194.67 370.644 194.338 370.596 193.994C370.548 193.65 370.568 193.3 370.656 192.964C370.744 192.628 370.897 192.312 371.107 192.035C371.318 191.757 371.581 191.524 371.881 191.348L375.16 189.43C377.408 188.158 379.368 187.658 380.563 189.688C382.242 192.554 380.778 193.48 379.562 194.196Z" fill="#FFAD97"/>
<path d="M372.619 195.083C372.488 195.06 372.366 194.998 372.271 194.904C371.846 194.52 371.423 193.48 371.442 192.881C371.477 192.092 372.701 191.458 373.495 191.385C374.107 191.327 374.896 192.467 375.166 193.276C375.43 194.065 375.166 194.363 374.997 194.471C374.287 194.906 372.818 195.071 372.722 195.082C372.688 195.086 372.653 195.087 372.619 195.083ZM373.574 191.78H373.54C372.903 191.839 371.87 192.374 371.847 192.897C371.826 193.378 372.202 194.304 372.538 194.61C372.612 194.676 372.659 194.691 372.676 194.688C372.691 194.688 374.146 194.527 374.789 194.138C374.912 194.063 374.912 193.776 374.789 193.408C374.533 192.619 373.878 191.818 373.574 191.781V191.78Z" fill="#F47C53"/>
<path d="M372.947 196.483C372.471 196.441 372.014 196.272 371.627 195.993C371.606 195.976 371.59 195.956 371.578 195.932C371.565 195.909 371.558 195.884 371.556 195.858C371.553 195.832 371.556 195.806 371.564 195.781C371.572 195.756 371.584 195.733 371.601 195.713C371.618 195.693 371.638 195.676 371.662 195.664C371.685 195.652 371.71 195.644 371.736 195.642C371.762 195.64 371.789 195.642 371.814 195.65C371.839 195.658 371.862 195.67 371.882 195.687C371.895 195.698 372.55 196.214 373.756 196.093C375.031 195.965 379.824 193.796 379.873 193.774C379.92 193.757 379.972 193.758 380.019 193.778C380.065 193.797 380.103 193.833 380.123 193.879C380.144 193.924 380.147 193.976 380.132 194.024C380.116 194.072 380.083 194.112 380.039 194.136C379.838 194.227 375.136 196.353 373.796 196.488C373.514 196.518 373.229 196.516 372.947 196.483Z" fill="#F47C53"/>
<path d="M370.857 187.442C371.289 187.291 371.687 187.057 372.029 186.753C372.37 186.449 372.648 186.08 372.847 185.669C373.046 185.258 373.161 184.812 373.187 184.356C373.212 183.9 373.147 183.444 372.996 183.013L361.446 150.173C361.294 149.742 361.059 149.345 360.754 149.005C360.449 148.665 360.079 148.388 359.666 148.19C359.253 147.992 358.806 147.877 358.348 147.852C357.891 147.827 357.433 147.891 357.001 148.042C356.568 148.193 356.17 148.427 355.828 148.731C355.486 149.035 355.208 149.404 355.009 149.815C354.811 150.226 354.695 150.673 354.67 151.128C354.644 151.584 354.709 152.04 354.86 152.471L366.41 185.312C366.562 185.742 366.797 186.139 367.102 186.479C367.408 186.82 367.778 187.096 368.19 187.294C368.603 187.492 369.051 187.607 369.509 187.632C369.966 187.658 370.424 187.593 370.857 187.442Z" fill="#002B34"/>
<path d="M344.063 168.713L382.602 156.015C382.913 155.912 383.199 155.747 383.443 155.528C383.687 155.31 383.882 155.044 384.017 154.746C384.152 154.449 384.224 154.126 384.228 153.8C384.231 153.473 384.167 153.15 384.039 152.849L373.399 127.895C373.157 127.328 372.702 126.877 372.131 126.64C371.56 126.402 370.918 126.397 370.343 126.625L335.233 140.526C334.681 140.744 334.231 141.161 333.974 141.694C333.716 142.226 333.668 142.836 333.84 143.402L341.052 167.151C341.143 167.453 341.294 167.733 341.496 167.976C341.698 168.219 341.946 168.419 342.227 168.565C342.507 168.711 342.815 168.799 343.13 168.824C343.445 168.849 343.763 168.812 344.063 168.713Z" fill="#94C358"/>
<path d="M381.498 186.245L375.982 189.232C375.339 189.767 374.509 190.026 373.675 189.951C372.84 189.877 372.07 189.475 371.532 188.835C370.995 188.195 370.735 187.369 370.809 186.538C370.884 185.706 371.286 184.939 371.929 184.403L375.397 181.513C377.785 179.586 379.983 178.613 381.784 180.762C384.325 183.794 382.791 185.167 381.498 186.245Z" fill="#FFAD97"/>
<path d="M373.449 188.595C373.328 188.576 373.213 188.529 373.113 188.458C372.547 188.094 371.856 186.973 371.769 186.274C371.655 185.36 372.95 184.396 373.855 184.158C374.546 183.976 375.674 185.148 376.143 186.033C376.479 186.662 376.494 187.156 376.189 187.42C375.447 188.064 373.76 188.543 373.655 188.573C373.588 188.595 373.518 188.602 373.449 188.595ZM374.053 184.544C374.021 184.538 373.988 184.538 373.956 184.544C373.208 184.74 372.085 185.59 372.16 186.225C372.233 186.812 372.851 187.823 373.325 188.125C373.384 188.173 373.458 188.198 373.535 188.195C373.551 188.195 375.235 187.716 375.917 187.125C376.055 186.999 376.011 186.653 375.779 186.223C375.334 185.361 374.462 184.593 374.053 184.544Z" fill="#F47C53"/>
<path d="M374.038 190.166L373.973 190.157C373.947 190.152 373.922 190.142 373.9 190.128C373.878 190.114 373.859 190.096 373.844 190.075C373.829 190.053 373.819 190.029 373.813 190.004C373.808 189.978 373.807 189.952 373.812 189.926C373.816 189.9 373.826 189.876 373.84 189.854C373.854 189.832 373.873 189.813 373.894 189.798C373.916 189.783 373.94 189.773 373.965 189.767C373.991 189.762 374.017 189.761 374.043 189.766C374.955 189.938 376.896 188.652 377.564 188.147C377.584 188.129 377.609 188.115 377.635 188.106C377.661 188.097 377.689 188.094 377.717 188.097C377.744 188.099 377.771 188.108 377.795 188.121C377.819 188.134 377.841 188.153 377.857 188.175C377.874 188.197 377.886 188.222 377.893 188.249C377.899 188.275 377.9 188.303 377.895 188.33C377.89 188.358 377.88 188.384 377.864 188.406C377.849 188.429 377.829 188.449 377.806 188.464C377.709 188.544 375.338 190.323 374.038 190.166Z" fill="#F47C53"/>
<path d="M378.631 179.221L373.602 182.964C373.042 183.585 372.258 183.96 371.422 184.005C370.586 184.051 369.765 183.764 369.141 183.208C368.832 182.932 368.581 182.599 368.401 182.226C368.222 181.854 368.117 181.45 368.095 181.037C368.072 180.625 368.131 180.212 368.268 179.822C368.406 179.432 368.619 179.073 368.895 178.765L371.913 175.409C373.997 173.158 376.035 171.886 378.131 173.758C381.08 176.392 379.756 177.969 378.631 179.221Z" fill="#FFAD97"/>
<path d="M370.918 182.694C370.826 182.681 370.737 182.655 370.654 182.615C370.041 182.34 369.195 181.325 369.01 180.646C368.767 179.758 369.908 178.62 370.77 178.255C371.429 177.98 372.712 178.973 373.304 179.783C373.727 180.358 373.813 180.844 373.549 181.151C372.906 181.893 371.306 182.608 371.2 182.652C371.112 182.693 371.014 182.707 370.918 182.694ZM371.089 178.606C371.034 178.597 370.977 178.602 370.925 178.621C370.213 178.921 369.224 179.922 369.394 180.541C369.55 181.111 370.309 182.023 370.82 182.255C370.885 182.294 370.962 182.308 371.037 182.293C371.053 182.293 372.651 181.576 373.248 180.893C373.373 180.749 373.273 180.413 372.984 180.019C372.435 179.269 371.532 178.66 371.089 178.606Z" fill="#F47C53"/>
<path d="M371.245 184.209C371.219 184.206 371.194 184.197 371.171 184.185C371.149 184.172 371.129 184.155 371.113 184.134C371.096 184.114 371.085 184.09 371.078 184.065C371.071 184.04 371.069 184.014 371.072 183.988C371.075 183.962 371.083 183.937 371.096 183.914C371.109 183.892 371.126 183.872 371.147 183.856C371.167 183.84 371.191 183.828 371.216 183.821C371.241 183.814 371.268 183.812 371.294 183.815C373.228 184.048 377.196 180.059 377.235 180.019C377.252 179.995 377.273 179.975 377.298 179.96C377.324 179.945 377.352 179.936 377.381 179.933C377.41 179.93 377.44 179.934 377.467 179.944C377.495 179.954 377.52 179.97 377.54 179.99C377.561 180.011 377.577 180.036 377.587 180.063C377.597 180.091 377.601 180.12 377.598 180.149C377.595 180.178 377.586 180.206 377.571 180.231C377.556 180.257 377.536 180.278 377.511 180.294C377.354 180.468 373.369 184.466 371.245 184.209Z" fill="#F47C53"/>
<path d="M374.192 173.633L369.89 176.475C369.649 176.716 369.363 176.907 369.047 177.037C368.732 177.167 368.394 177.234 368.053 177.234C367.711 177.234 367.373 177.167 367.058 177.037C366.743 176.907 366.456 176.716 366.215 176.475C365.973 176.235 365.782 175.95 365.651 175.636C365.52 175.322 365.453 174.985 365.453 174.645C365.453 174.305 365.52 173.968 365.651 173.654C365.782 173.34 365.973 173.055 366.215 172.814L368.85 170.199C370.667 168.446 372.4 167.495 374.03 169.126C376.332 171.423 375.174 172.657 374.192 173.633Z" fill="#FFAD97"/>
<path d="M367.722 176.136C367.637 176.125 367.554 176.097 367.479 176.055C366.988 175.799 366.34 174.928 366.22 174.361C366.061 173.622 367.049 172.738 367.777 172.478C368.33 172.28 369.339 173.166 369.789 173.855C370.108 174.346 370.157 174.749 369.927 174.989C369.366 175.569 368.018 176.09 367.933 176.114C367.866 176.14 367.793 176.148 367.722 176.136ZM367.998 172.778C367.961 172.772 367.924 172.775 367.888 172.787C367.29 173 366.43 173.777 366.541 174.3C366.642 174.775 367.223 175.56 367.631 175.773C367.683 175.808 367.746 175.823 367.808 175.816C367.822 175.816 369.167 175.302 369.683 174.768C369.793 174.654 369.726 174.375 369.507 174.039C369.089 173.374 368.351 172.821 367.998 172.778Z" fill="#F47C53"/>
<path d="M367.952 177.395L367.876 177.384C367.855 177.38 367.835 177.372 367.817 177.361C367.799 177.349 367.783 177.334 367.771 177.316C367.759 177.299 367.75 177.279 367.746 177.258C367.741 177.237 367.741 177.215 367.745 177.194C367.749 177.173 367.757 177.153 367.769 177.135C367.78 177.117 367.795 177.102 367.813 177.09C367.831 177.077 367.851 177.069 367.872 177.064C367.893 177.06 367.914 177.06 367.936 177.063L367.996 177.072C369.598 177.266 372.961 174.25 372.996 174.22C373.011 174.206 373.03 174.194 373.05 174.187C373.07 174.18 373.092 174.177 373.113 174.178C373.135 174.179 373.156 174.184 373.175 174.193C373.194 174.202 373.212 174.215 373.226 174.231C373.256 174.263 373.271 174.306 373.269 174.349C373.267 174.392 373.247 174.433 373.215 174.462C373.077 174.596 369.713 177.613 367.952 177.395Z" fill="#F47C53"/>
<path d="M368.058 149.768L367.666 148.529C367.536 148.123 367.25 147.785 366.87 147.589C366.49 147.394 366.048 147.356 365.64 147.485L365.607 147.494C365.199 147.623 364.757 147.584 364.377 147.388C363.997 147.192 363.711 146.853 363.581 146.447L360.195 135.797C360.065 135.391 359.779 135.052 359.399 134.856C359.02 134.659 358.577 134.621 358.169 134.749L354.15 136.017C353.897 136.097 353.669 136.237 353.484 136.426C353.299 136.615 353.163 136.846 353.088 137.099L348.642 152.251C348.553 152.557 348.557 152.883 348.654 153.187L349.441 155.65C349.504 155.852 349.607 156.038 349.744 156.2C349.88 156.361 350.047 156.495 350.235 156.592C350.423 156.689 350.628 156.749 350.839 156.767C351.05 156.785 351.263 156.761 351.465 156.698L355.867 155.308L358.954 154.335C359.156 154.27 359.369 154.247 359.58 154.265C359.791 154.282 359.997 154.342 360.185 154.439C360.373 154.536 360.54 154.669 360.676 154.831C360.813 154.992 360.916 155.179 360.98 155.381L361.394 156.676C361.458 156.877 361.561 157.064 361.697 157.225C361.833 157.387 362 157.52 362.188 157.618C362.376 157.715 362.582 157.774 362.793 157.792C363.004 157.811 363.216 157.787 363.418 157.723L364.043 157.526L365.322 157.124C365.731 156.995 366.071 156.71 366.268 156.331C366.466 155.952 366.504 155.511 366.375 155.104L365.961 153.809C365.89 153.59 365.868 153.358 365.897 153.13C365.934 152.824 366.059 152.535 366.257 152.297C366.455 152.06 366.717 151.884 367.012 151.791C367.215 151.727 367.402 151.624 367.564 151.487C367.726 151.351 367.859 151.184 367.957 150.996C368.054 150.808 368.113 150.603 368.13 150.392C368.148 150.181 368.123 149.969 368.058 149.768ZM357.612 150.02L356.541 150.358C356.266 150.447 355.971 150.46 355.688 150.395C355.406 150.33 355.147 150.189 354.939 149.988C354.727 149.791 354.574 149.539 354.495 149.261C354.417 148.983 354.416 148.689 354.494 148.411L356.428 141.288L356.522 141.258L358.631 147.885L358.668 148.005C358.732 148.206 358.755 148.418 358.736 148.628C358.718 148.839 358.657 149.043 358.559 149.23C358.461 149.417 358.327 149.583 358.165 149.719C358.002 149.854 357.815 149.957 357.612 150.02Z" fill="#015700"/>
</g>
</svg>
