<svg width="30" height="25" viewBox="0 0 30 25" fill="none" xmlns="http://www.w3.org/2000/svg">
<g clip-path="url(#clip0_2942_35996)">
<path d="M7.43403 21.8578V20.6121C7.44118 20.5073 7.42627 20.4022 7.39029 20.3038C7.35432 20.2053 7.2981 20.1158 7.2254 20.0411C7.1527 19.9665 7.06517 19.9084 6.96865 19.8708C6.87213 19.8332 6.76883 19.817 6.66564 19.8231C6.53057 19.8141 6.39559 19.8421 6.27481 19.9042C6.15403 19.9663 6.05187 20.0602 5.97899 20.1761C5.91256 20.0637 5.8175 19.9716 5.70385 19.9094C5.5902 19.8473 5.46215 19.8175 5.33321 19.8231C5.22082 19.8174 5.10889 19.8415 5.00852 19.8932C4.90815 19.945 4.82283 20.0224 4.76101 20.118V19.873H4.33594V21.8578H4.76509V20.7657C4.75596 20.6979 4.76171 20.6288 4.78191 20.5634C4.80212 20.4981 4.83628 20.438 4.88197 20.3877C4.92766 20.3373 4.98374 20.2978 5.0462 20.272C5.10866 20.2462 5.17596 20.2347 5.24329 20.2384C5.52531 20.2384 5.66836 20.4252 5.66836 20.7616V21.8661H6.09752V20.7657C6.08876 20.6979 6.09477 20.629 6.11511 20.5638C6.13545 20.4986 6.16964 20.4388 6.21525 20.3885C6.26086 20.3382 6.31678 20.2986 6.37907 20.2727C6.44135 20.2468 6.50849 20.2351 6.57572 20.2384C6.86591 20.2384 7.00488 20.4252 7.00488 20.7616V21.8661L7.43403 21.8578ZM13.7835 19.873H13.0846V19.2709H12.6554V19.873H12.2671V20.2674H12.6636V21.181C12.6636 21.6419 12.8393 21.916 13.3421 21.916C13.5299 21.9166 13.7141 21.8634 13.8734 21.7623L13.7508 21.3928C13.6368 21.4618 13.5074 21.5004 13.3748 21.5049C13.1704 21.5049 13.0928 21.372 13.0928 21.1727V20.2674H13.7876L13.7835 19.873ZM17.4088 19.8231C17.3052 19.82 17.2026 19.8454 17.112 19.8966C17.0214 19.9477 16.946 20.0228 16.8938 20.1138V19.873H16.4729V21.8578H16.8979V20.745C16.8979 20.4169 17.0369 20.2342 17.3066 20.2342C17.3976 20.233 17.4878 20.2499 17.5723 20.2841L17.7031 19.8688C17.606 19.8335 17.5038 19.8153 17.4007 19.8148L17.4088 19.8231ZM11.9279 20.0308C11.6873 19.8854 11.4107 19.8133 11.1309 19.8231C10.6363 19.8231 10.3135 20.064 10.3135 20.4585C10.3135 20.7824 10.5505 20.9817 10.9878 21.044L11.1922 21.073C11.4252 21.1062 11.5355 21.1685 11.5355 21.2806C11.5355 21.4343 11.3802 21.5215 11.09 21.5215C10.8566 21.5284 10.6277 21.4552 10.4402 21.3139L10.2358 21.6502C10.4834 21.8259 10.78 21.9161 11.0819 21.9077C11.6459 21.9077 11.9729 21.6378 11.9729 21.2599C11.9729 20.882 11.7154 20.7284 11.2903 20.6661L11.0859 20.637C10.902 20.6121 10.7549 20.5747 10.7549 20.4418C10.7549 20.309 10.8938 20.2093 11.1268 20.2093C11.3421 20.2119 11.5532 20.2705 11.7399 20.3796L11.9279 20.0308ZM23.3128 19.8231C23.2091 19.82 23.1066 19.8454 23.016 19.8966C22.9253 19.9477 22.85 20.0228 22.7978 20.1138V19.873H22.3768V21.8578H22.8019V20.745C22.8019 20.4169 22.9408 20.2342 23.2106 20.2342C23.3015 20.233 23.3918 20.2499 23.4763 20.2841L23.6071 19.8688C23.51 19.8335 23.4077 19.8153 23.3046 19.8148L23.3128 19.8231ZM17.8359 20.8612C17.8309 21.0007 17.8545 21.1398 17.9054 21.2694C17.9563 21.3991 18.0332 21.5165 18.1313 21.6142C18.2294 21.712 18.3465 21.7878 18.4751 21.8369C18.6037 21.886 18.741 21.9073 18.8782 21.8994C19.1334 21.9126 19.3842 21.8281 19.5812 21.6627L19.3768 21.3139C19.2299 21.4277 19.0507 21.4903 18.8659 21.4924C18.7088 21.4795 18.5622 21.407 18.4553 21.2893C18.3485 21.1715 18.2891 21.0172 18.2891 20.8571C18.2891 20.6969 18.3485 20.5427 18.4553 20.4249C18.5622 20.3072 18.7088 20.2347 18.8659 20.2218C19.0507 20.2239 19.2299 20.2865 19.3768 20.4003L19.5812 20.0515C19.3842 19.8861 19.1334 19.8016 18.8782 19.8148C18.741 19.8069 18.6037 19.8282 18.4751 19.8773C18.3465 19.9264 18.2294 20.0022 18.1313 20.1C18.0332 20.1977 17.9563 20.3151 17.9054 20.4448C17.8545 20.5744 17.8309 20.7135 17.8359 20.8529V20.8612ZM21.8169 20.8612V19.873H21.3918V20.1138C21.3196 20.0194 21.2264 19.9439 21.1198 19.8933C21.0132 19.8428 20.8963 19.8187 20.7787 19.8231C20.5077 19.8231 20.2478 19.9325 20.0562 20.1272C19.8646 20.3219 19.7569 20.5859 19.7569 20.8612C19.7569 21.1366 19.8646 21.4006 20.0562 21.5953C20.2478 21.79 20.5077 21.8994 20.7787 21.8994C20.8963 21.9038 21.0132 21.8797 21.1198 21.8292C21.2264 21.7786 21.3196 21.7031 21.3918 21.6087V21.8495H21.8169V20.8612ZM20.2351 20.8612C20.2419 20.7444 20.2822 20.6321 20.351 20.5383C20.4197 20.4444 20.514 20.373 20.6223 20.3329C20.7305 20.2928 20.8479 20.2857 20.96 20.3125C21.0722 20.3393 21.1741 20.3989 21.2534 20.4838C21.3326 20.5688 21.3857 20.6754 21.406 20.7906C21.4264 20.9058 21.4131 21.0245 21.3679 21.1322C21.3226 21.2398 21.2474 21.3316 21.1514 21.3964C21.0555 21.4611 20.943 21.496 20.8278 21.4966C20.7469 21.4976 20.6666 21.4816 20.5921 21.4496C20.5175 21.4176 20.4503 21.3703 20.3946 21.3106C20.339 21.251 20.2961 21.1802 20.2686 21.1029C20.2412 21.0256 20.2298 20.9433 20.2351 20.8612ZM15.1057 19.8231C14.8347 19.827 14.5763 19.9401 14.3874 20.1375C14.1984 20.3349 14.0944 20.6005 14.0982 20.8758C14.102 21.1511 14.2133 21.4136 14.4076 21.6056C14.6019 21.7975 14.8633 21.9032 15.1343 21.8994C15.4283 21.9147 15.7175 21.8185 15.9456 21.6295L15.7413 21.3097C15.5799 21.4412 15.38 21.5143 15.1731 21.5173C15.0326 21.5296 14.8929 21.4857 14.7838 21.395C14.6746 21.3043 14.6046 21.1739 14.5887 21.0315H16.0396C16.0396 20.9775 16.0396 20.9235 16.0396 20.8654C16.0396 20.2425 15.6595 19.8273 15.1118 19.8273L15.1057 19.8231ZM15.1057 20.2093C15.1693 20.2079 15.2326 20.2193 15.2918 20.2428C15.3511 20.2662 15.4053 20.3013 15.4512 20.3461C15.4971 20.3908 15.5339 20.4443 15.5595 20.5035C15.5851 20.5626 15.5989 20.6264 15.6002 20.691H14.5784C14.5858 20.5577 14.6443 20.4327 14.7413 20.3426C14.8383 20.2526 14.9662 20.2048 15.0975 20.2093H15.1057ZM25.7549 20.8654V19.0757H25.3462V20.1138C25.274 20.0194 25.1807 19.9439 25.0741 19.8933C24.9675 19.8428 24.8506 19.8187 24.7331 19.8231C24.4621 19.8231 24.2022 19.9325 24.0106 20.1272C23.8189 20.3219 23.7113 20.5859 23.7113 20.8612C23.7113 21.1366 23.8189 21.4006 24.0106 21.5953C24.2022 21.79 24.4621 21.8994 24.7331 21.8994C24.8506 21.9038 24.9675 21.8797 25.0741 21.8292C25.1807 21.7786 25.274 21.7031 25.3462 21.6087V21.8495H25.7549V20.8654ZM26.464 21.5692C26.4906 21.5689 26.517 21.5739 26.5417 21.5838C26.5651 21.5935 26.5866 21.6076 26.605 21.6253C26.623 21.6432 26.6375 21.6643 26.6479 21.6876C26.6583 21.7118 26.6636 21.738 26.6636 21.7644C26.6636 21.7908 26.6583 21.817 26.6479 21.8412C26.6375 21.8645 26.623 21.8856 26.605 21.9035C26.5866 21.9212 26.5651 21.9353 26.5417 21.945C26.5172 21.956 26.4907 21.9617 26.464 21.9617C26.4253 21.9614 26.3874 21.9499 26.3548 21.9286C26.3223 21.9072 26.2964 21.877 26.2801 21.8412C26.2699 21.817 26.2646 21.7908 26.2646 21.7644C26.2646 21.738 26.2699 21.7119 26.2801 21.6876C26.2905 21.6643 26.305 21.6432 26.323 21.6253C26.3414 21.6076 26.3629 21.5935 26.3863 21.5838C26.413 21.573 26.4415 21.5681 26.4701 21.5692H26.464ZM26.464 21.9201C26.4844 21.9203 26.5046 21.916 26.5233 21.9077C26.5409 21.8997 26.5568 21.8884 26.5703 21.8745C26.5958 21.8461 26.61 21.8091 26.61 21.7706C26.61 21.7322 26.5958 21.6952 26.5703 21.6668C26.5568 21.6528 26.5409 21.6415 26.5233 21.6336C26.5046 21.6253 26.4844 21.6211 26.464 21.6212C26.4436 21.6213 26.4235 21.6255 26.4047 21.6336C26.3864 21.6413 26.3697 21.6526 26.3557 21.6668C26.3301 21.6952 26.316 21.7322 26.316 21.7706C26.316 21.8091 26.3301 21.8461 26.3557 21.8745C26.3697 21.8887 26.3864 21.9 26.4047 21.9077C26.4254 21.9167 26.4477 21.921 26.4701 21.9201H26.464ZM26.4763 21.6731C26.4953 21.6721 26.5141 21.678 26.5294 21.6897C26.5357 21.6949 26.5406 21.7016 26.5438 21.7092C26.547 21.7168 26.5484 21.725 26.5478 21.7333C26.5481 21.7402 26.547 21.747 26.5445 21.7535C26.542 21.7599 26.5383 21.7658 26.5335 21.7706C26.5216 21.7816 26.5065 21.7882 26.4906 21.7893L26.5498 21.8578H26.5028L26.4477 21.7893H26.4293V21.8578H26.3904V21.6751L26.4763 21.6731ZM26.4313 21.7084V21.7582H26.4763C26.4843 21.7606 26.4928 21.7606 26.5008 21.7582C26.5022 21.7553 26.503 21.7521 26.503 21.7488C26.503 21.7456 26.5022 21.7424 26.5008 21.7395C26.5022 21.7366 26.503 21.7334 26.503 21.7302C26.503 21.7269 26.5022 21.7237 26.5008 21.7208C26.4928 21.7184 26.4843 21.7184 26.4763 21.7208L26.4313 21.7084ZM24.1834 20.8654C24.1901 20.7486 24.2304 20.6363 24.2992 20.5424C24.368 20.4485 24.4623 20.3771 24.5705 20.337C24.6787 20.2969 24.7961 20.2898 24.9083 20.3166C25.0204 20.3435 25.1224 20.403 25.2016 20.488C25.2808 20.5729 25.3339 20.6795 25.3542 20.7947C25.3746 20.9099 25.3613 21.0287 25.3161 21.1363C25.2709 21.244 25.1956 21.3358 25.0997 21.4006C25.0037 21.4653 24.8912 21.5001 24.776 21.5007C24.6951 21.5018 24.6148 21.4858 24.5403 21.4538C24.4657 21.4218 24.3985 21.3745 24.3429 21.3148C24.2872 21.2551 24.2443 21.1844 24.2168 21.107C24.1894 21.0297 24.178 20.9474 24.1834 20.8654ZM9.83117 20.8654V19.873H9.4061V20.1138C9.33392 20.0194 9.24068 19.9439 9.13408 19.8933C9.02748 19.8428 8.91058 19.8187 8.79302 19.8231C8.52203 19.8231 8.26213 19.9325 8.0705 20.1272C7.87888 20.3219 7.77122 20.5859 7.77122 20.8612C7.77122 21.1366 7.87888 21.4006 8.0705 21.5953C8.26213 21.79 8.52203 21.8994 8.79302 21.8994C8.91058 21.9038 9.02748 21.8797 9.13408 21.8292C9.24068 21.7786 9.33392 21.7031 9.4061 21.6087V21.8495H9.83117V20.8654ZM8.24943 20.8654C8.2562 20.7486 8.29647 20.6363 8.36525 20.5424C8.43404 20.4485 8.52835 20.3771 8.63657 20.337C8.74479 20.2969 8.8622 20.2898 8.97433 20.3166C9.08647 20.3435 9.18843 20.403 9.26768 20.488C9.34692 20.5729 9.39998 20.6795 9.42032 20.7947C9.44066 20.9099 9.4274 21.0287 9.38217 21.1363C9.33693 21.244 9.2617 21.3358 9.16574 21.4006C9.06977 21.4653 8.95727 21.5001 8.84207 21.5007C8.76081 21.5024 8.68011 21.4868 8.60509 21.4551C8.53006 21.4233 8.46234 21.3761 8.40624 21.3163C8.35013 21.2566 8.30685 21.1857 8.27916 21.108C8.25146 21.0304 8.23994 20.9478 8.24534 20.8654H8.24943Z" fill="#3A3A3A"/>
<path d="M18.2264 4.73682H11.7891V16.4904H18.2264V4.73682Z" fill="#FF5F00"/>
<path d="M12.1945 10.6171C12.1933 9.48499 12.4457 8.36744 12.9325 7.34908C13.4193 6.33072 14.1279 5.43826 15.0044 4.73927C13.9191 3.87269 12.6157 3.33382 11.2432 3.18424C9.87067 3.03466 8.48443 3.28041 7.24288 3.8934C6.00133 4.50638 4.95458 5.46188 4.22225 6.65068C3.48992 7.83948 3.10156 9.21363 3.10156 10.6161C3.10156 12.0185 3.48992 13.3926 4.22225 14.5814C4.95458 15.7703 6.00133 16.7257 7.24288 17.3387C8.48443 17.9517 9.87067 18.1975 11.2432 18.0479C12.6157 17.8983 13.9191 17.3594 15.0044 16.4929C14.1281 15.7941 13.4198 14.902 12.933 13.884C12.4461 12.866 12.1936 11.7489 12.1945 10.6171Z" fill="#EB001B"/>
<path d="M26.9079 10.618C26.9078 12.0205 26.5194 13.3947 25.7869 14.5836C25.0545 15.7724 24.0075 16.7279 22.7658 17.3408C21.5241 17.9537 20.1378 18.1993 18.7652 18.0495C17.3926 17.8997 16.0892 17.3606 15.0039 16.4937C15.8799 15.7943 16.588 14.902 17.075 13.8839C17.5619 12.8659 17.8149 11.7488 17.8149 10.6169C17.8149 9.48506 17.5619 8.36796 17.075 7.34994C16.588 6.33191 15.8799 5.43953 15.0039 4.74014C16.0892 3.87329 17.3926 3.33415 18.7652 3.18436C20.1378 3.03456 21.5241 3.28015 22.7658 3.89305C24.0075 4.50595 25.0545 5.46143 25.7869 6.65028C26.5194 7.83912 26.9078 9.21335 26.9079 10.6159V10.618Z" fill="#F79E1B"/>
<path d="M26.2057 15.2487V15.0078H26.3018V14.958H26.0586V15.0078H26.1628V15.2487H26.2057ZM26.6778 15.2487V14.958H26.6042L26.5184 15.1656L26.4326 14.958H26.3672V15.2487H26.4203V15.0307L26.5 15.2196H26.5552L26.6349 15.0307V15.2508L26.6778 15.2487Z" fill="#F79E1B"/>
</g>
<defs>
<clipPath id="clip0_2942_35996">
<rect width="30" height="25" fill="white"/>
</clipPath>
</defs>
</svg>
