<svg width="30" height="25" viewBox="0 0 30 25" fill="none" xmlns="http://www.w3.org/2000/svg">
<g clip-path="url(#clip0_2948_20850)">
<path d="M7.43598 21.8583V20.6126C7.44313 20.5078 7.42822 20.4027 7.39224 20.3043C7.35627 20.2058 7.30006 20.1163 7.22735 20.0416C7.15465 19.967 7.06712 19.9089 6.9706 19.8713C6.87408 19.8337 6.77078 19.8175 6.66759 19.8236C6.53252 19.8146 6.39755 19.8426 6.27677 19.9047C6.15598 19.9668 6.05382 20.0607 5.98094 20.1766C5.91451 20.0642 5.81946 19.972 5.7058 19.9099C5.59215 19.8478 5.4641 19.818 5.33517 19.8236C5.22277 19.8178 5.11084 19.842 5.01048 19.8937C4.91011 19.9454 4.82478 20.0229 4.76296 20.1184V19.8734H4.33789V21.8583H4.76705V20.7662C4.75792 20.6984 4.76366 20.6293 4.78387 20.5639C4.80407 20.4986 4.83824 20.4385 4.88392 20.3882C4.92961 20.3378 4.98569 20.2983 5.04815 20.2725C5.11061 20.2466 5.17792 20.2352 5.24525 20.2389C5.52726 20.2389 5.67032 20.4257 5.67032 20.7621V21.8666H6.09947V20.7662C6.09072 20.6984 6.09672 20.6295 6.11706 20.5643C6.13741 20.4991 6.17159 20.4392 6.2172 20.3889C6.26281 20.3386 6.31873 20.2991 6.38102 20.2732C6.44331 20.2473 6.51044 20.2355 6.57767 20.2389C6.86786 20.2389 7.00683 20.4257 7.00683 20.7621V21.8666L7.43598 21.8583ZM13.7854 19.8734H13.0865V19.2713H12.6574V19.8734H12.2691V20.2679H12.6655V21.1815C12.6655 21.6424 12.8413 21.9165 13.344 21.9165C13.5318 21.9171 13.716 21.8639 13.8754 21.7628L13.7527 21.3933C13.6388 21.4623 13.5094 21.5009 13.3767 21.5054C13.1724 21.5054 13.0947 21.3725 13.0947 21.1732V20.2679H13.7895L13.7854 19.8734ZM17.4108 19.8236C17.3071 19.8205 17.2046 19.8459 17.114 19.897C17.0233 19.9482 16.948 20.0233 16.8958 20.1143V19.8734H16.4748V21.8583H16.8999V20.7455C16.8999 20.4174 17.0388 20.2347 17.3086 20.2347C17.3995 20.2334 17.4898 20.2504 17.5743 20.2845L17.7051 19.8693C17.608 19.834 17.5057 19.8158 17.4026 19.8153L17.4108 19.8236ZM11.9299 20.0312C11.6892 19.8859 11.4126 19.8138 11.1329 19.8236C10.6383 19.8236 10.3154 20.0645 10.3154 20.4589C10.3154 20.7828 10.5525 20.9822 10.9898 21.0444L11.1942 21.0735C11.4271 21.1067 11.5375 21.169 11.5375 21.2811C11.5375 21.4348 11.3822 21.522 11.092 21.522C10.8586 21.5288 10.6297 21.4557 10.4421 21.3144L10.2378 21.6507C10.4854 21.8264 10.7819 21.9166 11.0838 21.9082C11.6478 21.9082 11.9748 21.6382 11.9748 21.2604C11.9748 20.8825 11.7173 20.7289 11.2923 20.6666L11.0879 20.6375C10.904 20.6126 10.7568 20.5752 10.7568 20.4423C10.7568 20.3095 10.8958 20.2098 11.1288 20.2098C11.3441 20.2123 11.5552 20.271 11.7418 20.38L11.9299 20.0312ZM23.3147 19.8236C23.2111 19.8205 23.1086 19.8459 23.0179 19.897C22.9273 19.9482 22.8519 20.0233 22.7997 20.1143V19.8734H22.3788V21.8583H22.8038V20.7455C22.8038 20.4174 22.9428 20.2347 23.2126 20.2347C23.3035 20.2334 23.3937 20.2504 23.4782 20.2845L23.609 19.8693C23.5119 19.834 23.4097 19.8158 23.3066 19.8153L23.3147 19.8236ZM17.8379 20.8617C17.8328 21.0012 17.8565 21.1402 17.9074 21.2699C17.9582 21.3996 18.0352 21.517 18.1333 21.6147C18.2314 21.7124 18.3485 21.7883 18.4771 21.8374C18.6057 21.8865 18.743 21.9078 18.8801 21.8999C19.1353 21.913 19.3862 21.8286 19.5831 21.6632L19.3788 21.3144C19.2318 21.4282 19.0526 21.4908 18.8679 21.4929C18.7107 21.48 18.5642 21.4075 18.4573 21.2897C18.3504 21.172 18.2911 21.0177 18.2911 20.8576C18.2911 20.6974 18.3504 20.5431 18.4573 20.4254C18.5642 20.3077 18.7107 20.2352 18.8679 20.2223C19.0526 20.2243 19.2318 20.287 19.3788 20.4008L19.5831 20.052C19.3862 19.8866 19.1353 19.8021 18.8801 19.8153C18.743 19.8074 18.6057 19.8287 18.4771 19.8778C18.3485 19.9269 18.2314 20.0027 18.1333 20.1004C18.0352 20.1982 17.9582 20.3156 17.9074 20.4453C17.8565 20.5749 17.8328 20.7139 17.8379 20.8534V20.8617ZM21.8188 20.8617V19.8734H21.3938V20.1143C21.3216 20.0199 21.2283 19.9444 21.1217 19.8938C21.0151 19.8433 20.8982 19.8192 20.7807 19.8236C20.5097 19.8236 20.2498 19.933 20.0582 20.1277C19.8665 20.3224 19.7589 20.5864 19.7589 20.8617C19.7589 21.1371 19.8665 21.4011 20.0582 21.5958C20.2498 21.7905 20.5097 21.8999 20.7807 21.8999C20.8982 21.9043 21.0151 21.8802 21.1217 21.8297C21.2283 21.7791 21.3216 21.7035 21.3938 21.6092V21.85H21.8188V20.8617ZM20.2371 20.8617C20.2439 20.7449 20.2841 20.6326 20.3529 20.5387C20.4217 20.4449 20.516 20.3735 20.6242 20.3334C20.7324 20.2932 20.8498 20.2862 20.962 20.313C21.0741 20.3398 21.1761 20.3993 21.2553 20.4843C21.3346 20.5692 21.3876 20.6759 21.408 20.7911C21.4283 20.9063 21.4151 21.025 21.3698 21.1326C21.3246 21.2403 21.2494 21.3321 21.1534 21.3969C21.0574 21.4616 20.9449 21.4965 20.8297 21.4971C20.7488 21.4981 20.6686 21.4821 20.594 21.4501C20.5195 21.4181 20.4523 21.3708 20.3966 21.3111C20.3409 21.2515 20.298 21.1807 20.2706 21.1034C20.2431 21.026 20.2317 20.9438 20.2371 20.8617ZM15.1076 19.8236C14.8366 19.8275 14.5783 19.9405 14.3893 20.138C14.2004 20.3354 14.0964 20.6009 14.1002 20.8763C14.1039 21.1516 14.2152 21.4141 14.4095 21.6061C14.6039 21.798 14.8653 21.9037 15.1363 21.8999C15.4303 21.9152 15.7194 21.819 15.9476 21.6299L15.7432 21.3102C15.5818 21.4417 15.3819 21.5147 15.1751 21.5178C15.0346 21.5301 14.8949 21.4862 14.7858 21.3955C14.6766 21.3048 14.6066 21.1743 14.5906 21.032H16.0416C16.0416 20.978 16.0416 20.924 16.0416 20.8659C16.0416 20.243 15.6615 19.8278 15.1138 19.8278L15.1076 19.8236ZM15.1076 20.2098C15.1713 20.2084 15.2345 20.2198 15.2938 20.2433C15.3531 20.2667 15.4072 20.3018 15.4531 20.3465C15.4991 20.3913 15.5359 20.4448 15.5614 20.504C15.587 20.5631 15.6009 20.6269 15.6022 20.6915H14.5804C14.5878 20.5582 14.6463 20.4332 14.7433 20.3431C14.8403 20.2531 14.9682 20.2052 15.0995 20.2098H15.1076ZM25.7568 20.8659V19.0762H25.3481V20.1143C25.2759 20.0199 25.1827 19.9444 25.0761 19.8938C24.9695 19.8433 24.8526 19.8192 24.735 19.8236C24.464 19.8236 24.2041 19.933 24.0125 20.1277C23.8209 20.3224 23.7132 20.5864 23.7132 20.8617C23.7132 21.1371 23.8209 21.4011 24.0125 21.5958C24.2041 21.7905 24.464 21.8999 24.735 21.8999C24.8526 21.9043 24.9695 21.8802 25.0761 21.8297C25.1827 21.7791 25.2759 21.7035 25.3481 21.6092V21.85H25.7568V20.8659ZM26.466 21.5697C26.4925 21.5694 26.5189 21.5743 26.5436 21.5843C26.5671 21.594 26.5886 21.6081 26.607 21.6258C26.6249 21.6437 26.6395 21.6648 26.6499 21.6881C26.6602 21.7123 26.6656 21.7385 26.6656 21.7649C26.6656 21.7913 26.6602 21.8175 26.6499 21.8417C26.6395 21.865 26.6249 21.8861 26.607 21.904C26.5886 21.9217 26.5671 21.9358 26.5436 21.9455C26.5192 21.9565 26.4927 21.9622 26.466 21.9621C26.4272 21.9618 26.3894 21.9504 26.3568 21.929C26.3242 21.9077 26.2983 21.8774 26.282 21.8417C26.2718 21.8174 26.2665 21.7913 26.2665 21.7649C26.2665 21.7385 26.2718 21.7124 26.282 21.6881C26.2924 21.6648 26.307 21.6437 26.325 21.6258C26.3433 21.6081 26.3648 21.594 26.3883 21.5843C26.4149 21.5735 26.4435 21.5686 26.4721 21.5697H26.466ZM26.466 21.9206C26.4864 21.9207 26.5065 21.9165 26.5252 21.9082C26.5428 21.9002 26.5588 21.8889 26.5722 21.8749C26.5978 21.8466 26.612 21.8096 26.612 21.7711C26.612 21.7327 26.5978 21.6957 26.5722 21.6673C26.5588 21.6533 26.5428 21.642 26.5252 21.6341C26.5065 21.6258 26.4864 21.6216 26.466 21.6216C26.4456 21.6217 26.4254 21.626 26.4067 21.6341C26.3883 21.6417 26.3717 21.653 26.3576 21.6673C26.3321 21.6957 26.3179 21.7327 26.3179 21.7711C26.3179 21.8096 26.3321 21.8466 26.3576 21.8749C26.3717 21.8892 26.3884 21.9005 26.4067 21.9082C26.4273 21.9172 26.4497 21.9214 26.4721 21.9206H26.466ZM26.4782 21.6735C26.4973 21.6726 26.5161 21.6785 26.5314 21.6902C26.5376 21.6954 26.5425 21.7021 26.5457 21.7097C26.5489 21.7173 26.5503 21.7255 26.5497 21.7338C26.55 21.7407 26.5489 21.7475 26.5465 21.754C26.544 21.7604 26.5402 21.7662 26.5354 21.7711C26.5236 21.7821 26.5085 21.7886 26.4925 21.7898L26.5518 21.8583H26.5048L26.4496 21.7898H26.4312V21.8583H26.3924V21.6756L26.4782 21.6735ZM26.4333 21.7088V21.7587H26.4782C26.4862 21.7611 26.4947 21.7611 26.5027 21.7587C26.5042 21.7558 26.5049 21.7526 26.5049 21.7493C26.5049 21.7461 26.5042 21.7429 26.5027 21.74C26.5042 21.7371 26.5049 21.7339 26.5049 21.7306C26.5049 21.7274 26.5042 21.7242 26.5027 21.7213C26.4947 21.7189 26.4862 21.7189 26.4782 21.7213L26.4333 21.7088ZM24.1853 20.8659C24.1921 20.7491 24.2323 20.6368 24.3011 20.5429C24.3699 20.449 24.4642 20.3776 24.5725 20.3375C24.6807 20.2974 24.7981 20.2903 24.9102 20.3171C25.0223 20.3439 25.1243 20.4035 25.2036 20.4884C25.2828 20.5734 25.3359 20.68 25.3562 20.7952C25.3765 20.9104 25.3633 21.0292 25.318 21.1368C25.2728 21.2444 25.1976 21.3363 25.1016 21.401C25.0057 21.4658 24.8931 21.5006 24.7779 21.5012C24.697 21.5023 24.6168 21.4863 24.5422 21.4543C24.4677 21.4223 24.4005 21.375 24.3448 21.3153C24.2892 21.2556 24.2462 21.1849 24.2188 21.1075C24.1913 21.0302 24.1799 20.9479 24.1853 20.8659ZM9.83312 20.8659V19.8734H9.40805V20.1143C9.33587 20.0199 9.24263 19.9444 9.13603 19.8938C9.02943 19.8433 8.91253 19.8192 8.79498 19.8236C8.52398 19.8236 8.26408 19.933 8.07246 20.1277C7.88083 20.3224 7.77318 20.5864 7.77318 20.8617C7.77318 21.1371 7.88083 21.4011 8.07246 21.5958C8.26408 21.7905 8.52398 21.8999 8.79498 21.8999C8.91253 21.9043 9.02943 21.8802 9.13603 21.8297C9.24263 21.7791 9.33587 21.7035 9.40805 21.6092V21.85H9.83312V20.8659ZM8.25138 20.8659C8.25816 20.7491 8.29842 20.6368 8.36721 20.5429C8.43599 20.449 8.53031 20.3776 8.63853 20.3375C8.74675 20.2974 8.86415 20.2903 8.97629 20.3171C9.08842 20.3439 9.19039 20.4035 9.26963 20.4884C9.34887 20.5734 9.40193 20.68 9.42227 20.7952C9.44262 20.9104 9.42935 21.0292 9.38412 21.1368C9.33889 21.2444 9.26365 21.3363 9.16769 21.401C9.07173 21.4658 8.95922 21.5006 8.84402 21.5012C8.76277 21.5028 8.68207 21.4873 8.60704 21.4555C8.53201 21.4238 8.4643 21.3766 8.40819 21.3168C8.35208 21.2571 8.30881 21.1862 8.28111 21.1085C8.25341 21.0309 8.2419 20.9483 8.24729 20.8659H8.25138Z" fill="#3A3A3A"/>
<path d="M18.2254 4.73633H11.7881V16.4899H18.2254V4.73633Z" fill="#FF5F00"/>
<path d="M12.1945 10.6161C12.1933 9.48401 12.4457 8.36646 12.9325 7.3481C13.4193 6.32975 14.1279 5.43728 15.0044 4.7383C13.9191 3.87172 12.6157 3.33285 11.2432 3.18326C9.87067 3.03368 8.48443 3.27943 7.24288 3.89242C6.00133 4.50541 4.95458 5.4609 4.22225 6.64971C3.48992 7.83851 3.10156 9.21265 3.10156 10.6151C3.10156 12.0175 3.48992 13.3917 4.22225 14.5805C4.95458 15.7693 6.00133 16.7248 7.24288 17.3378C8.48443 17.9507 9.87067 18.1965 11.2432 18.0469C12.6157 17.8973 13.9191 17.3585 15.0044 16.4919C14.1281 15.7931 13.4198 14.901 12.933 13.883C12.4461 12.865 12.1936 11.7479 12.1945 10.6161Z" fill="#EB001B"/>
<path d="M26.9079 10.617C26.9078 12.0195 26.5194 13.3938 25.7869 14.5826C25.0545 15.7715 24.0075 16.7269 22.7658 17.3398C21.5241 17.9527 20.1378 18.1983 18.7652 18.0485C17.3926 17.8987 16.0892 17.3596 15.0039 16.4928C15.8799 15.7934 16.588 14.901 17.075 13.883C17.5619 12.8649 17.8149 11.7478 17.8149 10.616C17.8149 9.48408 17.5619 8.36699 17.075 7.34896C16.588 6.33093 15.8799 5.43855 15.0039 4.73916C16.0892 3.87231 17.3926 3.33318 18.7652 3.18338C20.1378 3.03359 21.5241 3.27917 22.7658 3.89208C24.0075 4.50498 25.0545 5.46046 25.7869 6.6493C26.5194 7.83814 26.9078 9.21238 26.9079 10.6149V10.617Z" fill="#F79E1B"/>
<path d="M26.2057 15.2477V15.0069H26.3018V14.957H26.0586V15.0069H26.1628V15.2477H26.2057ZM26.6778 15.2477V14.957H26.6042L26.5184 15.1647L26.4326 14.957H26.3672V15.2477H26.4203V15.0297L26.5 15.2186H26.5552L26.6349 15.0297V15.2498L26.6778 15.2477Z" fill="#F79E1B"/>
</g>
<defs>
<clipPath id="clip0_2948_20850">
<rect width="30" height="25" fill="white"/>
</clipPath>
</defs>
</svg>
