<svg width="36" height="30" viewBox="0 0 36 30" fill="none" xmlns="http://www.w3.org/2000/svg">
<g clip-path="url(#clip0_2942_20765)">
<path d="M8.92279 26.2292V24.7343C8.93136 24.6086 8.91347 24.4825 8.8703 24.3643C8.82713 24.2462 8.75968 24.1387 8.67243 24.0492C8.58519 23.9596 8.48015 23.8899 8.36433 23.8448C8.2485 23.7997 8.12455 23.7802 8.00072 23.7876C7.83863 23.7768 7.67667 23.8104 7.53173 23.8849C7.38679 23.9594 7.26419 24.072 7.17674 24.2111C7.09702 24.0762 6.98296 23.9657 6.84657 23.8911C6.71019 23.8166 6.55653 23.7808 6.40181 23.7876C6.26694 23.7806 6.13262 23.8096 6.01218 23.8717C5.89174 23.9337 5.78935 24.0267 5.71516 24.1414V23.8474H5.20508V26.2292H5.72006V24.9187C5.70911 24.8372 5.716 24.7543 5.74025 24.6759C5.76449 24.5975 5.80549 24.5255 5.86032 24.465C5.91514 24.4045 5.98244 24.3571 6.05739 24.3262C6.13235 24.2952 6.21311 24.2814 6.29391 24.2859C6.63233 24.2859 6.80399 24.5101 6.80399 24.9137V26.2392H7.31897V24.9187C7.30847 24.8373 7.31568 24.7546 7.34009 24.6764C7.3645 24.5981 7.40552 24.5263 7.46025 24.466C7.51498 24.4056 7.58209 24.3582 7.65683 24.3271C7.73158 24.2959 7.81214 24.2819 7.89282 24.2859C8.24105 24.2859 8.4078 24.5101 8.4078 24.9137V26.2392L8.92279 26.2292ZM16.5421 23.8474H15.7034V23.1248H15.1885V23.8474H14.7225V24.3207H15.1983V25.417C15.1983 25.9701 15.4092 26.299 16.0124 26.299C16.2378 26.2997 16.4588 26.2358 16.65 26.1146L16.5029 25.6711C16.3661 25.754 16.2109 25.8003 16.0517 25.8057C15.8064 25.8057 15.7133 25.6462 15.7133 25.407V24.3207H16.547L16.5421 23.8474ZM20.8925 23.7876C20.7682 23.7838 20.6451 23.8143 20.5364 23.8757C20.4276 23.9371 20.3372 24.0271 20.2746 24.1364V23.8474H19.7694V26.2292H20.2795V24.8938C20.2795 24.5001 20.4462 24.2809 20.7699 24.2809C20.879 24.2794 20.9874 24.2997 21.0887 24.3407L21.2457 23.8424C21.1292 23.8 21.0065 23.7781 20.8827 23.7776L20.8925 23.7876ZM14.3154 24.0367C14.0267 23.8623 13.6947 23.7758 13.359 23.7876C12.7656 23.7876 12.3781 24.0766 12.3781 24.55C12.3781 24.9386 12.6626 25.1778 13.1874 25.2526L13.4326 25.2874C13.7122 25.3273 13.8446 25.402 13.8446 25.5366C13.8446 25.721 13.6582 25.8256 13.31 25.8256C13.0299 25.8338 12.7552 25.7461 12.5301 25.5764L12.2849 25.9801C12.582 26.1908 12.9379 26.2991 13.3002 26.289C13.977 26.289 14.3694 25.9651 14.3694 25.5117C14.3694 25.0582 14.0604 24.8738 13.5503 24.7991L13.3051 24.7642C13.0844 24.7343 12.9078 24.6895 12.9078 24.53C12.9078 24.3706 13.0746 24.251 13.3541 24.251C13.6125 24.254 13.8658 24.3244 14.0898 24.4553L14.3154 24.0367ZM27.9773 23.7876C27.8529 23.7838 27.7299 23.8143 27.6211 23.8757C27.5124 23.9371 27.4219 24.0271 27.3593 24.1364V23.8474H26.8541V26.2292H27.3642V24.8938C27.3642 24.5001 27.531 24.2809 27.8547 24.2809C27.9638 24.2794 28.0721 24.2997 28.1735 24.3407L28.3304 23.8424C28.2139 23.8 28.0912 23.7781 27.9675 23.7776L27.9773 23.7876ZM21.4051 25.0333C21.399 25.2007 21.4274 25.3675 21.4884 25.5231C21.5495 25.6787 21.6418 25.8196 21.7595 25.9369C21.8773 26.0542 22.0178 26.1452 22.1721 26.2041C22.3264 26.263 22.4912 26.2885 22.6558 26.279C22.962 26.2949 23.263 26.1935 23.4994 25.995L23.2541 25.5764C23.0778 25.7131 22.8628 25.7882 22.641 25.7907C22.4525 25.7752 22.2766 25.6882 22.1484 25.5469C22.0201 25.4056 21.9489 25.2205 21.9489 25.0283C21.9489 24.8361 22.0201 24.651 22.1484 24.5097C22.2766 24.3685 22.4525 24.2814 22.641 24.2659C22.8628 24.2684 23.0778 24.3436 23.2541 24.4802L23.4994 24.0616C23.263 23.8631 22.962 23.7618 22.6558 23.7776C22.4912 23.7681 22.3264 23.7937 22.1721 23.8526C22.0178 23.9115 21.8773 24.0025 21.7595 24.1197C21.6418 24.237 21.5495 24.3779 21.4884 24.5335C21.4274 24.6891 21.399 24.856 21.4051 25.0233V25.0333ZM26.1822 25.0333V23.8474H25.6721V24.1364C25.5855 24.0231 25.4736 23.9324 25.3457 23.8718C25.2178 23.8111 25.0775 23.7823 24.9364 23.7876C24.6112 23.7876 24.2993 23.9188 24.0694 24.1524C23.8394 24.3861 23.7103 24.7029 23.7103 25.0333C23.7103 25.3637 23.8394 25.6806 24.0694 25.9142C24.2993 26.1478 24.6112 26.279 24.9364 26.279C25.0775 26.2843 25.2178 26.2555 25.3457 26.1948C25.4736 26.1342 25.5855 26.0435 25.6721 25.9302V26.2193H26.1822V25.0333ZM24.2841 25.0333C24.2922 24.8931 24.3405 24.7584 24.4231 24.6457C24.5056 24.5331 24.6188 24.4474 24.7487 24.3992C24.8785 24.3511 25.0194 24.3426 25.154 24.3748C25.2886 24.407 25.4109 24.4784 25.506 24.5804C25.6011 24.6823 25.6648 24.8103 25.6892 24.9485C25.7136 25.0868 25.6977 25.2292 25.6434 25.3584C25.5891 25.4876 25.4988 25.5978 25.3837 25.6755C25.2685 25.7532 25.1335 25.795 24.9953 25.7957C24.8982 25.7969 24.8019 25.7778 24.7124 25.7394C24.623 25.701 24.5423 25.6442 24.4755 25.5726C24.4087 25.501 24.3572 25.4161 24.3243 25.3233C24.2913 25.2305 24.2777 25.1317 24.2841 25.0333ZM18.1288 23.7876C17.8036 23.7922 17.4935 23.9279 17.2668 24.1648C17.0401 24.4017 16.9152 24.7204 16.9198 25.0507C16.9243 25.3811 17.0579 25.6962 17.2911 25.9265C17.5242 26.1569 17.8379 26.2837 18.1631 26.279C18.5159 26.2974 18.8629 26.182 19.1367 25.9552L18.8915 25.5715C18.6978 25.7292 18.4579 25.8169 18.2097 25.8206C18.0411 25.8353 17.8735 25.7827 17.7425 25.6738C17.6115 25.5649 17.5275 25.4084 17.5084 25.2376H19.2495C19.2495 25.1728 19.2495 25.108 19.2495 25.0383C19.2495 24.2908 18.7934 23.7925 18.1361 23.7925L18.1288 23.7876ZM18.1288 24.251C18.2051 24.2493 18.281 24.263 18.3522 24.2911C18.4233 24.3193 18.4883 24.3614 18.5434 24.4151C18.5985 24.4688 18.6427 24.5329 18.6733 24.604C18.704 24.675 18.7207 24.7515 18.7222 24.829H17.4961C17.505 24.6691 17.5751 24.519 17.6916 24.411C17.808 24.3029 17.9614 24.2455 18.119 24.251H18.1288ZM30.9078 25.0383V22.8906H30.4173V24.1364C30.3307 24.0231 30.2188 23.9324 30.0909 23.8718C29.963 23.8111 29.8227 23.7823 29.6817 23.7876C29.3565 23.7876 29.0446 23.9188 28.8146 24.1524C28.5847 24.3861 28.4555 24.7029 28.4555 25.0333C28.4555 25.3637 28.5847 25.6806 28.8146 25.9142C29.0446 26.1478 29.3565 26.279 29.6817 26.279C29.8227 26.2843 29.963 26.2555 30.0909 26.1948C30.2188 26.1342 30.3307 26.0435 30.4173 25.9302V26.2193H30.9078V25.0383ZM31.7588 25.8829C31.7906 25.8825 31.8223 25.8884 31.8519 25.9003C31.8801 25.912 31.9059 25.9289 31.928 25.9502C31.9495 25.9717 31.967 25.997 31.9795 26.0249C31.9919 26.054 31.9983 26.0854 31.9983 26.1171C31.9983 26.1488 31.9919 26.1802 31.9795 26.2093C31.967 26.2372 31.9495 26.2625 31.928 26.284C31.9059 26.3053 31.8801 26.3222 31.8519 26.3339C31.8226 26.347 31.7909 26.3538 31.7588 26.3538C31.7123 26.3534 31.6668 26.3397 31.6278 26.3141C31.5887 26.2885 31.5576 26.2521 31.5381 26.2093C31.5258 26.1802 31.5194 26.1488 31.5194 26.1171C31.5194 26.0854 31.5258 26.054 31.5381 26.0249C31.5505 25.997 31.568 25.9717 31.5896 25.9502C31.6116 25.9289 31.6374 25.912 31.6656 25.9003C31.6975 25.8874 31.7318 25.8815 31.7661 25.8829H31.7588ZM31.7588 26.304C31.7832 26.3041 31.8075 26.299 31.8299 26.289C31.851 26.2794 31.8701 26.2659 31.8863 26.2491C31.917 26.2151 31.934 26.1707 31.934 26.1246C31.934 26.0784 31.917 26.034 31.8863 26C31.8702 25.9832 31.851 25.9697 31.8299 25.9601C31.8074 25.9502 31.7832 25.9451 31.7588 25.9452C31.7343 25.9453 31.7101 25.9504 31.6876 25.9601C31.6656 25.9693 31.6456 25.9829 31.6288 26C31.5981 26.034 31.5811 26.0784 31.5811 26.1246C31.5811 26.1707 31.5981 26.2151 31.6288 26.2491C31.6456 26.2662 31.6656 26.2798 31.6876 26.289C31.7124 26.2999 31.7392 26.305 31.7661 26.304H31.7588ZM31.7735 26.0075C31.7964 26.0063 31.8189 26.0134 31.8372 26.0274C31.8447 26.0337 31.8507 26.0418 31.8545 26.0509C31.8583 26.06 31.86 26.0699 31.8593 26.0797C31.8597 26.088 31.8583 26.0963 31.8554 26.104C31.8524 26.1117 31.8479 26.1187 31.8421 26.1246C31.8279 26.1377 31.8098 26.1456 31.7906 26.147L31.8618 26.2292H31.8054L31.7391 26.147H31.7171V26.2292H31.6705V26.01L31.7735 26.0075ZM31.7195 26.0498V26.1096H31.7735C31.7831 26.1125 31.7933 26.1125 31.8029 26.1096C31.8046 26.1061 31.8055 26.1023 31.8055 26.0984C31.8055 26.0945 31.8046 26.0907 31.8029 26.0872C31.8046 26.0837 31.8055 26.0799 31.8055 26.076C31.8055 26.0721 31.8046 26.0683 31.8029 26.0648C31.7933 26.0619 31.7831 26.0619 31.7735 26.0648L31.7195 26.0498ZM29.022 25.0383C29.0301 24.8981 29.0784 24.7634 29.161 24.6507C29.2435 24.538 29.3567 24.4524 29.4866 24.4042C29.6164 24.3561 29.7573 24.3476 29.8919 24.3798C30.0264 24.412 30.1488 24.4834 30.2439 24.5854C30.339 24.6873 30.4026 24.8153 30.427 24.9535C30.4515 25.0917 30.4355 25.2342 30.3813 25.3634C30.327 25.4925 30.2367 25.6028 30.1216 25.6805C30.0064 25.7582 29.8714 25.8 29.7331 25.8007C29.6361 25.8019 29.5397 25.7827 29.4503 25.7443C29.3609 25.7059 29.2802 25.6492 29.2134 25.5776C29.1466 25.5059 29.0951 25.4211 29.0622 25.3283C29.0292 25.2355 29.0155 25.1367 29.022 25.0383ZM11.7994 25.0383V23.8474H11.2893V24.1364C11.2027 24.0231 11.0908 23.9324 10.9628 23.8718C10.8349 23.8111 10.6946 23.7823 10.5536 23.7876C10.2284 23.7876 9.9165 23.9188 9.68656 24.1524C9.45661 24.3861 9.32742 24.7029 9.32742 25.0333C9.32742 25.3637 9.45661 25.6806 9.68656 25.9142C9.9165 26.1478 10.2284 26.279 10.5536 26.279C10.6946 26.2843 10.8349 26.2555 10.9628 26.1948C11.0908 26.1342 11.2027 26.0435 11.2893 25.9302V26.2193H11.7994V25.0383ZM9.90126 25.0383C9.9094 24.8981 9.95771 24.7634 10.0403 24.6507C10.1228 24.538 10.236 24.4524 10.3658 24.4042C10.4957 24.3561 10.6366 24.3476 10.7712 24.3798C10.9057 24.412 11.0281 24.4834 11.1232 24.5854C11.2183 24.6873 11.2819 24.8153 11.3063 24.9535C11.3307 25.0917 11.3148 25.2342 11.2606 25.3634C11.2063 25.4925 11.116 25.6028 11.0008 25.6805C10.8857 25.7582 10.7507 25.8 10.6124 25.8007C10.5149 25.8026 10.4181 25.784 10.3281 25.7459C10.238 25.7078 10.1568 25.6511 10.0894 25.5794C10.0221 25.5077 9.97018 25.4226 9.93694 25.3295C9.9037 25.2363 9.88988 25.1372 9.89636 25.0383H9.90126Z" fill="#3A3A3A"/>
<path d="M21.8713 5.68359H14.1465V19.7879H21.8713V5.68359Z" fill="#FF5F00"/>
<path d="M14.6342 12.7401C14.6327 11.3816 14.9356 10.0405 15.5198 8.81851C16.104 7.59648 16.9542 6.52552 18.0061 5.68674C16.7037 4.64684 15.1396 4.0002 13.4926 3.8207C11.8456 3.6412 10.1821 3.9361 8.69224 4.67168C7.20238 5.40727 5.94627 6.55387 5.06748 7.98043C4.18869 9.40699 3.72266 11.056 3.72266 12.7389C3.72266 14.4218 4.18869 16.0708 5.06748 17.4973C5.94627 18.9239 7.20238 20.0705 8.69224 20.8061C10.1821 21.5417 11.8456 21.8366 13.4926 21.6571C15.1396 21.4776 16.7037 20.8309 18.0061 19.791C16.9546 18.9525 16.1045 17.882 15.5203 16.6604C14.9361 15.4388 14.6331 14.0983 14.6342 12.7401Z" fill="#EB001B"/>
<path d="M32.2906 12.7412C32.2906 14.4242 31.8244 16.0733 30.9455 17.4999C30.0665 18.9265 28.8102 20.0731 27.3202 20.8086C25.8301 21.5441 24.1665 21.8388 22.5194 21.659C20.8723 21.4793 19.3082 20.8323 18.0059 19.7921C19.057 18.9528 19.9068 17.882 20.4911 16.6603C21.0755 15.4387 21.3791 14.0982 21.3791 12.7399C21.3791 11.3817 21.0755 10.0412 20.4911 8.81953C19.9068 7.5979 19.057 6.52705 18.0059 5.68777C19.3082 4.64756 20.8723 4.00059 22.5194 3.82084C24.1665 3.64108 25.8301 3.93579 27.3202 4.67127C28.8102 5.40675 30.0665 6.55333 30.9455 7.97994C31.8244 9.40655 32.2906 11.0556 32.2906 12.7387V12.7412Z" fill="#F79E1B"/>
<path d="M31.4481 18.298V18.009H31.5633V17.9492H31.2715V18.009H31.3966V18.298H31.4481ZM32.0145 18.298V17.9492H31.9262L31.8233 18.1984L31.7203 17.9492H31.6418V18.298H31.7055V18.0364L31.8012 18.2631H31.8674L31.963 18.0364V18.3005L32.0145 18.298Z" fill="#F79E1B"/>
</g>
<defs>
<clipPath id="clip0_2942_20765">
<rect width="36" height="30" fill="white"/>
</clipPath>
</defs>
</svg>
