<svg width="37" height="31" viewBox="0 0 37 31" fill="none" xmlns="http://www.w3.org/2000/svg">
<g clip-path="url(#clip0_2942_20640)">
<path d="M9.42474 26.7292V25.2343C9.43332 25.1086 9.41543 24.9825 9.37226 24.8643C9.32909 24.7462 9.26163 24.6387 9.17439 24.5492C9.08714 24.4596 8.98211 24.3899 8.86628 24.3448C8.75046 24.2997 8.6265 24.2802 8.50267 24.2876C8.34059 24.2768 8.17862 24.3104 8.03368 24.3849C7.88874 24.4594 7.76615 24.572 7.67869 24.7111C7.59898 24.5762 7.48491 24.4657 7.34853 24.3911C7.21214 24.3166 7.05849 24.2808 6.90376 24.2876C6.76889 24.2806 6.63457 24.3096 6.51413 24.3717C6.39369 24.4337 6.2913 24.5267 6.21711 24.6414V24.3474H5.70703V26.7292H6.22202V25.4187C6.21106 25.3372 6.21796 25.2543 6.2422 25.1759C6.26645 25.0975 6.30745 25.0255 6.36227 24.965C6.4171 24.9045 6.48439 24.8571 6.55935 24.8262C6.6343 24.7952 6.71506 24.7814 6.79586 24.7859C7.13428 24.7859 7.30594 25.0101 7.30594 25.4137V26.7392H7.82093V25.4187C7.81042 25.3373 7.81763 25.2546 7.84204 25.1764C7.86645 25.0981 7.90747 25.0263 7.9622 24.966C8.01693 24.9056 8.08404 24.8582 8.15879 24.8271C8.23353 24.7959 8.31409 24.7819 8.39477 24.7859C8.743 24.7859 8.90976 25.0101 8.90976 25.4137V26.7392L9.42474 26.7292ZM17.0441 24.3474H16.2054V23.6248H15.6904V24.3474H15.2245V24.8207H15.7002V25.917C15.7002 26.4701 15.9111 26.799 16.5144 26.799C16.7398 26.7997 16.9608 26.7358 17.152 26.6146L17.0049 26.1711C16.8681 26.254 16.7128 26.3003 16.5536 26.3057C16.3084 26.3057 16.2152 26.1462 16.2152 25.907V24.8207H17.049L17.0441 24.3474ZM21.3945 24.2876C21.2701 24.2838 21.1471 24.3143 21.0383 24.3757C20.9296 24.4371 20.8391 24.5271 20.7765 24.6364V24.3474H20.2713V26.7292H20.7814V25.3938C20.7814 25.0001 20.9482 24.7809 21.2719 24.7809C21.381 24.7794 21.4893 24.7997 21.5907 24.8407L21.7476 24.3424C21.6311 24.3 21.5084 24.2781 21.3847 24.2776L21.3945 24.2876ZM14.8174 24.5367C14.5287 24.3623 14.1967 24.2758 13.861 24.2876C13.2675 24.2876 12.8801 24.5766 12.8801 25.05C12.8801 25.4386 13.1645 25.6778 13.6893 25.7526L13.9346 25.7874C14.2141 25.8273 14.3465 25.902 14.3465 26.0366C14.3465 26.221 14.1602 26.3256 13.8119 26.3256C13.5318 26.3338 13.2572 26.2461 13.0321 26.0764L12.7869 26.4801C13.084 26.6908 13.4399 26.7991 13.8021 26.789C14.479 26.789 14.8713 26.4651 14.8713 26.0117C14.8713 25.5582 14.5623 25.3738 14.0523 25.2991L13.807 25.2642C13.5863 25.2343 13.4098 25.1895 13.4098 25.03C13.4098 24.8706 13.5765 24.751 13.8561 24.751C14.1145 24.754 14.3678 24.8244 14.5918 24.9553L14.8174 24.5367ZM28.4792 24.2876C28.3549 24.2838 28.2318 24.3143 28.1231 24.3757C28.0143 24.4371 27.9239 24.5271 27.8613 24.6364V24.3474H27.3561V26.7292H27.8662V25.3938C27.8662 25.0001 28.0329 24.7809 28.3566 24.7809C28.4657 24.7794 28.5741 24.7997 28.6754 24.8407L28.8324 24.3424C28.7159 24.3 28.5932 24.2781 28.4694 24.2776L28.4792 24.2876ZM21.907 25.5333C21.901 25.7007 21.9294 25.8675 21.9904 26.0231C22.0514 26.1787 22.1438 26.3196 22.2615 26.4369C22.3792 26.5542 22.5197 26.6452 22.6741 26.7041C22.8284 26.763 22.9931 26.7885 23.1577 26.779C23.464 26.7949 23.765 26.6935 24.0013 26.495L23.7561 26.0764C23.5798 26.2131 23.3647 26.2882 23.143 26.2907C22.9545 26.2752 22.7786 26.1882 22.6503 26.0469C22.5221 25.9056 22.4509 25.7205 22.4509 25.5283C22.4509 25.3361 22.5221 25.151 22.6503 25.0097C22.7786 24.8685 22.9545 24.7814 23.143 24.7659C23.3647 24.7684 23.5798 24.8436 23.7561 24.9802L24.0013 24.5616C23.765 24.3631 23.464 24.2618 23.1577 24.2776C22.9931 24.2681 22.8284 24.2937 22.6741 24.3526C22.5197 24.4115 22.3792 24.5025 22.2615 24.6197C22.1438 24.737 22.0514 24.8779 21.9904 25.0335C21.9294 25.1891 21.901 25.356 21.907 25.5233V25.5333ZM26.6841 25.5333V24.3474H26.1741V24.6364C26.0874 24.5231 25.9756 24.4324 25.8476 24.3718C25.7197 24.3111 25.5794 24.2823 25.4384 24.2876C25.1132 24.2876 24.8013 24.4188 24.5713 24.6524C24.3414 24.8861 24.2122 25.2029 24.2122 25.5333C24.2122 25.8637 24.3414 26.1806 24.5713 26.4142C24.8013 26.6478 25.1132 26.779 25.4384 26.779C25.5794 26.7843 25.7197 26.7555 25.8476 26.6948C25.9756 26.6342 26.0874 26.5435 26.1741 26.4302V26.7193H26.6841V25.5333ZM24.7861 25.5333C24.7942 25.3931 24.8425 25.2584 24.925 25.1457C25.0076 25.0331 25.1208 24.9474 25.2506 24.8992C25.3805 24.8511 25.5214 24.8426 25.6559 24.8748C25.7905 24.907 25.9129 24.9784 26.008 25.0804C26.103 25.1823 26.1667 25.3103 26.1911 25.4485C26.2155 25.5868 26.1996 25.7292 26.1453 25.8584C26.0911 25.9876 26.0008 26.0978 25.8856 26.1755C25.7705 26.2532 25.6355 26.295 25.4972 26.2957C25.4001 26.2969 25.3038 26.2778 25.2144 26.2394C25.1249 26.201 25.0443 26.1442 24.9775 26.0726C24.9107 26.001 24.8592 25.9161 24.8262 25.8233C24.7933 25.7305 24.7796 25.6317 24.7861 25.5333ZM18.6307 24.2876C18.3055 24.2922 17.9955 24.4279 17.7687 24.6648C17.542 24.9017 17.4172 25.2204 17.4217 25.5507C17.4263 25.8811 17.5598 26.1962 17.793 26.4265C18.0262 26.6569 18.3399 26.7837 18.6651 26.779C19.0179 26.7974 19.3649 26.682 19.6386 26.4552L19.3934 26.0715C19.1998 26.2292 18.9599 26.3169 18.7117 26.3206C18.5431 26.3353 18.3754 26.2827 18.2445 26.1738C18.1135 26.0649 18.0295 25.9084 18.0103 25.7376H19.7514C19.7514 25.6728 19.7514 25.608 19.7514 25.5383C19.7514 24.7908 19.2953 24.2925 18.6381 24.2925L18.6307 24.2876ZM18.6307 24.751C18.7071 24.7493 18.783 24.763 18.8541 24.7911C18.9252 24.8193 18.9902 24.8614 19.0453 24.9151C19.1004 24.9688 19.1446 25.0329 19.1753 25.104C19.206 25.175 19.2226 25.2515 19.2242 25.329H17.998C18.0069 25.1691 18.0771 25.019 18.1935 24.911C18.3099 24.8029 18.4633 24.7455 18.6209 24.751H18.6307ZM31.4098 25.5383V23.3906H30.9193V24.6364C30.8327 24.5231 30.7208 24.4324 30.5929 24.3718C30.465 24.3111 30.3247 24.2823 30.1836 24.2876C29.8584 24.2876 29.5465 24.4188 29.3166 24.6524C29.0866 24.8861 28.9574 25.2029 28.9574 25.5333C28.9574 25.8637 29.0866 26.1806 29.3166 26.4142C29.5465 26.6478 29.8584 26.779 30.1836 26.779C30.3247 26.7843 30.465 26.7555 30.5929 26.6948C30.7208 26.6342 30.8327 26.5435 30.9193 26.4302V26.7193H31.4098V25.5383ZM32.2607 26.3829C32.2926 26.3825 32.3243 26.3884 32.3539 26.4003C32.3821 26.412 32.4078 26.4289 32.4299 26.4502C32.4515 26.4717 32.4689 26.497 32.4814 26.5249C32.4938 26.554 32.5003 26.5854 32.5003 26.6171C32.5003 26.6488 32.4938 26.6802 32.4814 26.7093C32.4689 26.7372 32.4515 26.7625 32.4299 26.784C32.4078 26.8053 32.3821 26.8222 32.3539 26.8339C32.3245 26.847 32.2928 26.8538 32.2607 26.8538C32.2142 26.8534 32.1688 26.8397 32.1297 26.8141C32.0906 26.7885 32.0595 26.7521 32.04 26.7093C32.0277 26.6802 32.0214 26.6488 32.0214 26.6171C32.0214 26.5854 32.0277 26.554 32.04 26.5249C32.0525 26.497 32.07 26.4717 32.0915 26.4502C32.1136 26.4289 32.1394 26.412 32.1675 26.4003C32.1995 26.3874 32.2337 26.3815 32.2681 26.3829H32.2607ZM32.2607 26.804C32.2852 26.8041 32.3094 26.799 32.3318 26.789C32.3529 26.7794 32.3721 26.7659 32.3882 26.7491C32.4189 26.7151 32.4359 26.6707 32.4359 26.6246C32.4359 26.5784 32.4189 26.534 32.3882 26.5C32.3721 26.4832 32.353 26.4697 32.3318 26.4601C32.3094 26.4502 32.2852 26.4451 32.2607 26.4452C32.2363 26.4453 32.2121 26.4504 32.1896 26.4601C32.1676 26.4693 32.1476 26.4829 32.1307 26.5C32.1001 26.534 32.0831 26.5784 32.0831 26.6246C32.0831 26.6707 32.1001 26.7151 32.1307 26.7491C32.1476 26.7662 32.1676 26.7798 32.1896 26.789C32.2143 26.7999 32.2411 26.805 32.2681 26.804H32.2607ZM32.2754 26.5075C32.2983 26.5063 32.3209 26.5134 32.3392 26.5274C32.3467 26.5337 32.3526 26.5418 32.3565 26.5509C32.3603 26.56 32.3619 26.5699 32.3613 26.5797C32.3616 26.588 32.3603 26.5963 32.3573 26.604C32.3544 26.6117 32.3499 26.6187 32.3441 26.6246C32.3299 26.6377 32.3117 26.6456 32.2926 26.647L32.3637 26.7292H32.3073L32.2411 26.647H32.219V26.7292H32.1724V26.51L32.2754 26.5075ZM32.2215 26.5498V26.6096H32.2754C32.285 26.6125 32.2953 26.6125 32.3049 26.6096C32.3066 26.6061 32.3075 26.6023 32.3075 26.5984C32.3075 26.5945 32.3066 26.5907 32.3049 26.5872C32.3066 26.5837 32.3075 26.5799 32.3075 26.576C32.3075 26.5721 32.3066 26.5683 32.3049 26.5648C32.2953 26.5619 32.285 26.5619 32.2754 26.5648L32.2215 26.5498ZM29.5239 25.5383C29.5321 25.3981 29.5804 25.2634 29.6629 25.1507C29.7455 25.038 29.8586 24.9524 29.9885 24.9042C30.1184 24.8561 30.2593 24.8476 30.3938 24.8798C30.5284 24.912 30.6507 24.9834 30.7458 25.0854C30.8409 25.1873 30.9046 25.3153 30.929 25.4535C30.9534 25.5917 30.9375 25.7342 30.8832 25.8634C30.8289 25.9925 30.7387 26.1028 30.6235 26.1805C30.5083 26.2582 30.3733 26.3 30.2351 26.3007C30.138 26.3019 30.0417 26.2827 29.9523 26.2443C29.8628 26.2059 29.7821 26.1492 29.7153 26.0776C29.6486 26.0059 29.5971 25.9211 29.5641 25.8283C29.5312 25.7355 29.5175 25.6367 29.5239 25.5383ZM12.3013 25.5383V24.3474H11.7912V24.6364C11.7046 24.5231 11.5927 24.4324 11.4648 24.3718C11.3369 24.3111 11.1966 24.2823 11.0555 24.2876C10.7303 24.2876 10.4185 24.4188 10.1885 24.6524C9.95856 24.8861 9.82938 25.2029 9.82938 25.5333C9.82938 25.8637 9.95856 26.1806 10.1885 26.4142C10.4185 26.6478 10.7303 26.779 11.0555 26.779C11.1966 26.7843 11.3369 26.7555 11.4648 26.6948C11.5927 26.6342 11.7046 26.5435 11.7912 26.4302V26.7193H12.3013V25.5383ZM10.4032 25.5383C10.4114 25.3981 10.4597 25.2634 10.5422 25.1507C10.6248 25.038 10.7379 24.9524 10.8678 24.9042C10.9977 24.8561 11.1385 24.8476 11.2731 24.8798C11.4077 24.912 11.53 24.9834 11.6251 25.0854C11.7202 25.1873 11.7839 25.3153 11.8083 25.4535C11.8327 25.5917 11.8168 25.7342 11.7625 25.8634C11.7082 25.9925 11.6179 26.1028 11.5028 26.1805C11.3876 26.2582 11.2526 26.3 11.1144 26.3007C11.0169 26.3026 10.92 26.284 10.83 26.2459C10.74 26.2078 10.6587 26.1511 10.5914 26.0794C10.5241 26.0077 10.4721 25.9226 10.4389 25.8295C10.4057 25.7363 10.3918 25.6372 10.3983 25.5383H10.4032Z" fill="#3A3A3A"/>
<path d="M22.3732 6.18359H14.6484V20.2879H22.3732V6.18359Z" fill="#FF5F00"/>
<path d="M15.1381 13.2401C15.1366 11.8816 15.4395 10.5405 16.0237 9.31851C16.6079 8.09648 17.4581 7.02552 18.51 6.18674C17.2076 5.14684 15.6435 4.5002 13.9965 4.3207C12.3495 4.1412 10.686 4.4361 9.19614 5.17168C7.70629 5.90727 6.45018 7.05387 5.57139 8.48043C4.69259 9.90699 4.22656 11.556 4.22656 13.2389C4.22656 14.9218 4.69259 16.5708 5.57139 17.9973C6.45018 19.4239 7.70629 20.5705 9.19614 21.3061C10.686 22.0417 12.3495 22.3366 13.9965 22.1571C15.6435 21.9776 17.2076 21.3309 18.51 20.291C17.4585 19.4525 16.6084 18.382 16.0242 17.1604C15.4401 15.9388 15.137 14.5983 15.1381 13.2401Z" fill="#EB001B"/>
<path d="M32.7926 13.2412C32.7925 14.9242 32.3264 16.5733 31.4474 17.9999C30.5685 19.4265 29.3122 20.5731 27.8221 21.3086C26.3321 22.0441 24.6684 22.3388 23.0213 22.159C21.3742 21.9793 19.8101 21.3323 18.5078 20.2921C19.5589 19.4528 20.4087 18.382 20.9931 17.1603C21.5774 15.9387 21.881 14.5982 21.881 13.2399C21.881 11.8817 21.5774 10.5412 20.9931 9.31953C20.4087 8.0979 19.5589 7.02705 18.5078 6.18777C19.8101 5.14756 21.3742 4.50059 23.0213 4.32084C24.6684 4.14108 26.3321 4.43579 27.8221 5.17127C29.3122 5.90675 30.5685 7.05333 31.4474 8.47994C32.3264 9.90655 32.7925 11.5556 32.7926 13.2387V13.2412Z" fill="#F79E1B"/>
<path d="M31.95 18.798V18.509H32.0653V18.4492H31.7734V18.509H31.8985V18.798H31.95ZM32.5165 18.798V18.4492H32.4282L32.3252 18.6984L32.2222 18.4492H32.1437V18.798H32.2075V18.5364L32.3031 18.7631H32.3693L32.465 18.5364V18.8005L32.5165 18.798Z" fill="#F79E1B"/>
</g>
<defs>
<clipPath id="clip0_2942_20640">
<rect width="36" height="30" fill="white" transform="translate(0.5 0.5)"/>
</clipPath>
</defs>
</svg>
