<svg width="21" height="25" viewBox="0 0 21 25" fill="none" xmlns="http://www.w3.org/2000/svg">
<path d="M16.8889 3C17.4488 3 17.9858 3.22242 18.3817 3.61833C18.7776 4.01424 19 4.55121 19 5.11111V19.8889C19 20.4488 18.7776 20.9858 18.3817 21.3817C17.9858 21.7776 17.4488 22 16.8889 22H2.11111C1.55121 22 1.01424 21.7776 0.61833 21.3817C0.22242 20.9858 0 20.4488 0 19.8889V5.11111C0 4.55121 0.22242 4.01424 0.61833 3.61833C1.01424 3.22242 1.55121 3 2.11111 3H16.8889ZM16.3611 19.3611V13.7667C16.3611 12.854 15.9986 11.9788 15.3532 11.3334C14.7079 10.6881 13.8326 10.3256 12.92 10.3256C12.0228 10.3256 10.9778 10.8744 10.4711 11.6978V10.5261H7.52611V19.3611H10.4711V14.1572C10.4711 13.3444 11.1256 12.6794 11.9383 12.6794C12.3303 12.6794 12.7061 12.8351 12.9833 13.1123C13.2604 13.3894 13.4161 13.7653 13.4161 14.1572V19.3611H16.3611ZM4.09556 8.86889C4.56587 8.86889 5.01693 8.68206 5.34949 8.34949C5.68206 8.01693 5.86889 7.56587 5.86889 7.09556C5.86889 6.11389 5.07722 5.31167 4.09556 5.31167C3.62244 5.31167 3.1687 5.49961 2.83416 5.83416C2.49961 6.1687 2.31167 6.62244 2.31167 7.09556C2.31167 8.07722 3.11389 8.86889 4.09556 8.86889ZM5.56278 19.3611V10.5261H2.63889V19.3611H5.56278Z" fill="#CCCCCC"/>
</svg>
