<svg width="58" height="14" viewBox="0 0 58 14" fill="none" xmlns="http://www.w3.org/2000/svg">
<g clip-path="url(#clip0_2012_40927)">
<path d="M43.7186 8.40526C43.5237 8.51693 43.3176 8.61252 43.1018 8.69393C42.8117 8.80032 42.5367 8.85604 42.2823 8.85604C41.8918 8.85604 41.5917 8.80585 41.3888 8.69849C41.1857 8.59667 41.0792 8.41967 41.0826 8.16629C41.0826 7.87378 41.1569 7.64682 41.3106 7.46886C41.4654 7.29763 41.6955 7.15977 41.9808 7.05698C42.2646 6.96957 42.6136 6.89752 43.0164 6.84588C43.3747 6.80481 44.0829 6.7306 44.1735 6.73012C44.2641 6.7294 44.3244 6.68401 44.284 6.90352C44.266 6.99887 44.0615 7.7621 43.9677 8.10914C43.9405 8.21313 43.7884 8.36467 43.7186 8.40526ZM46.4983 3.04099C45.9018 2.73839 44.9687 2.5854 43.6919 2.5854C43.0605 2.5854 42.426 2.63151 41.7893 2.72133C41.322 2.78642 41.2739 2.79723 40.9836 2.85462C40.3863 2.97278 40.2941 3.51651 40.2941 3.51651L40.1023 4.23364C39.9934 4.69235 40.2809 4.67337 40.409 4.63783C40.6697 4.56626 40.8111 4.49517 41.3431 4.38566C41.8517 4.28071 42.389 4.20218 42.8178 4.2053C43.4465 4.2053 43.9247 4.26798 44.2425 4.38854C44.5606 4.51463 44.718 4.72933 44.718 5.0365C44.7191 5.10951 44.7212 5.17843 44.6921 5.23872C44.666 5.29491 44.6158 5.34919 44.4654 5.36768C43.568 5.4162 42.924 5.49065 42.1483 5.59344C41.383 5.69142 40.7133 5.8593 40.1535 6.09177C39.5567 6.33242 39.1103 6.65447 38.8025 7.06251C38.5029 7.47247 38.3524 7.96888 38.3516 8.55368C38.3516 9.10629 38.57 9.55707 38.9927 9.90699C39.4204 10.2523 39.9768 10.4233 40.6499 10.4233C41.0705 10.4207 41.3997 10.3931 41.6356 10.3395C41.8691 10.286 42.1238 10.2098 42.3927 10.1039C42.5937 10.0276 42.8106 9.91708 43.0397 9.7785C43.269 9.63945 43.4278 9.54074 43.6314 9.41946L43.6388 9.43099L43.5815 9.66082C43.5812 9.66299 43.5778 9.66419 43.5778 9.66635L43.5797 9.67067C43.5141 9.94758 43.6972 10.1779 43.9989 10.205L44.0026 10.2098H44.0293L44.0303 10.211C44.2306 10.211 44.918 10.2108 45.2392 10.2098H45.4635C45.4783 10.2098 45.4799 10.2058 45.4857 10.2026C45.7937 10.1683 46.0891 9.94013 46.1586 9.66635L47.3059 5.16451C47.3323 5.05859 47.3532 4.93635 47.3656 4.79562C47.3799 4.65344 47.3968 4.53648 47.3918 4.45194C47.3944 3.81479 47.0932 3.34383 46.4983 3.04099Z" fill="#336699"/>
<path d="M26.7592 2.6829C26.4227 2.6829 25.9812 2.93051 25.7723 3.22975C25.7723 3.22975 23.5209 6.73852 23.2998 7.08916C23.1796 7.27768 23.0578 7.15784 23.0375 7.08772C23.0211 7.00246 22.3398 3.2528 22.3398 3.2528C22.2632 2.95092 21.9163 2.69179 21.4825 2.69299L20.0787 2.69491C19.7403 2.69491 19.5292 2.94131 19.6045 3.23911C19.6045 3.23911 20.6776 8.76861 20.8868 10.0691C20.9911 10.7884 20.876 10.9159 20.876 10.9159L19.4848 13.1211C19.2811 13.4201 19.3926 13.665 19.7294 13.665L21.3562 13.6638C21.6931 13.6638 22.1393 13.4201 22.3398 13.1206L28.5982 3.49801C28.5982 3.49801 29.1968 2.67593 28.6447 2.6829C28.2682 2.6877 26.7592 2.6829 26.7592 2.6829Z" fill="#1C3664"/>
<path d="M10.3939 1.7832C10.1987 1.43689 9.906 1.15566 9.53245 0.943356C9.1449 0.726009 8.69421 0.576148 8.16876 0.485847C7.64014 0.399629 7.02275 0.357361 6.31449 0.351597L3.03498 0.353758C2.69419 0.35736 2.36027 0.600404 2.28154 0.898206L0.0701022 9.63795C-0.00598118 9.93696 0.206946 10.1841 0.546415 10.1841H2.11749C2.45722 10.1841 2.79378 9.94344 2.87013 9.63795L3.41143 7.51708C3.48382 7.22048 3.81959 6.97503 4.16011 6.97503H4.60922C6.53059 6.97335 8.02082 6.61599 9.0918 5.90079C10.1612 5.18702 10.6962 4.24079 10.6935 3.07071C10.6962 2.55677 10.5981 2.12664 10.3939 1.7832ZM7.00162 4.63873C6.52795 4.95359 5.87146 5.11137 5.01922 5.11137H4.63405C4.29458 5.11137 4.08033 4.86665 4.15509 4.56596L4.62797 2.71335C4.70009 2.41483 5.03877 2.16722 5.37824 2.1701L5.89233 2.16722C6.49281 2.16722 6.94931 2.26065 7.25734 2.44653C7.56088 2.62737 7.71516 2.91293 7.70988 3.29695C7.71886 3.87526 7.47767 4.32292 7.00162 4.63873Z" fill="#1C3664"/>
<path d="M38.9194 1.81714C38.7237 1.47082 38.4281 1.19199 38.0543 0.974887C37.6709 0.75826 37.2155 0.607198 36.6882 0.519058C36.1667 0.435962 35.5467 0.38841 34.8403 0.386969L31.5534 0.38841C31.2149 0.393694 30.8829 0.635298 30.8047 0.932858L28.5948 9.67525C28.5142 9.97233 28.734 10.2199 29.0664 10.2183L30.6435 10.2156C30.978 10.2183 31.3188 9.97233 31.3978 9.67525L31.9309 7.55365C32.0056 7.25633 32.3456 7.00728 32.6856 7.01161H33.1339C35.0577 7.01161 36.5492 6.65232 37.6173 5.93712C38.6827 5.21831 39.219 4.27544 39.219 3.10272C39.2156 2.5907 39.1197 2.15937 38.9194 1.81714ZM35.5285 4.67651C35.0577 4.98776 34.397 5.14386 33.5468 5.14386H33.1559C32.8177 5.14747 32.5992 4.8989 32.6795 4.60086L33.1508 2.74536C33.2211 2.45188 33.5643 2.20212 33.8977 2.20452L34.4141 2.20212C35.017 2.20452 35.468 2.29626 35.7794 2.47854C36.0856 2.66299 36.2341 2.94902 36.2365 3.33016C36.2378 3.91111 36.0013 4.35805 35.5285 4.67651Z" fill="#336699"/>
<path d="M15.1874 8.39549C14.9924 8.50717 14.7866 8.60227 14.5708 8.68393C14.2807 8.78984 14.0044 8.84604 13.7508 8.84604C13.3614 8.84604 13.0605 8.7956 12.8573 8.68873C12.6544 8.58666 12.5474 8.40966 12.5509 8.15605C12.5509 7.86425 12.6259 7.63658 12.7794 7.45886C12.9344 7.28738 13.1635 7.14929 13.4488 7.04674C13.7333 6.95884 14.0834 6.88775 14.4849 6.83612C14.8431 6.79505 15.5522 6.72108 15.6425 6.71988C15.7324 6.71964 15.7929 6.67377 15.7524 6.89328C15.735 6.98862 15.5303 7.75234 15.4365 8.09913C15.4082 8.2036 15.256 8.35514 15.1874 8.39549ZM17.967 3.03099C17.3705 2.72838 16.4377 2.57564 15.1609 2.57564C14.5293 2.57564 13.895 2.62127 13.2581 2.71133C12.7899 2.77593 12.7429 2.78698 12.4523 2.84438C11.8548 2.96302 11.7628 3.50627 11.7628 3.50627L11.571 4.22387C11.4624 4.68234 11.7501 4.66337 11.8777 4.62783C12.1379 4.55626 12.2801 4.48541 12.8121 4.37541C13.3199 4.27094 13.858 4.19265 14.2862 4.19529C14.9155 4.19529 15.3932 4.25774 15.711 4.3783C16.0293 4.50438 16.186 4.71957 16.186 5.02649C16.1881 5.0995 16.1897 5.16867 16.1614 5.22847C16.1347 5.28515 16.084 5.33919 15.9337 5.35744C15.0373 5.40667 14.3935 5.48088 13.6166 5.58367C12.8512 5.68166 12.1818 5.84953 11.6217 6.08177C11.025 6.32241 10.579 6.64495 10.2718 7.05274C9.97116 7.46246 9.82084 7.95888 9.82031 8.54391C9.82031 9.09628 10.0391 9.54731 10.4612 9.89699C10.8892 10.2423 11.445 10.4136 12.1181 10.4136C12.539 10.4109 12.8679 10.3828 13.1046 10.3298C13.3378 10.2757 13.5928 10.2001 13.8607 10.0942C14.0625 10.0178 14.2789 9.90683 14.5082 9.7685C14.7369 9.62968 14.8965 9.53098 15.101 9.4097L15.1073 9.42098L15.05 9.65058C15.0495 9.65274 15.0463 9.65418 15.0463 9.65682L15.0487 9.66043C14.9832 9.93805 15.1657 10.1681 15.4677 10.1948L15.4714 10.2001H15.4978L15.4986 10.2018C15.6993 10.2018 16.387 10.2008 16.7074 10.2001H16.932C16.9471 10.2001 16.9492 10.1955 16.9539 10.1926C17.2627 10.1573 17.557 9.92965 17.6273 9.65682L18.7746 5.1545C18.8005 5.04883 18.8217 4.92659 18.8333 4.78609C18.8486 4.6432 18.8653 4.52672 18.8608 4.44242C18.8634 3.80479 18.5617 3.33383 17.967 3.03099Z" fill="#1C3664"/>
<path d="M51.9137 0.457664H50.508C50.5072 0.457664 50.5065 0.457905 50.5059 0.457905L50.5051 0.457664C50.1834 0.457664 49.8568 0.681736 49.7657 0.966808C49.762 0.978336 49.7557 0.989384 49.7528 1.00139C49.7528 1.00139 49.7192 1.14045 49.6611 1.38085L47.7302 9.33743C47.6856 9.51731 47.6557 9.63451 47.6467 9.66501L47.6504 9.66933C47.5836 9.94744 47.7674 10.1775 48.0694 10.2032L48.0734 10.2085H49.5324C49.8521 10.2085 50.1765 9.98659 50.2705 9.70512C50.275 9.69143 50.2822 9.6787 50.2856 9.66501L52.3919 1.00091L52.3887 0.99995C52.4603 0.70359 52.2503 0.457664 51.9137 0.457664Z" fill="#336699"/>
<path d="M54.5754 2.22136C54.5276 2.23289 54.4753 2.2425 54.418 2.24994C54.3609 2.25715 54.3097 2.26123 54.2655 2.26123C54.1086 2.26123 53.9903 2.2228 53.9092 2.14667C53.8278 2.0703 53.7874 1.94782 53.7874 1.77946V1.04049H53.6133V0.843552H53.7874V0.444162H54.0444V0.843552H54.5754V1.04049H54.0444V1.67379C54.0444 1.74656 54.0468 1.80372 54.05 1.84479C54.0539 1.8861 54.0666 1.92428 54.0885 1.95983C54.1084 1.99321 54.1358 2.01723 54.1712 2.0326C54.2066 2.04821 54.2603 2.05589 54.3324 2.05589C54.3741 2.05589 54.418 2.05013 54.4639 2.03884C54.5091 2.02779 54.5421 2.01843 54.5622 2.01098H54.5754V2.22136Z" fill="#336699"/>
<path d="M57.1185 2.23389H56.8615V1.44231C56.8615 1.38275 56.8583 1.32487 56.8522 1.2694C56.8462 1.21368 56.8332 1.16949 56.8145 1.13611C56.7933 1.10056 56.7635 1.07342 56.7241 1.05541C56.6847 1.03716 56.6285 1.02803 56.5545 1.02803C56.4821 1.02803 56.4105 1.04436 56.3381 1.07727C56.266 1.10993 56.1942 1.15148 56.122 1.20215C56.1247 1.22136 56.1268 1.24346 56.1286 1.26891C56.1308 1.29413 56.1315 1.31911 56.1315 1.34409V2.23389H55.8745V1.44231C55.8745 1.38083 55.8711 1.32271 55.8652 1.26747C55.8594 1.21224 55.8465 1.16829 55.8277 1.13514C55.8063 1.09936 55.7762 1.0727 55.7369 1.05469C55.6978 1.03692 55.6412 1.02803 55.5673 1.02803C55.497 1.02803 55.427 1.04388 55.3559 1.07534C55.2851 1.10681 55.2148 1.14691 55.1443 1.19591V2.23389H54.8867V0.843828H55.1443V0.998012C55.2249 0.937491 55.3049 0.890179 55.3847 0.856076C55.465 0.822453 55.5493 0.805161 55.6399 0.805161C55.7437 0.805161 55.8322 0.825095 55.9049 0.864722C55.9773 0.904829 56.0314 0.959826 56.0671 1.03043C56.1709 0.9507 56.266 0.893061 56.3519 0.857997C56.4375 0.822933 56.5291 0.805161 56.6269 0.805161C56.7949 0.805161 56.9188 0.851513 56.9986 0.943735C57.0784 1.03644 57.1185 1.16565 57.1185 1.3316V2.23389Z" fill="#336699"/>
</g>
<defs>
<clipPath id="clip0_2012_40927">
<rect width="57.1382" height="14" fill="white" transform="translate(0.613281)"/>
</clipPath>
</defs>
</svg>
