<svg width="58" height="14" viewBox="0 0 58 14" fill="none" xmlns="http://www.w3.org/2000/svg">
<g clip-path="url(#clip0_2066_96596)">
<path d="M43.7191 8.40379C43.5241 8.51547 43.3181 8.61105 43.1022 8.69247C42.8122 8.79886 42.5372 8.85458 42.2828 8.85458C41.8923 8.85458 41.5922 8.80438 41.3893 8.69703C41.1862 8.5952 41.0797 8.4182 41.0831 8.16483C41.0831 7.87231 41.1574 7.64536 41.3111 7.4674C41.4659 7.29616 41.696 7.15831 41.9813 7.05552C42.2651 6.9681 42.614 6.89605 43.0169 6.84442C43.3751 6.80335 44.0834 6.72914 44.174 6.72866C44.2646 6.72794 44.3249 6.68255 44.2844 6.90206C44.2665 6.9974 44.062 7.76064 43.9682 8.10767C43.941 8.21166 43.7888 8.3632 43.7191 8.40379ZM46.4988 3.03953C45.9023 2.73692 44.9692 2.58394 43.6924 2.58394C43.061 2.58394 42.4265 2.63005 41.7898 2.71987C41.3225 2.78495 41.2744 2.79576 40.9841 2.85316C40.3868 2.97132 40.2946 3.51505 40.2946 3.51505L40.1028 4.23217C39.9939 4.69088 40.2813 4.67191 40.4095 4.63636C40.6702 4.5648 40.8116 4.49371 41.3436 4.38419C41.8522 4.27924 42.3895 4.20071 42.8183 4.20383C43.447 4.20383 43.9252 4.26651 44.243 4.38708C44.561 4.51316 44.7185 4.72787 44.7185 5.03503C44.7195 5.10804 44.7217 5.17697 44.6926 5.23725C44.6664 5.29345 44.6163 5.34773 44.4659 5.36622C43.5685 5.41473 42.9245 5.48918 42.1488 5.59197C41.3835 5.68996 40.7138 5.85783 40.154 6.09031C39.5572 6.33095 39.1108 6.65301 38.803 7.06104C38.5034 7.471 38.3528 7.96742 38.3521 8.55221C38.3521 9.10482 38.5705 9.55561 38.9932 9.90553C39.4209 10.2509 39.9773 10.4219 40.6504 10.4219C41.071 10.4192 41.4001 10.3916 41.6361 10.3381C41.8696 10.2845 42.1243 10.2084 42.3932 10.1025C42.5942 10.0261 42.8111 9.91561 43.0402 9.77704C43.2695 9.63799 43.4282 9.53928 43.6319 9.418L43.6393 9.42952L43.582 9.65936C43.5817 9.66152 43.5783 9.66272 43.5783 9.66488L43.5801 9.66921C43.5146 9.94611 43.6977 10.1764 43.9994 10.2036L44.0031 10.2084H44.0298L44.0308 10.2096C44.2311 10.2096 44.9185 10.2093 45.2397 10.2084H45.464C45.4788 10.2084 45.4804 10.2043 45.4862 10.2012C45.7942 10.1668 46.0896 9.93867 46.1591 9.66488L47.3064 5.16304C47.3328 5.05713 47.3537 4.93489 47.3661 4.79415C47.3804 4.65198 47.3973 4.53502 47.3922 4.45048C47.3949 3.81333 47.0937 3.34237 46.4988 3.03953Z" fill="#336699"/>
<path d="M26.7597 2.68192C26.4231 2.68192 25.9817 2.92953 25.7727 3.22877C25.7727 3.22877 23.5214 6.73754 23.3003 7.08818C23.1801 7.27671 23.0583 7.15687 23.038 7.08674C23.0216 7.00148 22.3403 3.25183 22.3403 3.25183C22.2637 2.94994 21.9168 2.69081 21.483 2.69201L20.0792 2.69393C19.7407 2.69393 19.5297 2.94034 19.605 3.23814C19.605 3.23814 20.6781 8.76763 20.8873 10.0681C20.9916 10.7874 20.8765 10.9149 20.8765 10.9149L19.4853 13.1201C19.2816 13.4191 19.3931 13.6641 19.7299 13.6641L21.3567 13.6629C21.6936 13.6629 22.1398 13.4191 22.3403 13.1196L28.5987 3.49703C28.5987 3.49703 29.1973 2.67496 28.6452 2.68192C28.2687 2.68673 26.7597 2.68192 26.7597 2.68192Z" fill="#1C3664"/>
<path d="M10.3944 1.78272C10.1992 1.4364 9.90648 1.15517 9.53294 0.942867C9.14539 0.725521 8.6947 0.57566 8.16925 0.485358C7.64063 0.39914 7.02324 0.356873 6.31498 0.351109L3.03547 0.35327C2.69467 0.356872 2.36075 0.599916 2.28203 0.897717L0.0705905 9.63747C-0.0054929 9.93647 0.207434 10.1836 0.546904 10.1836H2.11797C2.45771 10.1836 2.79427 9.94295 2.87062 9.63747L3.41192 7.51659C3.4843 7.21999 3.82008 6.97454 4.1606 6.97454H4.60971C6.53108 6.97286 8.02131 6.6155 9.09229 5.9003C10.1617 5.18654 10.6966 4.2403 10.694 3.07023C10.6966 2.55628 10.5986 2.12615 10.3944 1.78272ZM7.00211 4.63825C6.52843 4.9531 5.87195 5.11089 5.01971 5.11089H4.63454C4.29507 5.11089 4.08082 4.86616 4.15558 4.56548L4.62846 2.71286C4.70058 2.41434 5.03926 2.16674 5.37873 2.16962L5.89282 2.16673C6.4933 2.16673 6.9498 2.26016 7.25783 2.44604C7.56137 2.62689 7.71565 2.91244 7.71037 3.29646C7.71935 3.87477 7.47816 4.32243 7.00211 4.63825Z" fill="#1C3664"/>
<path d="M38.9199 1.81567C38.7242 1.46936 38.4286 1.19053 38.0548 0.973422C37.6714 0.756795 37.216 0.605733 36.6887 0.517593C36.1672 0.434497 35.5472 0.386945 34.8408 0.385504L31.5538 0.386945C31.2154 0.392229 30.8834 0.633833 30.8052 0.931394L28.5953 9.67378C28.5147 9.97086 28.7345 10.2185 29.0669 10.2168L30.644 10.2141C30.9785 10.2168 31.3193 9.97086 31.3982 9.67378L31.9314 7.55219C32.0061 7.25487 32.3461 7.00582 32.6861 7.01014H33.1344C35.0582 7.01014 36.5497 6.65086 37.6178 5.93566C38.6832 5.21685 39.2195 4.27397 39.2195 3.10126C39.2161 2.58923 39.1202 2.1579 38.9199 1.81567ZM35.5289 4.67504C35.0582 4.98629 34.3975 5.1424 33.5473 5.1424H33.1564C32.8182 5.146 32.5997 4.89743 32.68 4.59939L33.1513 2.7439C33.2216 2.45042 33.5648 2.20065 33.8982 2.20305L34.4146 2.20065C35.0175 2.20305 35.4684 2.29479 35.7799 2.47708C36.0861 2.66152 36.2346 2.94756 36.2369 3.32869C36.2383 3.90965 36.0018 4.35659 35.5289 4.67504Z" fill="#336699"/>
<path d="M15.1878 8.39403C14.9929 8.5057 14.7871 8.60081 14.5713 8.68246C14.2812 8.78837 14.0049 8.84457 13.7512 8.84457C13.3618 8.84457 13.0609 8.79414 12.8578 8.68726C12.6549 8.5852 12.5479 8.4082 12.5513 8.15458C12.5513 7.86279 12.6264 7.63511 12.7799 7.45739C12.9349 7.28592 13.164 7.14782 13.4493 7.04527C13.7338 6.95738 14.0838 6.88629 14.4854 6.83465C14.8436 6.79358 15.5527 6.71961 15.643 6.71841C15.7328 6.71817 15.7933 6.6723 15.7529 6.89181C15.7355 6.98716 15.5308 7.75087 15.437 8.09767C15.4087 8.20214 15.2565 8.35368 15.1878 8.39403ZM17.9675 3.02952C17.371 2.72692 16.4382 2.57417 15.1614 2.57417C14.5298 2.57417 13.8955 2.61981 13.2586 2.70987C12.7904 2.77447 12.7434 2.78552 12.4528 2.84292C11.8552 2.96156 11.7633 3.5048 11.7633 3.5048L11.5715 4.22241C11.4629 4.68088 11.7506 4.6619 11.8782 4.62636C12.1384 4.55479 12.2806 4.48394 12.8126 4.37395C13.3204 4.26948 13.8585 4.19119 14.2867 4.19383C14.916 4.19383 15.3936 4.25627 15.7115 4.37683C16.0298 4.50292 16.1864 4.7181 16.1864 5.02503C16.1886 5.09804 16.1901 5.16721 16.1619 5.22701C16.1352 5.28368 16.0845 5.33772 15.9342 5.35597C15.0378 5.40521 14.394 5.47942 13.617 5.58221C12.8517 5.68019 12.1823 5.84807 11.6222 6.0803C11.0255 6.32095 10.5795 6.64348 10.2723 7.05128C9.97165 7.461 9.82133 7.95741 9.8208 8.54245C9.8208 9.09482 10.0395 9.54584 10.4617 9.89552C10.8897 10.2409 11.4455 10.4121 12.1186 10.4121C12.5395 10.4095 12.8684 10.3814 13.1051 10.3283C13.3383 10.2743 13.5933 10.1986 13.8611 10.0927C14.063 10.0163 14.2793 9.90537 14.5086 9.76703C14.7374 9.62822 14.897 9.52951 15.1015 9.40823L15.1078 9.41952L15.0505 9.64911C15.0499 9.65128 15.0468 9.65272 15.0468 9.65536L15.0492 9.65896C14.9836 9.93659 15.1662 10.1667 15.4681 10.1933L15.4718 10.1986H15.4983L15.4991 10.2003C15.6998 10.2003 16.3875 10.1993 16.7079 10.1986H16.9325C16.9475 10.1986 16.9497 10.194 16.9544 10.1912C17.2632 10.1559 17.5575 9.92818 17.6278 9.65536L18.7751 5.15304C18.801 5.04737 18.8222 4.92512 18.8338 4.78463C18.8491 4.64173 18.8657 4.52525 18.8612 4.44096C18.8639 3.80332 18.5622 3.33237 17.9675 3.02952Z" fill="#1C3664"/>
<path d="M51.9142 0.4562H50.5085C50.5077 0.4562 50.5069 0.45644 50.5064 0.45644L50.5056 0.4562C50.1839 0.4562 49.8573 0.680271 49.7662 0.965343C49.7625 0.976871 49.7561 0.987919 49.7532 0.999928C49.7532 0.999928 49.7197 1.13898 49.6616 1.37938L47.7307 9.33596C47.686 9.51584 47.6562 9.63304 47.6472 9.66354L47.6509 9.66787C47.5841 9.94597 47.7679 10.176 48.0699 10.2017L48.0739 10.207H49.5329C49.8526 10.207 50.177 9.98512 50.271 9.70365C50.2755 9.68996 50.2827 9.67723 50.2861 9.66354L52.3924 0.999447L52.3892 0.998486C52.4608 0.702126 52.2508 0.4562 51.9142 0.4562Z" fill="#336699"/>
<path d="M54.5759 2.2199C54.5281 2.23143 54.4758 2.24103 54.4185 2.24848C54.3614 2.25568 54.3101 2.25977 54.266 2.25977C54.1091 2.25977 53.9908 2.22134 53.9097 2.14521C53.8283 2.06884 53.7879 1.94635 53.7879 1.778V1.03902H53.6138V0.842088H53.7879V0.442698H54.0449V0.842088H54.5759V1.03902H54.0449V1.67233C54.0449 1.7451 54.0473 1.80226 54.0505 1.84332C54.0544 1.88463 54.0671 1.92282 54.089 1.95836C54.1088 1.99174 54.1363 2.01576 54.1717 2.03113C54.2071 2.04674 54.2607 2.05443 54.3329 2.05443C54.3746 2.05443 54.4185 2.04866 54.4644 2.03738C54.5096 2.02633 54.5426 2.01696 54.5627 2.00952H54.5759V2.2199Z" fill="#336699"/>
<path d="M57.119 2.23242H56.862V1.44085C56.862 1.38129 56.8588 1.32341 56.8527 1.26793C56.8466 1.21221 56.8337 1.16802 56.8149 1.13464C56.7938 1.0991 56.764 1.07196 56.7246 1.05395C56.6852 1.03569 56.629 1.02657 56.555 1.02657C56.4826 1.02657 56.411 1.0429 56.3386 1.0758C56.2665 1.10846 56.1946 1.15001 56.1225 1.20068C56.1252 1.2199 56.1273 1.24199 56.1291 1.26745C56.1312 1.29267 56.132 1.31764 56.132 1.34262V2.23242H55.875V1.44085C55.875 1.37937 55.8715 1.32125 55.8657 1.26601C55.8599 1.21077 55.847 1.16682 55.8282 1.13368C55.8068 1.0979 55.7767 1.07124 55.7373 1.05323C55.6982 1.03545 55.6417 1.02657 55.5677 1.02657C55.4975 1.02657 55.4275 1.04242 55.3564 1.07388C55.2856 1.10534 55.2153 1.14545 55.1448 1.19444V2.23242H54.8872V0.842363H55.1448V0.996547C55.2254 0.936026 55.3054 0.888714 55.3852 0.854611C55.4655 0.820988 55.5498 0.803697 55.6404 0.803697C55.7442 0.803697 55.8327 0.82363 55.9054 0.863257C55.9777 0.903364 56.0319 0.958361 56.0676 1.02897C56.1714 0.949235 56.2665 0.891596 56.3524 0.856532C56.438 0.821469 56.5296 0.803697 56.6274 0.803697C56.7954 0.803697 56.9193 0.850048 56.9991 0.94227C57.0789 1.03497 57.119 1.16418 57.119 1.33013V2.23242Z" fill="#336699"/>
</g>
<defs>
<clipPath id="clip0_2066_96596">
<rect width="57.1382" height="14" fill="white" transform="translate(0.611816)"/>
</clipPath>
</defs>
</svg>
