<svg width="58" height="14" viewBox="0 0 58 14" fill="none" xmlns="http://www.w3.org/2000/svg">
<g clip-path="url(#clip0_2809_69657)">
<path d="M43.7186 8.40379C43.5237 8.51547 43.3176 8.61105 43.1018 8.69247C42.8117 8.79886 42.5367 8.85458 42.2823 8.85458C41.8918 8.85458 41.5917 8.80438 41.3888 8.69703C41.1857 8.5952 41.0792 8.4182 41.0826 8.16483C41.0826 7.87231 41.1569 7.64536 41.3106 7.4674C41.4654 7.29616 41.6955 7.15831 41.9808 7.05552C42.2646 6.9681 42.6136 6.89605 43.0164 6.84442C43.3747 6.80335 44.0829 6.72914 44.1735 6.72866C44.2641 6.72794 44.3244 6.68255 44.284 6.90206C44.266 6.9974 44.0615 7.76064 43.9677 8.10767C43.9405 8.21166 43.7884 8.3632 43.7186 8.40379ZM46.4983 3.03953C45.9018 2.73692 44.9687 2.58394 43.6919 2.58394C43.0605 2.58394 42.426 2.63005 41.7893 2.71987C41.322 2.78495 41.2739 2.79576 40.9836 2.85316C40.3863 2.97132 40.2941 3.51505 40.2941 3.51505L40.1023 4.23217C39.9934 4.69088 40.2809 4.67191 40.409 4.63636C40.6697 4.5648 40.8111 4.49371 41.3431 4.38419C41.8517 4.27924 42.389 4.20071 42.8178 4.20383C43.4465 4.20383 43.9247 4.26651 44.2425 4.38708C44.5606 4.51316 44.718 4.72787 44.718 5.03503C44.7191 5.10804 44.7212 5.17697 44.6921 5.23725C44.666 5.29345 44.6158 5.34773 44.4654 5.36622C43.568 5.41473 42.924 5.48918 42.1483 5.59197C41.383 5.68996 40.7133 5.85783 40.1535 6.09031C39.5567 6.33095 39.1103 6.65301 38.8025 7.06104C38.5029 7.471 38.3524 7.96742 38.3516 8.55221C38.3516 9.10482 38.57 9.55561 38.9927 9.90553C39.4204 10.2509 39.9768 10.4219 40.6499 10.4219C41.0705 10.4192 41.3997 10.3916 41.6356 10.3381C41.8691 10.2845 42.1238 10.2084 42.3927 10.1025C42.5937 10.0261 42.8106 9.91561 43.0397 9.77704C43.269 9.63799 43.4278 9.53928 43.6314 9.418L43.6388 9.42952L43.5815 9.65936C43.5812 9.66152 43.5778 9.66272 43.5778 9.66488L43.5797 9.66921C43.5141 9.94611 43.6972 10.1764 43.9989 10.2036L44.0026 10.2084H44.0293L44.0303 10.2096C44.2306 10.2096 44.918 10.2093 45.2392 10.2084H45.4635C45.4783 10.2084 45.4799 10.2043 45.4857 10.2012C45.7937 10.1668 46.0891 9.93867 46.1586 9.66488L47.3059 5.16304C47.3323 5.05713 47.3532 4.93489 47.3656 4.79415C47.3799 4.65198 47.3968 4.53502 47.3918 4.45048C47.3944 3.81333 47.0932 3.34237 46.4983 3.03953Z" fill="#336699"/>
<path d="M26.7592 2.68192C26.4227 2.68192 25.9812 2.92953 25.7723 3.22877C25.7723 3.22877 23.5209 6.73754 23.2998 7.08818C23.1796 7.27671 23.0578 7.15687 23.0375 7.08674C23.0211 7.00148 22.3398 3.25183 22.3398 3.25183C22.2632 2.94994 21.9163 2.69081 21.4825 2.69201L20.0787 2.69393C19.7403 2.69393 19.5292 2.94034 19.6045 3.23814C19.6045 3.23814 20.6776 8.76763 20.8868 10.0681C20.9911 10.7874 20.876 10.9149 20.876 10.9149L19.4848 13.1201C19.2811 13.4191 19.3926 13.6641 19.7294 13.6641L21.3562 13.6629C21.6931 13.6629 22.1393 13.4191 22.3398 13.1196L28.5982 3.49703C28.5982 3.49703 29.1968 2.67496 28.6447 2.68192C28.2682 2.68673 26.7592 2.68192 26.7592 2.68192Z" fill="#1C3664"/>
<path d="M10.3939 1.78272C10.1987 1.4364 9.906 1.15517 9.53245 0.942867C9.1449 0.725521 8.69421 0.57566 8.16876 0.485358C7.64014 0.39914 7.02275 0.356873 6.31449 0.351109L3.03498 0.35327C2.69419 0.356872 2.36027 0.599916 2.28154 0.897717L0.0701022 9.63747C-0.00598118 9.93647 0.206946 10.1836 0.546415 10.1836H2.11749C2.45722 10.1836 2.79378 9.94295 2.87013 9.63747L3.41143 7.51659C3.48382 7.21999 3.81959 6.97454 4.16011 6.97454H4.60922C6.53059 6.97286 8.02082 6.6155 9.0918 5.9003C10.1612 5.18654 10.6962 4.2403 10.6935 3.07023C10.6962 2.55628 10.5981 2.12615 10.3939 1.78272ZM7.00162 4.63825C6.52795 4.9531 5.87146 5.11089 5.01922 5.11089H4.63405C4.29458 5.11089 4.08033 4.86616 4.15509 4.56548L4.62797 2.71286C4.70009 2.41434 5.03877 2.16674 5.37824 2.16962L5.89233 2.16673C6.49281 2.16673 6.94931 2.26016 7.25734 2.44604C7.56088 2.62689 7.71516 2.91244 7.70988 3.29646C7.71886 3.87477 7.47767 4.32243 7.00162 4.63825Z" fill="#1C3664"/>
<path d="M38.9194 1.81567C38.7237 1.46936 38.4281 1.19053 38.0543 0.973422C37.6709 0.756795 37.2155 0.605733 36.6882 0.517593C36.1667 0.434497 35.5467 0.386945 34.8403 0.385504L31.5534 0.386945C31.2149 0.392229 30.8829 0.633833 30.8047 0.931394L28.5948 9.67378C28.5142 9.97086 28.734 10.2185 29.0664 10.2168L30.6435 10.2141C30.978 10.2168 31.3188 9.97086 31.3978 9.67378L31.9309 7.55219C32.0056 7.25487 32.3456 7.00582 32.6856 7.01014H33.1339C35.0577 7.01014 36.5492 6.65086 37.6173 5.93566C38.6827 5.21685 39.219 4.27397 39.219 3.10126C39.2156 2.58923 39.1197 2.1579 38.9194 1.81567ZM35.5285 4.67504C35.0577 4.98629 34.397 5.1424 33.5468 5.1424H33.1559C32.8177 5.146 32.5992 4.89743 32.6795 4.59939L33.1508 2.7439C33.2211 2.45042 33.5643 2.20065 33.8977 2.20305L34.4141 2.20065C35.017 2.20305 35.468 2.29479 35.7794 2.47708C36.0856 2.66152 36.2341 2.94756 36.2365 3.32869C36.2378 3.90965 36.0013 4.35659 35.5285 4.67504Z" fill="#336699"/>
<path d="M15.1874 8.39403C14.9924 8.5057 14.7866 8.60081 14.5708 8.68246C14.2807 8.78837 14.0044 8.84457 13.7508 8.84457C13.3614 8.84457 13.0605 8.79414 12.8573 8.68726C12.6544 8.5852 12.5474 8.4082 12.5509 8.15458C12.5509 7.86279 12.6259 7.63511 12.7794 7.45739C12.9344 7.28592 13.1635 7.14782 13.4488 7.04527C13.7333 6.95738 14.0834 6.88629 14.4849 6.83465C14.8431 6.79358 15.5522 6.71961 15.6425 6.71841C15.7324 6.71817 15.7929 6.6723 15.7524 6.89181C15.735 6.98716 15.5303 7.75087 15.4365 8.09767C15.4082 8.20214 15.256 8.35368 15.1874 8.39403ZM17.967 3.02952C17.3705 2.72692 16.4377 2.57417 15.1609 2.57417C14.5293 2.57417 13.895 2.61981 13.2581 2.70987C12.7899 2.77447 12.7429 2.78552 12.4523 2.84292C11.8548 2.96156 11.7628 3.5048 11.7628 3.5048L11.571 4.22241C11.4624 4.68088 11.7501 4.6619 11.8777 4.62636C12.1379 4.55479 12.2801 4.48394 12.8121 4.37395C13.3199 4.26948 13.858 4.19119 14.2862 4.19383C14.9155 4.19383 15.3932 4.25627 15.711 4.37683C16.0293 4.50292 16.186 4.7181 16.186 5.02503C16.1881 5.09804 16.1897 5.16721 16.1614 5.22701C16.1347 5.28368 16.084 5.33772 15.9337 5.35597C15.0373 5.40521 14.3935 5.47942 13.6166 5.58221C12.8512 5.68019 12.1818 5.84807 11.6217 6.0803C11.025 6.32095 10.579 6.64348 10.2718 7.05128C9.97116 7.461 9.82084 7.95741 9.82031 8.54245C9.82031 9.09482 10.0391 9.54584 10.4612 9.89552C10.8892 10.2409 11.445 10.4121 12.1181 10.4121C12.539 10.4095 12.8679 10.3814 13.1046 10.3283C13.3378 10.2743 13.5928 10.1986 13.8607 10.0927C14.0625 10.0163 14.2789 9.90537 14.5082 9.76703C14.7369 9.62822 14.8965 9.52951 15.101 9.40823L15.1073 9.41952L15.05 9.64911C15.0495 9.65128 15.0463 9.65272 15.0463 9.65536L15.0487 9.65896C14.9832 9.93659 15.1657 10.1667 15.4677 10.1933L15.4714 10.1986H15.4978L15.4986 10.2003C15.6993 10.2003 16.387 10.1993 16.7074 10.1986H16.932C16.9471 10.1986 16.9492 10.194 16.9539 10.1912C17.2627 10.1559 17.557 9.92818 17.6273 9.65536L18.7746 5.15304C18.8005 5.04737 18.8217 4.92512 18.8333 4.78463C18.8486 4.64173 18.8653 4.52525 18.8608 4.44096C18.8634 3.80332 18.5617 3.33237 17.967 3.02952Z" fill="#1C3664"/>
<path d="M51.9137 0.4562H50.508C50.5072 0.4562 50.5065 0.45644 50.5059 0.45644L50.5051 0.4562C50.1834 0.4562 49.8568 0.680271 49.7657 0.965343C49.762 0.976871 49.7557 0.987919 49.7528 0.999928C49.7528 0.999928 49.7192 1.13898 49.6611 1.37938L47.7302 9.33596C47.6856 9.51584 47.6557 9.63304 47.6467 9.66354L47.6504 9.66787C47.5836 9.94597 47.7674 10.176 48.0694 10.2017L48.0734 10.207H49.5324C49.8521 10.207 50.1765 9.98512 50.2705 9.70365C50.275 9.68996 50.2822 9.67723 50.2856 9.66354L52.3919 0.999447L52.3887 0.998486C52.4603 0.702126 52.2503 0.4562 51.9137 0.4562Z" fill="#336699"/>
<path d="M54.5754 2.2199C54.5276 2.23143 54.4753 2.24103 54.418 2.24848C54.3609 2.25568 54.3097 2.25977 54.2655 2.25977C54.1086 2.25977 53.9903 2.22134 53.9092 2.14521C53.8278 2.06884 53.7874 1.94635 53.7874 1.778V1.03902H53.6133V0.842088H53.7874V0.442698H54.0444V0.842088H54.5754V1.03902H54.0444V1.67233C54.0444 1.7451 54.0468 1.80226 54.05 1.84332C54.0539 1.88463 54.0666 1.92282 54.0885 1.95836C54.1084 1.99174 54.1358 2.01576 54.1712 2.03113C54.2066 2.04674 54.2603 2.05443 54.3324 2.05443C54.3741 2.05443 54.418 2.04866 54.4639 2.03738C54.5091 2.02633 54.5421 2.01696 54.5622 2.00952H54.5754V2.2199Z" fill="#336699"/>
<path d="M57.1185 2.23242H56.8615V1.44085C56.8615 1.38129 56.8583 1.32341 56.8522 1.26793C56.8462 1.21221 56.8332 1.16802 56.8145 1.13464C56.7933 1.0991 56.7635 1.07196 56.7241 1.05395C56.6847 1.03569 56.6285 1.02657 56.5545 1.02657C56.4821 1.02657 56.4105 1.0429 56.3381 1.0758C56.266 1.10846 56.1942 1.15001 56.122 1.20068C56.1247 1.2199 56.1268 1.24199 56.1286 1.26745C56.1308 1.29267 56.1315 1.31764 56.1315 1.34262V2.23242H55.8745V1.44085C55.8745 1.37937 55.8711 1.32125 55.8652 1.26601C55.8594 1.21077 55.8465 1.16682 55.8277 1.13368C55.8063 1.0979 55.7762 1.07124 55.7369 1.05323C55.6978 1.03545 55.6412 1.02657 55.5673 1.02657C55.497 1.02657 55.427 1.04242 55.3559 1.07388C55.2851 1.10534 55.2148 1.14545 55.1443 1.19444V2.23242H54.8867V0.842363H55.1443V0.996547C55.2249 0.936026 55.3049 0.888714 55.3847 0.854611C55.465 0.820988 55.5493 0.803697 55.6399 0.803697C55.7437 0.803697 55.8322 0.82363 55.9049 0.863257C55.9773 0.903364 56.0314 0.958361 56.0671 1.02897C56.1709 0.949235 56.266 0.891596 56.3519 0.856532C56.4375 0.821469 56.5291 0.803697 56.6269 0.803697C56.7949 0.803697 56.9188 0.850048 56.9986 0.94227C57.0784 1.03497 57.1185 1.16418 57.1185 1.33013V2.23242Z" fill="#336699"/>
</g>
<defs>
<clipPath id="clip0_2809_69657">
<rect width="57.1382" height="14" fill="white" transform="translate(0.611328)"/>
</clipPath>
</defs>
</svg>
