<svg width="175" height="56" viewBox="0 0 175 56" fill="none" xmlns="http://www.w3.org/2000/svg">
<path d="M169.531 54.9404H5.46875C2.46094 54.9404 0 52.4795 0 49.4717V5.72168C0 2.71387 2.46094 0.25293 5.46875 0.25293H169.531C172.539 0.25293 175 2.71387 175 5.72168V49.4717C175 52.4795 172.539 54.9404 169.531 54.9404Z" fill="black"/>
<path fill-rule="evenodd" clip-rule="evenodd" d="M13.3979 27.0498V12.6943C13.3979 11.874 14.0815 11.1904 14.7651 11.1904C15.4487 11.1904 15.7222 11.3271 16.1323 11.6006L42.519 26.0928C43.0659 26.3662 43.3393 26.7764 43.3393 27.1865C43.3393 27.5967 43.0659 28.0068 42.519 28.2803L16.1323 42.7725C15.8589 42.9092 15.4487 43.1826 14.7651 43.1826C14.0815 43.1826 13.3979 42.499 13.3979 41.6787V27.0498Z" fill="url(#paint0_linear_2948_58836)"/>
<path fill-rule="evenodd" clip-rule="evenodd" d="M30.4888 27.1865L14.4927 11.1904C14.6294 11.1904 14.6294 11.1904 14.7661 11.1904C15.4497 11.1904 15.7231 11.3271 16.1333 11.6006L35.5474 22.2646L30.4888 27.1865Z" fill="url(#paint1_linear_2948_58836)"/>
<path fill-rule="evenodd" clip-rule="evenodd" d="M35.4106 31.9717L30.4888 27.0498L35.5474 21.9912L42.52 25.8193C43.0669 26.0928 43.3403 26.5029 43.3403 26.9131C43.3403 27.3232 43.0669 27.7334 42.52 28.0068L35.4106 31.9717Z" fill="url(#paint2_linear_2948_58836)"/>
<path fill-rule="evenodd" clip-rule="evenodd" d="M14.6284 42.9082L30.4878 27.0488L35.4097 31.9707L16.1323 42.4981C15.7222 42.7715 15.4487 42.9082 14.6284 42.9082C14.7651 42.9082 14.7651 42.9082 14.6284 42.9082Z" fill="url(#paint3_linear_2948_58836)"/>
<path fill-rule="evenodd" clip-rule="evenodd" d="M97.2066 46.6006C96.523 46.0537 95.9761 45.0967 95.7027 44.5498L97.8902 43.5928C98.0269 43.8662 98.3004 44.2764 98.5738 44.6865C99.1207 45.2334 99.941 45.7803 100.761 45.7803C101.582 45.7803 102.539 45.3701 103.085 44.6865C103.496 44.0029 103.769 43.3193 103.769 42.3623V41.542C102.128 43.5928 98.7105 43.3193 96.7964 41.1318C94.7456 38.9443 94.7456 35.2529 96.7964 33.0654C98.8472 31.0146 101.855 30.7412 103.632 32.6553V31.6982H105.957V41.9521C105.957 44.5498 105 46.0537 103.769 47.0107C102.949 47.6943 101.718 47.9678 100.625 47.9678C99.3941 47.8311 98.1636 47.4209 97.2066 46.6006ZM154.492 47.1475L156.816 41.6787L152.714 32.2451H155.039L157.91 38.9443L160.781 32.2451H163.105L156.816 47.1475H154.492ZM143.418 41.9521C142.734 41.2686 142.461 40.3115 142.461 39.3545C142.461 38.5342 142.734 37.7139 143.281 37.167C144.238 36.21 145.605 35.7998 147.109 35.7998C148.066 35.7998 148.886 35.9365 149.57 36.3467C149.57 34.7061 148.203 34.0225 147.109 34.0225C146.152 34.0225 145.195 34.5693 144.785 35.5264L142.734 34.7061C143.144 33.749 144.238 31.9717 146.972 31.9717C148.339 31.9717 149.707 32.3818 150.527 33.3389C151.347 34.2959 151.621 35.3896 151.621 36.8936V42.6357H149.296V41.6787C149.023 42.0889 148.476 42.3623 148.066 42.6357C147.519 42.9092 146.835 43.0459 146.152 43.0459C145.332 42.9092 144.101 42.6357 143.418 41.9521ZM70.5464 37.0303C70.5464 34.2959 72.5972 31.2881 76.2886 31.2881C79.8433 31.2881 82.0308 34.2959 82.0308 37.0303C82.0308 39.7646 79.98 42.7725 76.2886 42.7725C72.5972 42.7725 70.5464 39.7646 70.5464 37.0303ZM82.8511 37.0303C82.8511 34.2959 84.9019 31.2881 88.5933 31.2881C92.148 31.2881 94.3355 34.2959 94.3355 37.0303C94.3355 39.7646 92.2847 42.7725 88.5933 42.7725C85.0386 42.7725 82.8511 39.7646 82.8511 37.0303ZM55.0972 40.0381C51.6793 36.6201 51.816 31.0146 55.2339 27.46C57.0113 25.6826 59.1988 24.8623 61.523 24.8623C63.7105 24.8623 65.898 25.6826 67.5386 27.3232L65.898 29.1006C63.4371 26.6396 59.4722 26.7764 57.148 29.2373C54.6871 31.835 54.6871 35.7998 57.148 38.3975C59.6089 40.9951 63.7105 41.1318 66.1714 38.5342C66.9917 37.7139 67.2652 36.6201 67.4019 35.5264H61.6597V33.0654H69.7261C69.8628 33.6123 69.8629 34.2959 69.8629 34.9795C69.8629 37.0303 69.0425 39.0811 67.6753 40.4482C66.1714 41.9521 63.9839 42.7725 61.7964 42.7725C59.3355 42.6357 56.8746 41.8154 55.0972 40.0381ZM112.929 40.9951C110.878 38.8076 110.878 35.1162 112.929 32.792C114.98 30.6045 118.398 30.6045 120.312 32.792C120.996 33.4756 121.406 34.4326 121.816 35.3896L114.296 38.5342C114.707 39.4912 115.664 40.3115 117.031 40.3115C118.261 40.3115 119.082 39.9014 119.902 38.6709L121.953 40.0381C121.679 40.3115 121.406 40.585 121.269 40.8584C118.945 43.1826 114.98 43.1826 112.929 40.9951ZM127.148 42.6357V27.46H132.07C134.941 27.46 137.265 29.5107 137.265 31.9717C137.265 34.4326 135.214 36.4834 132.617 36.4834H129.609V42.499H127.148V42.6357ZM138.632 42.6357V27.46H140.957V42.6357H138.632ZM107.734 42.3623V25.4092H110.195V42.3623H107.734ZM149.433 38.124C148.886 37.7139 148.066 37.5771 147.246 37.5771C145.605 37.5771 144.648 38.3975 144.648 39.3545C144.648 40.3115 145.605 40.8584 146.562 40.8584C147.929 40.8584 149.433 39.7646 149.433 38.124ZM79.4332 37.0303C79.4332 35.3896 78.3394 33.6123 76.2886 33.6123C74.2378 33.6123 73.1441 35.3896 73.1441 37.0303C73.1441 38.6709 74.2378 40.4482 76.2886 40.4482C78.2027 40.4482 79.4332 38.6709 79.4332 37.0303ZM91.7379 37.0303C91.7379 35.3896 90.6441 33.6123 88.5933 33.6123C86.5425 33.6123 85.4488 35.3896 85.4488 37.0303C85.4488 38.6709 86.5425 40.4482 88.5933 40.4482C90.6441 40.4482 91.7379 38.6709 91.7379 37.0303ZM103.906 37.9873C103.906 37.8506 103.906 37.7139 104.043 37.5771C104.043 37.4404 104.043 37.167 104.043 37.0303C104.043 36.8936 104.043 36.6201 104.043 36.4834V36.3467C104.043 36.21 103.906 35.9365 103.906 35.7998C103.496 34.4326 102.265 33.4756 101.035 33.4756C99.3941 33.4756 98.0269 35.1162 98.0269 36.8936C98.0269 38.8076 99.3941 40.3115 101.171 40.3115C102.265 40.4482 103.359 39.4912 103.906 37.9873ZM113.886 36.7568L118.945 34.5693C118.398 33.6123 117.578 33.3389 116.894 33.3389C114.843 33.4756 113.613 35.6631 113.886 36.7568ZM134.804 32.1084C134.804 30.7412 133.711 29.7842 132.207 29.7842H129.472V34.5693H132.343C133.71 34.5693 134.804 33.4756 134.804 32.1084Z" fill="white"/>
<path fill-rule="evenodd" clip-rule="evenodd" d="M156.269 44.4125H156.132V44.2754H156.269H156.132V44.4125H156.269Z" fill="white"/>
<path fill-rule="evenodd" clip-rule="evenodd" d="M156.543 44.4125C156.543 44.2754 156.543 44.2754 156.543 44.4125C156.406 44.2754 156.406 44.2754 156.543 44.4125C156.406 44.4125 156.406 44.4125 156.543 44.4125ZM156.543 44.2754C156.543 44.4125 156.543 44.4125 156.543 44.2754C156.406 44.4125 156.543 44.4125 156.543 44.2754C156.543 44.2754 156.406 44.2754 156.543 44.2754Z" fill="white"/>
<path fill-rule="evenodd" clip-rule="evenodd" d="M156.68 44.2754H156.542H156.68V44.4125V44.2754Z" fill="white"/>
<path d="M53.1831 14.0615C53.1831 11.6006 54.9605 10.0967 57.148 10.0967C58.6519 10.0967 59.6089 10.7803 60.2925 11.7373L59.1987 12.4209C58.7886 11.874 58.105 11.4639 57.148 11.4639C55.6441 11.4639 54.5503 12.5576 54.5503 14.1982C54.5503 15.8389 55.6441 16.9326 57.148 16.9326C57.9683 16.9326 58.6519 16.5225 58.9253 16.249V15.0186H56.7378V13.7881H60.4292V16.6592C59.7456 17.4795 58.6519 18.0264 57.2847 18.0264C54.9604 18.0264 53.1831 16.3857 53.1831 14.0615Z" fill="white"/>
<path d="M62.0708 17.8887V10.2324H67.2661V11.4629H63.3013V13.377H67.1294V14.6074H63.3013V16.7949H67.2661V18.0254L62.0708 17.8887Z" fill="white"/>
<path d="M71.0933 17.8887V11.4629H68.769V10.2324H74.7847V11.4629H72.4604V17.8887H71.0933Z" fill="white"/>
<path d="M79.4331 17.8887V10.2324H80.8003V17.8887H79.4331Z" fill="white"/>
<path d="M84.4927 17.8887V11.4629H82.1685V10.2324H88.1841V11.4629H85.8599V17.8887H84.4927Z" fill="white"/>
<path d="M92.5581 14.0615C92.5581 11.7373 94.1987 10.0967 96.523 10.0967C98.8472 10.0967 100.488 11.7373 100.488 14.0615C100.488 16.3857 98.8472 18.0264 96.523 18.0264C94.1987 18.0264 92.5581 16.249 92.5581 14.0615ZM98.9839 14.0615C98.9839 12.4209 98.0269 11.3271 96.3862 11.3271C94.8823 11.3271 93.7886 12.5576 93.7886 14.0615C93.7886 15.7022 94.7456 16.7959 96.3862 16.7959C98.0269 16.7959 98.9839 15.5654 98.9839 14.0615Z" fill="white"/>
<path d="M107.324 17.8887L103.359 12.4199V17.8887H101.992V10.2324H103.359L107.324 15.5645V10.2324H108.691V17.8887H107.324Z" fill="white"/>
<defs>
<linearGradient id="paint0_linear_2948_58836" x1="22.2401" y1="9.24027" x2="29.8939" y2="40.6731" gradientUnits="userSpaceOnUse">
<stop stop-color="#006884"/>
<stop offset="1" stop-color="#8AD1D0"/>
</linearGradient>
<linearGradient id="paint1_linear_2948_58836" x1="12.9077" y1="13.7113" x2="33.7655" y2="24.9871" gradientUnits="userSpaceOnUse">
<stop stop-color="#24BBB6"/>
<stop offset="1" stop-color="#DBE692"/>
</linearGradient>
<linearGradient id="paint2_linear_2948_58836" x1="36.9069" y1="32.546" x2="36.9069" y2="21.6791" gradientUnits="userSpaceOnUse">
<stop stop-color="#FCC072"/>
<stop offset="1" stop-color="#F58A5B"/>
</linearGradient>
<linearGradient id="paint3_linear_2948_58836" x1="16.9454" y1="45.7371" x2="33.4223" y2="28.9682" gradientUnits="userSpaceOnUse">
<stop stop-color="#712B8F"/>
<stop offset="1" stop-color="#EA1D27"/>
</linearGradient>
</defs>
</svg>
