<svg width="20" height="16" viewBox="0 0 20 16" fill="none" xmlns="http://www.w3.org/2000/svg">
<g clip-path="url(#clip0_2942_9233)">
<path d="M20.0004 0.5H0V15.5003H20.0004V0.5Z" fill="#000066"/>
<path d="M0 0.5V2.17708L17.7644 15.5003H20.0004V13.8233L2.23604 0.50005H0L0 0.5ZM20.0004 0.5V2.17703L2.23604 15.5003H0V13.8232L17.7644 0.5H20.0004Z" fill="white"/>
<path d="M8.3335 0.5V15.5003H11.6669V0.5H8.3335ZM0 5.5001V10.5002H20.0004V5.5001H0Z" fill="white"/>
<path d="M0 6.50012V9.50018H20.0004V6.50012H0ZM9.00018 0.5V15.5003H11.0002V0.5H9.00018Z" fill="#CC0000"/>
<path d="M0 15.5003L6.6668 10.5002H8.1575L1.4907 15.5003H0H0ZM0 0.5L6.6668 5.5001H5.1761L0 1.61807V0.5L0 0.5ZM11.8429 5.5001L18.5097 0.5H20.0004L13.3336 5.5001H11.8429ZM20.0004 15.5003L13.3336 10.5002H14.8243L20.0004 14.3823V15.5003Z" fill="#CC0000"/>
</g>
<defs>
<clipPath id="clip0_2942_9233">
<rect width="20" height="15" fill="white" transform="translate(0 0.5)"/>
</clipPath>
</defs>
</svg>
