<svg width="183" height="166" viewBox="0 0 183 166" fill="none" xmlns="http://www.w3.org/2000/svg">
<path d="M42.7216 164.876H145.09C147.903 164.883 150.615 163.82 152.683 161.9C161.306 153.867 168.205 144.145 172.955 133.331C177.705 122.517 180.206 110.839 180.303 99.0169C180.745 50.9447 141.901 11.3901 94.1152 11.2766C46.3021 11.1631 7.50689 50.1222 7.50689 98.1971C7.49324 110.163 9.94226 122.001 14.6997 132.968C19.4572 143.934 26.4201 153.791 35.15 161.917C37.2128 163.829 39.9172 164.886 42.7216 164.876Z" fill="#DBFFCC"/>
<path d="M139.829 66.8461C152.694 66.8461 163.123 56.4167 163.123 43.5515C163.123 30.6862 152.694 20.2568 139.829 20.2568C126.964 20.2568 116.534 30.6862 116.534 43.5515C116.534 56.4167 126.964 66.8461 139.829 66.8461Z" fill="#2FA500"/>
<path d="M143.414 3.37741C143.414 1.51212 141.902 0 140.037 0C138.172 0 136.66 1.51212 136.66 3.37741V9.74624C136.66 11.6115 138.172 13.1236 140.037 13.1236C141.902 13.1236 143.414 11.6115 143.414 9.74624V3.37741Z" fill="#2FA500"/>
<path d="M143.414 74.8481C143.414 72.9828 141.902 71.4707 140.037 71.4707C138.172 71.4707 136.66 72.9828 136.66 74.8481V81.2169C136.66 83.0822 138.172 84.5943 140.037 84.5943C141.902 84.5943 143.414 83.0822 143.414 81.2169V74.8481Z" fill="#2FA500"/>
<path d="M178.956 45.6747C180.821 45.6747 182.333 44.1626 182.333 42.2973C182.333 40.432 180.821 38.9199 178.956 38.9199H172.587C170.722 38.9199 169.21 40.432 169.21 42.2973C169.21 44.1626 170.722 45.6747 172.587 45.6747H178.956Z" fill="#2FA500"/>
<path d="M107.486 45.6747C109.352 45.6747 110.864 44.1626 110.864 42.2973C110.864 40.432 109.352 38.9199 107.486 38.9199H101.118C99.2522 38.9199 97.7401 40.432 97.7401 42.2973C97.7401 44.1626 99.2522 45.6747 101.118 45.6747H107.486Z" fill="#2FA500"/>
<path d="M169.945 12.3882C170.259 12.7018 170.508 13.0741 170.677 13.4839C170.847 13.8937 170.935 14.3328 170.935 14.7764C170.935 15.2199 170.847 15.6591 170.677 16.0689C170.508 16.4786 170.259 16.8509 169.945 17.1646L165.442 21.668C164.808 22.3014 163.949 22.6572 163.054 22.6572C162.158 22.6572 161.299 22.3014 160.665 21.668C160.352 21.3544 160.103 20.9821 159.933 20.5723C159.764 20.1625 159.676 19.7233 159.676 19.2798C159.676 18.8363 159.764 18.3971 159.933 17.9873C160.103 17.5776 160.352 17.2053 160.665 16.8916L165.169 12.3882C165.483 12.0746 165.855 11.8258 166.265 11.6561C166.674 11.4863 167.114 11.399 167.557 11.399C168.001 11.399 168.44 11.4863 168.85 11.6561C169.259 11.8258 169.632 12.0746 169.945 12.3882Z" fill="#2FA500"/>
<path d="M119.408 62.9253C120.042 63.5587 120.397 64.4177 120.397 65.3135C120.397 66.2092 120.042 67.0683 119.408 67.7017L114.905 72.2051C114.271 72.8385 113.412 73.1943 112.517 73.1943C111.621 73.1943 110.762 72.8385 110.128 72.2051C109.495 71.5717 109.139 70.7127 109.139 69.8169C109.139 68.9212 109.495 68.0621 110.128 67.4287L114.632 62.9253C115.265 62.2919 116.124 61.9361 117.02 61.9361C117.916 61.9361 118.775 62.2919 119.408 62.9253L119.408 62.9253Z" fill="#2FA500"/>
<path d="M169.945 72.2056C169.312 72.8389 168.453 73.1948 167.557 73.1948C166.661 73.1948 165.802 72.839 165.169 72.2056L160.665 67.7021C160.032 67.0687 159.676 66.2097 159.676 65.3139C159.676 64.4182 160.032 63.5591 160.666 62.9257C160.979 62.6121 161.351 62.3633 161.761 62.1936C162.171 62.0239 162.61 61.9365 163.054 61.9365C163.497 61.9365 163.936 62.0239 164.346 62.1936C164.756 62.3633 165.128 62.6121 165.442 62.9257L169.945 67.4292C170.259 67.7428 170.508 68.1151 170.677 68.5249C170.847 68.9347 170.935 69.3738 170.935 69.8174C170.935 70.2609 170.847 70.7001 170.677 71.1098C170.508 71.5196 170.259 71.8919 169.945 72.2056L169.945 72.2056Z" fill="#2FA500"/>
<path d="M119.408 21.6685C119.095 21.9821 118.722 22.2309 118.312 22.4006C117.903 22.5703 117.464 22.6577 117.02 22.6577C116.576 22.6577 116.137 22.5703 115.728 22.4006C115.318 22.2309 114.945 21.9821 114.632 21.6685L110.128 17.165C109.495 16.5316 109.139 15.6726 109.139 14.7768C109.139 13.8811 109.495 13.022 110.128 12.3886C110.442 12.075 110.814 11.8262 111.224 11.6565C111.634 11.4868 112.073 11.3994 112.517 11.3994C112.96 11.3994 113.399 11.4868 113.809 11.6565C114.219 11.8262 114.591 12.075 114.905 12.3886L119.408 16.8921C120.042 17.5255 120.397 18.3845 120.397 19.2803C120.397 20.176 120.042 21.0351 119.408 21.6685Z" fill="#2FA500"/>
<path d="M60.1548 58.6189L55.5615 59.2148L67.8335 153.802L72.4268 153.206L60.1548 58.6189Z" fill="white" stroke="#C2C2C2" stroke-width="2.4" stroke-linecap="round" stroke-linejoin="round"/>
<path d="M4.04266 78.7392L114.95 64.3497C115.291 64.3055 115.616 64.1785 115.896 63.9797C116.177 63.7809 116.405 63.5165 116.559 63.2094C116.714 62.9024 116.791 62.5622 116.784 62.2184C116.777 61.8746 116.686 61.5378 116.519 61.2374C110.442 50.3627 101.246 41.5582 90.1174 35.9598C78.9888 30.3614 66.4379 28.2259 54.084 29.8287C41.73 31.4315 30.1397 36.6992 20.8082 44.9522C11.4767 53.2052 4.83202 64.0648 1.73141 76.1303C1.64639 76.4635 1.64424 76.8124 1.72515 77.1465C1.80606 77.4807 1.96757 77.79 2.19557 78.0473C2.42357 78.3047 2.71112 78.5023 3.0331 78.6229C3.35508 78.7435 3.7017 78.7834 4.04266 78.7392Z" fill="white"/>
<path d="M35.9692 74.5971L83.0234 68.4922C76.5198 44.6562 64.9905 28.4138 54.084 29.8289C43.1774 31.2439 36.1749 49.8907 35.9692 74.5971Z" fill="white" stroke="#C2C2C2" stroke-width="2.4" stroke-linecap="round" stroke-linejoin="round"/>
<path d="M177.95 164.502C178.583 164.502 179.201 164.305 179.718 163.938C180.234 163.571 180.624 163.053 180.832 162.455C181.04 161.856 181.058 161.208 180.881 160.6C180.704 159.992 180.342 159.453 179.846 159.06C160.67 143.938 129.325 134.084 93.9065 134.084C58.4879 134.084 27.1432 143.938 7.96696 159.06C7.47049 159.453 7.10881 159.992 6.93212 160.6C6.75542 161.208 6.77248 161.856 6.98091 162.455C7.18934 163.053 7.57882 163.571 8.09529 163.938C8.61176 164.305 9.2296 164.502 9.86308 164.502L177.95 164.502Z" fill="white" stroke="#C2C2C2" stroke-width="2.4" stroke-linecap="round" stroke-linejoin="round"/>
<path d="M4.04266 78.7392L114.95 64.3497C115.291 64.3055 115.616 64.1785 115.896 63.9797C116.177 63.7809 116.405 63.5165 116.559 63.2094C116.714 62.9024 116.791 62.5622 116.784 62.2184C116.777 61.8746 116.686 61.5378 116.519 61.2374C110.442 50.3627 101.246 41.5582 90.1174 35.9598C78.9888 30.3614 66.4379 28.2259 54.084 29.8287C41.73 31.4315 30.1397 36.6992 20.8082 44.9522C11.4767 53.2052 4.83202 64.0649 1.73141 76.1303C1.64639 76.4635 1.64424 76.8124 1.72515 77.1465C1.80606 77.4807 1.96757 77.79 2.19557 78.0473C2.42357 78.3047 2.71112 78.5023 3.0331 78.6229C3.35508 78.7435 3.7017 78.7834 4.04266 78.7392V78.7392Z" stroke="#C2C2C2" stroke-width="2.4" stroke-linecap="round" stroke-linejoin="round"/>
</svg>
