<svg width="156" height="138" viewBox="0 0 156 138" fill="none" xmlns="http://www.w3.org/2000/svg">
<path d="M32.0318 137.944H123.966C126.493 137.951 128.929 136.996 130.785 135.271C138.53 128.058 144.726 119.326 148.991 109.614C153.257 99.9025 155.503 89.4152 155.59 78.7977C155.987 35.6252 121.103 0.102109 78.1872 0.000222211C35.2474 -0.101722 0.406301 34.8866 0.406301 78.0615C0.394042 88.8073 2.59344 99.4394 6.86602 109.288C11.1386 119.137 17.3918 127.989 25.2319 135.287C27.0845 137.004 29.5132 137.953 32.0318 137.944Z" fill="#DBFFCC"/>
<path d="M15.573 122.941L8.0383 32.3261C7.86858 30.285 8.51663 28.2601 9.8399 26.6968C11.1632 25.1335 13.0532 24.1599 15.0943 23.9902L119.995 15.2675C121.721 15.124 123.434 15.6721 124.756 16.7912C126.078 17.9104 126.901 19.5089 127.045 21.2351L133.497 98.8323C133.641 100.559 133.093 102.271 131.974 103.593C130.854 104.915 129.256 105.739 127.53 105.882L22.629 114.605C21.6184 114.689 20.6342 114.971 19.7327 115.436C18.8311 115.9 18.0299 116.537 17.3746 117.311C16.7194 118.085 16.2231 118.981 15.914 119.947C15.6049 120.913 15.489 121.93 15.573 122.941Z" fill="white" stroke="#C2C2C2" stroke-width="2.42188" stroke-linecap="round" stroke-linejoin="round"/>
<path d="M23.4375 38.4758L108.015 8.59768C108.819 8.31357 109.673 8.19637 110.524 8.25321C111.375 8.31006 112.205 8.53976 112.965 8.92831C113.724 9.31685 114.396 9.85607 114.94 10.5131C115.484 11.17 115.888 11.931 116.128 12.7495L121.287 30.3395L23.4375 38.4758Z" fill="#2FA500"/>
<path d="M8.01172 32.0095L15.5465 122.624C15.6305 123.635 15.9128 124.619 16.3772 125.52C16.8416 126.422 17.479 127.223 18.2531 127.879C19.0271 128.534 19.9227 129.03 20.8885 129.339C21.8544 129.648 22.8717 129.764 23.8824 129.68L141.408 119.908C143.134 119.764 144.732 118.941 145.852 117.619C146.971 116.297 147.519 114.584 147.375 112.858L140.923 35.2605C140.779 33.5343 139.956 31.9358 138.634 30.8166C137.312 29.6975 135.599 29.1494 133.873 29.293L16.3476 39.0654C15.3369 39.1494 14.3196 39.0336 13.3538 38.7245C12.3879 38.4154 11.4924 37.9191 10.7183 37.2639C9.94426 36.6087 9.30684 35.8074 8.84244 34.9059C8.37804 34.0043 8.09576 33.0202 8.01172 32.0095Z" fill="white" stroke="#C2C2C2" stroke-width="2.42188" stroke-linecap="round" stroke-linejoin="round"/>
<mask id="path-5-outside-1_1997_66538" maskUnits="userSpaceOnUse" x="10.7344" y="33.4655" width="133" height="93" fill="black">
<rect fill="white" x="10.7344" y="33.4655" width="133" height="93"/>
<path d="M138.938 116.283L134.132 116.682C133.973 116.695 133.816 116.644 133.694 116.54C133.573 116.437 133.497 116.29 133.484 116.131C133.471 115.972 133.521 115.815 133.624 115.693C133.726 115.571 133.873 115.495 134.032 115.481L138.838 115.081C138.997 115.069 139.154 115.12 139.275 115.223C139.397 115.326 139.472 115.473 139.485 115.632C139.499 115.791 139.448 115.949 139.346 116.07C139.243 116.192 139.096 116.269 138.938 116.283ZM126.122 117.348L121.317 117.748C121.158 117.76 121.001 117.709 120.879 117.606C120.758 117.503 120.682 117.356 120.669 117.197C120.656 117.038 120.706 116.88 120.809 116.758C120.911 116.637 121.058 116.56 121.217 116.546L126.023 116.147C126.102 116.14 126.181 116.148 126.257 116.172C126.333 116.196 126.403 116.235 126.464 116.286C126.524 116.337 126.574 116.4 126.611 116.47C126.647 116.541 126.669 116.618 126.676 116.697C126.683 116.776 126.673 116.856 126.649 116.932C126.625 117.007 126.586 117.077 126.534 117.138C126.483 117.198 126.42 117.248 126.349 117.284C126.279 117.32 126.202 117.342 126.122 117.348ZM113.307 118.414L108.502 118.813C108.343 118.826 108.185 118.775 108.064 118.672C107.943 118.568 107.867 118.421 107.854 118.262C107.841 118.103 107.891 117.946 107.994 117.824C108.096 117.702 108.243 117.626 108.402 117.612L113.207 117.212C113.366 117.2 113.524 117.251 113.645 117.354C113.766 117.457 113.842 117.605 113.855 117.763C113.868 117.922 113.818 118.08 113.715 118.201C113.613 118.323 113.466 118.4 113.307 118.414ZM100.492 119.479L95.6866 119.879C95.5277 119.891 95.3703 119.84 95.2489 119.737C95.1275 119.634 95.0519 119.487 95.0387 119.328C95.0255 119.169 95.0758 119.011 95.1784 118.89C95.2811 118.768 95.4279 118.691 95.5867 118.677L100.392 118.278C100.551 118.266 100.708 118.317 100.83 118.42C100.951 118.523 101.027 118.67 101.04 118.829C101.053 118.988 101.003 119.145 100.9 119.267C100.798 119.389 100.651 119.465 100.492 119.479ZM87.6771 120.545L82.8715 120.944C82.7923 120.951 82.7126 120.943 82.6369 120.919C82.5611 120.895 82.4908 120.856 82.4301 120.805C82.3693 120.754 82.3193 120.691 82.2828 120.621C82.2463 120.55 82.2242 120.473 82.2176 120.394C82.211 120.315 82.2201 120.235 82.2444 120.16C82.2688 120.084 82.3078 120.014 82.3593 119.953C82.4107 119.893 82.4737 119.843 82.5444 119.807C82.6152 119.771 82.6924 119.749 82.7716 119.743L87.5772 119.343C87.6563 119.336 87.7361 119.345 87.8118 119.369C87.8876 119.393 87.9578 119.432 88.0186 119.483C88.0794 119.534 88.1294 119.597 88.1659 119.667C88.2023 119.738 88.2245 119.815 88.2311 119.894C88.2377 119.973 88.2285 120.053 88.2042 120.128C88.1799 120.204 88.1409 120.274 88.0894 120.335C88.0379 120.395 87.975 120.445 87.9043 120.481C87.8335 120.517 87.7563 120.539 87.6771 120.545ZM74.862 121.61L70.0564 122.01C69.9772 122.017 69.8975 122.008 69.8218 121.984C69.746 121.961 69.6758 121.922 69.615 121.871C69.5542 121.82 69.5042 121.757 69.4677 121.686C69.4312 121.616 69.4091 121.539 69.4025 121.46C69.3959 121.38 69.405 121.301 69.4293 121.225C69.4537 121.15 69.4927 121.079 69.5442 121.019C69.5956 120.958 69.6586 120.909 69.7293 120.873C69.8001 120.837 69.8773 120.815 69.9565 120.809L74.7621 120.409C74.921 120.397 75.0784 120.448 75.1998 120.551C75.3212 120.654 75.3967 120.801 75.4099 120.96C75.4231 121.119 75.3729 121.276 75.2702 121.398C75.1676 121.52 75.0208 121.597 74.862 121.61ZM62.0469 122.676L57.2413 123.076C57.1622 123.083 57.0824 123.074 57.0067 123.05C56.9309 123.026 56.8607 122.988 56.7999 122.936C56.7392 122.885 56.6891 122.823 56.6526 122.752C56.6162 122.681 56.594 122.604 56.5874 122.525C56.5808 122.446 56.59 122.366 56.6143 122.291C56.6386 122.215 56.6776 122.145 56.7291 122.085C56.7806 122.024 56.8435 121.974 56.9142 121.938C56.985 121.902 57.0622 121.88 57.1414 121.874L61.947 121.475C62.1059 121.462 62.2633 121.513 62.3847 121.616C62.5061 121.72 62.5817 121.867 62.5949 122.026C62.6081 122.184 62.5578 122.342 62.4552 122.464C62.3525 122.586 62.2057 122.662 62.0469 122.676ZM49.2318 123.742L44.4262 124.141C44.3471 124.148 44.2673 124.14 44.1916 124.116C44.1158 124.092 44.0456 124.053 43.9848 124.002C43.924 123.951 43.874 123.888 43.8375 123.818C43.801 123.747 43.7789 123.67 43.7723 123.591C43.7657 123.512 43.7748 123.432 43.7992 123.356C43.8235 123.281 43.8625 123.211 43.914 123.15C43.9655 123.09 44.0284 123.04 44.0991 123.004C44.1699 122.968 44.2471 122.946 44.3263 122.94L49.132 122.54C49.2908 122.528 49.4482 122.579 49.5696 122.682C49.691 122.785 49.7665 122.932 49.7797 123.091C49.7929 123.25 49.7427 123.408 49.64 123.53C49.5374 123.651 49.3906 123.728 49.2318 123.742ZM36.4167 124.807L31.6111 125.207C31.532 125.214 31.4523 125.205 31.3766 125.181C31.3009 125.157 31.2307 125.119 31.1699 125.067C31.1092 125.016 31.0592 124.954 31.0228 124.883C30.9863 124.813 30.9642 124.735 30.9576 124.656C30.951 124.577 30.9601 124.498 30.9844 124.422C31.0087 124.346 31.0477 124.276 31.0991 124.216C31.1506 124.155 31.2135 124.106 31.2842 124.07C31.3549 124.033 31.432 124.012 31.5112 124.005L36.3169 123.606C36.4757 123.593 36.6331 123.644 36.7545 123.748C36.8759 123.851 36.9514 123.998 36.9646 124.157C36.9779 124.316 36.9276 124.473 36.825 124.595C36.7223 124.717 36.5755 124.793 36.4167 124.807ZM23.6017 125.873C21.862 126.025 20.1188 125.624 18.6204 124.727C18.4832 124.645 18.3841 124.512 18.3449 124.357C18.3058 124.202 18.3298 124.038 18.4116 123.901C18.4934 123.763 18.6264 123.664 18.7813 123.625C18.9363 123.585 19.1004 123.609 19.2378 123.691C20.5092 124.454 21.9886 124.798 23.4664 124.674C23.6275 124.66 23.7877 124.71 23.9126 124.813C24.0376 124.915 24.1174 125.063 24.1348 125.224C24.1433 125.301 24.1361 125.38 24.1137 125.455C24.0914 125.53 24.0543 125.6 24.0047 125.66C23.955 125.721 23.8938 125.771 23.8246 125.807C23.7554 125.844 23.6796 125.866 23.6016 125.873H23.6017ZM141.912 110.198C141.753 110.211 141.595 110.16 141.473 110.057C141.351 109.954 141.275 109.806 141.261 109.647L140.862 104.841C140.849 104.682 140.9 104.525 141.004 104.404C141.107 104.282 141.254 104.207 141.413 104.193C141.572 104.18 141.729 104.23 141.851 104.333C141.973 104.436 142.049 104.583 142.063 104.741L142.463 109.547C142.476 109.706 142.425 109.864 142.322 109.986C142.219 110.108 142.071 110.184 141.912 110.198ZM140.846 97.3825C140.687 97.3958 140.529 97.3452 140.407 97.2419C140.285 97.1386 140.209 96.9911 140.196 96.8318L139.796 92.0261C139.789 91.947 139.798 91.8673 139.822 91.7916C139.846 91.7159 139.885 91.6457 139.936 91.585C139.987 91.5243 140.049 91.4742 140.12 91.4378C140.191 91.4014 140.268 91.3792 140.347 91.3726C140.426 91.366 140.506 91.3752 140.581 91.3995C140.657 91.4237 140.727 91.4627 140.787 91.5142C140.848 91.5656 140.897 91.6285 140.934 91.6992C140.97 91.7699 140.991 91.8471 140.998 91.9262L141.397 96.7319C141.41 96.8912 141.36 97.0493 141.257 97.1713C141.153 97.2933 141.006 97.3693 140.846 97.3825ZM139.781 84.5674C139.622 84.5807 139.464 84.5301 139.341 84.4268C139.219 84.3235 139.143 84.176 139.13 84.0167L138.731 79.211C138.718 79.0521 138.769 78.8948 138.872 78.7734C138.976 78.652 139.123 78.5764 139.282 78.5632C139.44 78.55 139.598 78.6002 139.72 78.7029C139.842 78.8056 139.918 78.9524 139.932 79.1111L140.332 83.9168C140.345 84.0761 140.294 84.2341 140.191 84.3562C140.088 84.4782 139.94 84.5542 139.781 84.5674ZM138.715 71.7523C138.556 71.7656 138.398 71.715 138.276 71.6117C138.154 71.5084 138.078 71.3609 138.065 71.2016L137.665 66.3959C137.658 66.3168 137.667 66.2371 137.691 66.1614C137.715 66.0857 137.753 66.0155 137.804 65.9547C137.856 65.894 137.918 65.844 137.989 65.8075C138.059 65.7711 138.136 65.749 138.216 65.7424C138.295 65.7358 138.374 65.7449 138.45 65.7692C138.526 65.7935 138.596 65.8325 138.656 65.8839C138.717 65.9354 138.766 65.9983 138.802 66.069C138.838 66.1397 138.86 66.2169 138.866 66.296L139.266 71.1017C139.279 71.261 139.229 71.419 139.125 71.5411C139.022 71.6631 138.875 71.7391 138.715 71.7523V71.7523ZM137.65 58.9372C137.49 58.9505 137.332 58.8999 137.21 58.7966C137.088 58.6933 137.012 58.5458 136.999 58.3865L136.599 53.5808C136.592 53.5017 136.601 53.422 136.625 53.3462C136.649 53.2705 136.688 53.2002 136.739 53.1394C136.79 53.0787 136.853 53.0286 136.923 52.9921C136.994 52.9557 137.071 52.9335 137.15 52.9269C137.229 52.9203 137.309 52.9295 137.384 52.9538C137.46 52.9781 137.53 53.0171 137.591 53.0686C137.651 53.1201 137.701 53.183 137.737 53.2538C137.773 53.3245 137.795 53.4017 137.801 53.4809L138.2 58.2866C138.214 58.4459 138.163 58.6039 138.06 58.726C137.957 58.848 137.809 58.924 137.65 58.9372V58.9372ZM136.584 46.1221C136.425 46.1354 136.267 46.0848 136.145 45.9815C136.023 45.8782 135.947 45.7307 135.933 45.5714L135.534 40.7657C135.527 40.6866 135.536 40.6069 135.559 40.5311C135.583 40.4554 135.622 40.3851 135.673 40.3243C135.724 40.2636 135.787 40.2135 135.858 40.177C135.928 40.1406 136.005 40.1184 136.084 40.1118C136.163 40.1053 136.243 40.1144 136.319 40.1387C136.394 40.163 136.464 40.202 136.525 40.2535C136.585 40.305 136.635 40.3679 136.671 40.4387C136.707 40.5094 136.729 40.5866 136.735 40.6658L137.135 45.4715C137.148 45.6308 137.097 45.7889 136.994 45.9109C136.891 46.0329 136.743 46.1089 136.584 46.1221ZM132.363 35.6687L127.557 36.0683C127.478 36.0753 127.398 36.0666 127.322 36.0427C127.247 36.0188 127.176 35.9802 127.116 35.929C127.055 35.8779 127.005 35.8152 126.968 35.7447C126.932 35.6741 126.91 35.597 126.903 35.5179C126.897 35.4387 126.906 35.359 126.93 35.2834C126.954 35.2078 126.993 35.1377 127.045 35.0772C127.096 35.0167 127.159 34.967 127.23 34.9309C127.301 34.8948 127.378 34.8731 127.457 34.8669L132.263 34.4673C132.422 34.4549 132.579 34.5059 132.7 34.6091C132.822 34.7124 132.897 34.8595 132.911 35.0183C132.924 35.1771 132.874 35.3347 132.771 35.4566C132.668 35.5785 132.521 35.6548 132.363 35.6687ZM119.548 36.7343L114.742 37.1339C114.663 37.1409 114.583 37.1322 114.507 37.1083C114.432 37.0844 114.361 37.0458 114.301 36.9946C114.24 36.9435 114.19 36.8808 114.153 36.8102C114.117 36.7397 114.095 36.6626 114.088 36.5835C114.082 36.5043 114.091 36.4246 114.115 36.349C114.139 36.2734 114.178 36.2033 114.23 36.1428C114.281 36.0823 114.344 36.0326 114.415 35.9965C114.486 35.9604 114.563 35.9387 114.642 35.9325L119.448 35.5329C119.607 35.5205 119.764 35.5715 119.885 35.6747C120.007 35.778 120.082 35.9251 120.096 36.0839C120.109 36.2427 120.059 36.4003 119.956 36.5222C119.853 36.6441 119.706 36.7204 119.548 36.7343L119.548 36.7343ZM106.733 37.8L101.927 38.1995C101.848 38.2066 101.768 38.1979 101.692 38.1739C101.617 38.15 101.546 38.1114 101.485 38.0602C101.425 38.0091 101.375 37.9464 101.338 37.8759C101.302 37.8053 101.28 37.7282 101.273 37.6491C101.266 37.5699 101.276 37.4902 101.3 37.4146C101.324 37.339 101.363 37.2689 101.415 37.2084C101.466 37.1479 101.529 37.0982 101.6 37.0621C101.671 37.026 101.748 37.0043 101.827 36.9981L106.633 36.5985C106.712 36.5916 106.791 36.6003 106.867 36.6242C106.943 36.6482 107.013 36.6868 107.074 36.738C107.135 36.7891 107.185 36.8518 107.221 36.9223C107.257 36.9929 107.28 37.0699 107.286 37.1491C107.293 37.2282 107.284 37.3078 107.259 37.3834C107.235 37.459 107.196 37.5291 107.145 37.5895C107.093 37.65 107.03 37.6998 106.96 37.7359C106.889 37.772 106.812 37.7938 106.733 37.8ZM93.9174 38.8655L89.1118 39.2651C89.0327 39.2721 88.953 39.2633 88.8773 39.2394C88.8016 39.2155 88.7314 39.1768 88.6706 39.1257C88.6099 39.0745 88.5599 39.0119 88.5234 38.9413C88.487 38.8708 88.4648 38.7937 88.4583 38.7146C88.4517 38.6355 88.4608 38.5558 88.4851 38.4802C88.5094 38.4046 88.5484 38.3346 88.5998 38.2741C88.6513 38.2136 88.7141 38.1639 88.7849 38.1278C88.8556 38.0917 88.9327 38.0699 89.0119 38.0637L93.8176 37.6641C93.9764 37.6517 94.1338 37.7026 94.2552 37.8059C94.3766 37.9092 94.4521 38.0563 94.4654 38.2151C94.4786 38.3739 94.4283 38.5315 94.3257 38.6534C94.223 38.7753 94.0762 38.8516 93.9175 38.8655L93.9174 38.8655ZM81.1023 39.9311L76.2967 40.3307C76.1378 40.3432 75.9805 40.2922 75.8591 40.1889C75.7377 40.0857 75.6621 39.9386 75.6489 39.7797C75.6357 39.6209 75.6859 39.4633 75.7886 39.3414C75.8913 39.2195 76.038 39.1433 76.1968 39.1293L81.0024 38.7297C81.1613 38.7173 81.3187 38.7682 81.4401 38.8715C81.5615 38.9747 81.6371 39.1219 81.6503 39.2807C81.6635 39.4395 81.6133 39.5971 81.5106 39.719C81.4079 39.8409 81.2611 39.9172 81.1023 39.9311V39.9311ZM68.2873 40.9967L63.4816 41.3963C63.3227 41.4088 63.1654 41.3578 63.044 41.2545C62.9226 41.1513 62.847 41.0042 62.8338 40.8453C62.8206 40.6865 62.8708 40.5289 62.9735 40.407C63.0762 40.2852 63.2229 40.2089 63.3817 40.1949L68.1874 39.7953C68.2665 39.7883 68.3462 39.797 68.422 39.8209C68.4977 39.8448 68.568 39.8835 68.6287 39.9346C68.6895 39.9858 68.7396 40.0484 68.776 40.119C68.8125 40.1896 68.8347 40.2667 68.8412 40.3458C68.8478 40.425 68.8387 40.5046 68.8144 40.5803C68.7901 40.6559 68.751 40.726 68.6996 40.7864C68.6481 40.8469 68.5852 40.8966 68.5144 40.9327C68.4436 40.9688 68.3664 40.9906 68.2873 40.9967ZM55.4722 42.0623L50.6665 42.4619C50.5076 42.4744 50.3503 42.4234 50.2288 42.3202C50.1074 42.2169 50.0319 42.0698 50.0187 41.9109C50.0055 41.7521 50.0557 41.5945 50.1584 41.4726C50.2611 41.3507 50.4078 41.2745 50.5666 41.2605L55.3723 40.8609C55.4514 40.8539 55.5311 40.8626 55.6068 40.8865C55.6826 40.9104 55.7529 40.9491 55.8136 41.0002C55.8744 41.0514 55.9244 41.1141 55.9609 41.1846C55.9974 41.2552 56.0195 41.3323 56.0261 41.4114C56.0327 41.4906 56.0236 41.5702 55.9993 41.6459C55.9749 41.7215 55.9359 41.7915 55.8845 41.852C55.833 41.9125 55.77 41.9622 55.6993 41.9983C55.6285 42.0344 55.5513 42.0562 55.4722 42.0623ZM42.6571 43.1279L37.8514 43.5275C37.6926 43.5399 37.5353 43.4888 37.414 43.3856C37.2927 43.2823 37.2172 43.1353 37.204 42.9765C37.1908 42.8177 37.2409 42.6602 37.3435 42.5383C37.4461 42.4165 37.5928 42.3402 37.7515 42.3261L42.5572 41.9265C42.6363 41.9195 42.716 41.9282 42.7918 41.9521C42.8675 41.976 42.9378 42.0147 42.9985 42.0658C43.0593 42.117 43.1094 42.1796 43.1458 42.2502C43.1823 42.3208 43.2045 42.3978 43.211 42.477C43.2176 42.5562 43.2085 42.6358 43.1842 42.7115C43.1599 42.7871 43.1209 42.8571 43.0694 42.9176C43.0179 42.9781 42.955 43.0278 42.8842 43.0639C42.8134 43.1 42.7362 43.1218 42.6571 43.1279V43.1279ZM29.842 44.1935L25.0363 44.5931C24.9572 44.6001 24.8775 44.5914 24.8017 44.5675C24.726 44.5436 24.6557 44.505 24.5949 44.4538C24.5342 44.4026 24.4841 44.34 24.4477 44.2694C24.4112 44.1989 24.389 44.1218 24.3824 44.0426C24.3759 43.9635 24.385 43.8838 24.4093 43.8082C24.4336 43.7326 24.4726 43.6625 24.5241 43.602C24.5756 43.5415 24.6385 43.4918 24.7093 43.4557C24.78 43.4196 24.8572 43.3979 24.9364 43.3917L29.7421 42.9921C29.9009 42.9797 30.0583 43.0306 30.1797 43.1339C30.3011 43.2372 30.3767 43.3843 30.3899 43.5431C30.4031 43.7019 30.3528 43.8595 30.2502 43.9814C30.1475 44.1033 30.0007 44.1796 29.842 44.1935ZM17.0269 45.2591L16.864 45.2727C15.1825 45.4136 13.4981 45.0369 12.0369 44.193C11.8983 44.1134 11.797 43.9819 11.7553 43.8275C11.7135 43.6732 11.7349 43.5086 11.8145 43.37C11.8942 43.2313 12.0256 43.13 12.18 43.0883C12.3343 43.0466 12.4989 43.0679 12.6375 43.1476C13.8866 43.8693 15.3265 44.1917 16.7641 44.0712L16.927 44.0577C17.0061 44.0507 17.0858 44.0595 17.1615 44.0834C17.2372 44.1074 17.3074 44.146 17.3681 44.1972C17.4288 44.2483 17.4789 44.311 17.5153 44.3815C17.5517 44.452 17.5739 44.5291 17.5805 44.6082C17.5871 44.6873 17.5779 44.767 17.5536 44.8426C17.5294 44.9182 17.4904 44.9882 17.4389 45.0487C17.3875 45.1092 17.3246 45.1589 17.2539 45.195C17.1832 45.2311 17.106 45.2529 17.0269 45.2591H17.0269Z"/>
</mask>
<path d="M138.938 116.283L134.132 116.682C133.973 116.695 133.816 116.644 133.694 116.54C133.573 116.437 133.497 116.29 133.484 116.131C133.471 115.972 133.521 115.815 133.624 115.693C133.726 115.571 133.873 115.495 134.032 115.481L138.838 115.081C138.997 115.069 139.154 115.12 139.275 115.223C139.397 115.326 139.472 115.473 139.485 115.632C139.499 115.791 139.448 115.949 139.346 116.07C139.243 116.192 139.096 116.269 138.938 116.283ZM126.122 117.348L121.317 117.748C121.158 117.76 121.001 117.709 120.879 117.606C120.758 117.503 120.682 117.356 120.669 117.197C120.656 117.038 120.706 116.88 120.809 116.758C120.911 116.637 121.058 116.56 121.217 116.546L126.023 116.147C126.102 116.14 126.181 116.148 126.257 116.172C126.333 116.196 126.403 116.235 126.464 116.286C126.524 116.337 126.574 116.4 126.611 116.47C126.647 116.541 126.669 116.618 126.676 116.697C126.683 116.776 126.673 116.856 126.649 116.932C126.625 117.007 126.586 117.077 126.534 117.138C126.483 117.198 126.42 117.248 126.349 117.284C126.279 117.32 126.202 117.342 126.122 117.348ZM113.307 118.414L108.502 118.813C108.343 118.826 108.185 118.775 108.064 118.672C107.943 118.568 107.867 118.421 107.854 118.262C107.841 118.103 107.891 117.946 107.994 117.824C108.096 117.702 108.243 117.626 108.402 117.612L113.207 117.212C113.366 117.2 113.524 117.251 113.645 117.354C113.766 117.457 113.842 117.605 113.855 117.763C113.868 117.922 113.818 118.08 113.715 118.201C113.613 118.323 113.466 118.4 113.307 118.414ZM100.492 119.479L95.6866 119.879C95.5277 119.891 95.3703 119.84 95.2489 119.737C95.1275 119.634 95.0519 119.487 95.0387 119.328C95.0255 119.169 95.0758 119.011 95.1784 118.89C95.2811 118.768 95.4279 118.691 95.5867 118.677L100.392 118.278C100.551 118.266 100.708 118.317 100.83 118.42C100.951 118.523 101.027 118.67 101.04 118.829C101.053 118.988 101.003 119.145 100.9 119.267C100.798 119.389 100.651 119.465 100.492 119.479ZM87.6771 120.545L82.8715 120.944C82.7923 120.951 82.7126 120.943 82.6369 120.919C82.5611 120.895 82.4908 120.856 82.4301 120.805C82.3693 120.754 82.3193 120.691 82.2828 120.621C82.2463 120.55 82.2242 120.473 82.2176 120.394C82.211 120.315 82.2201 120.235 82.2444 120.16C82.2688 120.084 82.3078 120.014 82.3593 119.953C82.4107 119.893 82.4737 119.843 82.5444 119.807C82.6152 119.771 82.6924 119.749 82.7716 119.743L87.5772 119.343C87.6563 119.336 87.7361 119.345 87.8118 119.369C87.8876 119.393 87.9578 119.432 88.0186 119.483C88.0794 119.534 88.1294 119.597 88.1659 119.667C88.2023 119.738 88.2245 119.815 88.2311 119.894C88.2377 119.973 88.2285 120.053 88.2042 120.128C88.1799 120.204 88.1409 120.274 88.0894 120.335C88.0379 120.395 87.975 120.445 87.9043 120.481C87.8335 120.517 87.7563 120.539 87.6771 120.545ZM74.862 121.61L70.0564 122.01C69.9772 122.017 69.8975 122.008 69.8218 121.984C69.746 121.961 69.6758 121.922 69.615 121.871C69.5542 121.82 69.5042 121.757 69.4677 121.686C69.4312 121.616 69.4091 121.539 69.4025 121.46C69.3959 121.38 69.405 121.301 69.4293 121.225C69.4537 121.15 69.4927 121.079 69.5442 121.019C69.5956 120.958 69.6586 120.909 69.7293 120.873C69.8001 120.837 69.8773 120.815 69.9565 120.809L74.7621 120.409C74.921 120.397 75.0784 120.448 75.1998 120.551C75.3212 120.654 75.3967 120.801 75.4099 120.96C75.4231 121.119 75.3729 121.276 75.2702 121.398C75.1676 121.52 75.0208 121.597 74.862 121.61ZM62.0469 122.676L57.2413 123.076C57.1622 123.083 57.0824 123.074 57.0067 123.05C56.9309 123.026 56.8607 122.988 56.7999 122.936C56.7392 122.885 56.6891 122.823 56.6526 122.752C56.6162 122.681 56.594 122.604 56.5874 122.525C56.5808 122.446 56.59 122.366 56.6143 122.291C56.6386 122.215 56.6776 122.145 56.7291 122.085C56.7806 122.024 56.8435 121.974 56.9142 121.938C56.985 121.902 57.0622 121.88 57.1414 121.874L61.947 121.475C62.1059 121.462 62.2633 121.513 62.3847 121.616C62.5061 121.72 62.5817 121.867 62.5949 122.026C62.6081 122.184 62.5578 122.342 62.4552 122.464C62.3525 122.586 62.2057 122.662 62.0469 122.676ZM49.2318 123.742L44.4262 124.141C44.3471 124.148 44.2673 124.14 44.1916 124.116C44.1158 124.092 44.0456 124.053 43.9848 124.002C43.924 123.951 43.874 123.888 43.8375 123.818C43.801 123.747 43.7789 123.67 43.7723 123.591C43.7657 123.512 43.7748 123.432 43.7992 123.356C43.8235 123.281 43.8625 123.211 43.914 123.15C43.9655 123.09 44.0284 123.04 44.0991 123.004C44.1699 122.968 44.2471 122.946 44.3263 122.94L49.132 122.54C49.2908 122.528 49.4482 122.579 49.5696 122.682C49.691 122.785 49.7665 122.932 49.7797 123.091C49.7929 123.25 49.7427 123.408 49.64 123.53C49.5374 123.651 49.3906 123.728 49.2318 123.742ZM36.4167 124.807L31.6111 125.207C31.532 125.214 31.4523 125.205 31.3766 125.181C31.3009 125.157 31.2307 125.119 31.1699 125.067C31.1092 125.016 31.0592 124.954 31.0228 124.883C30.9863 124.813 30.9642 124.735 30.9576 124.656C30.951 124.577 30.9601 124.498 30.9844 124.422C31.0087 124.346 31.0477 124.276 31.0991 124.216C31.1506 124.155 31.2135 124.106 31.2842 124.07C31.3549 124.033 31.432 124.012 31.5112 124.005L36.3169 123.606C36.4757 123.593 36.6331 123.644 36.7545 123.748C36.8759 123.851 36.9514 123.998 36.9646 124.157C36.9779 124.316 36.9276 124.473 36.825 124.595C36.7223 124.717 36.5755 124.793 36.4167 124.807ZM23.6017 125.873C21.862 126.025 20.1188 125.624 18.6204 124.727C18.4832 124.645 18.3841 124.512 18.3449 124.357C18.3058 124.202 18.3298 124.038 18.4116 123.901C18.4934 123.763 18.6264 123.664 18.7813 123.625C18.9363 123.585 19.1004 123.609 19.2378 123.691C20.5092 124.454 21.9886 124.798 23.4664 124.674C23.6275 124.66 23.7877 124.71 23.9126 124.813C24.0376 124.915 24.1174 125.063 24.1348 125.224C24.1433 125.301 24.1361 125.38 24.1137 125.455C24.0914 125.53 24.0543 125.6 24.0047 125.66C23.955 125.721 23.8938 125.771 23.8246 125.807C23.7554 125.844 23.6796 125.866 23.6016 125.873H23.6017ZM141.912 110.198C141.753 110.211 141.595 110.16 141.473 110.057C141.351 109.954 141.275 109.806 141.261 109.647L140.862 104.841C140.849 104.682 140.9 104.525 141.004 104.404C141.107 104.282 141.254 104.207 141.413 104.193C141.572 104.18 141.729 104.23 141.851 104.333C141.973 104.436 142.049 104.583 142.063 104.741L142.463 109.547C142.476 109.706 142.425 109.864 142.322 109.986C142.219 110.108 142.071 110.184 141.912 110.198ZM140.846 97.3825C140.687 97.3958 140.529 97.3452 140.407 97.2419C140.285 97.1386 140.209 96.9911 140.196 96.8318L139.796 92.0261C139.789 91.947 139.798 91.8673 139.822 91.7916C139.846 91.7159 139.885 91.6457 139.936 91.585C139.987 91.5243 140.049 91.4742 140.12 91.4378C140.191 91.4014 140.268 91.3792 140.347 91.3726C140.426 91.366 140.506 91.3752 140.581 91.3995C140.657 91.4237 140.727 91.4627 140.787 91.5142C140.848 91.5656 140.897 91.6285 140.934 91.6992C140.97 91.7699 140.991 91.8471 140.998 91.9262L141.397 96.7319C141.41 96.8912 141.36 97.0493 141.257 97.1713C141.153 97.2933 141.006 97.3693 140.846 97.3825ZM139.781 84.5674C139.622 84.5807 139.464 84.5301 139.341 84.4268C139.219 84.3235 139.143 84.176 139.13 84.0167L138.731 79.211C138.718 79.0521 138.769 78.8948 138.872 78.7734C138.976 78.652 139.123 78.5764 139.282 78.5632C139.44 78.55 139.598 78.6002 139.72 78.7029C139.842 78.8056 139.918 78.9524 139.932 79.1111L140.332 83.9168C140.345 84.0761 140.294 84.2341 140.191 84.3562C140.088 84.4782 139.94 84.5542 139.781 84.5674ZM138.715 71.7523C138.556 71.7656 138.398 71.715 138.276 71.6117C138.154 71.5084 138.078 71.3609 138.065 71.2016L137.665 66.3959C137.658 66.3168 137.667 66.2371 137.691 66.1614C137.715 66.0857 137.753 66.0155 137.804 65.9547C137.856 65.894 137.918 65.844 137.989 65.8075C138.059 65.7711 138.136 65.749 138.216 65.7424C138.295 65.7358 138.374 65.7449 138.45 65.7692C138.526 65.7935 138.596 65.8325 138.656 65.8839C138.717 65.9354 138.766 65.9983 138.802 66.069C138.838 66.1397 138.86 66.2169 138.866 66.296L139.266 71.1017C139.279 71.261 139.229 71.419 139.125 71.5411C139.022 71.6631 138.875 71.7391 138.715 71.7523V71.7523ZM137.65 58.9372C137.49 58.9505 137.332 58.8999 137.21 58.7966C137.088 58.6933 137.012 58.5458 136.999 58.3865L136.599 53.5808C136.592 53.5017 136.601 53.422 136.625 53.3462C136.649 53.2705 136.688 53.2002 136.739 53.1394C136.79 53.0787 136.853 53.0286 136.923 52.9921C136.994 52.9557 137.071 52.9335 137.15 52.9269C137.229 52.9203 137.309 52.9295 137.384 52.9538C137.46 52.9781 137.53 53.0171 137.591 53.0686C137.651 53.1201 137.701 53.183 137.737 53.2538C137.773 53.3245 137.795 53.4017 137.801 53.4809L138.2 58.2866C138.214 58.4459 138.163 58.6039 138.06 58.726C137.957 58.848 137.809 58.924 137.65 58.9372V58.9372ZM136.584 46.1221C136.425 46.1354 136.267 46.0848 136.145 45.9815C136.023 45.8782 135.947 45.7307 135.933 45.5714L135.534 40.7657C135.527 40.6866 135.536 40.6069 135.559 40.5311C135.583 40.4554 135.622 40.3851 135.673 40.3243C135.724 40.2636 135.787 40.2135 135.858 40.177C135.928 40.1406 136.005 40.1184 136.084 40.1118C136.163 40.1053 136.243 40.1144 136.319 40.1387C136.394 40.163 136.464 40.202 136.525 40.2535C136.585 40.305 136.635 40.3679 136.671 40.4387C136.707 40.5094 136.729 40.5866 136.735 40.6658L137.135 45.4715C137.148 45.6308 137.097 45.7889 136.994 45.9109C136.891 46.0329 136.743 46.1089 136.584 46.1221ZM132.363 35.6687L127.557 36.0683C127.478 36.0753 127.398 36.0666 127.322 36.0427C127.247 36.0188 127.176 35.9802 127.116 35.929C127.055 35.8779 127.005 35.8152 126.968 35.7447C126.932 35.6741 126.91 35.597 126.903 35.5179C126.897 35.4387 126.906 35.359 126.93 35.2834C126.954 35.2078 126.993 35.1377 127.045 35.0772C127.096 35.0167 127.159 34.967 127.23 34.9309C127.301 34.8948 127.378 34.8731 127.457 34.8669L132.263 34.4673C132.422 34.4549 132.579 34.5059 132.7 34.6091C132.822 34.7124 132.897 34.8595 132.911 35.0183C132.924 35.1771 132.874 35.3347 132.771 35.4566C132.668 35.5785 132.521 35.6548 132.363 35.6687ZM119.548 36.7343L114.742 37.1339C114.663 37.1409 114.583 37.1322 114.507 37.1083C114.432 37.0844 114.361 37.0458 114.301 36.9946C114.24 36.9435 114.19 36.8808 114.153 36.8102C114.117 36.7397 114.095 36.6626 114.088 36.5835C114.082 36.5043 114.091 36.4246 114.115 36.349C114.139 36.2734 114.178 36.2033 114.23 36.1428C114.281 36.0823 114.344 36.0326 114.415 35.9965C114.486 35.9604 114.563 35.9387 114.642 35.9325L119.448 35.5329C119.607 35.5205 119.764 35.5715 119.885 35.6747C120.007 35.778 120.082 35.9251 120.096 36.0839C120.109 36.2427 120.059 36.4003 119.956 36.5222C119.853 36.6441 119.706 36.7204 119.548 36.7343L119.548 36.7343ZM106.733 37.8L101.927 38.1995C101.848 38.2066 101.768 38.1979 101.692 38.1739C101.617 38.15 101.546 38.1114 101.485 38.0602C101.425 38.0091 101.375 37.9464 101.338 37.8759C101.302 37.8053 101.28 37.7282 101.273 37.6491C101.266 37.5699 101.276 37.4902 101.3 37.4146C101.324 37.339 101.363 37.2689 101.415 37.2084C101.466 37.1479 101.529 37.0982 101.6 37.0621C101.671 37.026 101.748 37.0043 101.827 36.9981L106.633 36.5985C106.712 36.5916 106.791 36.6003 106.867 36.6242C106.943 36.6482 107.013 36.6868 107.074 36.738C107.135 36.7891 107.185 36.8518 107.221 36.9223C107.257 36.9929 107.28 37.0699 107.286 37.1491C107.293 37.2282 107.284 37.3078 107.259 37.3834C107.235 37.459 107.196 37.5291 107.145 37.5895C107.093 37.65 107.03 37.6998 106.96 37.7359C106.889 37.772 106.812 37.7938 106.733 37.8ZM93.9174 38.8655L89.1118 39.2651C89.0327 39.2721 88.953 39.2633 88.8773 39.2394C88.8016 39.2155 88.7314 39.1768 88.6706 39.1257C88.6099 39.0745 88.5599 39.0119 88.5234 38.9413C88.487 38.8708 88.4648 38.7937 88.4583 38.7146C88.4517 38.6355 88.4608 38.5558 88.4851 38.4802C88.5094 38.4046 88.5484 38.3346 88.5998 38.2741C88.6513 38.2136 88.7141 38.1639 88.7849 38.1278C88.8556 38.0917 88.9327 38.0699 89.0119 38.0637L93.8176 37.6641C93.9764 37.6517 94.1338 37.7026 94.2552 37.8059C94.3766 37.9092 94.4521 38.0563 94.4654 38.2151C94.4786 38.3739 94.4283 38.5315 94.3257 38.6534C94.223 38.7753 94.0762 38.8516 93.9175 38.8655L93.9174 38.8655ZM81.1023 39.9311L76.2967 40.3307C76.1378 40.3432 75.9805 40.2922 75.8591 40.1889C75.7377 40.0857 75.6621 39.9386 75.6489 39.7797C75.6357 39.6209 75.6859 39.4633 75.7886 39.3414C75.8913 39.2195 76.038 39.1433 76.1968 39.1293L81.0024 38.7297C81.1613 38.7173 81.3187 38.7682 81.4401 38.8715C81.5615 38.9747 81.6371 39.1219 81.6503 39.2807C81.6635 39.4395 81.6133 39.5971 81.5106 39.719C81.4079 39.8409 81.2611 39.9172 81.1023 39.9311V39.9311ZM68.2873 40.9967L63.4816 41.3963C63.3227 41.4088 63.1654 41.3578 63.044 41.2545C62.9226 41.1513 62.847 41.0042 62.8338 40.8453C62.8206 40.6865 62.8708 40.5289 62.9735 40.407C63.0762 40.2852 63.2229 40.2089 63.3817 40.1949L68.1874 39.7953C68.2665 39.7883 68.3462 39.797 68.422 39.8209C68.4977 39.8448 68.568 39.8835 68.6287 39.9346C68.6895 39.9858 68.7396 40.0484 68.776 40.119C68.8125 40.1896 68.8347 40.2667 68.8412 40.3458C68.8478 40.425 68.8387 40.5046 68.8144 40.5803C68.7901 40.6559 68.751 40.726 68.6996 40.7864C68.6481 40.8469 68.5852 40.8966 68.5144 40.9327C68.4436 40.9688 68.3664 40.9906 68.2873 40.9967ZM55.4722 42.0623L50.6665 42.4619C50.5076 42.4744 50.3503 42.4234 50.2288 42.3202C50.1074 42.2169 50.0319 42.0698 50.0187 41.9109C50.0055 41.7521 50.0557 41.5945 50.1584 41.4726C50.2611 41.3507 50.4078 41.2745 50.5666 41.2605L55.3723 40.8609C55.4514 40.8539 55.5311 40.8626 55.6068 40.8865C55.6826 40.9104 55.7529 40.9491 55.8136 41.0002C55.8744 41.0514 55.9244 41.1141 55.9609 41.1846C55.9974 41.2552 56.0195 41.3323 56.0261 41.4114C56.0327 41.4906 56.0236 41.5702 55.9993 41.6459C55.9749 41.7215 55.9359 41.7915 55.8845 41.852C55.833 41.9125 55.77 41.9622 55.6993 41.9983C55.6285 42.0344 55.5513 42.0562 55.4722 42.0623ZM42.6571 43.1279L37.8514 43.5275C37.6926 43.5399 37.5353 43.4888 37.414 43.3856C37.2927 43.2823 37.2172 43.1353 37.204 42.9765C37.1908 42.8177 37.2409 42.6602 37.3435 42.5383C37.4461 42.4165 37.5928 42.3402 37.7515 42.3261L42.5572 41.9265C42.6363 41.9195 42.716 41.9282 42.7918 41.9521C42.8675 41.976 42.9378 42.0147 42.9985 42.0658C43.0593 42.117 43.1094 42.1796 43.1458 42.2502C43.1823 42.3208 43.2045 42.3978 43.211 42.477C43.2176 42.5562 43.2085 42.6358 43.1842 42.7115C43.1599 42.7871 43.1209 42.8571 43.0694 42.9176C43.0179 42.9781 42.955 43.0278 42.8842 43.0639C42.8134 43.1 42.7362 43.1218 42.6571 43.1279V43.1279ZM29.842 44.1935L25.0363 44.5931C24.9572 44.6001 24.8775 44.5914 24.8017 44.5675C24.726 44.5436 24.6557 44.505 24.5949 44.4538C24.5342 44.4026 24.4841 44.34 24.4477 44.2694C24.4112 44.1989 24.389 44.1218 24.3824 44.0426C24.3759 43.9635 24.385 43.8838 24.4093 43.8082C24.4336 43.7326 24.4726 43.6625 24.5241 43.602C24.5756 43.5415 24.6385 43.4918 24.7093 43.4557C24.78 43.4196 24.8572 43.3979 24.9364 43.3917L29.7421 42.9921C29.9009 42.9797 30.0583 43.0306 30.1797 43.1339C30.3011 43.2372 30.3767 43.3843 30.3899 43.5431C30.4031 43.7019 30.3528 43.8595 30.2502 43.9814C30.1475 44.1033 30.0007 44.1796 29.842 44.1935ZM17.0269 45.2591L16.864 45.2727C15.1825 45.4136 13.4981 45.0369 12.0369 44.193C11.8983 44.1134 11.797 43.9819 11.7553 43.8275C11.7135 43.6732 11.7349 43.5086 11.8145 43.37C11.8942 43.2313 12.0256 43.13 12.18 43.0883C12.3343 43.0466 12.4989 43.0679 12.6375 43.1476C13.8866 43.8693 15.3265 44.1917 16.7641 44.0712L16.927 44.0577C17.0061 44.0507 17.0858 44.0595 17.1615 44.0834C17.2372 44.1074 17.3074 44.146 17.3681 44.1972C17.4288 44.2483 17.4789 44.311 17.5153 44.3815C17.5517 44.452 17.5739 44.5291 17.5805 44.6082C17.5871 44.6873 17.5779 44.767 17.5536 44.8426C17.5294 44.9182 17.4904 44.9882 17.4389 45.0487C17.3875 45.1092 17.3246 45.1589 17.2539 45.195C17.1832 45.2311 17.106 45.2529 17.0269 45.2591H17.0269Z" fill="#C2C2C2"/>
<path d="M138.938 116.283L134.132 116.682C133.973 116.695 133.816 116.644 133.694 116.54C133.573 116.437 133.497 116.29 133.484 116.131C133.471 115.972 133.521 115.815 133.624 115.693C133.726 115.571 133.873 115.495 134.032 115.481L138.838 115.081C138.997 115.069 139.154 115.12 139.275 115.223C139.397 115.326 139.472 115.473 139.485 115.632C139.499 115.791 139.448 115.949 139.346 116.07C139.243 116.192 139.096 116.269 138.938 116.283ZM126.122 117.348L121.317 117.748C121.158 117.76 121.001 117.709 120.879 117.606C120.758 117.503 120.682 117.356 120.669 117.197C120.656 117.038 120.706 116.88 120.809 116.758C120.911 116.637 121.058 116.56 121.217 116.546L126.023 116.147C126.102 116.14 126.181 116.148 126.257 116.172C126.333 116.196 126.403 116.235 126.464 116.286C126.524 116.337 126.574 116.4 126.611 116.47C126.647 116.541 126.669 116.618 126.676 116.697C126.683 116.776 126.673 116.856 126.649 116.932C126.625 117.007 126.586 117.077 126.534 117.138C126.483 117.198 126.42 117.248 126.349 117.284C126.279 117.32 126.202 117.342 126.122 117.348ZM113.307 118.414L108.502 118.813C108.343 118.826 108.185 118.775 108.064 118.672C107.943 118.568 107.867 118.421 107.854 118.262C107.841 118.103 107.891 117.946 107.994 117.824C108.096 117.702 108.243 117.626 108.402 117.612L113.207 117.212C113.366 117.2 113.524 117.251 113.645 117.354C113.766 117.457 113.842 117.605 113.855 117.763C113.868 117.922 113.818 118.08 113.715 118.201C113.613 118.323 113.466 118.4 113.307 118.414ZM100.492 119.479L95.6866 119.879C95.5277 119.891 95.3703 119.84 95.2489 119.737C95.1275 119.634 95.0519 119.487 95.0387 119.328C95.0255 119.169 95.0758 119.011 95.1784 118.89C95.2811 118.768 95.4279 118.691 95.5867 118.677L100.392 118.278C100.551 118.266 100.708 118.317 100.83 118.42C100.951 118.523 101.027 118.67 101.04 118.829C101.053 118.988 101.003 119.145 100.9 119.267C100.798 119.389 100.651 119.465 100.492 119.479ZM87.6771 120.545L82.8715 120.944C82.7923 120.951 82.7126 120.943 82.6369 120.919C82.5611 120.895 82.4908 120.856 82.4301 120.805C82.3693 120.754 82.3193 120.691 82.2828 120.621C82.2463 120.55 82.2242 120.473 82.2176 120.394C82.211 120.315 82.2201 120.235 82.2444 120.16C82.2688 120.084 82.3078 120.014 82.3593 119.953C82.4107 119.893 82.4737 119.843 82.5444 119.807C82.6152 119.771 82.6924 119.749 82.7716 119.743L87.5772 119.343C87.6563 119.336 87.7361 119.345 87.8118 119.369C87.8876 119.393 87.9578 119.432 88.0186 119.483C88.0794 119.534 88.1294 119.597 88.1659 119.667C88.2023 119.738 88.2245 119.815 88.2311 119.894C88.2377 119.973 88.2285 120.053 88.2042 120.128C88.1799 120.204 88.1409 120.274 88.0894 120.335C88.0379 120.395 87.975 120.445 87.9043 120.481C87.8335 120.517 87.7563 120.539 87.6771 120.545ZM74.862 121.61L70.0564 122.01C69.9772 122.017 69.8975 122.008 69.8218 121.984C69.746 121.961 69.6758 121.922 69.615 121.871C69.5542 121.82 69.5042 121.757 69.4677 121.686C69.4312 121.616 69.4091 121.539 69.4025 121.46C69.3959 121.38 69.405 121.301 69.4293 121.225C69.4537 121.15 69.4927 121.079 69.5442 121.019C69.5956 120.958 69.6586 120.909 69.7293 120.873C69.8001 120.837 69.8773 120.815 69.9565 120.809L74.7621 120.409C74.921 120.397 75.0784 120.448 75.1998 120.551C75.3212 120.654 75.3967 120.801 75.4099 120.96C75.4231 121.119 75.3729 121.276 75.2702 121.398C75.1676 121.52 75.0208 121.597 74.862 121.61ZM62.0469 122.676L57.2413 123.076C57.1622 123.083 57.0824 123.074 57.0067 123.05C56.9309 123.026 56.8607 122.988 56.7999 122.936C56.7392 122.885 56.6891 122.823 56.6526 122.752C56.6162 122.681 56.594 122.604 56.5874 122.525C56.5808 122.446 56.59 122.366 56.6143 122.291C56.6386 122.215 56.6776 122.145 56.7291 122.085C56.7806 122.024 56.8435 121.974 56.9142 121.938C56.985 121.902 57.0622 121.88 57.1414 121.874L61.947 121.475C62.1059 121.462 62.2633 121.513 62.3847 121.616C62.5061 121.72 62.5817 121.867 62.5949 122.026C62.6081 122.184 62.5578 122.342 62.4552 122.464C62.3525 122.586 62.2057 122.662 62.0469 122.676ZM49.2318 123.742L44.4262 124.141C44.3471 124.148 44.2673 124.14 44.1916 124.116C44.1158 124.092 44.0456 124.053 43.9848 124.002C43.924 123.951 43.874 123.888 43.8375 123.818C43.801 123.747 43.7789 123.67 43.7723 123.591C43.7657 123.512 43.7748 123.432 43.7992 123.356C43.8235 123.281 43.8625 123.211 43.914 123.15C43.9655 123.09 44.0284 123.04 44.0991 123.004C44.1699 122.968 44.2471 122.946 44.3263 122.94L49.132 122.54C49.2908 122.528 49.4482 122.579 49.5696 122.682C49.691 122.785 49.7665 122.932 49.7797 123.091C49.7929 123.25 49.7427 123.408 49.64 123.53C49.5374 123.651 49.3906 123.728 49.2318 123.742ZM36.4167 124.807L31.6111 125.207C31.532 125.214 31.4523 125.205 31.3766 125.181C31.3009 125.157 31.2307 125.119 31.1699 125.067C31.1092 125.016 31.0592 124.954 31.0228 124.883C30.9863 124.813 30.9642 124.735 30.9576 124.656C30.951 124.577 30.9601 124.498 30.9844 124.422C31.0087 124.346 31.0477 124.276 31.0991 124.216C31.1506 124.155 31.2135 124.106 31.2842 124.07C31.3549 124.033 31.432 124.012 31.5112 124.005L36.3169 123.606C36.4757 123.593 36.6331 123.644 36.7545 123.748C36.8759 123.851 36.9514 123.998 36.9646 124.157C36.9779 124.316 36.9276 124.473 36.825 124.595C36.7223 124.717 36.5755 124.793 36.4167 124.807ZM23.6017 125.873C21.862 126.025 20.1188 125.624 18.6204 124.727C18.4832 124.645 18.3841 124.512 18.3449 124.357C18.3058 124.202 18.3298 124.038 18.4116 123.901C18.4934 123.763 18.6264 123.664 18.7813 123.625C18.9363 123.585 19.1004 123.609 19.2378 123.691C20.5092 124.454 21.9886 124.798 23.4664 124.674C23.6275 124.66 23.7877 124.71 23.9126 124.813C24.0376 124.915 24.1174 125.063 24.1348 125.224C24.1433 125.301 24.1361 125.38 24.1137 125.455C24.0914 125.53 24.0543 125.6 24.0047 125.66C23.955 125.721 23.8938 125.771 23.8246 125.807C23.7554 125.844 23.6796 125.866 23.6016 125.873H23.6017ZM141.912 110.198C141.753 110.211 141.595 110.16 141.473 110.057C141.351 109.954 141.275 109.806 141.261 109.647L140.862 104.841C140.849 104.682 140.9 104.525 141.004 104.404C141.107 104.282 141.254 104.207 141.413 104.193C141.572 104.18 141.729 104.23 141.851 104.333C141.973 104.436 142.049 104.583 142.063 104.741L142.463 109.547C142.476 109.706 142.425 109.864 142.322 109.986C142.219 110.108 142.071 110.184 141.912 110.198ZM140.846 97.3825C140.687 97.3958 140.529 97.3452 140.407 97.2419C140.285 97.1386 140.209 96.9911 140.196 96.8318L139.796 92.0261C139.789 91.947 139.798 91.8673 139.822 91.7916C139.846 91.7159 139.885 91.6457 139.936 91.585C139.987 91.5243 140.049 91.4742 140.12 91.4378C140.191 91.4014 140.268 91.3792 140.347 91.3726C140.426 91.366 140.506 91.3752 140.581 91.3995C140.657 91.4237 140.727 91.4627 140.787 91.5142C140.848 91.5656 140.897 91.6285 140.934 91.6992C140.97 91.7699 140.991 91.8471 140.998 91.9262L141.397 96.7319C141.41 96.8912 141.36 97.0493 141.257 97.1713C141.153 97.2933 141.006 97.3693 140.846 97.3825ZM139.781 84.5674C139.622 84.5807 139.464 84.5301 139.341 84.4268C139.219 84.3235 139.143 84.176 139.13 84.0167L138.731 79.211C138.718 79.0521 138.769 78.8948 138.872 78.7734C138.976 78.652 139.123 78.5764 139.282 78.5632C139.44 78.55 139.598 78.6002 139.72 78.7029C139.842 78.8056 139.918 78.9524 139.932 79.1111L140.332 83.9168C140.345 84.0761 140.294 84.2341 140.191 84.3562C140.088 84.4782 139.94 84.5542 139.781 84.5674ZM138.715 71.7523C138.556 71.7656 138.398 71.715 138.276 71.6117C138.154 71.5084 138.078 71.3609 138.065 71.2016L137.665 66.3959C137.658 66.3168 137.667 66.2371 137.691 66.1614C137.715 66.0857 137.753 66.0155 137.804 65.9547C137.856 65.894 137.918 65.844 137.989 65.8075C138.059 65.7711 138.136 65.749 138.216 65.7424C138.295 65.7358 138.374 65.7449 138.45 65.7692C138.526 65.7935 138.596 65.8325 138.656 65.8839C138.717 65.9354 138.766 65.9983 138.802 66.069C138.838 66.1397 138.86 66.2169 138.866 66.296L139.266 71.1017C139.279 71.261 139.229 71.419 139.125 71.5411C139.022 71.6631 138.875 71.7391 138.715 71.7523V71.7523ZM137.65 58.9372C137.49 58.9505 137.332 58.8999 137.21 58.7966C137.088 58.6933 137.012 58.5458 136.999 58.3865L136.599 53.5808C136.592 53.5017 136.601 53.422 136.625 53.3462C136.649 53.2705 136.688 53.2002 136.739 53.1394C136.79 53.0787 136.853 53.0286 136.923 52.9921C136.994 52.9557 137.071 52.9335 137.15 52.9269C137.229 52.9203 137.309 52.9295 137.384 52.9538C137.46 52.9781 137.53 53.0171 137.591 53.0686C137.651 53.1201 137.701 53.183 137.737 53.2538C137.773 53.3245 137.795 53.4017 137.801 53.4809L138.2 58.2866C138.214 58.4459 138.163 58.6039 138.06 58.726C137.957 58.848 137.809 58.924 137.65 58.9372V58.9372ZM136.584 46.1221C136.425 46.1354 136.267 46.0848 136.145 45.9815C136.023 45.8782 135.947 45.7307 135.933 45.5714L135.534 40.7657C135.527 40.6866 135.536 40.6069 135.559 40.5311C135.583 40.4554 135.622 40.3851 135.673 40.3243C135.724 40.2636 135.787 40.2135 135.858 40.177C135.928 40.1406 136.005 40.1184 136.084 40.1118C136.163 40.1053 136.243 40.1144 136.319 40.1387C136.394 40.163 136.464 40.202 136.525 40.2535C136.585 40.305 136.635 40.3679 136.671 40.4387C136.707 40.5094 136.729 40.5866 136.735 40.6658L137.135 45.4715C137.148 45.6308 137.097 45.7889 136.994 45.9109C136.891 46.0329 136.743 46.1089 136.584 46.1221ZM132.363 35.6687L127.557 36.0683C127.478 36.0753 127.398 36.0666 127.322 36.0427C127.247 36.0188 127.176 35.9802 127.116 35.929C127.055 35.8779 127.005 35.8152 126.968 35.7447C126.932 35.6741 126.91 35.597 126.903 35.5179C126.897 35.4387 126.906 35.359 126.93 35.2834C126.954 35.2078 126.993 35.1377 127.045 35.0772C127.096 35.0167 127.159 34.967 127.23 34.9309C127.301 34.8948 127.378 34.8731 127.457 34.8669L132.263 34.4673C132.422 34.4549 132.579 34.5059 132.7 34.6091C132.822 34.7124 132.897 34.8595 132.911 35.0183C132.924 35.1771 132.874 35.3347 132.771 35.4566C132.668 35.5785 132.521 35.6548 132.363 35.6687ZM119.548 36.7343L114.742 37.1339C114.663 37.1409 114.583 37.1322 114.507 37.1083C114.432 37.0844 114.361 37.0458 114.301 36.9946C114.24 36.9435 114.19 36.8808 114.153 36.8102C114.117 36.7397 114.095 36.6626 114.088 36.5835C114.082 36.5043 114.091 36.4246 114.115 36.349C114.139 36.2734 114.178 36.2033 114.23 36.1428C114.281 36.0823 114.344 36.0326 114.415 35.9965C114.486 35.9604 114.563 35.9387 114.642 35.9325L119.448 35.5329C119.607 35.5205 119.764 35.5715 119.885 35.6747C120.007 35.778 120.082 35.9251 120.096 36.0839C120.109 36.2427 120.059 36.4003 119.956 36.5222C119.853 36.6441 119.706 36.7204 119.548 36.7343L119.548 36.7343ZM106.733 37.8L101.927 38.1995C101.848 38.2066 101.768 38.1979 101.692 38.1739C101.617 38.15 101.546 38.1114 101.485 38.0602C101.425 38.0091 101.375 37.9464 101.338 37.8759C101.302 37.8053 101.28 37.7282 101.273 37.6491C101.266 37.5699 101.276 37.4902 101.3 37.4146C101.324 37.339 101.363 37.2689 101.415 37.2084C101.466 37.1479 101.529 37.0982 101.6 37.0621C101.671 37.026 101.748 37.0043 101.827 36.9981L106.633 36.5985C106.712 36.5916 106.791 36.6003 106.867 36.6242C106.943 36.6482 107.013 36.6868 107.074 36.738C107.135 36.7891 107.185 36.8518 107.221 36.9223C107.257 36.9929 107.28 37.0699 107.286 37.1491C107.293 37.2282 107.284 37.3078 107.259 37.3834C107.235 37.459 107.196 37.5291 107.145 37.5895C107.093 37.65 107.03 37.6998 106.96 37.7359C106.889 37.772 106.812 37.7938 106.733 37.8ZM93.9174 38.8655L89.1118 39.2651C89.0327 39.2721 88.953 39.2633 88.8773 39.2394C88.8016 39.2155 88.7314 39.1768 88.6706 39.1257C88.6099 39.0745 88.5599 39.0119 88.5234 38.9413C88.487 38.8708 88.4648 38.7937 88.4583 38.7146C88.4517 38.6355 88.4608 38.5558 88.4851 38.4802C88.5094 38.4046 88.5484 38.3346 88.5998 38.2741C88.6513 38.2136 88.7141 38.1639 88.7849 38.1278C88.8556 38.0917 88.9327 38.0699 89.0119 38.0637L93.8176 37.6641C93.9764 37.6517 94.1338 37.7026 94.2552 37.8059C94.3766 37.9092 94.4521 38.0563 94.4654 38.2151C94.4786 38.3739 94.4283 38.5315 94.3257 38.6534C94.223 38.7753 94.0762 38.8516 93.9175 38.8655L93.9174 38.8655ZM81.1023 39.9311L76.2967 40.3307C76.1378 40.3432 75.9805 40.2922 75.8591 40.1889C75.7377 40.0857 75.6621 39.9386 75.6489 39.7797C75.6357 39.6209 75.6859 39.4633 75.7886 39.3414C75.8913 39.2195 76.038 39.1433 76.1968 39.1293L81.0024 38.7297C81.1613 38.7173 81.3187 38.7682 81.4401 38.8715C81.5615 38.9747 81.6371 39.1219 81.6503 39.2807C81.6635 39.4395 81.6133 39.5971 81.5106 39.719C81.4079 39.8409 81.2611 39.9172 81.1023 39.9311V39.9311ZM68.2873 40.9967L63.4816 41.3963C63.3227 41.4088 63.1654 41.3578 63.044 41.2545C62.9226 41.1513 62.847 41.0042 62.8338 40.8453C62.8206 40.6865 62.8708 40.5289 62.9735 40.407C63.0762 40.2852 63.2229 40.2089 63.3817 40.1949L68.1874 39.7953C68.2665 39.7883 68.3462 39.797 68.422 39.8209C68.4977 39.8448 68.568 39.8835 68.6287 39.9346C68.6895 39.9858 68.7396 40.0484 68.776 40.119C68.8125 40.1896 68.8347 40.2667 68.8412 40.3458C68.8478 40.425 68.8387 40.5046 68.8144 40.5803C68.7901 40.6559 68.751 40.726 68.6996 40.7864C68.6481 40.8469 68.5852 40.8966 68.5144 40.9327C68.4436 40.9688 68.3664 40.9906 68.2873 40.9967ZM55.4722 42.0623L50.6665 42.4619C50.5076 42.4744 50.3503 42.4234 50.2288 42.3202C50.1074 42.2169 50.0319 42.0698 50.0187 41.9109C50.0055 41.7521 50.0557 41.5945 50.1584 41.4726C50.2611 41.3507 50.4078 41.2745 50.5666 41.2605L55.3723 40.8609C55.4514 40.8539 55.5311 40.8626 55.6068 40.8865C55.6826 40.9104 55.7529 40.9491 55.8136 41.0002C55.8744 41.0514 55.9244 41.1141 55.9609 41.1846C55.9974 41.2552 56.0195 41.3323 56.0261 41.4114C56.0327 41.4906 56.0236 41.5702 55.9993 41.6459C55.9749 41.7215 55.9359 41.7915 55.8845 41.852C55.833 41.9125 55.77 41.9622 55.6993 41.9983C55.6285 42.0344 55.5513 42.0562 55.4722 42.0623ZM42.6571 43.1279L37.8514 43.5275C37.6926 43.5399 37.5353 43.4888 37.414 43.3856C37.2927 43.2823 37.2172 43.1353 37.204 42.9765C37.1908 42.8177 37.2409 42.6602 37.3435 42.5383C37.4461 42.4165 37.5928 42.3402 37.7515 42.3261L42.5572 41.9265C42.6363 41.9195 42.716 41.9282 42.7918 41.9521C42.8675 41.976 42.9378 42.0147 42.9985 42.0658C43.0593 42.117 43.1094 42.1796 43.1458 42.2502C43.1823 42.3208 43.2045 42.3978 43.211 42.477C43.2176 42.5562 43.2085 42.6358 43.1842 42.7115C43.1599 42.7871 43.1209 42.8571 43.0694 42.9176C43.0179 42.9781 42.955 43.0278 42.8842 43.0639C42.8134 43.1 42.7362 43.1218 42.6571 43.1279V43.1279ZM29.842 44.1935L25.0363 44.5931C24.9572 44.6001 24.8775 44.5914 24.8017 44.5675C24.726 44.5436 24.6557 44.505 24.5949 44.4538C24.5342 44.4026 24.4841 44.34 24.4477 44.2694C24.4112 44.1989 24.389 44.1218 24.3824 44.0426C24.3759 43.9635 24.385 43.8838 24.4093 43.8082C24.4336 43.7326 24.4726 43.6625 24.5241 43.602C24.5756 43.5415 24.6385 43.4918 24.7093 43.4557C24.78 43.4196 24.8572 43.3979 24.9364 43.3917L29.7421 42.9921C29.9009 42.9797 30.0583 43.0306 30.1797 43.1339C30.3011 43.2372 30.3767 43.3843 30.3899 43.5431C30.4031 43.7019 30.3528 43.8595 30.2502 43.9814C30.1475 44.1033 30.0007 44.1796 29.842 44.1935ZM17.0269 45.2591L16.864 45.2727C15.1825 45.4136 13.4981 45.0369 12.0369 44.193C11.8983 44.1134 11.797 43.9819 11.7553 43.8275C11.7135 43.6732 11.7349 43.5086 11.8145 43.37C11.8942 43.2313 12.0256 43.13 12.18 43.0883C12.3343 43.0466 12.4989 43.0679 12.6375 43.1476C13.8866 43.8693 15.3265 44.1917 16.7641 44.0712L16.927 44.0577C17.0061 44.0507 17.0858 44.0595 17.1615 44.0834C17.2372 44.1074 17.3074 44.146 17.3681 44.1972C17.4288 44.2483 17.4789 44.311 17.5153 44.3815C17.5517 44.452 17.5739 44.5291 17.5805 44.6082C17.5871 44.6873 17.5779 44.767 17.5536 44.8426C17.5294 44.9182 17.4904 44.9882 17.4389 45.0487C17.3875 45.1092 17.3246 45.1589 17.2539 45.195C17.1832 45.2311 17.106 45.2529 17.0269 45.2591H17.0269Z" stroke="#D4D9E3" stroke-width="0.807292" mask="url(#path-5-outside-1_1997_66538)"/>
<path d="M118.127 64.9179L144.29 62.7423C144.821 62.6982 145.348 62.8667 145.755 63.211C146.161 63.5552 146.415 64.0468 146.459 64.5777L148.21 85.6442C148.255 86.1752 148.086 86.7019 147.742 87.1085C147.398 87.5152 146.906 87.7684 146.375 87.8126L120.212 89.9881C116.887 90.2646 113.589 89.209 111.043 87.0537C108.496 84.8984 106.911 81.8198 106.634 78.4953L106.634 78.4953C106.358 75.1708 107.413 71.8726 109.569 69.3263C111.724 66.7801 114.802 65.1943 118.127 64.9179Z" fill="white" stroke="#C2C2C2" stroke-width="2.42188" stroke-linecap="round" stroke-linejoin="round"/>
<path d="M118.838 85.9411C123.511 85.9411 127.299 82.1531 127.299 77.4803C127.299 72.8075 123.511 69.0195 118.838 69.0195C114.165 69.0195 110.377 72.8075 110.377 77.4803C110.377 82.1531 114.165 85.9411 118.838 85.9411Z" fill="#2FA500"/>
</svg>
